<?xml version="1.0" encoding="utf-8" ?>
<svg baseProfile="full" height="100%" version="1.1" width="100%" xmlns="http://www.w3.org/2000/svg" xmlns:ev="http://www.w3.org/2001/xml-events" xmlns:xlink="http://www.w3.org/1999/xlink"><defs /><rect fill="rgb(255,255,255)" height="100%" width="100%" x="0" y="0" /><path d="M 775 1025 Q 850 1050 775 1075" fill="rgb(248,248,248)" stroke="rgb(0,0,0)" /><path d="M 300 400 Q 350 350 400 400 M 400 400 Q 450 350 475 375 M 475 375 Q 450 350 525 325 M 525 325 Q 550 250 600 300 M 600 300 Q 800 300 1000 300 M 1000 300 Q 1050 250 1075 325 M 1075 325 Q 1125 375 1175 425 M 1175 425 Q 1250 450 1200 500 M 1200 500 Q 1200 650 1200 800 M 1200 800 Q 1250 850 1175 875" fill="rgb(248,248,248)" stroke="rgb(0,0,0)" /><path d="M 1600 800 Q 1550 850 1525 825" fill="rgb(0,158,0)" stroke="rgb(0,0,0)" /><path d="M 475 1025 Q 550 1050 525 1075" fill="rgb(248,16,88)" stroke="rgb(0,0,0)" /><path d="M 1600 900 Q 1550 950 1525 875" fill="rgb(0,0,0)" stroke="rgb(0,0,0)" /><path d="M 300 700 Q 350 650 375 675 M 375 675 Q 350 650 400 600 M 400 600 Q 400 500 400 400" fill="rgb(0,0,0)" stroke="rgb(0,0,0)" /><path d="M 1375 1075 Q 1250 1200 1125 1325 M 1125 1325 Q 1150 1350 1100 1400" fill="rgb(192,192,192)" stroke="rgb(0,0,0)" /><path d="M 575 675 Q 550 675 525 675" fill="rgb(0,0,0)" stroke="rgb(0,0,0)" /><path d="M 525 425 Q 550 450 500 500 M 500 500 Q 550 550 500 600 M 500 600 Q 550 650 525 675" fill="rgb(0,0,0)" stroke="rgb(0,0,0)" /><path d="M 1175 875 Q 1150 875 1125 875" fill="rgb(0,0,0)" stroke="rgb(0,0,0)" /><path d="M 300 900 Q 250 950 200 900" fill="rgb(248,16,88)" stroke="rgb(0,0,0)" /><path d="M 1000 1400 Q 1050 1450 975 1475 M 975 1475 Q 950 1550 900 1500 M 900 1500 Q 750 1500 600 1500 M 600 1500 Q 550 1550 525 1475 M 525 1475 Q 450 1450 475 1425 M 475 1425 Q 400 1400 325 1375 M 325 1375 Q 275 1325 225 1275 M 225 1275 Q 200 1200 175 1125 M 175 1125 Q 150 1150 125 1075 M 125 1075 Q 50 1050 100 1000 M 100 1000 Q 100 800 100 600 M 100 600 Q 50 550 125 525 M 125 525 Q 150 450 175 475 M 175 475 Q 200 400 225 325 M 225 325 Q 275 275 325 225 M 325 225 Q 400 200 475 175 M 475 175 Q 450 150 525 125 M 525 125 Q 550 50 600 100 M 600 100 Q 750 100 900 100 M 900 100 Q 950 50 975 125 M 975 125 Q 1050 150 1000 200" fill="rgb(0,0,0)" stroke="rgb(0,0,0)" /><path d="M 500 1600 Q 450 1550 475 1525 M 475 1525 Q 400 1500 325 1475 M 325 1475 Q 225 1375 125 1275 M 125 1275 Q 100 1200 75 1125 M 75 1125 Q 50 1150 0 1100" fill="rgb(0,158,0)" stroke="rgb(0,0,0)" /><path d="M 1225 925 Q 1250 950 1225 975" fill="rgb(224,224,224)" stroke="rgb(0,0,0)" /><path d="M 525 425 Q 550 425 575 425" fill="rgb(0,0,0)" stroke="rgb(0,0,0)" /><path d="M 525 425 Q 550 350 575 425" fill="rgb(248,248,248)" stroke="rgb(0,0,0)" /><path d="M 575 1075 Q 550 1050 625 1025" fill="rgb(248,16,88)" stroke="rgb(0,0,0)" /><path d="M 575 1075 Q 550 1075 525 1075" fill="rgb(0,0,0)" stroke="rgb(0,0,0)" /><path d="M 525 975 Q 450 950 475 925 M 475 925 Q 450 925 425 925 M 425 925 Q 450 950 375 975" fill="rgb(248,16,88)" stroke="rgb(0,0,0)" /><path d="M 1600 1100 Q 1550 1150 1525 1125 M 1525 1125 Q 1500 1200 1475 1275 M 1475 1275 Q 1425 1325 1375 1375 M 1375 1375 Q 1300 1400 1225 1425 M 1225 1425 Q 1250 1450 1175 1475 M 1175 1475 Q 1100 1500 1025 1525 M 1025 1525 Q 1050 1550 1000 1600" fill="rgb(0,158,0)" stroke="rgb(0,0,0)" /><path d="M 675 925 Q 725 975 775 1025" fill="rgb(0,0,0)" stroke="rgb(0,0,0)" /><path d="M 1375 1025 Q 1350 1050 1325 975 M 1325 975 Q 1325 950 1325 925 M 1325 925 Q 1350 850 1400 900 M 1400 900 Q 1450 850 1475 925 M 1475 925 Q 1550 950 1500 1000 M 1500 1000 Q 1550 1050 1475 1075 M 1475 1075 Q 1450 1150 1425 1125 M 1425 1125 Q 1400 1200 1375 1275 M 1375 1275 Q 1300 1300 1225 1325 M 1225 1325 Q 1250 1350 1175 1375 M 1175 1375 Q 1150 1450 1100 1400 M 1100 1400 Q 850 1400 600 1400 M 600 1400 Q 550 1450 525 1375 M 525 1375 Q 500 1300 475 1225 M 475 1225 Q 400 1200 325 1175 M 325 1175 Q 275 1125 225 1075 M 225 1075 Q 150 1050 200 1000 M 200 1000 Q 200 800 200 600 M 200 600 Q 150 550 225 525 M 225 525 Q 250 450 300 500" fill="rgb(192,192,192)" stroke="rgb(0,0,0)" /><path d="M 1225 925 Q 1250 950 1225 975" fill="rgb(224,224,224)" stroke="rgb(0,0,0)" /><path d="M 325 975 Q 250 950 300 900 M 300 900 Q 300 650 300 400 M 300 400 Q 250 350 325 325 M 325 325 Q 400 300 475 275 M 475 275 Q 450 250 525 225 M 525 225 Q 550 150 600 200 M 600 200 Q 850 200 1100 200 M 1100 200 Q 1150 150 1175 225 M 1175 225 Q 1250 250 1200 300" fill="rgb(0,0,0)" stroke="rgb(0,0,0)" /><path d="M 1375 1025 Q 1375 1050 1375 1075" fill="rgb(0,0,0)" stroke="rgb(0,0,0)" /><path d="M 325 975 Q 350 950 375 975" fill="rgb(248,248,248)" stroke="rgb(0,0,0)" /><path d="M 1400 800 Q 1450 750 1475 775 M 1475 775 Q 1450 750 1500 700 M 1500 700 Q 1450 650 1475 625 M 1475 625 Q 1425 575 1375 525 M 1375 525 Q 1350 550 1300 500" fill="rgb(192,192,192)" stroke="rgb(0,0,0)" /><path d="M 625 925 Q 650 850 675 925" fill="rgb(248,248,248)" stroke="rgb(0,0,0)" /><path d="M 325 975 Q 350 950 375 975" fill="rgb(248,248,248)" stroke="rgb(0,0,0)" /><path d="M 675 1025 Q 650 1050 625 1025" fill="rgb(248,248,248)" stroke="rgb(0,0,0)" /><path d="M 775 1025 Q 850 1050 775 1075" fill="rgb(248,248,248)" stroke="rgb(0,0,0)" /><path d="M 625 925 Q 650 850 675 925" fill="rgb(248,248,248)" stroke="rgb(0,0,0)" /><path d="M 675 1025 Q 650 1050 625 1025" fill="rgb(248,248,248)" stroke="rgb(0,0,0)" /><path d="M 625 925 Q 650 950 575 975" fill="rgb(248,16,88)" stroke="rgb(0,0,0)" /><path d="M 575 1075 Q 550 1150 525 1075" fill="rgb(248,248,248)" stroke="rgb(0,0,0)" /><path d="M 1525 875 Q 1525 850 1525 825" fill="rgb(0,0,0)" stroke="rgb(0,0,0)" /><path d="M 1525 875 Q 1450 850 1525 825" fill="rgb(0,0,0)" stroke="rgb(0,0,0)" /><path d="M 0 500 Q 50 450 75 475 M 75 475 Q 100 400 125 325 M 125 325 Q 225 225 325 125 M 325 125 Q 400 100 475 75 M 475 75 Q 450 50 500 0" fill="rgb(0,158,0)" stroke="rgb(0,0,0)" /><path d="M 1225 925 Q 1250 850 1275 875 M 1275 875 Q 1250 850 1300 800 M 1300 800 Q 1250 750 1300 700 M 1300 700 Q 1250 650 1275 625 M 1275 625 Q 1250 650 1200 600" fill="rgb(248,248,248)" stroke="rgb(0,0,0)" /><path d="M 1200 500 Q 1150 550 1125 475 M 1125 475 Q 1050 450 1075 425 M 1075 425 Q 1050 450 1000 400 M 1000 400 Q 950 450 925 425 M 925 425 Q 875 475 825 525 M 825 525 Q 850 550 800 600 M 800 600 Q 850 650 825 675 M 825 675 Q 850 675 875 675 M 875 675 Q 900 600 925 525 M 925 525 Q 950 450 1000 500 M 1000 500 Q 1050 450 1075 525 M 1075 525 Q 1150 550 1100 600 M 1100 600 Q 1100 700 1100 800 M 1100 800 Q 1150 850 1125 875" fill="rgb(0,0,0)" stroke="rgb(0,0,0)" /><path d="M 575 675 Q 550 650 600 600 M 600 600 Q 550 550 600 500 M 600 500 Q 550 450 575 425" fill="rgb(0,0,0)" stroke="rgb(0,0,0)" /><path d="M 400 1100 Q 350 1050 425 1025" fill="rgb(248,16,88)" stroke="rgb(0,0,0)" /><path d="M 1375 1025 Q 1450 1050 1375 1075" fill="rgb(192,192,192)" stroke="rgb(0,0,0)" /><path d="M 1175 875 Q 1150 950 1125 875" fill="rgb(248,248,248)" stroke="rgb(0,0,0)" /><path d="M 575 675 Q 550 750 525 675" fill="rgb(248,248,248)" stroke="rgb(0,0,0)" /><path d="M 475 1025 Q 450 1025 425 1025" fill="rgb(0,0,0)" stroke="rgb(0,0,0)" /><path d="M 1400 900 Q 1400 800 1400 700 M 1400 700 Q 1350 650 1375 625 M 1375 625 Q 1350 650 1325 575 M 1325 575 Q 1250 550 1300 500 M 1300 500 Q 1250 450 1300 400 M 1300 400 Q 1250 350 1275 325 M 1275 325 Q 1200 300 1125 275 M 1125 275 Q 1050 250 1100 200" fill="rgb(224,224,224)" stroke="rgb(0,0,0)" /><path d="M 475 1025 Q 450 1050 425 1025" fill="rgb(248,248,248)" stroke="rgb(0,0,0)" /><path d="M 525 975 Q 550 950 575 975" fill="rgb(248,248,248)" stroke="rgb(0,0,0)" /><path d="M 200 1000 Q 250 950 275 1025 M 275 1025 Q 350 1050 325 1075 M 325 1075 Q 400 1100 475 1125 M 475 1125 Q 550 1150 525 1175 M 525 1175 Q 550 1150 600 1200 M 600 1200 Q 650 1150 700 1200 M 700 1200 Q 750 1150 775 1225 M 775 1225 Q 850 1250 825 1275 M 825 1275 Q 850 1250 900 1300 M 900 1300 Q 950 1250 1000 1300 M 1000 1300 Q 1050 1250 1075 1275 M 1075 1275 Q 1175 1175 1275 1075 M 1275 1075 Q 1275 1050 1275 1025 M 1275 1025 Q 1250 1050 1225 975" fill="rgb(248,248,248)" stroke="rgb(0,0,0)" /><path d="M 1600 600 Q 1550 650 1525 575 M 1525 575 Q 1475 525 1425 475 M 1425 475 Q 1400 400 1375 325 M 1375 325 Q 1275 225 1175 125 M 1175 125 Q 1100 100 1025 75 M 1025 75 Q 950 50 1000 0 M 1000 0 Q 500 0 0 0 M 0 0 Q 0 800 0 1600 M 0 1600 Q 800 1600 1600 1600 M 1600 1600 Q 1600 1100 1600 600" fill="rgb(0,0,0)" stroke="rgb(0,0,0)" /><path d="M 525 975 Q 550 950 575 975" fill="rgb(248,248,248)" stroke="rgb(0,0,0)" /><path d="M 675 1025 Q 750 1050 725 1075 M 725 1075 Q 750 1075 775 1075" fill="rgb(0,0,0)" stroke="rgb(0,0,0)" /></svg>