<?xml version="1.0" encoding="utf-8" ?>
<svg baseProfile="full" height="100%" version="1.1" width="100%" xmlns="http://www.w3.org/2000/svg" xmlns:ev="http://www.w3.org/2001/xml-events" xmlns:xlink="http://www.w3.org/1999/xlink"><defs /><rect fill="rgb(255,255,255)" height="100%" width="100%" x="0" y="0" /><path d="M 1600 800 L 1600 800 L 1525 825" fill="none" stroke="rgb(0,0,0)" /><path d="M 500 1600 L 500 1600 L 475 1525 L 325 1475 L 125 1275 L 75 1125 L 0 1100" fill="none" stroke="rgb(0,0,0)" /><path d="M 1175 875 L 1175 875 L 1125 875" fill="none" stroke="rgb(0,0,0)" /><path d="M 1375 1025 L 1375 1025 L 1375 1075" fill="none" stroke="rgb(0,0,0)" /><path d="M 1400 800 L 1400 800 L 1475 775 L 1500 700 L 1475 625 L 1375 525 L 1300 500" fill="none" stroke="rgb(0,0,0)" /><path d="M 1175 875 L 1175 875 L 1125 875" fill="none" stroke="rgb(0,0,0)" /><path d="M 475 1025 L 475 1025 L 525 1075" fill="none" stroke="rgb(0,0,0)" /><path d="M 325 975 L 325 975 L 375 975" fill="none" stroke="rgb(0,0,0)" /><path d="M 675 1025 L 675 1025 L 625 1025" fill="none" stroke="rgb(0,0,0)" /><path d="M 775 1025 L 775 1025 L 775 1075" fill="none" stroke="rgb(0,0,0)" /><path d="M 1375 1075 L 1375 1075 L 1125 1325 L 1100 1400" fill="none" stroke="rgb(0,0,0)" /><path d="M 675 1025 L 675 1025 L 625 1025" fill="none" stroke="rgb(0,0,0)" /><path d="M 775 1025 L 775 1025 L 775 1075" fill="none" stroke="rgb(0,0,0)" /><path d="M 575 1075 L 575 1075 L 525 1075" fill="none" stroke="rgb(0,0,0)" /><path d="M 1525 875 L 1525 875 L 1525 825" fill="none" stroke="rgb(0,0,0)" /><path d="M 1525 875 L 1525 875 L 1525 825" fill="none" stroke="rgb(0,0,0)" /><path d="M 575 675 L 575 675 L 525 675" fill="none" stroke="rgb(0,0,0)" /><path d="M 0 500 L 0 500 L 75 475 L 125 325 L 325 125 L 475 75 L 500 0" fill="none" stroke="rgb(0,0,0)" /><path d="M 300 900 L 300 900 L 200 900" fill="none" stroke="rgb(0,0,0)" /><path d="M 400 1100 L 400 1100 L 425 1025" fill="none" stroke="rgb(0,0,0)" /><path d="M 1375 1025 L 1375 1025 L 1375 1075" fill="none" stroke="rgb(0,0,0)" /><path d="M 1225 925 L 1225 925 L 1225 975" fill="none" stroke="rgb(0,0,0)" /><path d="M 1225 925 L 1225 925 L 1225 975" fill="none" stroke="rgb(0,0,0)" /><path d="M 1225 925 L 1225 925 L 1275 875 L 1300 800 L 1300 700 L 1275 625 L 1200 600" fill="none" stroke="rgb(0,0,0)" /><path d="M 675 925 L 675 925 L 775 1025" fill="none" stroke="rgb(0,0,0)" /><path d="M 775 1075 L 775 1075 L 725 1075 L 675 1025" fill="none" stroke="rgb(0,0,0)" /><path d="M 325 975 L 325 975 L 375 975" fill="none" stroke="rgb(0,0,0)" /><path d="M 1400 900 L 1400 900 L 1400 700 L 1375 625 L 1325 575 L 1300 500 L 1300 400 L 1275 325 L 1125 275 L 1100 200" fill="none" stroke="rgb(0,0,0)" /><path d="M 625 925 L 625 925 L 675 925" fill="none" stroke="rgb(0,0,0)" /><path d="M 1600 900 L 1600 900 L 1525 875" fill="none" stroke="rgb(0,0,0)" /><path d="M 1375 1025 L 1375 1025 L 1325 975 L 1325 925 L 1400 900 L 1475 925 L 1500 1000 L 1475 1075 L 1425 1125 L 1375 1275 L 1225 1325 L 1175 1375 L 1100 1400 L 600 1400 L 525 1375 L 475 1225 L 325 1175 L 225 1075 L 200 1000 L 200 600 L 225 525 L 300 500" fill="none" stroke="rgb(0,0,0)" /><path d="M 625 925 L 625 925 L 675 925" fill="none" stroke="rgb(0,0,0)" /><path d="M 300 700 L 300 700 L 375 675 L 400 600 L 400 400" fill="none" stroke="rgb(0,0,0)" /><path d="M 625 925 L 625 925 L 575 975" fill="none" stroke="rgb(0,0,0)" /><path d="M 1175 875 L 1175 875 L 1200 800 L 1200 500 L 1175 425 L 1075 325 L 1000 300 L 600 300 L 525 325 L 475 375 L 400 400 L 300 400" fill="none" stroke="rgb(0,0,0)" /><path d="M 375 975 L 375 975 L 425 925 L 475 925 L 525 975" fill="none" stroke="rgb(0,0,0)" /><path d="M 1225 975 L 1225 975 L 1275 1025 L 1275 1075 L 1075 1275 L 1000 1300 L 900 1300 L 825 1275 L 775 1225 L 700 1200 L 600 1200 L 525 1175 L 475 1125 L 325 1075 L 275 1025 L 200 1000" fill="none" stroke="rgb(0,0,0)" /><path d="M 525 425 L 525 425 L 500 500 L 500 600 L 525 675" fill="none" stroke="rgb(0,0,0)" /><path d="M 1000 1400 L 1000 1400 L 975 1475 L 900 1500 L 600 1500 L 525 1475 L 475 1425 L 325 1375 L 225 1275 L 175 1125 L 125 1075 L 100 1000 L 100 600 L 125 525 L 175 475 L 225 325 L 325 225 L 475 175 L 525 125 L 600 100 L 900 100 L 975 125 L 1000 200" fill="none" stroke="rgb(0,0,0)" /><path d="M 575 675 L 575 675 L 600 600 L 600 500 L 575 425" fill="none" stroke="rgb(0,0,0)" /><path d="M 1200 300 L 1200 300 L 1175 225 L 1100 200 L 600 200 L 525 225 L 475 275 L 325 325 L 300 400 L 300 900 L 325 975" fill="none" stroke="rgb(0,0,0)" /><path d="M 525 425 L 525 425 L 575 425" fill="none" stroke="rgb(0,0,0)" /><path d="M 525 425 L 525 425 L 575 425" fill="none" stroke="rgb(0,0,0)" /><path d="M 575 1075 L 575 1075 L 625 1025" fill="none" stroke="rgb(0,0,0)" /><path d="M 575 1075 L 575 1075 L 525 1075" fill="none" stroke="rgb(0,0,0)" /><path d="M 575 675 L 575 675 L 525 675" fill="none" stroke="rgb(0,0,0)" /><path d="M 475 1025 L 475 1025 L 425 1025" fill="none" stroke="rgb(0,0,0)" /><path d="M 475 1025 L 475 1025 L 425 1025" fill="none" stroke="rgb(0,0,0)" /><path d="M 525 975 L 525 975 L 575 975" fill="none" stroke="rgb(0,0,0)" /><path d="M 1125 875 L 1125 875 L 1100 800 L 1100 600 L 1075 525 L 1000 500 L 925 525 L 875 675 L 825 675 L 800 600 L 825 525 L 925 425 L 1000 400 L 1075 425 L 1125 475 L 1200 500" fill="none" stroke="rgb(0,0,0)" /><path d="M 1600 1100 L 1600 1100 L 1525 1125 L 1475 1275 L 1375 1375 L 1225 1425 L 1175 1475 L 1025 1525 L 1000 1600" fill="none" stroke="rgb(0,0,0)" /><path d="M 525 975 L 525 975 L 575 975" fill="none" stroke="rgb(0,0,0)" /><path d="M 1600 600 L 1600 600 L 1525 575 L 1425 475 L 1375 325 L 1175 125 L 1025 75 L 1000 0 L 1600 0 L 1600 600" fill="none" stroke="rgb(0,0,0)" /></svg>