<?xml version="1.0" encoding="utf-8" ?>
<svg baseProfile="full" height="100%" version="1.1" width="100%" xmlns="http://www.w3.org/2000/svg" xmlns:ev="http://www.w3.org/2001/xml-events" xmlns:xlink="http://www.w3.org/1999/xlink"><defs /><path d="M 700 300 L 800 300 L 800 400 L 700 400 Z" fill="rgb(248,248,248)" stroke="rgb(248,248,248)" /><path d="M 625 925 L 650 925 L 675 925 L 725 975 L 675 1025 L 625 1025 L 575 975 Z" fill="rgb(248,16,88)" stroke="rgb(248,16,88)" /><path d="M 1175 125 L 1200 100 L 1225 75 L 1300 100 L 1325 175 L 1300 200 L 1275 225 L 1225 175 Z" fill="rgb(0,158,0)" stroke="rgb(0,158,0)" /><path d="M 1100 1100 L 1175 1075 L 1200 1100 L 1225 1125 L 1175 1175 L 1125 1225 L 1100 1200 L 1075 1175 Z" fill="rgb(248,248,248)" stroke="rgb(248,248,248)" /><path d="M 700 1200 L 775 1225 L 825 1275 L 800 1300 L 775 1325 L 700 1300 Z" fill="rgb(224,224,224)" stroke="rgb(224,224,224)" /><path d="M 1400 400 L 1500 400 L 1525 475 L 1500 500 L 1475 525 L 1425 475 Z" fill="rgb(0,158,0)" stroke="rgb(0,158,0)" /><path d="M 1300 400 L 1400 400 L 1425 475 L 1375 525 L 1300 500 Z" fill="rgb(0,0,0)" stroke="rgb(0,0,0)" /><path d="M 1225 1225 L 1275 1175 L 1300 1200 L 1325 1225 L 1300 1300 L 1225 1325 L 1175 1275 Z" fill="rgb(192,192,192)" stroke="rgb(192,192,192)" /><path d="M 0 700 L 100 700 L 100 800 L 0 800 L 0 750 Z" fill="rgb(0,0,0)" stroke="rgb(0,0,0)" /><path d="M 1500 100 L 1600 100 L 1600 150 L 1600 200 L 1500 200 Z" fill="rgb(0,158,0)" stroke="rgb(0,158,0)" /><path d="M 100 600 L 200 600 L 200 700 L 100 700 Z" fill="rgb(192,192,192)" stroke="rgb(192,192,192)" /><path d="M 0 1000 L 100 1000 L 125 1075 L 75 1125 L 0 1100 L 0 1050 Z" fill="rgb(0,0,0)" stroke="rgb(0,0,0)" /><path d="M 300 700 L 375 675 L 400 700 L 425 725 L 400 800 L 300 800 Z" fill="rgb(248,248,248)" stroke="rgb(248,248,248)" /><path d="M 225 525 L 300 500 L 300 600 L 200 600 Z" fill="rgb(224,224,224)" stroke="rgb(224,224,224)" /><path d="M 75 1125 L 125 1075 L 175 1125 L 200 1200 L 100 1200 Z" fill="rgb(0,0,0)" stroke="rgb(0,0,0)" /><path d="M 825 525 L 875 475 L 925 525 L 900 600 L 800 600 Z" fill="rgb(0,0,0)" stroke="rgb(0,0,0)" /><path d="M 500 800 L 600 800 L 575 875 L 525 875 Z" fill="rgb(248,248,248)" stroke="rgb(248,248,248)" /><path d="M 400 0 L 450 0 L 500 0 L 475 75 L 400 100 Z" fill="rgb(0,158,0)" stroke="rgb(0,158,0)" /><path d="M 1000 800 L 1100 800 L 1125 875 L 1100 900 L 1075 925 L 1000 900 Z" fill="rgb(248,248,248)" stroke="rgb(248,248,248)" /><path d="M 900 0 L 950 0 L 1000 0 L 1025 75 L 975 125 L 900 100 Z" fill="rgb(0,0,0)" stroke="rgb(0,0,0)" /><path d="M 625 725 L 700 700 L 700 800 L 600 800 Z" fill="rgb(248,248,248)" stroke="rgb(248,248,248)" /><path d="M 500 500 L 600 500 L 600 600 L 500 600 Z" fill="rgb(0,0,0)" stroke="rgb(0,0,0)" /><path d="M 1075 525 L 1125 475 L 1200 500 L 1200 600 L 1100 600 Z" fill="rgb(0,0,0)" stroke="rgb(0,0,0)" /><path d="M 1000 700 L 1100 700 L 1100 800 L 1000 800 Z" fill="rgb(248,248,248)" stroke="rgb(248,248,248)" /><path d="M 700 600 L 800 600 L 825 675 L 800 700 L 775 725 L 700 700 Z" fill="rgb(248,248,248)" stroke="rgb(248,248,248)" /><path d="M 625 1025 L 650 1025 L 675 1025 L 725 1075 L 700 1100 L 675 1125 L 625 1125 L 600 1100 L 575 1075 Z" fill="rgb(248,248,248)" stroke="rgb(248,248,248)" /><path d="M 1200 600 L 1275 625 L 1300 700 L 1200 700 Z" fill="rgb(248,248,248)" stroke="rgb(248,248,248)" /><path d="M 1525 1125 L 1600 1100 L 1600 1150 L 1600 1200 L 1500 1200 Z" fill="rgb(0,158,0)" stroke="rgb(0,158,0)" /><path d="M 1400 100 L 1500 100 L 1500 200 L 1400 200 Z" fill="rgb(0,158,0)" stroke="rgb(0,158,0)" /><path d="M 1300 700 L 1400 700 L 1400 800 L 1300 800 Z" fill="rgb(224,224,224)" stroke="rgb(224,224,224)" /><path d="M 0 400 L 100 400 L 75 475 L 0 500 L 0 450 Z" fill="rgb(0,158,0)" stroke="rgb(0,158,0)" /><path d="M 1500 400 L 1600 400 L 1600 450 L 1600 500 L 1525 475 Z" fill="rgb(0,158,0)" stroke="rgb(0,158,0)" /><path d="M 100 100 L 200 100 L 175 175 L 100 200 Z" fill="rgb(0,158,0)" stroke="rgb(0,158,0)" /><path d="M 800 1500 L 900 1500 L 900 1600 L 850 1600 L 800 1600 Z" fill="rgb(0,0,0)" stroke="rgb(0,0,0)" /><path d="M 425 1025 L 450 1025 L 475 1025 L 525 1075 L 475 1125 L 400 1100 Z" fill="rgb(248,248,248)" stroke="rgb(248,248,248)" /><path d="M 325 225 L 400 200 L 400 300 L 325 325 L 275 275 Z" fill="rgb(192,192,192)" stroke="rgb(192,192,192)" /><path d="M 200 600 L 300 600 L 300 700 L 200 700 Z" fill="rgb(224,224,224)" stroke="rgb(224,224,224)" /><path d="M 900 1400 L 1000 1400 L 975 1475 L 900 1500 Z" fill="rgb(192,192,192)" stroke="rgb(192,192,192)" /><path d="M 800 200 L 900 200 L 900 300 L 800 300 Z" fill="rgb(224,224,224)" stroke="rgb(224,224,224)" /><path d="M 475 1125 L 525 1075 L 575 1075 L 600 1100 L 625 1125 L 600 1200 L 525 1175 Z" fill="rgb(248,248,248)" stroke="rgb(248,248,248)" /><path d="M 400 500 L 500 500 L 500 600 L 400 600 Z" fill="rgb(248,248,248)" stroke="rgb(248,248,248)" /><path d="M 1000 1300 L 1075 1275 L 1125 1325 L 1100 1400 L 1000 1400 Z" fill="rgb(224,224,224)" stroke="rgb(224,224,224)" /><path d="M 900 300 L 1000 300 L 1000 400 L 925 425 L 900 400 L 875 375 Z" fill="rgb(248,248,248)" stroke="rgb(248,248,248)" /><path d="M 600 0 L 650 0 L 700 0 L 700 100 L 600 100 Z" fill="rgb(0,0,0)" stroke="rgb(0,0,0)" /><path d="M 1100 0 L 1150 0 L 1200 0 L 1225 75 L 1200 100 L 1175 125 L 1100 100 Z" fill="rgb(0,158,0)" stroke="rgb(0,158,0)" /><path d="M 700 500 L 775 475 L 800 500 L 825 525 L 800 600 L 700 600 Z" fill="rgb(248,248,248)" stroke="rgb(248,248,248)" /><path d="M 1400 1500 L 1500 1500 L 1500 1600 L 1450 1600 L 1400 1600 Z" fill="rgb(0,158,0)" stroke="rgb(0,158,0)" /><path d="M 1225 1125 L 1275 1075 L 1325 1125 L 1275 1175 L 1225 1225 L 1175 1175 Z" fill="rgb(224,224,224)" stroke="rgb(224,224,224)" /><path d="M 1500 1400 L 1600 1400 L 1600 1450 L 1600 1500 L 1500 1500 Z" fill="rgb(0,158,0)" stroke="rgb(0,158,0)" /><path d="M 1400 200 L 1500 200 L 1500 300 L 1425 275 Z" fill="rgb(0,158,0)" stroke="rgb(0,158,0)" /><path d="M 1275 1025 L 1325 975 L 1375 1025 L 1375 1050 L 1375 1075 L 1325 1125 L 1275 1075 Z" fill="rgb(224,224,224)" stroke="rgb(224,224,224)" /><path d="M 0 100 L 100 100 L 100 200 L 0 200 L 0 150 Z" fill="rgb(0,158,0)" stroke="rgb(0,158,0)" /><path d="M 275 1225 L 300 1200 L 325 1175 L 400 1200 L 400 1300 L 325 1275 Z" fill="rgb(192,192,192)" stroke="rgb(192,192,192)" /><path d="M 100 1200 L 200 1200 L 225 1275 L 175 1325 L 125 1275 Z" fill="rgb(0,0,0)" stroke="rgb(0,0,0)" /><path d="M 775 1225 L 800 1200 L 825 1175 L 900 1200 L 900 1300 L 825 1275 Z" fill="rgb(248,248,248)" stroke="rgb(248,248,248)" /><path d="M 400 1500 L 475 1525 L 500 1600 L 450 1600 L 400 1600 Z" fill="rgb(0,158,0)" stroke="rgb(0,158,0)" /><path d="M 325 125 L 400 100 L 400 200 L 325 225 L 275 175 Z" fill="rgb(0,0,0)" stroke="rgb(0,0,0)" /><path d="M 175 1125 L 225 1075 L 275 1125 L 325 1175 L 300 1200 L 275 1225 L 200 1200 Z" fill="rgb(192,192,192)" stroke="rgb(192,192,192)" /><path d="M 900 900 L 1000 900 L 1000 1000 L 900 1000 Z" fill="rgb(248,248,248)" stroke="rgb(248,248,248)" /><path d="M 475 1425 L 525 1375 L 600 1400 L 600 1500 L 525 1475 Z" fill="rgb(192,192,192)" stroke="rgb(192,192,192)" /><path d="M 1000 1400 L 1100 1400 L 1100 1500 L 1025 1525 L 975 1475 Z" fill="rgb(0,0,0)" stroke="rgb(0,0,0)" /><path d="M 600 1300 L 700 1300 L 700 1400 L 600 1400 Z" fill="rgb(224,224,224)" stroke="rgb(224,224,224)" /><path d="M 1100 1500 L 1175 1475 L 1200 1500 L 1225 1525 L 1200 1600 L 1150 1600 L 1100 1600 Z" fill="rgb(0,158,0)" stroke="rgb(0,158,0)" /><path d="M 700 800 L 800 800 L 800 900 L 725 875 Z" fill="rgb(248,248,248)" stroke="rgb(248,248,248)" /><path d="M 1400 800 L 1475 775 L 1525 825 L 1525 875 L 1475 925 L 1400 900 Z" fill="rgb(0,0,0)" stroke="rgb(0,0,0)" /><path d="M 1300 0 L 1350 0 L 1400 0 L 1400 100 L 1300 100 Z" fill="rgb(0,158,0)" stroke="rgb(0,158,0)" /><path d="M 1200 800 L 1300 800 L 1275 875 L 1225 925 L 1175 875 Z" fill="rgb(248,248,248)" stroke="rgb(248,248,248)" /><path d="M 1525 1325 L 1600 1300 L 1600 1350 L 1600 1400 L 1500 1400 Z" fill="rgb(0,158,0)" stroke="rgb(0,158,0)" /><path d="M 1300 1300 L 1375 1275 L 1425 1325 L 1375 1375 L 1300 1400 Z" fill="rgb(0,0,0)" stroke="rgb(0,0,0)" /><path d="M 0 1400 L 100 1400 L 100 1500 L 0 1500 L 0 1450 Z" fill="rgb(0,158,0)" stroke="rgb(0,158,0)" /><path d="M 275 1125 L 325 1075 L 400 1100 L 400 1200 L 325 1175 Z" fill="rgb(224,224,224)" stroke="rgb(224,224,224)" /><path d="M 200 100 L 275 75 L 300 100 L 325 125 L 275 175 L 225 225 L 200 200 L 175 175 Z" fill="rgb(0,158,0)" stroke="rgb(0,158,0)" /><path d="M 100 1500 L 200 1500 L 200 1600 L 150 1600 L 100 1600 Z" fill="rgb(0,158,0)" stroke="rgb(0,158,0)" /><path d="M 800 900 L 900 900 L 900 1000 L 825 975 Z" fill="rgb(248,248,248)" stroke="rgb(248,248,248)" /><path d="M 400 1200 L 475 1225 L 500 1300 L 400 1300 Z" fill="rgb(192,192,192)" stroke="rgb(192,192,192)" /><path d="M 200 1200 L 275 1225 L 325 1275 L 300 1300 L 275 1325 L 225 1275 Z" fill="rgb(192,192,192)" stroke="rgb(192,192,192)" /><path d="M 925 425 L 1000 400 L 1000 500 L 925 525 L 875 475 Z" fill="rgb(0,0,0)" stroke="rgb(0,0,0)" /><path d="M 525 125 L 600 100 L 600 200 L 525 225 L 475 175 Z" fill="rgb(192,192,192)" stroke="rgb(192,192,192)" /><path d="M 1000 300 L 1075 325 L 1125 375 L 1075 425 L 1000 400 Z" fill="rgb(248,248,248)" stroke="rgb(248,248,248)" /><path d="M 700 200 L 800 200 L 800 300 L 700 300 Z" fill="rgb(224,224,224)" stroke="rgb(224,224,224)" /><path d="M 600 1400 L 700 1400 L 700 1500 L 600 1500 Z" fill="rgb(192,192,192)" stroke="rgb(192,192,192)" /><path d="M 1175 225 L 1225 175 L 1275 225 L 1325 275 L 1275 325 L 1200 300 Z" fill="rgb(0,0,0)" stroke="rgb(0,0,0)" /><path d="M 1100 1000 L 1175 1025 L 1175 1075 L 1100 1100 Z" fill="rgb(248,248,248)" stroke="rgb(248,248,248)" /><path d="M 700 1500 L 800 1500 L 800 1600 L 750 1600 L 700 1600 Z" fill="rgb(0,0,0)" stroke="rgb(0,0,0)" /><path d="M 1375 525 L 1425 475 L 1475 525 L 1525 575 L 1475 625 L 1425 575 Z" fill="rgb(0,0,0)" stroke="rgb(0,0,0)" /><path d="M 1275 325 L 1325 275 L 1375 325 L 1400 400 L 1300 400 Z" fill="rgb(0,0,0)" stroke="rgb(0,0,0)" /><path d="M 1225 1325 L 1300 1300 L 1300 1400 L 1225 1425 L 1175 1375 Z" fill="rgb(0,0,0)" stroke="rgb(0,0,0)" /><path d="M 1500 0 L 1550 0 L 1600 0 L 1600 50 L 1600 100 L 1500 100 Z" fill="rgb(0,158,0)" stroke="rgb(0,158,0)" /><path d="M 125 525 L 175 475 L 225 525 L 200 600 L 100 600 Z" fill="rgb(192,192,192)" stroke="rgb(192,192,192)" /><path d="M 0 1100 L 75 1125 L 100 1200 L 0 1200 L 0 1150 Z" fill="rgb(0,158,0)" stroke="rgb(0,158,0)" /><path d="M 300 600 L 400 600 L 375 675 L 300 700 Z" fill="rgb(0,0,0)" stroke="rgb(0,0,0)" /><path d="M 225 225 L 275 175 L 325 225 L 275 275 L 225 325 L 175 275 Z" fill="rgb(0,0,0)" stroke="rgb(0,0,0)" /><path d="M 100 1000 L 200 1000 L 225 1075 L 175 1125 L 125 1075 Z" fill="rgb(192,192,192)" stroke="rgb(192,192,192)" /><path d="M 800 600 L 900 600 L 875 675 L 850 675 L 825 675 Z" fill="rgb(0,0,0)" stroke="rgb(0,0,0)" /><path d="M 400 100 L 475 75 L 525 125 L 475 175 L 400 200 Z" fill="rgb(0,0,0)" stroke="rgb(0,0,0)" /><path d="M 1000 900 L 1075 925 L 1100 1000 L 1000 1000 Z" fill="rgb(248,248,248)" stroke="rgb(248,248,248)" /><path d="M 925 725 L 1000 700 L 1000 800 L 900 800 Z" fill="rgb(248,248,248)" stroke="rgb(248,248,248)" /><path d="M 575 425 L 600 400 L 625 375 L 700 400 L 700 500 L 600 500 Z" fill="rgb(248,248,248)" stroke="rgb(248,248,248)" /><path d="M 525 425 L 550 425 L 575 425 L 600 500 L 500 500 Z" fill="rgb(0,0,0)" stroke="rgb(0,0,0)" /><path d="M 1075 425 L 1125 375 L 1175 425 L 1200 500 L 1125 475 Z" fill="rgb(248,248,248)" stroke="rgb(248,248,248)" /><path d="M 1000 400 L 1075 425 L 1125 475 L 1075 525 L 1000 500 Z" fill="rgb(0,0,0)" stroke="rgb(0,0,0)" /><path d="M 700 100 L 800 100 L 800 200 L 700 200 Z" fill="rgb(192,192,192)" stroke="rgb(192,192,192)" /><path d="M 625 1125 L 675 1125 L 700 1200 L 600 1200 Z" fill="rgb(248,248,248)" stroke="rgb(248,248,248)" /><path d="M 1200 700 L 1300 700 L 1300 800 L 1200 800 Z" fill="rgb(248,248,248)" stroke="rgb(248,248,248)" /><path d="M 1075 925 L 1100 900 L 1125 875 L 1175 875 L 1225 925 L 1225 975 L 1200 1000 L 1175 1025 L 1100 1000 Z" fill="rgb(248,248,248)" stroke="rgb(248,248,248)" /><path d="M 1500 1000 L 1600 1000 L 1600 1050 L 1600 1100 L 1525 1125 L 1475 1075 Z" fill="rgb(0,0,0)" stroke="rgb(0,0,0)" /><path d="M 1375 625 L 1425 575 L 1475 625 L 1500 700 L 1400 700 Z" fill="rgb(192,192,192)" stroke="rgb(192,192,192)" /><path d="M 1275 625 L 1325 575 L 1375 625 L 1400 700 L 1300 700 Z" fill="rgb(224,224,224)" stroke="rgb(224,224,224)" /><path d="M 0 500 L 75 475 L 125 525 L 100 600 L 0 600 L 0 550 Z" fill="rgb(0,0,0)" stroke="rgb(0,0,0)" /><path d="M 1500 700 L 1600 700 L 1600 750 L 1600 800 L 1525 825 L 1475 775 Z" fill="rgb(0,0,0)" stroke="rgb(0,0,0)" /><path d="M 100 0 L 150 0 L 200 0 L 200 100 L 100 100 Z" fill="rgb(0,158,0)" stroke="rgb(0,158,0)" /><path d="M 0 800 L 100 800 L 100 900 L 0 900 L 0 850 Z" fill="rgb(0,0,0)" stroke="rgb(0,0,0)" /><path d="M 400 1100 L 475 1125 L 525 1175 L 475 1225 L 400 1200 Z" fill="rgb(224,224,224)" stroke="rgb(224,224,224)" /><path d="M 300 500 L 400 500 L 400 600 L 300 600 Z" fill="rgb(0,0,0)" stroke="rgb(0,0,0)" /><path d="M 200 700 L 300 700 L 300 800 L 200 800 Z" fill="rgb(224,224,224)" stroke="rgb(224,224,224)" /><path d="M 900 1300 L 1000 1300 L 1000 1400 L 900 1400 Z" fill="rgb(224,224,224)" stroke="rgb(224,224,224)" /><path d="M 800 300 L 900 300 L 875 375 L 800 400 Z" fill="rgb(248,248,248)" stroke="rgb(248,248,248)" /><path d="M 475 1025 L 525 975 L 575 975 L 625 1025 L 575 1075 L 550 1075 L 525 1075 Z" fill="rgb(248,16,88)" stroke="rgb(248,16,88)" /><path d="M 400 600 L 500 600 L 525 675 L 500 700 L 475 725 L 425 725 L 400 700 L 375 675 Z" fill="rgb(248,248,248)" stroke="rgb(248,248,248)" /><path d="M 1000 1000 L 1100 1000 L 1100 1100 L 1000 1100 Z" fill="rgb(248,248,248)" stroke="rgb(248,248,248)" /><path d="M 900 200 L 1000 200 L 1000 300 L 900 300 Z" fill="rgb(224,224,224)" stroke="rgb(224,224,224)" /><path d="M 600 100 L 700 100 L 700 200 L 600 200 Z" fill="rgb(192,192,192)" stroke="rgb(192,192,192)" /><path d="M 475 725 L 500 700 L 525 675 L 575 675 L 600 700 L 625 725 L 600 800 L 500 800 Z" fill="rgb(248,248,248)" stroke="rgb(248,248,248)" /><path d="M 1075 325 L 1125 275 L 1200 300 L 1225 375 L 1200 400 L 1175 425 L 1125 375 Z" fill="rgb(224,224,224)" stroke="rgb(224,224,224)" /><path d="M 700 400 L 800 400 L 775 475 L 700 500 Z" fill="rgb(248,248,248)" stroke="rgb(248,248,248)" /><path d="M 1400 1200 L 1500 1200 L 1475 1275 L 1425 1325 L 1375 1275 Z" fill="rgb(0,0,0)" stroke="rgb(0,0,0)" /><path d="M 1175 425 L 1200 400 L 1225 375 L 1300 400 L 1300 500 L 1200 500 Z" fill="rgb(224,224,224)" stroke="rgb(224,224,224)" /><path d="M 1475 925 L 1525 875 L 1600 900 L 1600 950 L 1600 1000 L 1500 1000 Z" fill="rgb(0,0,0)" stroke="rgb(0,0,0)" /><path d="M 1375 325 L 1400 300 L 1425 275 L 1500 300 L 1500 400 L 1400 400 Z" fill="rgb(0,158,0)" stroke="rgb(0,158,0)" /><path d="M 1325 925 L 1400 900 L 1425 975 L 1400 1000 L 1375 1025 L 1325 975 L 1325 950 Z" fill="rgb(192,192,192)" stroke="rgb(192,192,192)" /><path d="M 0 200 L 100 200 L 75 275 L 0 300 L 0 250 Z" fill="rgb(0,158,0)" stroke="rgb(0,158,0)" /><path d="M 275 1525 L 300 1500 L 325 1475 L 400 1500 L 400 1600 L 350 1600 L 300 1600 Z" fill="rgb(0,158,0)" stroke="rgb(0,158,0)" /><path d="M 125 325 L 175 275 L 225 325 L 200 400 L 100 400 Z" fill="rgb(0,0,0)" stroke="rgb(0,0,0)" /><path d="M 775 1325 L 800 1300 L 825 1275 L 900 1300 L 900 1400 L 800 1400 Z" fill="rgb(224,224,224)" stroke="rgb(224,224,224)" /><path d="M 400 800 L 500 800 L 525 875 L 500 900 L 475 925 L 425 925 L 400 900 L 375 875 Z" fill="rgb(248,248,248)" stroke="rgb(248,248,248)" /><path d="M 300 0 L 350 0 L 400 0 L 400 100 L 325 125 L 300 100 L 275 75 Z" fill="rgb(0,158,0)" stroke="rgb(0,158,0)" /><path d="M 200 800 L 300 800 L 300 900 L 200 900 Z" fill="rgb(224,224,224)" stroke="rgb(224,224,224)" /><path d="M 900 800 L 1000 800 L 1000 900 L 900 900 Z" fill="rgb(248,248,248)" stroke="rgb(248,248,248)" /><path d="M 800 0 L 850 0 L 900 0 L 900 100 L 800 100 Z" fill="rgb(0,0,0)" stroke="rgb(0,0,0)" /><path d="M 500 1300 L 600 1300 L 600 1400 L 525 1375 Z" fill="rgb(224,224,224)" stroke="rgb(224,224,224)" /><path d="M 1025 1525 L 1100 1500 L 1100 1600 L 1050 1600 L 1000 1600 Z" fill="rgb(0,158,0)" stroke="rgb(0,158,0)" /><path d="M 600 200 L 700 200 L 700 300 L 600 300 Z" fill="rgb(224,224,224)" stroke="rgb(224,224,224)" /><path d="M 1100 1400 L 1175 1375 L 1225 1425 L 1175 1475 L 1100 1500 Z" fill="rgb(0,0,0)" stroke="rgb(0,0,0)" /><path d="M 675 1125 L 700 1100 L 725 1075 L 775 1075 L 800 1100 L 825 1125 L 825 1175 L 800 1200 L 775 1225 L 700 1200 Z" fill="rgb(248,248,248)" stroke="rgb(248,248,248)" /><path d="M 1400 900 L 1475 925 L 1500 1000 L 1425 975 Z" fill="rgb(192,192,192)" stroke="rgb(192,192,192)" /><path d="M 1225 925 L 1275 875 L 1325 925 L 1325 975 L 1275 1025 L 1225 975 L 1225 950 Z" fill="rgb(224,224,224)" stroke="rgb(224,224,224)" /><path d="M 1500 1200 L 1600 1200 L 1600 1250 L 1600 1300 L 1525 1325 L 1500 1300 L 1475 1275 Z" fill="rgb(0,158,0)" stroke="rgb(0,158,0)" /><path d="M 1325 1225 L 1400 1200 L 1375 1275 L 1300 1300 Z" fill="rgb(192,192,192)" stroke="rgb(192,192,192)" /><path d="M 0 1500 L 100 1500 L 100 1600 L 50 1600 L 0 1600 L 0 1550 Z" fill="rgb(0,158,0)" stroke="rgb(0,158,0)" /><path d="M 275 1025 L 325 975 L 375 975 L 425 1025 L 400 1100 L 325 1075 Z" fill="rgb(248,16,88)" stroke="rgb(248,16,88)" /><path d="M 100 1400 L 175 1425 L 200 1500 L 100 1500 Z" fill="rgb(0,158,0)" stroke="rgb(0,158,0)" /><path d="M 775 1025 L 800 1000 L 825 975 L 900 1000 L 900 1100 L 825 1125 L 800 1100 L 775 1075 Z" fill="rgb(248,248,248)" stroke="rgb(248,248,248)" /><path d="M 400 1300 L 500 1300 L 525 1375 L 475 1425 L 400 1400 Z" fill="rgb(192,192,192)" stroke="rgb(192,192,192)" /><path d="M 175 1325 L 225 1275 L 275 1325 L 325 1375 L 275 1425 L 225 1375 Z" fill="rgb(0,0,0)" stroke="rgb(0,0,0)" /><path d="M 900 1100 L 1000 1100 L 1000 1200 L 900 1200 Z" fill="rgb(248,248,248)" stroke="rgb(248,248,248)" /><path d="M 500 0 L 550 0 L 600 0 L 600 100 L 525 125 L 475 75 Z" fill="rgb(0,0,0)" stroke="rgb(0,0,0)" /><path d="M 1000 0 L 1050 0 L 1100 0 L 1100 100 L 1025 75 Z" fill="rgb(0,158,0)" stroke="rgb(0,158,0)" /><path d="M 600 1500 L 700 1500 L 700 1600 L 650 1600 L 600 1600 Z" fill="rgb(0,0,0)" stroke="rgb(0,0,0)" /><path d="M 1200 300 L 1275 325 L 1300 400 L 1225 375 Z" fill="rgb(224,224,224)" stroke="rgb(224,224,224)" /><path d="M 1125 1325 L 1175 1275 L 1225 1325 L 1175 1375 L 1100 1400 Z" fill="rgb(192,192,192)" stroke="rgb(192,192,192)" /><path d="M 700 1400 L 800 1400 L 800 1500 L 700 1500 Z" fill="rgb(192,192,192)" stroke="rgb(192,192,192)" /><path d="M 1375 1025 L 1400 1000 L 1425 975 L 1500 1000 L 1475 1075 L 1425 1125 L 1375 1075 Z" fill="rgb(192,192,192)" stroke="rgb(192,192,192)" /><path d="M 1275 225 L 1300 200 L 1325 175 L 1400 200 L 1425 275 L 1400 300 L 1375 325 L 1325 275 Z" fill="rgb(0,158,0)" stroke="rgb(0,158,0)" /><path d="M 1225 1425 L 1300 1400 L 1300 1500 L 1225 1525 L 1200 1500 L 1175 1475 Z" fill="rgb(0,158,0)" stroke="rgb(0,158,0)" /><path d="M 1500 300 L 1600 300 L 1600 350 L 1600 400 L 1500 400 Z" fill="rgb(0,158,0)" stroke="rgb(0,158,0)" /><path d="M 1300 1500 L 1400 1500 L 1400 1600 L 1350 1600 L 1300 1600 Z" fill="rgb(0,158,0)" stroke="rgb(0,158,0)" /><path d="M 100 400 L 200 400 L 175 475 L 125 525 L 75 475 Z" fill="rgb(0,0,0)" stroke="rgb(0,0,0)" /><path d="M 0 1200 L 100 1200 L 125 1275 L 100 1300 L 75 1325 L 0 1300 L 0 1250 Z" fill="rgb(0,158,0)" stroke="rgb(0,158,0)" /><path d="M 300 900 L 375 875 L 400 900 L 425 925 L 375 975 L 350 975 L 325 975 Z" fill="rgb(248,248,248)" stroke="rgb(248,248,248)" /><path d="M 225 325 L 275 275 L 325 325 L 300 400 L 200 400 Z" fill="rgb(192,192,192)" stroke="rgb(192,192,192)" /><path d="M 100 900 L 200 900 L 200 1000 L 100 1000 Z" fill="rgb(192,192,192)" stroke="rgb(192,192,192)" /><path d="M 775 725 L 800 700 L 825 675 L 875 675 L 900 700 L 925 725 L 900 800 L 800 800 Z" fill="rgb(248,248,248)" stroke="rgb(248,248,248)" /><path d="M 400 200 L 475 175 L 525 225 L 475 275 L 400 300 Z" fill="rgb(192,192,192)" stroke="rgb(192,192,192)" /><path d="M 175 1425 L 200 1400 L 225 1375 L 275 1425 L 325 1475 L 300 1500 L 275 1525 L 200 1500 Z" fill="rgb(0,158,0)" stroke="rgb(0,158,0)" /><path d="M 900 600 L 1000 600 L 1000 700 L 925 725 L 900 700 L 875 675 Z" fill="rgb(248,248,248)" stroke="rgb(248,248,248)" /><path d="M 600 500 L 700 500 L 700 600 L 600 600 Z" fill="rgb(248,248,248)" stroke="rgb(248,248,248)" /><path d="M 525 325 L 600 300 L 625 375 L 600 400 L 575 425 L 525 425 L 475 375 Z" fill="rgb(248,248,248)" stroke="rgb(248,248,248)" /><path d="M 1100 700 L 1200 700 L 1200 800 L 1100 800 Z" fill="rgb(0,0,0)" stroke="rgb(0,0,0)" /><path d="M 1000 500 L 1075 525 L 1100 600 L 1000 600 Z" fill="rgb(248,248,248)" stroke="rgb(248,248,248)" /><path d="M 700 0 L 750 0 L 800 0 L 800 100 L 700 100 Z" fill="rgb(0,0,0)" stroke="rgb(0,0,0)" /><path d="M 600 800 L 700 800 L 725 875 L 700 900 L 675 925 L 625 925 L 600 900 L 575 875 Z" fill="rgb(248,248,248)" stroke="rgb(248,248,248)" /><path d="M 1200 0 L 1250 0 L 1300 0 L 1300 100 L 1225 75 Z" fill="rgb(0,158,0)" stroke="rgb(0,158,0)" /><path d="M 1100 800 L 1200 800 L 1175 875 L 1150 875 L 1125 875 Z" fill="rgb(0,0,0)" stroke="rgb(0,0,0)" /><path d="M 700 1300 L 775 1325 L 800 1400 L 700 1400 Z" fill="rgb(224,224,224)" stroke="rgb(224,224,224)" /><path d="M 1400 700 L 1500 700 L 1475 775 L 1400 800 Z" fill="rgb(192,192,192)" stroke="rgb(192,192,192)" /><path d="M 1300 500 L 1375 525 L 1425 575 L 1375 625 L 1325 575 Z" fill="rgb(192,192,192)" stroke="rgb(192,192,192)" /><path d="M 0 600 L 100 600 L 100 700 L 0 700 L 0 650 Z" fill="rgb(0,0,0)" stroke="rgb(0,0,0)" /><path d="M 1475 625 L 1525 575 L 1600 600 L 1600 650 L 1600 700 L 1500 700 Z" fill="rgb(0,0,0)" stroke="rgb(0,0,0)" /><path d="M 100 700 L 200 700 L 200 800 L 100 800 Z" fill="rgb(192,192,192)" stroke="rgb(192,192,192)" /><path d="M 0 900 L 100 900 L 100 1000 L 0 1000 L 0 950 Z" fill="rgb(0,0,0)" stroke="rgb(0,0,0)" /><path d="M 300 400 L 400 400 L 400 500 L 300 500 Z" fill="rgb(0,0,0)" stroke="rgb(0,0,0)" /><path d="M 200 400 L 300 400 L 300 500 L 225 525 L 175 475 Z" fill="rgb(192,192,192)" stroke="rgb(192,192,192)" /><path d="M 900 1200 L 1000 1200 L 1000 1300 L 900 1300 Z" fill="rgb(248,248,248)" stroke="rgb(248,248,248)" /><path d="M 800 400 L 875 375 L 900 400 L 925 425 L 875 475 L 825 525 L 800 500 L 775 475 Z" fill="rgb(248,248,248)" stroke="rgb(248,248,248)" /><path d="M 475 925 L 500 900 L 525 875 L 575 875 L 600 900 L 625 925 L 575 975 L 550 975 L 525 975 Z" fill="rgb(248,248,248)" stroke="rgb(248,248,248)" /><path d="M 425 725 L 475 725 L 500 800 L 400 800 Z" fill="rgb(248,248,248)" stroke="rgb(248,248,248)" /><path d="M 1000 1100 L 1100 1100 L 1075 1175 L 1000 1200 Z" fill="rgb(248,248,248)" stroke="rgb(248,248,248)" /><path d="M 900 100 L 975 125 L 1000 200 L 900 200 Z" fill="rgb(192,192,192)" stroke="rgb(192,192,192)" /><path d="M 600 600 L 700 600 L 700 700 L 625 725 L 600 700 L 575 675 Z" fill="rgb(248,248,248)" stroke="rgb(248,248,248)" /><path d="M 500 600 L 600 600 L 575 675 L 550 675 L 525 675 Z" fill="rgb(0,0,0)" stroke="rgb(0,0,0)" /><path d="M 1100 200 L 1175 225 L 1200 300 L 1125 275 Z" fill="rgb(192,192,192)" stroke="rgb(192,192,192)" /><path d="M 1000 600 L 1100 600 L 1100 700 L 1000 700 Z" fill="rgb(248,248,248)" stroke="rgb(248,248,248)" /><path d="M 700 700 L 775 725 L 800 800 L 700 800 Z" fill="rgb(248,248,248)" stroke="rgb(248,248,248)" /><path d="M 1425 1325 L 1475 1275 L 1500 1300 L 1525 1325 L 1500 1400 L 1425 1425 L 1400 1400 L 1375 1375 Z" fill="rgb(0,158,0)" stroke="rgb(0,158,0)" /><path d="M 1200 500 L 1300 500 L 1325 575 L 1275 625 L 1200 600 Z" fill="rgb(224,224,224)" stroke="rgb(224,224,224)" /><path d="M 1525 825 L 1600 800 L 1600 850 L 1600 900 L 1525 875 L 1525 850 Z" fill="rgb(0,158,0)" stroke="rgb(0,158,0)" /><path d="M 1400 0 L 1450 0 L 1500 0 L 1500 100 L 1400 100 Z" fill="rgb(0,158,0)" stroke="rgb(0,158,0)" /><path d="M 1300 800 L 1400 800 L 1400 900 L 1325 925 L 1275 875 Z" fill="rgb(224,224,224)" stroke="rgb(224,224,224)" /><path d="M 0 300 L 75 275 L 100 300 L 125 325 L 100 400 L 0 400 L 0 350 Z" fill="rgb(0,158,0)" stroke="rgb(0,158,0)" /><path d="M 1475 525 L 1500 500 L 1525 475 L 1600 500 L 1600 550 L 1600 600 L 1525 575 Z" fill="rgb(0,158,0)" stroke="rgb(0,158,0)" /><path d="M 275 1425 L 325 1375 L 400 1400 L 400 1500 L 325 1475 Z" fill="rgb(0,0,0)" stroke="rgb(0,0,0)" /><path d="M 100 200 L 175 175 L 200 200 L 225 225 L 175 275 L 125 325 L 100 300 L 75 275 Z" fill="rgb(0,158,0)" stroke="rgb(0,158,0)" /><path d="M 800 1400 L 900 1400 L 900 1500 L 800 1500 Z" fill="rgb(192,192,192)" stroke="rgb(192,192,192)" /><path d="M 425 925 L 450 925 L 475 925 L 525 975 L 475 1025 L 425 1025 L 375 975 Z" fill="rgb(248,16,88)" stroke="rgb(248,16,88)" /><path d="M 325 325 L 400 300 L 400 400 L 300 400 Z" fill="rgb(224,224,224)" stroke="rgb(224,224,224)" /><path d="M 200 900 L 300 900 L 325 975 L 275 1025 L 200 1000 Z" fill="rgb(248,16,88)" stroke="rgb(248,16,88)" /><path d="M 900 1500 L 975 1475 L 1025 1525 L 1000 1600 L 950 1600 L 900 1600 Z" fill="rgb(0,0,0)" stroke="rgb(0,0,0)" /><path d="M 800 100 L 900 100 L 900 200 L 800 200 Z" fill="rgb(192,192,192)" stroke="rgb(192,192,192)" /><path d="M 475 1225 L 525 1175 L 600 1200 L 600 1300 L 500 1300 Z" fill="rgb(224,224,224)" stroke="rgb(224,224,224)" /><path d="M 400 400 L 475 375 L 525 425 L 500 500 L 400 500 Z" fill="rgb(248,248,248)" stroke="rgb(248,248,248)" /><path d="M 1000 1200 L 1075 1175 L 1100 1200 L 1125 1225 L 1075 1275 L 1000 1300 Z" fill="rgb(248,248,248)" stroke="rgb(248,248,248)" /><path d="M 600 300 L 700 300 L 700 400 L 625 375 Z" fill="rgb(248,248,248)" stroke="rgb(248,248,248)" /><path d="M 1100 100 L 1175 125 L 1225 175 L 1175 225 L 1100 200 Z" fill="rgb(0,0,0)" stroke="rgb(0,0,0)" /><path d="M 675 1025 L 725 975 L 775 1025 L 775 1050 L 775 1075 L 750 1075 L 725 1075 Z" fill="rgb(248,16,88)" stroke="rgb(248,16,88)" /><path d="M 1425 1425 L 1500 1400 L 1500 1500 L 1400 1500 Z" fill="rgb(0,158,0)" stroke="rgb(0,158,0)" /><path d="M 1175 1025 L 1200 1000 L 1225 975 L 1275 1025 L 1275 1050 L 1275 1075 L 1225 1125 L 1200 1100 L 1175 1075 Z" fill="rgb(248,248,248)" stroke="rgb(248,248,248)" /><path d="M 1500 1500 L 1600 1500 L 1600 1550 L 1600 1600 L 1550 1600 L 1500 1600 Z" fill="rgb(0,158,0)" stroke="rgb(0,158,0)" /><path d="M 1325 1125 L 1375 1075 L 1425 1125 L 1400 1200 L 1325 1225 L 1300 1200 L 1275 1175 Z" fill="rgb(192,192,192)" stroke="rgb(192,192,192)" /><path d="M 0 0 L 50 0 L 100 0 L 100 100 L 0 100 L 0 50 Z" fill="rgb(0,158,0)" stroke="rgb(0,158,0)" /><path d="M 275 1325 L 300 1300 L 325 1275 L 400 1300 L 400 1400 L 325 1375 Z" fill="rgb(192,192,192)" stroke="rgb(192,192,192)" /><path d="M 75 1325 L 100 1300 L 125 1275 L 175 1325 L 225 1375 L 200 1400 L 175 1425 L 100 1400 Z" fill="rgb(0,158,0)" stroke="rgb(0,158,0)" /><path d="M 825 1125 L 900 1100 L 900 1200 L 825 1175 Z" fill="rgb(248,248,248)" stroke="rgb(248,248,248)" /><path d="M 400 1400 L 475 1425 L 525 1475 L 475 1525 L 400 1500 Z" fill="rgb(0,0,0)" stroke="rgb(0,0,0)" /><path d="M 200 1000 L 275 1025 L 325 1075 L 275 1125 L 225 1075 Z" fill="rgb(224,224,224)" stroke="rgb(224,224,224)" /><path d="M 900 1000 L 1000 1000 L 1000 1100 L 900 1100 Z" fill="rgb(248,248,248)" stroke="rgb(248,248,248)" /><path d="M 475 1525 L 525 1475 L 600 1500 L 600 1600 L 550 1600 L 500 1600 Z" fill="rgb(0,0,0)" stroke="rgb(0,0,0)" /><path d="M 975 125 L 1025 75 L 1100 100 L 1100 200 L 1000 200 Z" fill="rgb(0,0,0)" stroke="rgb(0,0,0)" /><path d="M 600 1200 L 700 1200 L 700 1300 L 600 1300 Z" fill="rgb(224,224,224)" stroke="rgb(224,224,224)" /><path d="M 1125 1225 L 1175 1175 L 1225 1225 L 1175 1275 L 1125 1325 L 1075 1275 Z" fill="rgb(224,224,224)" stroke="rgb(224,224,224)" /><path d="M 675 925 L 700 900 L 725 875 L 800 900 L 825 975 L 800 1000 L 775 1025 L 725 975 Z" fill="rgb(248,248,248)" stroke="rgb(248,248,248)" /><path d="M 1425 1125 L 1475 1075 L 1525 1125 L 1500 1200 L 1400 1200 Z" fill="rgb(0,0,0)" stroke="rgb(0,0,0)" /><path d="M 1300 100 L 1400 100 L 1400 200 L 1325 175 Z" fill="rgb(0,158,0)" stroke="rgb(0,158,0)" /><path d="M 1225 1525 L 1300 1500 L 1300 1600 L 1250 1600 L 1200 1600 Z" fill="rgb(0,158,0)" stroke="rgb(0,158,0)" /><path d="M 1500 200 L 1600 200 L 1600 250 L 1600 300 L 1500 300 Z" fill="rgb(0,158,0)" stroke="rgb(0,158,0)" /><path d="M 1300 1400 L 1375 1375 L 1400 1400 L 1425 1425 L 1400 1500 L 1300 1500 Z" fill="rgb(0,158,0)" stroke="rgb(0,158,0)" /><path d="M 0 1300 L 75 1325 L 100 1400 L 0 1400 L 0 1350 Z" fill="rgb(0,158,0)" stroke="rgb(0,158,0)" /><path d="M 300 800 L 400 800 L 375 875 L 300 900 Z" fill="rgb(248,248,248)" stroke="rgb(248,248,248)" /><path d="M 200 0 L 250 0 L 300 0 L 275 75 L 200 100 Z" fill="rgb(0,158,0)" stroke="rgb(0,158,0)" /><path d="M 100 800 L 200 800 L 200 900 L 100 900 Z" fill="rgb(192,192,192)" stroke="rgb(192,192,192)" /><path d="M 800 800 L 900 800 L 900 900 L 800 900 Z" fill="rgb(248,248,248)" stroke="rgb(248,248,248)" /><path d="M 400 300 L 475 275 L 525 325 L 475 375 L 400 400 Z" fill="rgb(224,224,224)" stroke="rgb(224,224,224)" /><path d="M 200 1500 L 275 1525 L 300 1600 L 250 1600 L 200 1600 Z" fill="rgb(0,158,0)" stroke="rgb(0,158,0)" /><path d="M 925 525 L 1000 500 L 1000 600 L 900 600 Z" fill="rgb(248,248,248)" stroke="rgb(248,248,248)" /><path d="M 525 225 L 600 200 L 600 300 L 525 325 L 475 275 Z" fill="rgb(224,224,224)" stroke="rgb(224,224,224)" /><path d="M 1100 600 L 1200 600 L 1200 700 L 1100 700 Z" fill="rgb(0,0,0)" stroke="rgb(0,0,0)" /><path d="M 1000 200 L 1100 200 L 1125 275 L 1075 325 L 1000 300 Z" fill="rgb(224,224,224)" stroke="rgb(224,224,224)" /></svg>