<?xml version="1.0" encoding="utf-8" ?>
<svg baseProfile="full" height="100%" version="1.1" width="100%" xmlns="http://www.w3.org/2000/svg" xmlns:ev="http://www.w3.org/2001/xml-events" xmlns:xlink="http://www.w3.org/1999/xlink"><defs /><rect fill="rgb(255,255,255)" height="100%" width="100%" x="0" y="0" /><path d="M 800 200 Q 850 150 875 225 M 875 225 Q 950 250 900 300" fill="rgb(64,32,56)" stroke="rgb(0,0,0)" /><path d="M 1300 2200 Q 1200 2200 1100 2200" fill="rgb(0,0,0)" stroke="rgb(0,0,0)" /><path d="M 800 200 Q 750 150 775 125" fill="rgb(248,136,0)" stroke="rgb(0,0,0)" /><path d="M 800 200 Q 750 250 700 200" fill="rgb(184,0,56)" stroke="rgb(0,0,0)" /><path d="M 1000 2800 Q 1050 2750 1075 2825 M 1075 2825 Q 1150 2850 1100 2900" fill="rgb(184,0,56)" stroke="rgb(0,0,0)" /><path d="M 1400 1200 Q 1450 1250 1400 1300" fill="rgb(248,200,152)" stroke="rgb(0,0,0)" /><path d="M 1500 1600 Q 1550 1550 1600 1600" fill="rgb(248,200,152)" stroke="rgb(0,0,0)" /><path d="M 1375 325 Q 1350 350 1300 300 M 1300 300 Q 1200 300 1100 300 M 1100 300 Q 1050 350 1025 275 M 1025 275 Q 925 175 825 75 M 825 75 Q 750 50 800 0" fill="rgb(64,32,56)" stroke="rgb(0,0,0)" /><path d="M 1075 1675 Q 1075 1650 1075 1625" fill="rgb(0,0,0)" stroke="rgb(0,0,0)" /><path d="M 1500 2900 Q 1450 2850 1500 2800" fill="rgb(248,136,0)" stroke="rgb(0,0,0)" /><path d="M 300 700 Q 250 750 225 725 M 225 725 Q 250 750 200 800" fill="rgb(248,136,0)" stroke="rgb(0,0,0)" /><path d="M 100 3100 Q 150 3150 100 3200" fill="rgb(40,24,32)" stroke="rgb(0,0,0)" /><path d="M 1075 1675 Q 1050 1650 1075 1625" fill="rgb(8,56,56)" stroke="rgb(0,0,0)" /><path d="M 1000 1400 Q 1000 1300 1000 1200" fill="rgb(0,0,0)" stroke="rgb(0,0,0)" /><path d="M 200 2800 Q 250 2750 300 2800" fill="rgb(168,168,112)" stroke="rgb(0,0,0)" /><path d="M 0 2900 Q 50 2850 100 2900" fill="rgb(40,24,32)" stroke="rgb(0,0,0)" /><path d="M 775 125 Q 750 150 725 125" fill="rgb(248,136,0)" stroke="rgb(0,0,0)" /><path d="M 1500 2600 Q 1550 2650 1525 2675 M 1525 2675 Q 1550 2650 1575 2725 M 1575 2725 Q 1650 2750 1600 2800 M 1600 2800 Q 1650 2850 1575 2875 M 1575 2875 Q 1550 2950 1500 2900" fill="rgb(255,0,255)" stroke="rgb(0,0,0)" /><path d="M 300 2200 Q 350 2150 400 2200" fill="rgb(40,24,32)" stroke="rgb(0,0,0)" /><path d="M 775 125 Q 750 150 725 125" fill="rgb(248,136,0)" stroke="rgb(0,0,0)" /><path d="M 325 425 Q 325 450 325 475" fill="rgb(0,0,0)" stroke="rgb(0,0,0)" /><path d="M 1175 575 Q 1150 550 1175 525" fill="rgb(88,0,0)" stroke="rgb(0,0,0)" /><path d="M 900 1000 Q 850 950 925 925 M 925 925 Q 950 925 975 925 M 975 925 Q 1025 975 1075 1025 M 1075 1025 Q 1075 1050 1075 1075 M 1075 1075 Q 1050 1150 1000 1100" fill="rgb(88,0,0)" stroke="rgb(0,0,0)" /><path d="M 700 3000 Q 650 3050 600 3000" fill="rgb(80,248,184)" stroke="rgb(0,0,0)" /><path d="M 500 2800 Q 450 2850 400 2800" fill="rgb(88,0,0)" stroke="rgb(0,0,0)" /><path d="M 375 825 Q 450 850 400 900" fill="rgb(184,0,56)" stroke="rgb(0,0,0)" /><path d="M 1000 500 Q 1050 450 1100 500" fill="rgb(248,248,248)" stroke="rgb(0,0,0)" /><path d="M 300 2800 Q 350 2850 300 2900" fill="rgb(8,56,56)" stroke="rgb(0,0,0)" /><path d="M 375 825 Q 350 850 325 825" fill="rgb(88,0,0)" stroke="rgb(0,0,0)" /><path d="M 1400 2800 Q 1350 2750 1400 2700" fill="rgb(88,0,0)" stroke="rgb(0,0,0)" /><path d="M 675 825 Q 750 850 675 875" fill="rgb(248,136,0)" stroke="rgb(0,0,0)" /><path d="M 1075 1625 Q 1050 1650 1000 1600" fill="rgb(8,56,56)" stroke="rgb(0,0,0)" /><path d="M 200 800 Q 250 750 275 775 M 275 775 Q 250 750 300 700" fill="rgb(248,136,0)" stroke="rgb(0,0,0)" /><path d="M 675 825 Q 650 850 600 800" fill="rgb(248,248,248)" stroke="rgb(0,0,0)" /><path d="M 675 825 Q 750 850 675 875" fill="rgb(248,136,0)" stroke="rgb(0,0,0)" /><path d="M 300 1200 Q 250 1250 225 1225 M 225 1225 Q 250 1250 200 1300 M 200 1300 Q 250 1350 225 1375 M 225 1375 Q 250 1350 300 1400" fill="rgb(40,24,32)" stroke="rgb(0,0,0)" /><path d="M 1500 2800 Q 1550 2750 1600 2800" fill="rgb(64,32,56)" stroke="rgb(0,0,0)" /><path d="M 1075 1475 Q 1050 1550 1025 1525 M 1025 1525 Q 1050 1550 1000 1600" fill="rgb(248,248,248)" stroke="rgb(0,0,0)" /><path d="M 1100 1200 Q 1150 1250 1100 1300 M 1100 1300 Q 1150 1350 1125 1375 M 1125 1375 Q 1150 1350 1200 1400" fill="rgb(8,56,56)" stroke="rgb(0,0,0)" /><path d="M 575 675 Q 550 675 525 675" fill="rgb(0,0,0)" stroke="rgb(0,0,0)" /><path d="M 900 3200 Q 850 3150 900 3100" fill="rgb(64,32,56)" stroke="rgb(0,0,0)" /><path d="M 1000 2900 Q 950 2850 1000 2800 M 1000 2800 Q 950 2750 1025 2725 M 1025 2725 Q 1050 2650 1100 2700 M 1100 2700 Q 1150 2650 1175 2725 M 1175 2725 Q 1250 2750 1225 2775 M 1225 2775 Q 1250 2750 1300 2800 M 1300 2800 Q 1400 2800 1500 2800" fill="rgb(0,0,0)" stroke="rgb(0,0,0)" /><path d="M 900 300 Q 950 250 975 325 M 975 325 Q 1050 350 1000 400 M 1000 400 Q 1050 450 1000 500 M 1000 500 Q 1050 550 1025 575 M 1025 575 Q 1050 575 1075 575 M 1075 575 Q 1050 550 1100 500" fill="rgb(248,136,0)" stroke="rgb(0,0,0)" /><path d="M 675 2075 Q 650 2050 675 2025" fill="rgb(48,112,112)" stroke="rgb(0,0,0)" /><path d="M 1000 1600 Q 950 1650 925 1625 M 925 1625 Q 950 1650 900 1700" fill="rgb(248,136,0)" stroke="rgb(0,0,0)" /><path d="M 1200 1500 Q 1150 1450 1200 1400" fill="rgb(248,248,248)" stroke="rgb(0,0,0)" /><path d="M 600 1700 Q 650 1750 625 1775 M 625 1775 Q 650 1750 675 1825 M 675 1825 Q 750 1850 700 1900" fill="rgb(48,112,112)" stroke="rgb(0,0,0)" /><path d="M 400 1400 Q 350 1450 300 1400" fill="rgb(64,32,56)" stroke="rgb(0,0,0)" /><path d="M 875 2725 Q 850 2750 800 2700" fill="rgb(48,112,112)" stroke="rgb(0,0,0)" /><path d="M 300 1900 Q 250 1950 200 1900" fill="rgb(64,32,56)" stroke="rgb(0,0,0)" /><path d="M 1000 400 Q 1050 350 1100 400 M 1100 400 Q 1150 350 1175 425 M 1175 425 Q 1275 525 1375 625 M 1375 625 Q 1450 650 1400 700 M 1400 700 Q 1450 750 1375 775 M 1375 775 Q 1350 850 1300 800 M 1300 800 Q 1200 800 1100 800" fill="rgb(0,0,0)" stroke="rgb(0,0,0)" /><path d="M 1500 1300 Q 1450 1350 1400 1300 M 1400 1300 Q 1350 1350 1325 1275 M 1325 1275 Q 1250 1250 1300 1200" fill="rgb(88,0,0)" stroke="rgb(0,0,0)" /><path d="M 300 1900 Q 300 2000 300 2100" fill="rgb(0,0,0)" stroke="rgb(0,0,0)" /><path d="M 300 1900 Q 350 1850 375 1925 M 375 1925 Q 450 1950 400 2000 M 400 2000 Q 450 2050 400 2100" fill="rgb(80,208,232)" stroke="rgb(0,0,0)" /><path d="M 725 1125 Q 750 1150 725 1175" fill="rgb(248,128,104)" stroke="rgb(0,0,0)" /><path d="M 1300 1400 Q 1350 1450 1325 1475 M 1325 1475 Q 1350 1450 1375 1525 M 1375 1525 Q 1450 1550 1400 1600 M 1400 1600 Q 1400 1700 1400 1800" fill="rgb(0,0,0)" stroke="rgb(0,0,0)" /><path d="M 875 2725 Q 950 2750 875 2775" fill="rgb(8,56,56)" stroke="rgb(0,0,0)" /><path d="M 400 2200 Q 600 2200 800 2200" fill="rgb(0,0,0)" stroke="rgb(0,0,0)" /><path d="M 1400 2700 Q 1450 2650 1475 2725 M 1475 2725 Q 1550 2750 1500 2800" fill="rgb(64,32,56)" stroke="rgb(0,0,0)" /><path d="M 875 2725 Q 950 2750 875 2775" fill="rgb(8,56,56)" stroke="rgb(0,0,0)" /><path d="M 1000 1100 Q 950 1050 975 1025 M 975 1025 Q 950 1050 900 1000 M 900 1000 Q 850 1050 825 1025 M 825 1025 Q 850 1050 800 1100" fill="rgb(248,248,248)" stroke="rgb(0,0,0)" /><path d="M 700 2500 Q 650 2550 625 2475 M 625 2475 Q 600 2400 575 2325 M 575 2325 Q 550 2350 525 2275 M 525 2275 Q 450 2250 500 2200" fill="rgb(80,208,232)" stroke="rgb(0,0,0)" /><path d="M 900 400 Q 850 450 825 375 M 825 375 Q 750 350 800 300 M 800 300 Q 750 250 800 200" fill="rgb(184,0,56)" stroke="rgb(0,0,0)" /><path d="M 975 2675 Q 950 2675 925 2675 M 925 2675 Q 925 2650 925 2625" fill="rgb(0,0,0)" stroke="rgb(0,0,0)" /><path d="M 725 1125 Q 750 1150 725 1175" fill="rgb(248,128,104)" stroke="rgb(0,0,0)" /><path d="M 1000 2000 Q 1050 1950 1075 1975 M 1075 1975 Q 1050 1950 1100 1900 M 1100 1900 Q 1050 1850 1100 1800 M 1100 1800 Q 1050 1750 1125 1725 M 1125 1725 Q 1150 1650 1200 1700" fill="rgb(248,248,248)" stroke="rgb(0,0,0)" /><path d="M 1400 1100 Q 1350 1150 1325 1075 M 1325 1075 Q 1250 1050 1300 1000 M 1300 1000 Q 1300 900 1300 800" fill="rgb(0,0,0)" stroke="rgb(0,0,0)" /><path d="M 400 2900 Q 450 2950 375 2975 M 375 2975 Q 350 3050 325 3025 M 325 3025 Q 350 3050 300 3100" fill="rgb(184,0,56)" stroke="rgb(0,0,0)" /><path d="M 300 1400 Q 350 1450 275 1475 M 275 1475 Q 250 1550 225 1525 M 225 1525 Q 225 1550 225 1575 M 225 1575 Q 250 1550 300 1600" fill="rgb(64,32,56)" stroke="rgb(0,0,0)" /><path d="M 300 2100 Q 250 2150 225 2075 M 225 2075 Q 150 2050 200 2000 M 200 2000 Q 150 1950 200 1900 M 200 1900 Q 150 1850 225 1825 M 225 1825 Q 250 1750 275 1775 M 275 1775 Q 250 1750 300 1700 M 300 1700 Q 250 1650 300 1600" fill="rgb(255,0,255)" stroke="rgb(0,0,0)" /><path d="M 1400 1700 Q 1350 1750 1300 1700" fill="rgb(248,128,104)" stroke="rgb(0,0,0)" /><path d="M 700 300 Q 650 350 625 325 M 625 325 Q 650 350 600 400 M 600 400 Q 650 450 625 475 M 625 475 Q 650 450 675 525 M 675 525 Q 675 550 675 575 M 675 575 Q 650 650 600 600 M 600 600 Q 550 650 525 575 M 525 575 Q 450 550 500 500 M 500 500 Q 450 450 500 400" fill="rgb(248,248,248)" stroke="rgb(0,0,0)" /><path d="M 700 2200 Q 650 2150 725 2125 M 725 2125 Q 800 2100 875 2075 M 875 2075 Q 900 2000 925 1925 M 925 1925 Q 950 1850 975 1875 M 975 1875 Q 1000 1800 1025 1725 M 1025 1725 Q 1050 1650 1075 1675" fill="rgb(8,56,56)" stroke="rgb(0,0,0)" /><path d="M 1075 1425 Q 1075 1450 1075 1475" fill="rgb(0,0,0)" stroke="rgb(0,0,0)" /><path d="M 1400 1400 Q 1450 1450 1425 1475 M 1425 1475 Q 1450 1450 1475 1525 M 1475 1525 Q 1550 1550 1500 1600 M 1500 1600 Q 1550 1650 1500 1700 M 1500 1700 Q 1550 1750 1475 1775 M 1475 1775 Q 1450 1850 1400 1800" fill="rgb(40,24,32)" stroke="rgb(0,0,0)" /><path d="M 500 0 Q 550 50 525 75 M 525 75 Q 550 50 575 125 M 575 125 Q 650 150 600 200 M 600 200 Q 650 250 575 275 M 575 275 Q 550 350 500 300 M 500 300 Q 350 300 200 300 M 200 300 Q 150 350 125 325 M 125 325 Q 125 350 125 375 M 125 375 Q 200 450 275 525 M 275 525 Q 275 550 275 575 M 275 575 Q 175 675 75 775 M 75 775 Q 50 850 0 800" fill="rgb(64,32,56)" stroke="rgb(0,0,0)" /><path d="M 1700 1300 Q 1650 1350 1625 1275 M 1625 1275 Q 1575 1225 1525 1175 M 1525 1175 Q 1500 1100 1475 1025 M 1475 1025 Q 1450 1050 1400 1000" fill="rgb(40,24,32)" stroke="rgb(0,0,0)" /><path d="M 1075 1425 Q 1150 1450 1075 1475" fill="rgb(248,248,248)" stroke="rgb(0,0,0)" /><path d="M 900 300 Q 850 350 800 300" fill="rgb(248,136,0)" stroke="rgb(0,0,0)" /><path d="M 575 675 Q 550 650 600 600" fill="rgb(184,0,56)" stroke="rgb(0,0,0)" /><path d="M 1100 2300 Q 1050 2250 1100 2200 M 1100 2200 Q 1050 2150 1125 2125 M 1125 2125 Q 1150 2050 1200 2100 M 1200 2100 Q 1250 2050 1300 2100" fill="rgb(184,0,56)" stroke="rgb(0,0,0)" /><path d="M 600 1700 Q 500 1700 400 1700" fill="rgb(0,0,0)" stroke="rgb(0,0,0)" /><path d="M 1200 800 Q 1250 850 1200 900 M 1200 900 Q 1250 950 1225 975 M 1225 975 Q 1250 950 1300 1000" fill="rgb(248,136,0)" stroke="rgb(0,0,0)" /><path d="M 1100 900 Q 1150 850 1200 900" fill="rgb(248,248,248)" stroke="rgb(0,0,0)" /><path d="M 0 3200 Q 0 1600 0 0 M 0 0 Q 850 0 1700 0 M 1700 0 Q 1700 1600 1700 3200" fill="rgb(0,0,0)" stroke="rgb(0,0,0)" /><path d="M 1600 1700 Q 1550 1750 1500 1700" fill="rgb(40,24,32)" stroke="rgb(0,0,0)" /><path d="M 975 2625 Q 975 2650 975 2675" fill="rgb(0,0,0)" stroke="rgb(0,0,0)" /><path d="M 400 2500 Q 450 2550 425 2575 M 425 2575 Q 450 2550 475 2625 M 475 2625 Q 475 2650 475 2675 M 475 2675 Q 450 2750 425 2725 M 425 2725 Q 450 2750 400 2800" fill="rgb(168,168,112)" stroke="rgb(0,0,0)" /><path d="M 975 2625 Q 1050 2650 975 2675" fill="rgb(8,56,56)" stroke="rgb(0,0,0)" /><path d="M 1500 2900 Q 1100 2900 700 2900" fill="rgb(0,0,0)" stroke="rgb(0,0,0)" /><path d="M 800 2100 Q 800 2200 800 2300 M 800 2300 Q 850 2350 775 2375 M 775 2375 Q 750 2450 725 2425 M 725 2425 Q 750 2450 700 2500 M 700 2500 Q 750 2550 700 2600 M 700 2600 Q 750 2650 675 2675 M 675 2675 Q 650 2750 625 2725 M 625 2725 Q 650 2750 600 2800 M 600 2800 Q 600 2900 600 3000" fill="rgb(0,0,0)" stroke="rgb(0,0,0)" /><path d="M 200 2600 Q 200 2500 200 2400 M 200 2400 Q 150 2350 225 2325 M 225 2325 Q 250 2250 275 2275 M 275 2275 Q 250 2250 300 2200 M 300 2200 Q 250 2150 300 2100" fill="rgb(255,0,255)" stroke="rgb(0,0,0)" /><path d="M 725 1475 Q 725 1450 725 1425" fill="rgb(0,0,0)" stroke="rgb(0,0,0)" /><path d="M 1300 2400 Q 1250 2450 1200 2400" fill="rgb(168,168,112)" stroke="rgb(0,0,0)" /><path d="M 1400 1800 Q 1450 1850 1375 1875 M 1375 1875 Q 1350 1950 1325 1925 M 1325 1925 Q 1350 1950 1300 2000 M 1300 2000 Q 1300 2100 1300 2200 M 1300 2200 Q 1350 2250 1325 2275 M 1325 2275 Q 1350 2250 1375 2325 M 1375 2325 Q 1450 2350 1400 2400" fill="rgb(40,24,32)" stroke="rgb(0,0,0)" /><path d="M 725 1475 Q 650 1450 725 1425" fill="rgb(248,128,104)" stroke="rgb(0,0,0)" /><path d="M 1400 2400 Q 1450 2450 1400 2500 M 1400 2500 Q 1450 2550 1375 2575 M 1375 2575 Q 1350 2650 1300 2600 M 1300 2600 Q 1250 2650 1225 2575" fill="rgb(168,168,112)" stroke="rgb(0,0,0)" /><path d="M 1225 2525 Q 1250 2450 1275 2475 M 1275 2475 Q 1250 2450 1300 2400" fill="rgb(168,168,112)" stroke="rgb(0,0,0)" /><path d="M 1300 2800 Q 1250 2750 1300 2700" fill="rgb(8,56,56)" stroke="rgb(0,0,0)" /><path d="M 675 2075 Q 650 2150 600 2100 M 600 2100 Q 500 2100 400 2100" fill="rgb(0,0,0)" stroke="rgb(0,0,0)" /><path d="M 1200 2900 Q 1150 2850 1175 2825 M 1175 2825 Q 1150 2850 1125 2775 M 1125 2775 Q 1050 2750 1100 2700" fill="rgb(184,0,56)" stroke="rgb(0,0,0)" /><path d="M 1200 2400 Q 1150 2350 1175 2325 M 1175 2325 Q 1150 2350 1100 2300 M 1100 2300 Q 1050 2350 1025 2325 M 1025 2325 Q 1050 2350 1000 2400 M 1000 2400 Q 1050 2450 1025 2475" fill="rgb(48,112,112)" stroke="rgb(0,0,0)" /><path d="M 1000 2100 Q 950 2150 925 2125 M 925 2125 Q 950 2150 900 2200 M 900 2200 Q 900 2350 900 2500 M 900 2500 Q 950 2550 875 2575 M 875 2575 Q 850 2650 800 2600" fill="rgb(8,56,56)" stroke="rgb(0,0,0)" /><path d="M 800 2700 Q 750 2750 725 2725 M 725 2725 Q 750 2750 700 2800 M 700 2800 Q 700 2900 700 3000 M 700 3000 Q 750 3050 675 3075" fill="rgb(40,24,32)" stroke="rgb(0,0,0)" /><path d="M 1325 475 Q 1400 550 1475 625 M 1475 625 Q 1550 650 1500 700 M 1500 700 Q 1550 750 1475 775 M 1475 775 Q 1450 850 1425 825 M 1425 825 Q 1450 850 1400 900 M 1400 900 Q 1400 1050 1400 1200" fill="rgb(0,0,0)" stroke="rgb(0,0,0)" /><path d="M 1225 2575 Q 1225 2550 1225 2525" fill="rgb(0,0,0)" stroke="rgb(0,0,0)" /><path d="M 1225 2575 Q 1150 2550 1225 2525" fill="rgb(168,168,112)" stroke="rgb(0,0,0)" /><path d="M 400 2900 Q 300 2900 200 2900" fill="rgb(0,0,0)" stroke="rgb(0,0,0)" /><path d="M 300 2800 Q 350 2750 400 2800" fill="rgb(248,248,248)" stroke="rgb(0,0,0)" /><path d="M 125 875 Q 150 850 200 900" fill="rgb(248,248,248)" stroke="rgb(0,0,0)" /><path d="M 1200 2100 Q 1200 2000 1200 1900 M 1200 1900 Q 1150 1850 1225 1825 M 1225 1825 Q 1250 1750 1275 1775 M 1275 1775 Q 1250 1750 1300 1700 M 1300 1700 Q 1250 1650 1300 1600 M 1300 1600 Q 1250 1550 1275 1525 M 1275 1525 Q 1250 1550 1200 1500" fill="rgb(88,0,0)" stroke="rgb(0,0,0)" /><path d="M 1700 1600 Q 1650 1650 1600 1600" fill="rgb(255,0,255)" stroke="rgb(0,0,0)" /><path d="M 400 1600 Q 350 1650 300 1600" fill="rgb(40,24,32)" stroke="rgb(0,0,0)" /><path d="M 1175 575 Q 1150 650 1125 625 M 1125 625 Q 1125 650 1125 675 M 1125 675 Q 1150 650 1200 700 M 1200 700 Q 1300 700 1400 700" fill="rgb(0,0,0)" stroke="rgb(0,0,0)" /><path d="M 675 2075 Q 650 2050 675 2025" fill="rgb(48,112,112)" stroke="rgb(0,0,0)" /><path d="M 200 2600 Q 250 2550 275 2575 M 275 2575 Q 250 2550 325 2525 M 325 2525 Q 350 2450 400 2500 M 400 2500 Q 450 2450 500 2500 M 500 2500 Q 550 2450 575 2525 M 575 2525 Q 650 2550 600 2600 M 600 2600 Q 650 2650 575 2675 M 575 2675 Q 550 2750 525 2725 M 525 2725 Q 550 2750 500 2800 M 500 2800 Q 550 2850 525 2875 M 525 2875 Q 550 2850 600 2900" fill="rgb(8,56,56)" stroke="rgb(0,0,0)" /><path d="M 375 825 Q 350 850 325 825" fill="rgb(88,0,0)" stroke="rgb(0,0,0)" /><path d="M 1500 2600 Q 1550 2550 1575 2575 M 1575 2575 Q 1550 2550 1600 2500 M 1600 2500 Q 1550 2450 1575 2425 M 1575 2425 Q 1500 2350 1425 2275 M 1425 2275 Q 1350 2250 1400 2200 M 1400 2200 Q 1400 2100 1400 2000 M 1400 2000 Q 1350 1950 1425 1925 M 1425 1925 Q 1500 1850 1575 1775 M 1575 1775 Q 1550 1750 1600 1700 M 1600 1700 Q 1550 1650 1600 1600" fill="rgb(248,128,104)" stroke="rgb(0,0,0)" /><path d="M 600 1900 Q 650 1950 625 1975 M 625 1975 Q 650 1950 675 2025" fill="rgb(8,56,56)" stroke="rgb(0,0,0)" /><path d="M 400 2900 Q 450 2850 475 2925" fill="rgb(88,0,0)" stroke="rgb(0,0,0)" /><path d="M 325 425 Q 350 450 325 475" fill="rgb(248,136,0)" stroke="rgb(0,0,0)" /><path d="M 875 1425 Q 850 1450 800 1400 M 800 1400 Q 750 1450 725 1425" fill="rgb(248,200,152)" stroke="rgb(0,0,0)" /><path d="M 1075 2475 Q 1050 2550 1025 2475" fill="rgb(8,56,56)" stroke="rgb(0,0,0)" /><path d="M 1075 2475 Q 1050 2550 1025 2475" fill="rgb(8,56,56)" stroke="rgb(0,0,0)" /><path d="M 475 2975 Q 450 3050 425 3025 M 425 3025 Q 450 3050 400 3100" fill="rgb(88,0,0)" stroke="rgb(0,0,0)" /><path d="M 1500 2900 Q 1550 2950 1475 2975 M 1475 2975 Q 1450 3050 1400 3000 M 1400 3000 Q 1250 3000 1100 3000 M 1100 3000 Q 1050 3050 1025 3025 M 1025 3025 Q 1050 3050 1000 3100" fill="rgb(64,32,56)" stroke="rgb(0,0,0)" /><path d="M 475 2975 Q 475 2950 475 2925" fill="rgb(0,0,0)" stroke="rgb(0,0,0)" /><path d="M 300 1000 Q 250 1050 225 975 M 225 975 Q 150 950 200 900" fill="rgb(64,32,56)" stroke="rgb(0,0,0)" /><path d="M 1075 2475 Q 1050 2450 1100 2400" fill="rgb(48,112,112)" stroke="rgb(0,0,0)" /><path d="M 1300 1200 Q 1250 1150 1275 1125 M 1275 1125 Q 1250 1150 1200 1100" fill="rgb(8,56,56)" stroke="rgb(0,0,0)" /><path d="M 400 1100 Q 350 1150 325 1075 M 325 1075 Q 250 1050 300 1000 M 300 1000 Q 250 950 325 925 M 325 925 Q 350 850 400 900 M 400 900 Q 450 850 500 900" fill="rgb(184,0,56)" stroke="rgb(0,0,0)" /><path d="M 700 1300 Q 750 1250 775 1275 M 775 1275 Q 775 1250 775 1225 M 775 1225 Q 750 1250 725 1175" fill="rgb(88,0,0)" stroke="rgb(0,0,0)" /><path d="M 475 2975 Q 450 2950 475 2925" fill="rgb(184,0,56)" stroke="rgb(0,0,0)" /><path d="M 1100 500 Q 1150 450 1175 525" fill="rgb(184,0,56)" stroke="rgb(0,0,0)" /><path d="M 1000 1200 Q 950 1150 1000 1100" fill="rgb(248,128,104)" stroke="rgb(0,0,0)" /><path d="M 300 1400 Q 300 1300 300 1200" fill="rgb(0,0,0)" stroke="rgb(0,0,0)" /><path d="M 300 700 Q 250 650 325 625 M 325 625 Q 350 550 400 600 M 400 600 Q 450 550 475 625 M 475 625 Q 550 650 525 675" fill="rgb(184,0,56)" stroke="rgb(0,0,0)" /><path d="M 300 1600 Q 250 1550 325 1525 M 325 1525 Q 350 1450 400 1500" fill="rgb(64,32,56)" stroke="rgb(0,0,0)" /><path d="M 200 2800 Q 200 2950 200 3100" fill="rgb(0,0,0)" stroke="rgb(0,0,0)" /><path d="M 300 1300 Q 350 1250 400 1300" fill="rgb(248,200,152)" stroke="rgb(0,0,0)" /><path d="M 600 900 Q 650 850 675 875" fill="rgb(248,248,248)" stroke="rgb(0,0,0)" /><path d="M 1300 700 Q 1250 650 1275 625 M 1275 625 Q 1250 625 1225 625 M 1225 625 Q 1250 650 1200 700" fill="rgb(248,136,0)" stroke="rgb(0,0,0)" /><path d="M 875 1475 Q 875 1450 875 1425" fill="rgb(0,0,0)" stroke="rgb(0,0,0)" /><path d="M 1500 2600 Q 1450 2650 1425 2625 M 1425 2625 Q 1450 2650 1400 2700" fill="rgb(64,32,56)" stroke="rgb(0,0,0)" /><path d="M 1375 325 Q 1375 350 1375 375" fill="rgb(0,0,0)" stroke="rgb(0,0,0)" /><path d="M 1375 325 Q 1450 350 1375 375" fill="rgb(255,0,255)" stroke="rgb(0,0,0)" /><path d="M 100 3100 Q 50 3150 0 3100" fill="rgb(255,0,255)" stroke="rgb(0,0,0)" /><path d="M 300 1200 Q 250 1150 275 1125 M 275 1125 Q 175 1025 75 925 M 75 925 Q 50 950 0 900" fill="rgb(255,0,255)" stroke="rgb(0,0,0)" /><path d="M 1400 2700 Q 1350 2750 1300 2700 M 1300 2700 Q 1250 2750 1225 2675 M 1225 2675 Q 1175 2625 1125 2575 M 1125 2575 Q 1125 2550 1125 2525 M 1125 2525 Q 1150 2450 1175 2475 M 1175 2475 Q 1150 2450 1200 2400" fill="rgb(8,56,56)" stroke="rgb(0,0,0)" /><path d="M 500 2100 Q 450 2050 500 2000 M 500 2000 Q 450 1950 525 1925 M 525 1925 Q 550 1850 600 1900 M 600 1900 Q 650 1850 700 1900 M 700 1900 Q 750 1850 775 1875 M 775 1875 Q 750 1850 800 1800 M 800 1800 Q 750 1750 800 1700" fill="rgb(48,112,112)" stroke="rgb(0,0,0)" /><path d="M 500 1000 Q 450 1050 425 1025 M 425 1025 Q 450 1050 400 1100 M 400 1100 Q 450 1150 400 1200" fill="rgb(184,0,56)" stroke="rgb(0,0,0)" /><path d="M 625 3075 Q 650 3075 675 3075" fill="rgb(0,0,0)" stroke="rgb(0,0,0)" /><path d="M 925 2625 Q 950 2625 975 2625" fill="rgb(0,0,0)" stroke="rgb(0,0,0)" /><path d="M 800 900 Q 750 950 725 925 M 725 925 Q 700 1000 675 1075 M 675 1075 Q 650 1075 625 1075 M 625 1075 Q 550 1050 600 1000 M 600 1000 Q 600 900 600 800 M 600 800 Q 550 750 625 725 M 625 725 Q 650 650 700 700 M 700 700 Q 750 650 775 725 M 775 725 Q 850 750 800 800 M 800 800 Q 850 850 800 900" fill="rgb(88,0,0)" stroke="rgb(0,0,0)" /><path d="M 1175 575 Q 1150 550 1175 525" fill="rgb(88,0,0)" stroke="rgb(0,0,0)" /><path d="M 0 2800 Q 50 2750 75 2775 M 75 2775 Q 100 2700 125 2625 M 125 2625 Q 150 2550 200 2600" fill="rgb(255,0,255)" stroke="rgb(0,0,0)" /><path d="M 325 825 Q 350 850 275 875 M 275 875 Q 250 950 200 900" fill="rgb(88,0,0)" stroke="rgb(0,0,0)" /><path d="M 700 700 Q 650 650 725 625 M 725 625 Q 750 550 800 600 M 800 600 Q 850 550 875 625 M 875 625 Q 950 650 900 700 M 900 700 Q 950 750 875 775 M 875 775 Q 850 850 800 800" fill="rgb(88,0,0)" stroke="rgb(0,0,0)" /><path d="M 600 1700 Q 550 1650 575 1625 M 575 1625 Q 550 1650 500 1600 M 500 1600 Q 450 1650 400 1600" fill="rgb(48,112,112)" stroke="rgb(0,0,0)" /><path d="M 1200 1900 Q 1250 1850 1275 1875 M 1275 1875 Q 1250 1850 1325 1825 M 1325 1825 Q 1350 1750 1400 1800" fill="rgb(248,128,104)" stroke="rgb(0,0,0)" /><path d="M 1200 1500 Q 1250 1550 1225 1575 M 1225 1575 Q 1250 1550 1300 1600" fill="rgb(88,0,0)" stroke="rgb(0,0,0)" /><path d="M 200 3000 Q 150 3050 100 3000" fill="rgb(248,248,248)" stroke="rgb(0,0,0)" /><path d="M 400 2900 Q 350 2850 400 2800" fill="rgb(8,56,56)" stroke="rgb(0,0,0)" /><path d="M 400 1200 Q 350 1250 300 1200" fill="rgb(248,200,152)" stroke="rgb(0,0,0)" /><path d="M 1500 2600 Q 1450 2550 1500 2500 M 1500 2500 Q 1450 2450 1475 2425 M 1475 2425 Q 1450 2450 1400 2400" fill="rgb(168,168,112)" stroke="rgb(0,0,0)" /><path d="M 1600 1600 Q 1600 1500 1600 1400 M 1600 1400 Q 1550 1350 1575 1325 M 1575 1325 Q 1550 1350 1500 1300" fill="rgb(248,128,104)" stroke="rgb(0,0,0)" /><path d="M 625 3075 Q 550 3050 600 3000" fill="rgb(40,24,32)" stroke="rgb(0,0,0)" /><path d="M 1200 2200 Q 1250 2250 1225 2275 M 1225 2275 Q 1250 2250 1275 2325 M 1275 2325 Q 1350 2350 1300 2400" fill="rgb(8,56,56)" stroke="rgb(0,0,0)" /><path d="M 575 675 Q 550 750 525 675" fill="rgb(88,0,0)" stroke="rgb(0,0,0)" /><path d="M 1100 900 Q 1150 950 1125 975 M 1125 975 Q 1150 950 1175 1025 M 1175 1025 Q 1250 1050 1200 1100 M 1200 1100 Q 1250 1150 1175 1175 M 1175 1175 Q 1150 1250 1100 1200 M 1100 1200 Q 1050 1250 1000 1200" fill="rgb(248,248,248)" stroke="rgb(0,0,0)" /><path d="M 800 2700 Q 800 2600 800 2500 M 800 2500 Q 750 2450 825 2425 M 825 2425 Q 850 2350 900 2400" fill="rgb(248,248,248)" stroke="rgb(0,0,0)" /><path d="M 625 3075 Q 650 3050 675 3075" fill="rgb(80,248,184)" stroke="rgb(0,0,0)" /><path d="M 1600 1500 Q 1550 1550 1525 1475 M 1525 1475 Q 1450 1450 1475 1425 M 1475 1425 Q 1450 1450 1400 1400 M 1400 1400 Q 1300 1400 1200 1400" fill="rgb(0,0,0)" stroke="rgb(0,0,0)" /><path d="M 300 1900 Q 250 1850 325 1825 M 325 1825 Q 350 1750 375 1775 M 375 1775 Q 350 1750 400 1700 M 400 1700 Q 350 1650 400 1600" fill="rgb(40,24,32)" stroke="rgb(0,0,0)" /><path d="M 600 1400 Q 600 1300 600 1200" fill="rgb(0,0,0)" stroke="rgb(0,0,0)" /><path d="M 325 425 Q 350 350 400 400 M 400 400 Q 500 400 600 400" fill="rgb(0,0,0)" stroke="rgb(0,0,0)" /><path d="M 1000 1100 Q 900 1100 800 1100 M 800 1100 Q 750 1150 725 1125" fill="rgb(248,128,104)" stroke="rgb(0,0,0)" /><path d="M 400 1200 Q 400 1300 400 1400" fill="rgb(0,0,0)" stroke="rgb(0,0,0)" /><path d="M 900 2300 Q 950 2250 975 2275 M 975 2275 Q 950 2250 1000 2200 M 1000 2200 Q 1000 2100 1000 2000 M 1000 2000 Q 950 1950 1025 1925 M 1025 1925 Q 1050 1850 1100 1900" fill="rgb(248,248,248)" stroke="rgb(0,0,0)" /><path d="M 875 1475 Q 850 1550 800 1500 M 800 1500 Q 750 1550 725 1475" fill="rgb(248,128,104)" stroke="rgb(0,0,0)" /><path d="M 200 2800 Q 200 2700 200 2600" fill="rgb(0,0,0)" stroke="rgb(0,0,0)" /><path d="M 1000 1400 Q 1050 1450 975 1475 M 975 1475 Q 925 1525 875 1575 M 875 1575 Q 850 1650 800 1600 M 800 1600 Q 750 1650 725 1575 M 725 1575 Q 675 1525 625 1475 M 625 1475 Q 550 1450 600 1400" fill="rgb(88,0,0)" stroke="rgb(0,0,0)" /><path d="M 600 2400 Q 450 2400 300 2400" fill="rgb(0,0,0)" stroke="rgb(0,0,0)" /><path d="M 1400 1200 Q 1350 1250 1300 1200" fill="rgb(248,128,104)" stroke="rgb(0,0,0)" /><path d="M 875 1475 Q 850 1450 875 1425" fill="rgb(248,200,152)" stroke="rgb(0,0,0)" /><path d="M 1300 2400 Q 1350 2350 1400 2400" fill="rgb(8,56,56)" stroke="rgb(0,0,0)" /><path d="M 500 1700 Q 450 1650 500 1600" fill="rgb(48,112,112)" stroke="rgb(0,0,0)" /><path d="M 400 500 Q 450 450 500 500" fill="rgb(248,248,248)" stroke="rgb(0,0,0)" /><path d="M 400 500 Q 350 450 400 400" fill="rgb(248,136,0)" stroke="rgb(0,0,0)" /><path d="M 1100 400 Q 1150 450 1100 500" fill="rgb(184,0,56)" stroke="rgb(0,0,0)" /><path d="M 400 500 Q 350 550 325 475" fill="rgb(64,32,56)" stroke="rgb(0,0,0)" /><path d="M 400 500 Q 450 550 400 600" fill="rgb(184,0,56)" stroke="rgb(0,0,0)" /><path d="M 1100 900 Q 1050 850 1100 800 M 1100 800 Q 1050 750 1075 725 M 1075 725 Q 1050 725 1025 725 M 1025 725 Q 1050 750 1000 800 M 1000 800 Q 1050 850 1025 875 M 1025 875 Q 1050 850 1100 900" fill="rgb(248,136,0)" stroke="rgb(0,0,0)" /><path d="M 725 125 Q 750 150 700 200 M 700 200 Q 700 300 700 400 M 700 400 Q 750 450 725 475 M 725 475 Q 750 450 800 500 M 800 500 Q 850 450 875 475 M 875 475 Q 850 450 900 400 M 900 400 Q 850 350 900 300" fill="rgb(248,136,0)" stroke="rgb(0,0,0)" /><path d="M 600 1700 Q 750 1700 900 1700 M 900 1700 Q 950 1650 975 1675 M 975 1675 Q 950 1650 1000 1600" fill="rgb(248,136,0)" stroke="rgb(0,0,0)" /><path d="M 1300 3000 Q 1250 2950 1300 2900" fill="rgb(40,24,32)" stroke="rgb(0,0,0)" /><path d="M 1200 1400 Q 1150 1350 1200 1300 M 1200 1300 Q 1150 1250 1225 1225 M 1225 1225 Q 1250 1150 1300 1200" fill="rgb(8,56,56)" stroke="rgb(0,0,0)" /><path d="M 1200 2400 Q 1100 2400 1000 2400" fill="rgb(0,0,0)" stroke="rgb(0,0,0)" /><path d="M 300 2100 Q 350 2050 400 2100" fill="rgb(48,112,112)" stroke="rgb(0,0,0)" /><path d="M 600 3000 Q 550 3050 525 3025 M 525 3025 Q 550 3050 475 3075 M 475 3075 Q 450 3150 400 3100 M 400 3100 Q 250 3100 100 3100" fill="rgb(0,0,0)" stroke="rgb(0,0,0)" /><path d="M 400 2200 Q 350 2150 400 2100" fill="rgb(40,24,32)" stroke="rgb(0,0,0)" /><path d="M 200 2700 Q 250 2650 275 2725 M 275 2725 Q 350 2750 300 2800" fill="rgb(248,248,248)" stroke="rgb(0,0,0)" /><path d="M 200 2500 Q 250 2450 275 2475 M 275 2475 Q 300 2400 325 2325 M 325 2325 Q 350 2250 375 2275 M 375 2275 Q 350 2250 400 2200" fill="rgb(64,32,56)" stroke="rgb(0,0,0)" /><path d="M 125 825 Q 150 850 125 875" fill="rgb(248,248,248)" stroke="rgb(0,0,0)" /><path d="M 125 825 Q 150 750 200 800" fill="rgb(64,32,56)" stroke="rgb(0,0,0)" /><path d="M 125 825 Q 150 850 125 875" fill="rgb(248,248,248)" stroke="rgb(0,0,0)" /><path d="M 1300 2000 Q 1250 2050 1200 2000" fill="rgb(184,0,56)" stroke="rgb(0,0,0)" /><path d="M 600 1400 Q 550 1450 525 1375 M 525 1375 Q 450 1350 500 1300 M 500 1300 Q 450 1250 525 1225 M 525 1225 Q 550 1150 600 1200 M 600 1200 Q 650 1150 675 1225 M 675 1225 Q 750 1250 700 1300 M 700 1300 Q 750 1350 675 1375 M 675 1375 Q 650 1450 600 1400" fill="rgb(248,128,104)" stroke="rgb(0,0,0)" /><path d="M 200 800 Q 250 850 200 900" fill="rgb(184,0,56)" stroke="rgb(0,0,0)" /><path d="M 1325 425 Q 1350 350 1375 375" fill="rgb(64,32,56)" stroke="rgb(0,0,0)" /><path d="M 925 2625 Q 950 2550 975 2625" fill="rgb(8,56,56)" stroke="rgb(0,0,0)" /><path d="M 1000 1400 Q 950 1450 925 1375 M 925 1375 Q 850 1350 900 1300 M 900 1300 Q 850 1250 925 1225 M 925 1225 Q 950 1150 1000 1200" fill="rgb(248,128,104)" stroke="rgb(0,0,0)" /><path d="M 1000 1400 Q 1050 1350 1075 1425" fill="rgb(248,248,248)" stroke="rgb(0,0,0)" /><path d="M 1325 425 Q 1325 450 1325 475" fill="rgb(0,0,0)" stroke="rgb(0,0,0)" /><path d="M 400 1200 Q 450 1150 475 1175 M 475 1175 Q 450 1150 500 1100 M 500 1100 Q 500 1000 500 900 M 500 900 Q 450 850 475 825 M 475 825 Q 425 775 375 725 M 375 725 Q 350 750 300 700" fill="rgb(184,0,56)" stroke="rgb(0,0,0)" /><path d="M 100 3100 Q 100 3000 100 2900 M 100 2900 Q 50 2850 125 2825 M 125 2825 Q 150 2750 200 2800" fill="rgb(40,24,32)" stroke="rgb(0,0,0)" /><path d="M 1325 425 Q 1350 450 1325 475" fill="rgb(255,0,255)" stroke="rgb(0,0,0)" /><path d="M 875 2775 Q 850 2850 800 2800" fill="rgb(8,56,56)" stroke="rgb(0,0,0)" /><path d="M 800 2700 Q 800 2800 800 2900" fill="rgb(0,0,0)" stroke="rgb(0,0,0)" /><path d="M 400 1400 Q 400 1500 400 1600" fill="rgb(0,0,0)" stroke="rgb(0,0,0)" /><path d="M 1500 1300 Q 1550 1350 1525 1375 M 1525 1375 Q 1550 1350 1600 1400" fill="rgb(248,128,104)" stroke="rgb(0,0,0)" /><path d="M 1500 1300 Q 1450 1250 1475 1225 M 1475 1225 Q 1450 1250 1400 1200" fill="rgb(248,200,152)" stroke="rgb(0,0,0)" /><path d="M 700 1700 Q 650 1650 675 1625 M 675 1625 Q 575 1525 475 1425 M 475 1425 Q 450 1450 400 1400" fill="rgb(248,136,0)" stroke="rgb(0,0,0)" /><path d="M 1100 1800 Q 1150 1750 1175 1775 M 1175 1775 Q 1150 1750 1200 1700 M 1200 1700 Q 1150 1650 1175 1625 M 1175 1625 Q 1150 1650 1125 1575 M 1125 1575 Q 1125 1550 1125 1525 M 1125 1525 Q 1150 1450 1200 1500" fill="rgb(248,248,248)" stroke="rgb(0,0,0)" /></svg>