<?xml version="1.0" encoding="utf-8" ?>
<svg baseProfile="full" height="100%" version="1.1" width="100%" xmlns="http://www.w3.org/2000/svg" xmlns:ev="http://www.w3.org/2001/xml-events" xmlns:xlink="http://www.w3.org/1999/xlink"><defs /><path d="M 700 300 L 800 300 L 825 375 L 800 400 L 775 425 L 700 400 Z" fill="rgb(184,0,56)" stroke="rgb(184,0,56)" /><path d="M 525 3125 L 575 3125 L 600 3200 L 550 3200 L 500 3200 Z" fill="rgb(40,24,32)" stroke="rgb(40,24,32)" /><path d="M 1600 900 L 1700 900 L 1700 950 L 1700 1000 L 1600 1000 Z" fill="rgb(255,0,255)" stroke="rgb(255,0,255)" /><path d="M 600 2800 L 700 2800 L 700 2900 L 600 2900 Z" fill="rgb(248,248,248)" stroke="rgb(248,248,248)" /><path d="M 700 2500 L 800 2500 L 800 2600 L 700 2600 Z" fill="rgb(248,248,248)" stroke="rgb(248,248,248)" /><path d="M 800 500 L 875 475 L 900 500 L 925 525 L 925 575 L 900 600 L 875 625 L 800 600 Z" fill="rgb(88,0,0)" stroke="rgb(88,0,0)" /><path d="M 900 0 L 950 0 L 1000 0 L 1000 100 L 925 75 Z" fill="rgb(255,0,255)" stroke="rgb(255,0,255)" /><path d="M 1400 3100 L 1500 3100 L 1500 3200 L 1450 3200 L 1400 3200 Z" fill="rgb(255,0,255)" stroke="rgb(255,0,255)" /><path d="M 1025 725 L 1050 725 L 1075 725 L 1100 800 L 1000 800 Z" fill="rgb(248,136,0)" stroke="rgb(248,136,0)" /><path d="M 1525 3025 L 1600 3000 L 1600 3100 L 1500 3100 Z" fill="rgb(255,0,255)" stroke="rgb(255,0,255)" /><path d="M 1100 2200 L 1200 2200 L 1225 2275 L 1175 2325 L 1100 2300 Z" fill="rgb(48,112,112)" stroke="rgb(48,112,112)" /><path d="M 0 1700 L 100 1700 L 100 1800 L 0 1800 L 0 1750 Z" fill="rgb(255,0,255)" stroke="rgb(255,0,255)" /><path d="M 1400 100 L 1500 100 L 1500 200 L 1400 200 Z" fill="rgb(255,0,255)" stroke="rgb(255,0,255)" /><path d="M 1200 1700 L 1300 1700 L 1275 1775 L 1225 1825 L 1175 1775 Z" fill="rgb(8,56,56)" stroke="rgb(8,56,56)" /><path d="M 125 2825 L 200 2800 L 200 2900 L 100 2900 Z" fill="rgb(184,0,56)" stroke="rgb(184,0,56)" /><path d="M 1500 400 L 1600 400 L 1600 500 L 1500 500 Z" fill="rgb(255,0,255)" stroke="rgb(255,0,255)" /><path d="M 1300 2000 L 1400 2000 L 1400 2100 L 1300 2100 Z" fill="rgb(40,24,32)" stroke="rgb(40,24,32)" /><path d="M 200 2700 L 275 2725 L 300 2800 L 200 2800 Z" fill="rgb(168,168,112)" stroke="rgb(168,168,112)" /><path d="M 300 200 L 400 200 L 400 300 L 300 300 Z" fill="rgb(255,0,255)" stroke="rgb(255,0,255)" /><path d="M 400 500 L 500 500 L 525 575 L 475 625 L 400 600 Z" fill="rgb(184,0,56)" stroke="rgb(184,0,56)" /><path d="M 500 2400 L 600 2400 L 625 2475 L 575 2525 L 500 2500 Z" fill="rgb(8,56,56)" stroke="rgb(8,56,56)" /><path d="M 1600 0 L 1650 0 L 1700 0 L 1700 50 L 1700 100 L 1600 100 Z" fill="rgb(255,0,255)" stroke="rgb(255,0,255)" /><path d="M 575 2325 L 600 2300 L 625 2275 L 700 2300 L 675 2375 L 600 2400 Z" fill="rgb(48,112,112)" stroke="rgb(48,112,112)" /><path d="M 700 2200 L 800 2200 L 800 2300 L 700 2300 Z" fill="rgb(48,112,112)" stroke="rgb(48,112,112)" /><path d="M 775 1225 L 800 1200 L 825 1175 L 875 1175 L 900 1200 L 925 1225 L 900 1300 L 825 1325 L 800 1300 L 775 1275 Z" fill="rgb(248,128,104)" stroke="rgb(248,128,104)" /><path d="M 925 925 L 950 925 L 975 925 L 1025 975 L 975 1025 L 900 1000 Z" fill="rgb(168,168,112)" stroke="rgb(168,168,112)" /><path d="M 1000 1400 L 1075 1425 L 1075 1450 L 1075 1475 L 1025 1525 L 975 1475 Z" fill="rgb(88,0,0)" stroke="rgb(88,0,0)" /><path d="M 800 1800 L 900 1800 L 875 1875 L 825 1925 L 800 1900 L 775 1875 Z" fill="rgb(8,56,56)" stroke="rgb(8,56,56)" /><path d="M 1125 1525 L 1200 1500 L 1225 1575 L 1175 1625 L 1125 1575 L 1125 1550 Z" fill="rgb(8,56,56)" stroke="rgb(8,56,56)" /><path d="M 925 1925 L 975 1875 L 1025 1925 L 1000 2000 L 900 2000 Z" fill="rgb(248,248,248)" stroke="rgb(248,248,248)" /><path d="M 1425 825 L 1475 775 L 1500 800 L 1525 825 L 1500 900 L 1400 900 Z" fill="rgb(255,0,255)" stroke="rgb(255,0,255)" /><path d="M 1200 800 L 1300 800 L 1300 900 L 1200 900 Z" fill="rgb(248,136,0)" stroke="rgb(248,136,0)" /><path d="M 100 2100 L 175 2125 L 200 2200 L 100 2200 Z" fill="rgb(255,0,255)" stroke="rgb(255,0,255)" /><path d="M 1500 1300 L 1575 1325 L 1600 1400 L 1525 1375 Z" fill="rgb(248,128,104)" stroke="rgb(248,128,104)" /><path d="M 1275 1325 L 1300 1300 L 1325 1275 L 1400 1300 L 1400 1400 L 1300 1400 Z" fill="rgb(88,0,0)" stroke="rgb(88,0,0)" /><path d="M 225 1825 L 275 1775 L 325 1825 L 300 1900 L 200 1900 Z" fill="rgb(40,24,32)" stroke="rgb(40,24,32)" /><path d="M 0 1400 L 100 1400 L 100 1500 L 0 1500 L 0 1450 Z" fill="rgb(255,0,255)" stroke="rgb(255,0,255)" /><path d="M 275 1125 L 325 1075 L 400 1100 L 400 1200 L 300 1200 Z" fill="rgb(64,32,56)" stroke="rgb(64,32,56)" /><path d="M 100 1500 L 175 1475 L 200 1500 L 225 1525 L 225 1575 L 200 1600 L 175 1625 L 100 1600 Z" fill="rgb(255,0,255)" stroke="rgb(255,0,255)" /><path d="M 400 1200 L 475 1175 L 525 1225 L 500 1300 L 400 1300 Z" fill="rgb(88,0,0)" stroke="rgb(88,0,0)" /><path d="M 225 1225 L 300 1200 L 300 1300 L 200 1300 Z" fill="rgb(40,24,32)" stroke="rgb(40,24,32)" /><path d="M 475 125 L 500 100 L 525 75 L 575 125 L 600 200 L 500 200 Z" fill="rgb(255,0,255)" stroke="rgb(255,0,255)" /><path d="M 300 1700 L 400 1700 L 375 1775 L 325 1825 L 275 1775 Z" fill="rgb(40,24,32)" stroke="rgb(40,24,32)" /><path d="M 1600 700 L 1700 700 L 1700 750 L 1700 800 L 1600 800 Z" fill="rgb(255,0,255)" stroke="rgb(255,0,255)" /><path d="M 600 1400 L 675 1375 L 725 1425 L 725 1475 L 675 1525 L 625 1475 Z" fill="rgb(248,128,104)" stroke="rgb(248,128,104)" /><path d="M 675 1525 L 725 1475 L 800 1500 L 800 1600 L 725 1575 Z" fill="rgb(248,128,104)" stroke="rgb(248,128,104)" /><path d="M 1625 2925 L 1700 2900 L 1700 2950 L 1700 3000 L 1600 3000 Z" fill="rgb(255,0,255)" stroke="rgb(255,0,255)" /><path d="M 975 925 L 1025 875 L 1100 900 L 1125 975 L 1075 1025 L 1025 975 Z" fill="rgb(88,0,0)" stroke="rgb(88,0,0)" /><path d="M 800 2500 L 900 2500 L 875 2575 L 800 2600 Z" fill="rgb(80,248,184)" stroke="rgb(80,248,184)" /><path d="M 1100 400 L 1175 425 L 1225 475 L 1175 525 L 1100 500 Z" fill="rgb(184,0,56)" stroke="rgb(184,0,56)" /><path d="M 900 2000 L 1000 2000 L 1000 2100 L 925 2125 L 875 2075 Z" fill="rgb(248,248,248)" stroke="rgb(248,248,248)" /><path d="M 1425 1925 L 1475 1875 L 1500 1900 L 1525 1925 L 1500 2000 L 1400 2000 Z" fill="rgb(255,0,255)" stroke="rgb(255,0,255)" /><path d="M 1200 700 L 1300 700 L 1300 800 L 1200 800 Z" fill="rgb(88,0,0)" stroke="rgb(88,0,0)" /><path d="M 1025 1925 L 1100 1900 L 1075 1975 L 1000 2000 Z" fill="rgb(80,248,184)" stroke="rgb(80,248,184)" /><path d="M 1475 1025 L 1500 1000 L 1525 975 L 1600 1000 L 1600 1100 L 1500 1100 Z" fill="rgb(255,0,255)" stroke="rgb(255,0,255)" /><path d="M 1275 625 L 1325 575 L 1375 625 L 1400 700 L 1300 700 Z" fill="rgb(184,0,56)" stroke="rgb(184,0,56)" /><path d="M 1075 2625 L 1100 2600 L 1125 2575 L 1175 2625 L 1225 2675 L 1175 2725 L 1100 2700 Z" fill="rgb(8,56,56)" stroke="rgb(8,56,56)" /><path d="M 0 500 L 100 500 L 100 600 L 0 600 L 0 550 Z" fill="rgb(255,0,255)" stroke="rgb(255,0,255)" /><path d="M 1200 2900 L 1300 2900 L 1300 3000 L 1200 3000 Z" fill="rgb(40,24,32)" stroke="rgb(40,24,32)" /><path d="M 100 0 L 150 0 L 200 0 L 200 100 L 100 100 Z" fill="rgb(255,0,255)" stroke="rgb(255,0,255)" /><path d="M 400 1100 L 500 1100 L 475 1175 L 400 1200 Z" fill="rgb(184,0,56)" stroke="rgb(184,0,56)" /><path d="M 225 725 L 300 700 L 275 775 L 200 800 Z" fill="rgb(248,136,0)" stroke="rgb(248,136,0)" /><path d="M 500 1000 L 600 1000 L 625 1075 L 600 1100 L 575 1125 L 500 1100 Z" fill="rgb(88,0,0)" stroke="rgb(88,0,0)" /><path d="M 300 2200 L 400 2200 L 375 2275 L 325 2325 L 275 2275 Z" fill="rgb(64,32,56)" stroke="rgb(64,32,56)" /><path d="M 575 125 L 600 100 L 625 75 L 675 75 L 700 100 L 725 125 L 700 200 L 600 200 Z" fill="rgb(64,32,56)" stroke="rgb(64,32,56)" /><path d="M 400 1700 L 500 1700 L 500 1800 L 425 1825 L 400 1800 L 375 1775 Z" fill="rgb(80,208,232)" stroke="rgb(80,208,232)" /><path d="M 700 400 L 775 425 L 800 500 L 725 475 Z" fill="rgb(184,0,56)" stroke="rgb(184,0,56)" /><path d="M 500 2000 L 575 2025 L 600 2100 L 500 2100 Z" fill="rgb(48,112,112)" stroke="rgb(48,112,112)" /><path d="M 1600 2000 L 1700 2000 L 1700 2050 L 1700 2100 L 1600 2100 Z" fill="rgb(255,0,255)" stroke="rgb(255,0,255)" /><path d="M 625 2725 L 675 2675 L 725 2725 L 700 2800 L 600 2800 Z" fill="rgb(248,248,248)" stroke="rgb(248,248,248)" /><path d="M 800 0 L 850 0 L 900 0 L 925 75 L 900 100 L 875 125 L 825 75 Z" fill="rgb(255,0,255)" stroke="rgb(255,0,255)" /><path d="M 900 2900 L 1000 2900 L 975 2975 L 900 3000 Z" fill="rgb(40,24,32)" stroke="rgb(40,24,32)" /><path d="M 1425 2625 L 1500 2600 L 1525 2675 L 1475 2725 L 1400 2700 Z" fill="rgb(64,32,56)" stroke="rgb(64,32,56)" /><path d="M 975 2625 L 1000 2600 L 1025 2575 L 1075 2625 L 1100 2700 L 1025 2725 L 975 2675 Z" fill="rgb(8,56,56)" stroke="rgb(8,56,56)" /><path d="M 1525 1925 L 1600 1900 L 1600 2000 L 1500 2000 Z" fill="rgb(255,0,255)" stroke="rgb(255,0,255)" /><path d="M 1100 1900 L 1200 1900 L 1200 2000 L 1125 2025 L 1100 2000 L 1075 1975 Z" fill="rgb(8,56,56)" stroke="rgb(8,56,56)" /><path d="M 0 2800 L 75 2775 L 125 2825 L 100 2900 L 0 2900 L 0 2850 Z" fill="rgb(40,24,32)" stroke="rgb(40,24,32)" /><path d="M 1200 2000 L 1300 2000 L 1300 2100 L 1200 2100 Z" fill="rgb(184,0,56)" stroke="rgb(184,0,56)" /><path d="M 100 2500 L 200 2500 L 200 2600 L 125 2625 L 100 2600 L 75 2575 Z" fill="rgb(255,0,255)" stroke="rgb(255,0,255)" /><path d="M 1325 2525 L 1400 2500 L 1375 2575 L 1300 2600 Z" fill="rgb(248,248,248)" stroke="rgb(248,248,248)" /><path d="M 200 3000 L 275 2975 L 300 3000 L 325 3025 L 300 3100 L 200 3100 Z" fill="rgb(248,136,0)" stroke="rgb(248,136,0)" /><path d="M 300 3100 L 400 3100 L 400 3200 L 350 3200 L 300 3200 Z" fill="rgb(40,24,32)" stroke="rgb(40,24,32)" /><path d="M 400 2400 L 500 2400 L 500 2500 L 400 2500 Z" fill="rgb(8,56,56)" stroke="rgb(8,56,56)" /><path d="M 475 2925 L 525 2875 L 600 2900 L 600 3000 L 525 3025 L 475 2975 Z" fill="rgb(88,0,0)" stroke="rgb(88,0,0)" /><path d="M 1600 1100 L 1700 1100 L 1700 1150 L 1700 1200 L 1625 1175 Z" fill="rgb(255,0,255)" stroke="rgb(255,0,255)" /><path d="M 575 1825 L 600 1800 L 625 1775 L 675 1825 L 700 1900 L 600 1900 Z" fill="rgb(80,208,232)" stroke="rgb(80,208,232)" /><path d="M 725 2725 L 800 2700 L 800 2800 L 700 2800 Z" fill="rgb(80,248,184)" stroke="rgb(80,248,184)" /><path d="M 775 725 L 800 700 L 825 675 L 900 700 L 875 775 L 800 800 Z" fill="rgb(184,0,56)" stroke="rgb(184,0,56)" /><path d="M 875 625 L 900 600 L 925 575 L 975 625 L 975 675 L 900 700 Z" fill="rgb(88,0,0)" stroke="rgb(88,0,0)" /><path d="M 1400 2900 L 1500 2900 L 1475 2975 L 1400 3000 Z" fill="rgb(64,32,56)" stroke="rgb(64,32,56)" /><path d="M 1000 500 L 1100 500 L 1075 575 L 1050 575 L 1025 575 Z" fill="rgb(248,136,0)" stroke="rgb(248,136,0)" /><path d="M 1475 2425 L 1525 2375 L 1575 2425 L 1600 2500 L 1500 2500 Z" fill="rgb(40,24,32)" stroke="rgb(40,24,32)" /><path d="M 1100 800 L 1200 800 L 1200 900 L 1100 900 Z" fill="rgb(248,248,248)" stroke="rgb(248,248,248)" /><path d="M 0 1900 L 100 1900 L 100 2000 L 0 2000 L 0 1950 Z" fill="rgb(255,0,255)" stroke="rgb(255,0,255)" /><path d="M 1400 700 L 1500 700 L 1475 775 L 1425 825 L 1375 775 Z" fill="rgb(64,32,56)" stroke="rgb(64,32,56)" /><path d="M 1200 1900 L 1275 1875 L 1325 1925 L 1300 2000 L 1200 2000 Z" fill="rgb(88,0,0)" stroke="rgb(88,0,0)" /><path d="M 100 1800 L 175 1775 L 200 1800 L 225 1825 L 200 1900 L 100 1900 Z" fill="rgb(255,0,255)" stroke="rgb(255,0,255)" /><path d="M 1475 625 L 1500 600 L 1525 575 L 1600 600 L 1600 700 L 1500 700 Z" fill="rgb(255,0,255)" stroke="rgb(255,0,255)" /><path d="M 1325 1825 L 1400 1800 L 1375 1875 L 1325 1925 L 1275 1875 Z" fill="rgb(88,0,0)" stroke="rgb(88,0,0)" /><path d="M 200 2500 L 275 2475 L 325 2525 L 275 2575 L 200 2600 Z" fill="rgb(8,56,56)" stroke="rgb(8,56,56)" /><path d="M 0 900 L 75 925 L 125 975 L 100 1000 L 75 1025 L 0 1000 L 0 950 Z" fill="rgb(255,0,255)" stroke="rgb(255,0,255)" /><path d="M 325 425 L 400 400 L 400 500 L 325 475 L 325 450 Z" fill="rgb(248,136,0)" stroke="rgb(248,136,0)" /><path d="M 375 725 L 400 700 L 425 675 L 475 725 L 525 775 L 500 800 L 475 825 L 425 775 Z" fill="rgb(88,0,0)" stroke="rgb(88,0,0)" /><path d="M 475 625 L 525 575 L 600 600 L 575 675 L 550 675 L 525 675 Z" fill="rgb(184,0,56)" stroke="rgb(184,0,56)" /><path d="M 1600 200 L 1700 200 L 1700 250 L 1700 300 L 1600 300 Z" fill="rgb(255,0,255)" stroke="rgb(255,0,255)" /><path d="M 600 2100 L 675 2075 L 725 2125 L 700 2200 L 600 2200 Z" fill="rgb(8,56,56)" stroke="rgb(8,56,56)" /><path d="M 675 1625 L 725 1575 L 800 1600 L 800 1700 L 700 1700 Z" fill="rgb(88,0,0)" stroke="rgb(88,0,0)" /><path d="M 1575 2425 L 1600 2400 L 1625 2375 L 1700 2400 L 1700 2450 L 1700 2500 L 1600 2500 Z" fill="rgb(255,0,255)" stroke="rgb(255,0,255)" /><path d="M 800 1400 L 875 1425 L 875 1450 L 875 1475 L 800 1500 Z" fill="rgb(248,200,152)" stroke="rgb(248,200,152)" /><path d="M 925 1525 L 975 1475 L 1025 1525 L 1000 1600 L 925 1625 L 875 1575 Z" fill="rgb(88,0,0)" stroke="rgb(88,0,0)" /><path d="M 1000 1200 L 1100 1200 L 1100 1300 L 1000 1300 Z" fill="rgb(248,248,248)" stroke="rgb(248,248,248)" /><path d="M 800 2000 L 900 2000 L 875 2075 L 800 2100 Z" fill="rgb(8,56,56)" stroke="rgb(8,56,56)" /><path d="M 1100 100 L 1200 100 L 1200 200 L 1100 200 Z" fill="rgb(255,0,255)" stroke="rgb(255,0,255)" /><path d="M 900 1700 L 975 1675 L 1025 1725 L 1000 1800 L 900 1800 Z" fill="rgb(8,56,56)" stroke="rgb(8,56,56)" /><path d="M 1400 1400 L 1475 1425 L 1525 1475 L 1475 1525 L 1425 1475 Z" fill="rgb(248,200,152)" stroke="rgb(248,200,152)" /><path d="M 1175 1025 L 1225 975 L 1300 1000 L 1325 1075 L 1275 1125 L 1200 1100 Z" fill="rgb(184,0,56)" stroke="rgb(184,0,56)" /><path d="M 1000 2200 L 1100 2200 L 1100 2300 L 1025 2325 L 975 2275 Z" fill="rgb(8,56,56)" stroke="rgb(8,56,56)" /><path d="M 1475 1525 L 1525 1475 L 1600 1500 L 1600 1600 L 1500 1600 Z" fill="rgb(248,200,152)" stroke="rgb(248,200,152)" /><path d="M 1275 1125 L 1325 1075 L 1400 1100 L 1400 1200 L 1300 1200 Z" fill="rgb(184,0,56)" stroke="rgb(184,0,56)" /><path d="M 175 1625 L 200 1600 L 225 1575 L 300 1600 L 300 1700 L 200 1700 Z" fill="rgb(255,0,255)" stroke="rgb(255,0,255)" /><path d="M 0 0 L 50 0 L 100 0 L 100 100 L 0 100 L 0 50 Z" fill="rgb(255,0,255)" stroke="rgb(255,0,255)" /><path d="M 300 1300 L 400 1300 L 400 1400 L 300 1400 Z" fill="rgb(248,128,104)" stroke="rgb(248,128,104)" /><path d="M 100 1300 L 200 1300 L 225 1375 L 200 1400 L 175 1425 L 100 1400 Z" fill="rgb(255,0,255)" stroke="rgb(255,0,255)" /><path d="M 400 1400 L 475 1425 L 525 1475 L 500 1500 L 475 1525 L 400 1500 Z" fill="rgb(248,136,0)" stroke="rgb(248,136,0)" /><path d="M 175 1025 L 225 975 L 300 1000 L 325 1075 L 275 1125 L 225 1075 Z" fill="rgb(64,32,56)" stroke="rgb(64,32,56)" /><path d="M 475 1525 L 500 1500 L 525 1475 L 575 1525 L 625 1575 L 575 1625 L 500 1600 Z" fill="rgb(248,136,0)" stroke="rgb(248,136,0)" /><path d="M 300 1900 L 375 1925 L 400 2000 L 300 2000 Z" fill="rgb(48,112,112)" stroke="rgb(48,112,112)" /><path d="M 600 1200 L 675 1225 L 700 1300 L 600 1300 Z" fill="rgb(8,56,56)" stroke="rgb(8,56,56)" /><path d="M 400 2000 L 500 2000 L 500 2100 L 400 2100 Z" fill="rgb(80,208,232)" stroke="rgb(80,208,232)" /><path d="M 725 925 L 800 900 L 775 975 L 700 1000 Z" fill="rgb(184,0,56)" stroke="rgb(184,0,56)" /><path d="M 1600 3100 L 1700 3100 L 1700 3150 L 1700 3200 L 1650 3200 L 1600 3200 Z" fill="rgb(255,0,255)" stroke="rgb(255,0,255)" /><path d="M 800 2700 L 875 2725 L 875 2750 L 875 2775 L 800 2800 Z" fill="rgb(48,112,112)" stroke="rgb(48,112,112)" /><path d="M 1125 625 L 1175 575 L 1225 625 L 1200 700 L 1125 675 L 1125 650 Z" fill="rgb(184,0,56)" stroke="rgb(184,0,56)" /><path d="M 925 2625 L 950 2625 L 975 2625 L 975 2650 L 975 2675 L 950 2675 L 925 2675 L 925 2650 Z" fill="rgb(80,208,232)" stroke="rgb(80,208,232)" /><path d="M 1400 1700 L 1500 1700 L 1475 1775 L 1400 1800 Z" fill="rgb(8,56,56)" stroke="rgb(8,56,56)" /><path d="M 1200 100 L 1300 100 L 1300 200 L 1200 200 Z" fill="rgb(255,0,255)" stroke="rgb(255,0,255)" /><path d="M 1025 1725 L 1075 1675 L 1125 1725 L 1100 1800 L 1000 1800 Z" fill="rgb(248,248,248)" stroke="rgb(248,248,248)" /><path d="M 1500 2000 L 1600 2000 L 1600 2100 L 1500 2100 Z" fill="rgb(255,0,255)" stroke="rgb(255,0,255)" /><path d="M 1325 425 L 1375 375 L 1400 400 L 1425 425 L 1425 475 L 1400 500 L 1375 525 L 1325 475 L 1325 450 Z" fill="rgb(255,0,255)" stroke="rgb(255,0,255)" /><path d="M 1075 2825 L 1125 2775 L 1175 2825 L 1200 2900 L 1100 2900 Z" fill="rgb(184,0,56)" stroke="rgb(184,0,56)" /><path d="M 0 700 L 75 675 L 100 700 L 125 725 L 75 775 L 0 800 L 0 750 Z" fill="rgb(255,0,255)" stroke="rgb(255,0,255)" /><path d="M 1225 3125 L 1300 3100 L 1300 3200 L 1250 3200 L 1200 3200 Z" fill="rgb(255,0,255)" stroke="rgb(255,0,255)" /><path d="M 100 600 L 175 575 L 200 600 L 225 625 L 175 675 L 125 725 L 100 700 L 75 675 Z" fill="rgb(255,0,255)" stroke="rgb(255,0,255)" /><path d="M 1300 3000 L 1400 3000 L 1400 3100 L 1300 3100 Z" fill="rgb(255,0,255)" stroke="rgb(255,0,255)" /><path d="M 175 525 L 200 500 L 225 475 L 275 525 L 275 550 L 275 575 L 225 625 L 200 600 L 175 575 Z" fill="rgb(255,0,255)" stroke="rgb(255,0,255)" /><path d="M 475 825 L 500 800 L 525 775 L 600 800 L 600 900 L 500 900 Z" fill="rgb(88,0,0)" stroke="rgb(88,0,0)" /><path d="M 300 2400 L 400 2400 L 400 2500 L 325 2525 L 275 2475 Z" fill="rgb(8,56,56)" stroke="rgb(8,56,56)" /><path d="M 625 725 L 700 700 L 725 775 L 700 800 L 675 825 L 600 800 Z" fill="rgb(248,136,0)" stroke="rgb(248,136,0)" /><path d="M 375 1925 L 400 1900 L 425 1875 L 475 1875 L 500 1900 L 525 1925 L 500 2000 L 400 2000 Z" fill="rgb(80,208,232)" stroke="rgb(80,208,232)" /><path d="M 725 625 L 800 600 L 825 675 L 800 700 L 775 725 L 700 700 Z" fill="rgb(184,0,56)" stroke="rgb(184,0,56)" /><path d="M 500 1800 L 575 1825 L 600 1900 L 525 1925 L 500 1900 L 475 1875 Z" fill="rgb(80,208,232)" stroke="rgb(80,208,232)" /><path d="M 1600 2200 L 1700 2200 L 1700 2250 L 1700 2300 L 1600 2300 Z" fill="rgb(255,0,255)" stroke="rgb(255,0,255)" /><path d="M 575 2525 L 625 2475 L 700 2500 L 700 2600 L 600 2600 Z" fill="rgb(8,56,56)" stroke="rgb(8,56,56)" /><path d="M 700 2800 L 800 2800 L 800 2900 L 700 2900 Z" fill="rgb(80,248,184)" stroke="rgb(80,248,184)" /><path d="M 800 200 L 875 225 L 900 300 L 800 300 Z" fill="rgb(248,248,248)" stroke="rgb(248,248,248)" /><path d="M 900 300 L 975 325 L 1000 400 L 900 400 Z" fill="rgb(88,0,0)" stroke="rgb(88,0,0)" /><path d="M 1400 2400 L 1475 2425 L 1500 2500 L 1400 2500 Z" fill="rgb(168,168,112)" stroke="rgb(168,168,112)" /><path d="M 1000 2400 L 1100 2400 L 1075 2475 L 1050 2475 L 1025 2475 Z" fill="rgb(48,112,112)" stroke="rgb(48,112,112)" /><path d="M 1500 2900 L 1575 2875 L 1600 2900 L 1625 2925 L 1600 3000 L 1525 3025 L 1500 3000 L 1475 2975 Z" fill="rgb(255,0,255)" stroke="rgb(255,0,255)" /><path d="M 1125 2125 L 1200 2100 L 1200 2200 L 1100 2200 Z" fill="rgb(248,128,104)" stroke="rgb(248,128,104)" /><path d="M 0 3000 L 100 3000 L 100 3100 L 0 3100 L 0 3050 Z" fill="rgb(64,32,56)" stroke="rgb(64,32,56)" /><path d="M 1400 200 L 1500 200 L 1500 300 L 1425 275 Z" fill="rgb(255,0,255)" stroke="rgb(255,0,255)" /><path d="M 1200 2200 L 1300 2200 L 1325 2275 L 1275 2325 L 1225 2275 Z" fill="rgb(8,56,56)" stroke="rgb(8,56,56)" /><path d="M 100 3100 L 200 3100 L 200 3200 L 150 3200 L 100 3200 Z" fill="rgb(40,24,32)" stroke="rgb(40,24,32)" /><path d="M 1275 2325 L 1325 2275 L 1375 2325 L 1400 2400 L 1300 2400 Z" fill="rgb(8,56,56)" stroke="rgb(8,56,56)" /><path d="M 200 2800 L 300 2800 L 300 2900 L 200 2900 Z" fill="rgb(88,0,0)" stroke="rgb(88,0,0)" /><path d="M 300 100 L 400 100 L 400 200 L 300 200 Z" fill="rgb(255,0,255)" stroke="rgb(255,0,255)" /><path d="M 375 2625 L 400 2600 L 425 2575 L 475 2625 L 475 2650 L 475 2675 L 425 2725 L 400 2700 L 375 2675 Z" fill="rgb(248,248,248)" stroke="rgb(248,248,248)" /><path d="M 525 2725 L 575 2675 L 625 2725 L 600 2800 L 500 2800 Z" fill="rgb(8,56,56)" stroke="rgb(8,56,56)" /><path d="M 1575 1325 L 1625 1275 L 1700 1300 L 1700 1350 L 1700 1400 L 1600 1400 Z" fill="rgb(40,24,32)" stroke="rgb(40,24,32)" /><path d="M 575 1625 L 625 1575 L 675 1625 L 700 1700 L 600 1700 Z" fill="rgb(248,136,0)" stroke="rgb(248,136,0)" /><path d="M 725 2125 L 800 2100 L 800 2200 L 700 2200 Z" fill="rgb(248,136,0)" stroke="rgb(248,136,0)" /><path d="M 800 900 L 875 875 L 900 900 L 925 925 L 900 1000 L 825 1025 L 775 975 Z" fill="rgb(88,0,0)" stroke="rgb(88,0,0)" /><path d="M 900 400 L 1000 400 L 1000 500 L 925 525 L 900 500 L 875 475 Z" fill="rgb(88,0,0)" stroke="rgb(88,0,0)" /><path d="M 975 325 L 1025 275 L 1100 300 L 1100 400 L 1000 400 Z" fill="rgb(64,32,56)" stroke="rgb(64,32,56)" /><path d="M 1500 2600 L 1575 2575 L 1600 2600 L 1625 2625 L 1625 2675 L 1600 2700 L 1575 2725 L 1525 2675 Z" fill="rgb(255,0,255)" stroke="rgb(255,0,255)" /><path d="M 1075 1025 L 1125 975 L 1175 1025 L 1200 1100 L 1125 1125 L 1100 1100 L 1075 1075 Z" fill="rgb(88,0,0)" stroke="rgb(88,0,0)" /><path d="M 0 2100 L 100 2100 L 100 2200 L 0 2200 L 0 2150 Z" fill="rgb(255,0,255)" stroke="rgb(255,0,255)" /><path d="M 1375 525 L 1400 500 L 1425 475 L 1500 500 L 1525 575 L 1500 600 L 1475 625 L 1425 575 Z" fill="rgb(255,0,255)" stroke="rgb(255,0,255)" /><path d="M 1200 1300 L 1275 1325 L 1300 1400 L 1200 1400 Z" fill="rgb(88,0,0)" stroke="rgb(88,0,0)" /><path d="M 100 1600 L 175 1625 L 200 1700 L 100 1700 Z" fill="rgb(255,0,255)" stroke="rgb(255,0,255)" /><path d="M 1500 0 L 1550 0 L 1600 0 L 1600 100 L 1500 100 Z" fill="rgb(255,0,255)" stroke="rgb(255,0,255)" /><path d="M 1300 1600 L 1400 1600 L 1400 1700 L 1300 1700 Z" fill="rgb(248,136,0)" stroke="rgb(248,136,0)" /><path d="M 225 2325 L 275 2275 L 325 2325 L 300 2400 L 200 2400 Z" fill="rgb(64,32,56)" stroke="rgb(64,32,56)" /><path d="M 0 1100 L 100 1100 L 100 1200 L 0 1200 L 0 1150 Z" fill="rgb(255,0,255)" stroke="rgb(255,0,255)" /><path d="M 325 625 L 400 600 L 425 675 L 400 700 L 375 725 L 300 700 Z" fill="rgb(88,0,0)" stroke="rgb(88,0,0)" /><path d="M 75 1025 L 100 1000 L 125 975 L 175 1025 L 225 1075 L 200 1100 L 175 1125 L 100 1100 Z" fill="rgb(255,0,255)" stroke="rgb(255,0,255)" /><path d="M 400 100 L 475 125 L 500 200 L 400 200 Z" fill="rgb(255,0,255)" stroke="rgb(255,0,255)" /><path d="M 500 400 L 600 400 L 625 475 L 600 500 L 575 525 L 500 500 Z" fill="rgb(248,136,0)" stroke="rgb(248,136,0)" /><path d="M 1600 400 L 1700 400 L 1700 450 L 1700 500 L 1600 500 Z" fill="rgb(255,0,255)" stroke="rgb(255,0,255)" /><path d="M 575 1125 L 600 1100 L 625 1075 L 675 1075 L 725 1125 L 725 1175 L 675 1225 L 600 1200 Z" fill="rgb(88,0,0)" stroke="rgb(88,0,0)" /><path d="M 675 1825 L 700 1800 L 725 1775 L 800 1800 L 775 1875 L 700 1900 Z" fill="rgb(48,112,112)" stroke="rgb(48,112,112)" /><path d="M 1625 2625 L 1700 2600 L 1700 2650 L 1700 2700 L 1625 2675 Z" fill="rgb(255,0,255)" stroke="rgb(255,0,255)" /><path d="M 900 1300 L 1000 1300 L 1000 1400 L 925 1375 Z" fill="rgb(8,56,56)" stroke="rgb(8,56,56)" /><path d="M 975 1025 L 1025 975 L 1075 1025 L 1075 1050 L 1075 1075 L 1000 1100 Z" fill="rgb(168,168,112)" stroke="rgb(168,168,112)" /><path d="M 800 2200 L 900 2200 L 900 2300 L 800 2300 Z" fill="rgb(248,248,248)" stroke="rgb(248,248,248)" /><path d="M 1100 300 L 1200 300 L 1225 375 L 1200 400 L 1175 425 L 1100 400 Z" fill="rgb(64,32,56)" stroke="rgb(64,32,56)" /><path d="M 900 2300 L 975 2275 L 1025 2325 L 1000 2400 L 900 2400 Z" fill="rgb(8,56,56)" stroke="rgb(8,56,56)" /><path d="M 1400 1200 L 1475 1225 L 1500 1300 L 1400 1300 Z" fill="rgb(248,200,152)" stroke="rgb(248,200,152)" /><path d="M 1175 425 L 1200 400 L 1225 375 L 1275 375 L 1300 400 L 1325 425 L 1325 475 L 1275 525 L 1225 475 Z" fill="rgb(64,32,56)" stroke="rgb(64,32,56)" /><path d="M 1000 2000 L 1075 1975 L 1100 2000 L 1125 2025 L 1075 2075 L 1000 2100 Z" fill="rgb(8,56,56)" stroke="rgb(8,56,56)" /><path d="M 1500 900 L 1600 900 L 1600 1000 L 1525 975 Z" fill="rgb(255,0,255)" stroke="rgb(255,0,255)" /><path d="M 1300 900 L 1400 900 L 1400 1000 L 1300 1000 Z" fill="rgb(64,32,56)" stroke="rgb(64,32,56)" /><path d="M 1125 2525 L 1175 2475 L 1225 2525 L 1225 2575 L 1175 2625 L 1125 2575 L 1125 2550 Z" fill="rgb(168,168,112)" stroke="rgb(168,168,112)" /><path d="M 0 200 L 100 200 L 75 275 L 0 300 L 0 250 Z" fill="rgb(255,0,255)" stroke="rgb(255,0,255)" /><path d="M 325 1525 L 400 1500 L 400 1600 L 300 1600 Z" fill="rgb(184,0,56)" stroke="rgb(184,0,56)" /><path d="M 125 325 L 200 300 L 225 375 L 200 400 L 175 425 L 125 375 L 125 350 Z" fill="rgb(64,32,56)" stroke="rgb(64,32,56)" /><path d="M 375 825 L 425 775 L 475 825 L 500 900 L 400 900 Z" fill="rgb(184,0,56)" stroke="rgb(184,0,56)" /><path d="M 200 800 L 275 775 L 325 825 L 275 875 L 200 900 Z" fill="rgb(184,0,56)" stroke="rgb(184,0,56)" /><path d="M 500 1300 L 600 1300 L 600 1400 L 525 1375 Z" fill="rgb(248,248,248)" stroke="rgb(248,248,248)" /><path d="M 300 2100 L 400 2100 L 400 2200 L 300 2200 Z" fill="rgb(40,24,32)" stroke="rgb(40,24,32)" /><path d="M 600 200 L 700 200 L 700 300 L 625 325 L 575 275 Z" fill="rgb(64,32,56)" stroke="rgb(64,32,56)" /><path d="M 400 2200 L 500 2200 L 525 2275 L 500 2300 L 475 2325 L 425 2325 L 400 2300 L 375 2275 Z" fill="rgb(80,208,232)" stroke="rgb(80,208,232)" /><path d="M 725 1125 L 800 1100 L 825 1175 L 800 1200 L 775 1225 L 725 1175 L 725 1150 Z" fill="rgb(248,128,104)" stroke="rgb(248,128,104)" /><path d="M 475 2325 L 500 2300 L 525 2275 L 575 2325 L 600 2400 L 500 2400 Z" fill="rgb(80,208,232)" stroke="rgb(80,208,232)" /><path d="M 1600 1700 L 1700 1700 L 1700 1750 L 1700 1800 L 1625 1825 L 1600 1800 L 1575 1775 Z" fill="rgb(255,0,255)" stroke="rgb(255,0,255)" /><path d="M 800 2900 L 900 2900 L 900 3000 L 800 3000 Z" fill="rgb(40,24,32)" stroke="rgb(40,24,32)" /><path d="M 900 2400 L 1000 2400 L 1025 2475 L 1000 2500 L 975 2525 L 900 2500 Z" fill="rgb(8,56,56)" stroke="rgb(8,56,56)" /><path d="M 1375 2325 L 1425 2275 L 1475 2325 L 1525 2375 L 1475 2425 L 1400 2400 Z" fill="rgb(40,24,32)" stroke="rgb(40,24,32)" /><path d="M 1200 300 L 1300 300 L 1275 375 L 1225 375 Z" fill="rgb(64,32,56)" stroke="rgb(64,32,56)" /><path d="M 1000 3100 L 1100 3100 L 1100 3200 L 1050 3200 L 1000 3200 Z" fill="rgb(255,0,255)" stroke="rgb(255,0,255)" /><path d="M 1500 2200 L 1600 2200 L 1600 2300 L 1525 2275 Z" fill="rgb(255,0,255)" stroke="rgb(255,0,255)" /><path d="M 1300 200 L 1400 200 L 1425 275 L 1400 300 L 1375 325 L 1300 300 Z" fill="rgb(255,0,255)" stroke="rgb(255,0,255)" /><path d="M 1100 3000 L 1200 3000 L 1175 3075 L 1100 3100 Z" fill="rgb(64,32,56)" stroke="rgb(64,32,56)" /><path d="M 0 2500 L 100 2500 L 75 2575 L 0 2600 L 0 2550 Z" fill="rgb(255,0,255)" stroke="rgb(255,0,255)" /><path d="M 1225 2525 L 1275 2475 L 1300 2500 L 1325 2525 L 1300 2600 L 1225 2575 L 1225 2550 Z" fill="rgb(248,248,248)" stroke="rgb(248,248,248)" /><path d="M 75 425 L 100 400 L 125 375 L 175 425 L 225 475 L 200 500 L 175 525 L 100 500 Z" fill="rgb(255,0,255)" stroke="rgb(255,0,255)" /><path d="M 1300 2800 L 1400 2800 L 1400 2900 L 1300 2900 Z" fill="rgb(248,136,0)" stroke="rgb(248,136,0)" /><path d="M 200 300 L 300 300 L 275 375 L 225 375 Z" fill="rgb(64,32,56)" stroke="rgb(64,32,56)" /><path d="M 325 2625 L 375 2625 L 375 2675 L 325 2675 Z" fill="rgb(248,248,248)" stroke="rgb(248,248,248)" /><path d="M 575 525 L 600 500 L 625 475 L 675 525 L 675 550 L 675 575 L 600 600 Z" fill="rgb(248,136,0)" stroke="rgb(248,136,0)" /><path d="M 400 2900 L 475 2925 L 475 2950 L 475 2975 L 425 3025 L 375 2975 Z" fill="rgb(184,0,56)" stroke="rgb(184,0,56)" /><path d="M 700 0 L 750 0 L 800 0 L 825 75 L 775 125 L 725 125 L 700 100 L 675 75 Z" fill="rgb(64,32,56)" stroke="rgb(64,32,56)" /><path d="M 500 1600 L 575 1625 L 600 1700 L 500 1700 Z" fill="rgb(88,0,0)" stroke="rgb(88,0,0)" /><path d="M 1600 800 L 1700 800 L 1700 850 L 1700 900 L 1600 900 Z" fill="rgb(255,0,255)" stroke="rgb(255,0,255)" /><path d="M 575 3125 L 600 3100 L 625 3075 L 675 3075 L 725 3125 L 700 3200 L 650 3200 L 600 3200 Z" fill="rgb(40,24,32)" stroke="rgb(40,24,32)" /><path d="M 700 3000 L 800 3000 L 800 3100 L 725 3125 L 675 3075 Z" fill="rgb(40,24,32)" stroke="rgb(40,24,32)" /><path d="M 775 425 L 800 400 L 825 375 L 900 400 L 875 475 L 800 500 Z" fill="rgb(184,0,56)" stroke="rgb(184,0,56)" /><path d="M 875 125 L 900 100 L 925 75 L 1000 100 L 1025 175 L 1000 200 L 975 225 L 925 175 Z" fill="rgb(255,0,255)" stroke="rgb(255,0,255)" /><path d="M 1400 3000 L 1475 2975 L 1500 3000 L 1525 3025 L 1500 3100 L 1400 3100 Z" fill="rgb(255,0,255)" stroke="rgb(255,0,255)" /><path d="M 975 625 L 1000 600 L 1025 575 L 1075 575 L 1125 625 L 1125 675 L 1075 725 L 1025 725 L 1000 700 L 975 675 Z" fill="rgb(88,0,0)" stroke="rgb(88,0,0)" /><path d="M 1500 3100 L 1600 3100 L 1600 3200 L 1550 3200 L 1500 3200 Z" fill="rgb(255,0,255)" stroke="rgb(255,0,255)" /><path d="M 1100 2300 L 1175 2325 L 1200 2400 L 1100 2400 Z" fill="rgb(80,208,232)" stroke="rgb(80,208,232)" /><path d="M 0 1600 L 100 1600 L 100 1700 L 0 1700 L 0 1650 Z" fill="rgb(255,0,255)" stroke="rgb(255,0,255)" /><path d="M 1400 0 L 1450 0 L 1500 0 L 1500 100 L 1400 100 Z" fill="rgb(255,0,255)" stroke="rgb(255,0,255)" /><path d="M 1175 1625 L 1225 1575 L 1300 1600 L 1300 1700 L 1200 1700 Z" fill="rgb(8,56,56)" stroke="rgb(8,56,56)" /><path d="M 100 2900 L 200 2900 L 200 3000 L 100 3000 Z" fill="rgb(184,0,56)" stroke="rgb(184,0,56)" /><path d="M 1500 500 L 1600 500 L 1600 600 L 1525 575 Z" fill="rgb(255,0,255)" stroke="rgb(255,0,255)" /><path d="M 1300 2100 L 1400 2100 L 1400 2200 L 1300 2200 Z" fill="rgb(40,24,32)" stroke="rgb(40,24,32)" /><path d="M 200 2600 L 275 2575 L 300 2600 L 325 2625 L 325 2675 L 300 2700 L 275 2725 L 200 2700 Z" fill="rgb(248,248,248)" stroke="rgb(248,248,248)" /><path d="M 300 300 L 400 300 L 400 400 L 325 425 L 300 400 L 275 375 Z" fill="rgb(64,32,56)" stroke="rgb(64,32,56)" /><path d="M 400 400 L 500 400 L 500 500 L 400 500 Z" fill="rgb(248,248,248)" stroke="rgb(248,248,248)" /><path d="M 500 2500 L 575 2525 L 600 2600 L 525 2575 Z" fill="rgb(168,168,112)" stroke="rgb(168,168,112)" /><path d="M 1600 1500 L 1700 1500 L 1700 1550 L 1700 1600 L 1600 1600 Z" fill="rgb(40,24,32)" stroke="rgb(40,24,32)" /><path d="M 600 2200 L 700 2200 L 700 2300 L 625 2275 Z" fill="rgb(48,112,112)" stroke="rgb(48,112,112)" /><path d="M 700 2300 L 800 2300 L 775 2375 L 725 2425 L 700 2400 L 675 2375 Z" fill="rgb(48,112,112)" stroke="rgb(48,112,112)" /><path d="M 800 1100 L 900 1100 L 875 1175 L 825 1175 Z" fill="rgb(248,128,104)" stroke="rgb(248,128,104)" /><path d="M 900 1000 L 975 1025 L 1000 1100 L 900 1100 Z" fill="rgb(248,248,248)" stroke="rgb(248,248,248)" /><path d="M 1000 100 L 1100 100 L 1100 200 L 1025 175 Z" fill="rgb(255,0,255)" stroke="rgb(255,0,255)" /><path d="M 800 1700 L 900 1700 L 900 1800 L 800 1800 Z" fill="rgb(8,56,56)" stroke="rgb(8,56,56)" /><path d="M 1100 1200 L 1175 1175 L 1225 1225 L 1200 1300 L 1100 1300 Z" fill="rgb(8,56,56)" stroke="rgb(8,56,56)" /><path d="M 0 2300 L 100 2300 L 100 2400 L 0 2400 L 0 2350 Z" fill="rgb(255,0,255)" stroke="rgb(255,0,255)" /><path d="M 1400 1100 L 1500 1100 L 1525 1175 L 1475 1225 L 1400 1200 Z" fill="rgb(40,24,32)" stroke="rgb(40,24,32)" /><path d="M 1200 1500 L 1275 1525 L 1300 1600 L 1225 1575 Z" fill="rgb(88,0,0)" stroke="rgb(88,0,0)" /><path d="M 100 2200 L 200 2200 L 175 2275 L 100 2300 Z" fill="rgb(255,0,255)" stroke="rgb(255,0,255)" /><path d="M 1500 200 L 1600 200 L 1600 300 L 1500 300 Z" fill="rgb(255,0,255)" stroke="rgb(255,0,255)" /><path d="M 1300 1400 L 1400 1400 L 1425 1475 L 1375 1525 L 1325 1475 Z" fill="rgb(8,56,56)" stroke="rgb(8,56,56)" /><path d="M 175 2125 L 200 2100 L 225 2075 L 300 2100 L 300 2200 L 200 2200 Z" fill="rgb(255,0,255)" stroke="rgb(255,0,255)" /><path d="M 0 1300 L 100 1300 L 100 1400 L 0 1400 L 0 1350 Z" fill="rgb(255,0,255)" stroke="rgb(255,0,255)" /><path d="M 325 825 L 350 825 L 375 825 L 400 900 L 325 925 L 275 875 Z" fill="rgb(88,0,0)" stroke="rgb(88,0,0)" /><path d="M 125 825 L 200 800 L 200 900 L 125 875 L 125 850 Z" fill="rgb(248,248,248)" stroke="rgb(248,248,248)" /><path d="M 400 300 L 500 300 L 500 400 L 400 400 Z" fill="rgb(64,32,56)" stroke="rgb(64,32,56)" /><path d="M 225 1525 L 275 1475 L 325 1525 L 300 1600 L 225 1575 L 225 1550 Z" fill="rgb(64,32,56)" stroke="rgb(64,32,56)" /><path d="M 500 200 L 600 200 L 575 275 L 500 300 Z" fill="rgb(255,0,255)" stroke="rgb(255,0,255)" /><path d="M 1600 600 L 1700 600 L 1700 650 L 1700 700 L 1600 700 Z" fill="rgb(255,0,255)" stroke="rgb(255,0,255)" /><path d="M 600 900 L 675 875 L 725 925 L 700 1000 L 600 1000 Z" fill="rgb(248,136,0)" stroke="rgb(248,136,0)" /><path d="M 675 1225 L 725 1175 L 775 1225 L 775 1250 L 775 1275 L 700 1300 Z" fill="rgb(88,0,0)" stroke="rgb(88,0,0)" /><path d="M 1600 2800 L 1700 2800 L 1700 2850 L 1700 2900 L 1625 2925 L 1600 2900 L 1575 2875 Z" fill="rgb(255,0,255)" stroke="rgb(255,0,255)" /><path d="M 1000 800 L 1100 800 L 1100 900 L 1025 875 Z" fill="rgb(248,136,0)" stroke="rgb(248,136,0)" /><path d="M 825 2425 L 900 2400 L 900 2500 L 800 2500 Z" fill="rgb(80,248,184)" stroke="rgb(80,248,184)" /><path d="M 1100 500 L 1175 525 L 1175 550 L 1175 575 L 1125 625 L 1075 575 Z" fill="rgb(88,0,0)" stroke="rgb(88,0,0)" /><path d="M 925 2125 L 1000 2100 L 1000 2200 L 900 2200 Z" fill="rgb(80,248,184)" stroke="rgb(80,248,184)" /><path d="M 1400 1800 L 1475 1775 L 1525 1825 L 1475 1875 L 1425 1925 L 1375 1875 Z" fill="rgb(40,24,32)" stroke="rgb(40,24,32)" /><path d="M 1225 625 L 1250 625 L 1275 625 L 1300 700 L 1200 700 Z" fill="rgb(248,136,0)" stroke="rgb(248,136,0)" /><path d="M 1000 1800 L 1100 1800 L 1100 1900 L 1025 1925 L 975 1875 Z" fill="rgb(248,248,248)" stroke="rgb(248,248,248)" /><path d="M 1500 1100 L 1600 1100 L 1625 1175 L 1600 1200 L 1575 1225 L 1525 1175 Z" fill="rgb(255,0,255)" stroke="rgb(255,0,255)" /><path d="M 1300 700 L 1400 700 L 1375 775 L 1300 800 Z" fill="rgb(88,0,0)" stroke="rgb(88,0,0)" /><path d="M 1100 2700 L 1175 2725 L 1225 2775 L 1175 2825 L 1125 2775 Z" fill="rgb(248,136,0)" stroke="rgb(248,136,0)" /><path d="M 0 400 L 75 425 L 100 500 L 0 500 L 0 450 Z" fill="rgb(255,0,255)" stroke="rgb(255,0,255)" /><path d="M 1175 2825 L 1225 2775 L 1300 2800 L 1300 2900 L 1200 2900 Z" fill="rgb(248,136,0)" stroke="rgb(248,136,0)" /><path d="M 100 100 L 200 100 L 200 200 L 100 200 Z" fill="rgb(255,0,255)" stroke="rgb(255,0,255)" /><path d="M 425 1025 L 500 1000 L 500 1100 L 400 1100 Z" fill="rgb(184,0,56)" stroke="rgb(184,0,56)" /><path d="M 225 625 L 275 575 L 325 625 L 300 700 L 225 725 L 175 675 Z" fill="rgb(64,32,56)" stroke="rgb(64,32,56)" /><path d="M 500 1100 L 575 1125 L 600 1200 L 525 1225 L 475 1175 Z" fill="rgb(88,0,0)" stroke="rgb(88,0,0)" /><path d="M 325 2325 L 375 2275 L 400 2300 L 425 2325 L 400 2400 L 300 2400 Z" fill="rgb(80,208,232)" stroke="rgb(80,208,232)" /><path d="M 600 0 L 650 0 L 700 0 L 675 75 L 625 75 Z" fill="rgb(64,32,56)" stroke="rgb(64,32,56)" /><path d="M 400 1600 L 500 1600 L 500 1700 L 400 1700 Z" fill="rgb(48,112,112)" stroke="rgb(48,112,112)" /><path d="M 675 525 L 725 475 L 800 500 L 800 600 L 725 625 L 675 575 Z" fill="rgb(88,0,0)" stroke="rgb(88,0,0)" /><path d="M 500 2100 L 600 2100 L 600 2200 L 500 2200 Z" fill="rgb(8,56,56)" stroke="rgb(8,56,56)" /><path d="M 1600 1900 L 1700 1900 L 1700 1950 L 1700 2000 L 1600 2000 Z" fill="rgb(255,0,255)" stroke="rgb(255,0,255)" /><path d="M 600 2600 L 700 2600 L 675 2675 L 625 2725 L 575 2675 Z" fill="rgb(8,56,56)" stroke="rgb(8,56,56)" /><path d="M 800 3100 L 900 3100 L 900 3200 L 850 3200 L 800 3200 Z" fill="rgb(64,32,56)" stroke="rgb(64,32,56)" /><path d="M 900 3000 L 975 2975 L 1000 3000 L 1025 3025 L 1000 3100 L 900 3100 Z" fill="rgb(40,24,32)" stroke="rgb(40,24,32)" /><path d="M 1400 2100 L 1500 2100 L 1500 2200 L 1400 2200 Z" fill="rgb(255,0,255)" stroke="rgb(255,0,255)" /><path d="M 1000 2900 L 1100 2900 L 1100 3000 L 1025 3025 L 1000 3000 L 975 2975 Z" fill="rgb(40,24,32)" stroke="rgb(40,24,32)" /><path d="M 1500 1600 L 1600 1600 L 1600 1700 L 1500 1700 Z" fill="rgb(248,128,104)" stroke="rgb(248,128,104)" /><path d="M 1300 0 L 1350 0 L 1400 0 L 1400 100 L 1300 100 Z" fill="rgb(255,0,255)" stroke="rgb(255,0,255)" /><path d="M 1075 1625 L 1125 1575 L 1175 1625 L 1200 1700 L 1125 1725 L 1075 1675 Z" fill="rgb(248,248,248)" stroke="rgb(248,248,248)" /><path d="M 0 2700 L 100 2700 L 75 2775 L 0 2800 L 0 2750 Z" fill="rgb(255,0,255)" stroke="rgb(255,0,255)" /><path d="M 1175 2725 L 1225 2675 L 1300 2700 L 1300 2800 L 1225 2775 Z" fill="rgb(8,56,56)" stroke="rgb(8,56,56)" /><path d="M 125 2625 L 200 2600 L 200 2700 L 100 2700 Z" fill="rgb(40,24,32)" stroke="rgb(40,24,32)" /><path d="M 1300 2600 L 1375 2575 L 1425 2625 L 1400 2700 L 1300 2700 Z" fill="rgb(168,168,112)" stroke="rgb(168,168,112)" /><path d="M 200 100 L 300 100 L 300 200 L 200 200 Z" fill="rgb(255,0,255)" stroke="rgb(255,0,255)" /><path d="M 300 2800 L 400 2800 L 400 2900 L 300 2900 Z" fill="rgb(8,56,56)" stroke="rgb(8,56,56)" /><path d="M 400 3100 L 475 3075 L 500 3100 L 525 3125 L 500 3200 L 450 3200 L 400 3200 Z" fill="rgb(40,24,32)" stroke="rgb(40,24,32)" /><path d="M 700 200 L 800 200 L 800 300 L 700 300 Z" fill="rgb(184,0,56)" stroke="rgb(184,0,56)" /><path d="M 525 3025 L 600 3000 L 625 3075 L 600 3100 L 575 3125 L 525 3125 L 500 3100 L 475 3075 Z" fill="rgb(40,24,32)" stroke="rgb(40,24,32)" /><path d="M 1600 1000 L 1700 1000 L 1700 1050 L 1700 1100 L 1600 1100 Z" fill="rgb(255,0,255)" stroke="rgb(255,0,255)" /><path d="M 600 2900 L 700 2900 L 700 3000 L 600 3000 Z" fill="rgb(248,248,248)" stroke="rgb(248,248,248)" /><path d="M 725 2425 L 775 2375 L 825 2425 L 800 2500 L 700 2500 Z" fill="rgb(248,248,248)" stroke="rgb(248,248,248)" /><path d="M 800 600 L 875 625 L 900 700 L 825 675 Z" fill="rgb(184,0,56)" stroke="rgb(184,0,56)" /><path d="M 900 700 L 975 675 L 1000 700 L 1025 725 L 1000 800 L 925 825 L 900 800 L 875 775 Z" fill="rgb(88,0,0)" stroke="rgb(88,0,0)" /><path d="M 1400 2800 L 1500 2800 L 1500 2900 L 1400 2900 Z" fill="rgb(248,136,0)" stroke="rgb(248,136,0)" /><path d="M 1000 400 L 1100 400 L 1100 500 L 1000 500 Z" fill="rgb(248,248,248)" stroke="rgb(248,248,248)" /><path d="M 1500 2500 L 1600 2500 L 1575 2575 L 1500 2600 Z" fill="rgb(40,24,32)" stroke="rgb(40,24,32)" /><path d="M 1100 900 L 1200 900 L 1225 975 L 1175 1025 L 1125 975 Z" fill="rgb(184,0,56)" stroke="rgb(184,0,56)" /><path d="M 0 1800 L 100 1800 L 100 1900 L 0 1900 L 0 1850 Z" fill="rgb(255,0,255)" stroke="rgb(255,0,255)" /><path d="M 1375 625 L 1425 575 L 1475 625 L 1500 700 L 1400 700 Z" fill="rgb(64,32,56)" stroke="rgb(64,32,56)" /><path d="M 1225 1825 L 1275 1775 L 1325 1825 L 1275 1875 L 1200 1900 Z" fill="rgb(248,128,104)" stroke="rgb(248,128,104)" /><path d="M 100 1900 L 200 1900 L 200 2000 L 100 2000 Z" fill="rgb(255,0,255)" stroke="rgb(255,0,255)" /><path d="M 1500 700 L 1600 700 L 1600 800 L 1525 825 L 1500 800 L 1475 775 Z" fill="rgb(255,0,255)" stroke="rgb(255,0,255)" /><path d="M 1325 1925 L 1375 1875 L 1425 1925 L 1400 2000 L 1300 2000 Z" fill="rgb(40,24,32)" stroke="rgb(40,24,32)" /><path d="M 200 2400 L 300 2400 L 275 2475 L 200 2500 Z" fill="rgb(64,32,56)" stroke="rgb(64,32,56)" /><path d="M 0 800 L 75 775 L 125 825 L 125 875 L 75 925 L 0 900 L 0 850 Z" fill="rgb(64,32,56)" stroke="rgb(64,32,56)" /><path d="M 275 525 L 325 475 L 400 500 L 400 600 L 325 625 L 275 575 Z" fill="rgb(64,32,56)" stroke="rgb(64,32,56)" /><path d="M 400 600 L 475 625 L 525 675 L 500 700 L 475 725 L 425 675 Z" fill="rgb(88,0,0)" stroke="rgb(88,0,0)" /><path d="M 475 725 L 500 700 L 525 675 L 575 675 L 625 725 L 600 800 L 525 775 Z" fill="rgb(88,0,0)" stroke="rgb(88,0,0)" /><path d="M 1600 100 L 1700 100 L 1700 150 L 1700 200 L 1600 200 Z" fill="rgb(255,0,255)" stroke="rgb(255,0,255)" /><path d="M 575 2025 L 600 2000 L 625 1975 L 675 2025 L 675 2050 L 675 2075 L 600 2100 Z" fill="rgb(48,112,112)" stroke="rgb(48,112,112)" /><path d="M 700 1700 L 800 1700 L 800 1800 L 725 1775 Z" fill="rgb(48,112,112)" stroke="rgb(48,112,112)" /><path d="M 825 1325 L 900 1300 L 925 1375 L 875 1425 L 800 1400 Z" fill="rgb(248,128,104)" stroke="rgb(248,128,104)" /><path d="M 925 825 L 1000 800 L 1025 875 L 975 925 L 925 925 L 900 900 L 875 875 Z" fill="rgb(88,0,0)" stroke="rgb(88,0,0)" /><path d="M 1025 1525 L 1075 1475 L 1125 1525 L 1125 1575 L 1075 1625 L 1000 1600 Z" fill="rgb(248,248,248)" stroke="rgb(248,248,248)" /><path d="M 825 1925 L 875 1875 L 900 1900 L 925 1925 L 900 2000 L 800 2000 Z" fill="rgb(8,56,56)" stroke="rgb(8,56,56)" /><path d="M 1075 1425 L 1125 1375 L 1200 1400 L 1200 1500 L 1125 1525 L 1075 1475 Z" fill="rgb(248,248,248)" stroke="rgb(248,248,248)" /><path d="M 900 1800 L 1000 1800 L 975 1875 L 925 1925 L 900 1900 L 875 1875 Z" fill="rgb(8,56,56)" stroke="rgb(8,56,56)" /><path d="M 1400 900 L 1500 900 L 1525 975 L 1500 1000 L 1475 1025 L 1400 1000 Z" fill="rgb(255,0,255)" stroke="rgb(255,0,255)" /><path d="M 1200 900 L 1300 900 L 1300 1000 L 1225 975 Z" fill="rgb(248,136,0)" stroke="rgb(248,136,0)" /><path d="M 100 2000 L 200 2000 L 225 2075 L 200 2100 L 175 2125 L 100 2100 Z" fill="rgb(255,0,255)" stroke="rgb(255,0,255)" /><path d="M 1475 1225 L 1525 1175 L 1575 1225 L 1625 1275 L 1575 1325 L 1500 1300 Z" fill="rgb(40,24,32)" stroke="rgb(40,24,32)" /><path d="M 1300 1200 L 1400 1200 L 1400 1300 L 1325 1275 Z" fill="rgb(248,128,104)" stroke="rgb(248,128,104)" /><path d="M 200 1900 L 300 1900 L 300 2000 L 200 2000 Z" fill="rgb(64,32,56)" stroke="rgb(64,32,56)" /><path d="M 0 1500 L 100 1500 L 100 1600 L 0 1600 L 0 1550 Z" fill="rgb(255,0,255)" stroke="rgb(255,0,255)" /><path d="M 300 1000 L 375 975 L 400 1000 L 425 1025 L 400 1100 L 325 1075 Z" fill="rgb(248,136,0)" stroke="rgb(248,136,0)" /><path d="M 100 1400 L 175 1425 L 175 1475 L 100 1500 Z" fill="rgb(255,0,255)" stroke="rgb(255,0,255)" /><path d="M 400 1300 L 500 1300 L 525 1375 L 475 1425 L 400 1400 Z" fill="rgb(88,0,0)" stroke="rgb(88,0,0)" /><path d="M 200 1300 L 300 1300 L 300 1400 L 225 1375 Z" fill="rgb(40,24,32)" stroke="rgb(40,24,32)" /><path d="M 500 0 L 550 0 L 600 0 L 625 75 L 600 100 L 575 125 L 525 75 Z" fill="rgb(64,32,56)" stroke="rgb(64,32,56)" /><path d="M 300 1600 L 400 1600 L 400 1700 L 300 1700 Z" fill="rgb(40,24,32)" stroke="rgb(40,24,32)" /><path d="M 575 1525 L 625 1475 L 675 1525 L 725 1575 L 675 1625 L 625 1575 Z" fill="rgb(88,0,0)" stroke="rgb(88,0,0)" /><path d="M 725 1425 L 800 1400 L 800 1500 L 725 1475 L 725 1450 Z" fill="rgb(248,200,152)" stroke="rgb(248,200,152)" /><path d="M 1600 3000 L 1700 3000 L 1700 3050 L 1700 3100 L 1600 3100 Z" fill="rgb(255,0,255)" stroke="rgb(255,0,255)" /><path d="M 800 2600 L 875 2575 L 925 2625 L 925 2675 L 875 2725 L 800 2700 Z" fill="rgb(8,56,56)" stroke="rgb(8,56,56)" /><path d="M 1075 725 L 1125 675 L 1200 700 L 1200 800 L 1100 800 Z" fill="rgb(88,0,0)" stroke="rgb(88,0,0)" /><path d="M 875 2725 L 925 2675 L 975 2675 L 1025 2725 L 1000 2800 L 925 2825 L 900 2800 L 875 2775 Z" fill="rgb(8,56,56)" stroke="rgb(8,56,56)" /><path d="M 1400 1600 L 1500 1600 L 1500 1700 L 1400 1700 Z" fill="rgb(8,56,56)" stroke="rgb(8,56,56)" /><path d="M 1200 0 L 1250 0 L 1300 0 L 1300 100 L 1200 100 Z" fill="rgb(255,0,255)" stroke="rgb(255,0,255)" /><path d="M 1000 1600 L 1075 1625 L 1075 1650 L 1075 1675 L 1025 1725 L 975 1675 Z" fill="rgb(8,56,56)" stroke="rgb(8,56,56)" /><path d="M 1500 2100 L 1600 2100 L 1600 2200 L 1500 2200 Z" fill="rgb(255,0,255)" stroke="rgb(255,0,255)" /><path d="M 1275 525 L 1325 475 L 1375 525 L 1425 575 L 1375 625 L 1325 575 Z" fill="rgb(64,32,56)" stroke="rgb(64,32,56)" /><path d="M 1100 2900 L 1200 2900 L 1200 3000 L 1100 3000 Z" fill="rgb(40,24,32)" stroke="rgb(40,24,32)" /><path d="M 0 600 L 100 600 L 75 675 L 0 700 L 0 650 Z" fill="rgb(255,0,255)" stroke="rgb(255,0,255)" /><path d="M 1200 3000 L 1300 3000 L 1300 3100 L 1225 3125 L 1200 3100 L 1175 3075 Z" fill="rgb(255,0,255)" stroke="rgb(255,0,255)" /><path d="M 125 725 L 175 675 L 225 725 L 200 800 L 125 825 L 75 775 Z" fill="rgb(64,32,56)" stroke="rgb(64,32,56)" /><path d="M 1300 3100 L 1400 3100 L 1400 3200 L 1350 3200 L 1300 3200 Z" fill="rgb(255,0,255)" stroke="rgb(255,0,255)" /><path d="M 175 425 L 200 400 L 225 375 L 275 375 L 300 400 L 325 425 L 325 475 L 275 525 L 225 475 Z" fill="rgb(64,32,56)" stroke="rgb(64,32,56)" /><path d="M 500 900 L 600 900 L 600 1000 L 500 1000 Z" fill="rgb(88,0,0)" stroke="rgb(88,0,0)" /><path d="M 325 2525 L 400 2500 L 425 2575 L 400 2600 L 375 2625 L 325 2625 L 300 2600 L 275 2575 Z" fill="rgb(248,248,248)" stroke="rgb(248,248,248)" /><path d="M 600 600 L 675 575 L 725 625 L 700 700 L 625 725 L 575 675 Z" fill="rgb(88,0,0)" stroke="rgb(88,0,0)" /><path d="M 425 1825 L 500 1800 L 475 1875 L 425 1875 Z" fill="rgb(80,208,232)" stroke="rgb(80,208,232)" /><path d="M 700 700 L 775 725 L 800 800 L 725 775 Z" fill="rgb(248,136,0)" stroke="rgb(248,136,0)" /><path d="M 525 1925 L 600 1900 L 625 1975 L 600 2000 L 575 2025 L 500 2000 Z" fill="rgb(48,112,112)" stroke="rgb(48,112,112)" /><path d="M 1600 2100 L 1700 2100 L 1700 2150 L 1700 2200 L 1600 2200 Z" fill="rgb(255,0,255)" stroke="rgb(255,0,255)" /><path d="M 600 2400 L 675 2375 L 700 2400 L 725 2425 L 700 2500 L 625 2475 Z" fill="rgb(48,112,112)" stroke="rgb(48,112,112)" /><path d="M 700 2900 L 800 2900 L 800 3000 L 700 3000 Z" fill="rgb(40,24,32)" stroke="rgb(40,24,32)" /><path d="M 775 125 L 825 75 L 875 125 L 925 175 L 875 225 L 800 200 Z" fill="rgb(64,32,56)" stroke="rgb(64,32,56)" /><path d="M 925 2825 L 1000 2800 L 1000 2900 L 900 2900 Z" fill="rgb(8,56,56)" stroke="rgb(8,56,56)" /><path d="M 1400 2700 L 1475 2725 L 1500 2800 L 1400 2800 Z" fill="rgb(184,0,56)" stroke="rgb(184,0,56)" /><path d="M 1025 2725 L 1100 2700 L 1125 2775 L 1075 2825 L 1000 2800 Z" fill="rgb(184,0,56)" stroke="rgb(184,0,56)" /><path d="M 1525 1825 L 1575 1775 L 1600 1800 L 1625 1825 L 1600 1900 L 1525 1925 L 1500 1900 L 1475 1875 Z" fill="rgb(255,0,255)" stroke="rgb(255,0,255)" /><path d="M 1100 1800 L 1175 1775 L 1225 1825 L 1200 1900 L 1100 1900 Z" fill="rgb(8,56,56)" stroke="rgb(8,56,56)" /><path d="M 0 2900 L 100 2900 L 100 3000 L 0 3000 L 0 2950 Z" fill="rgb(64,32,56)" stroke="rgb(64,32,56)" /><path d="M 1200 2100 L 1300 2100 L 1300 2200 L 1200 2200 Z" fill="rgb(248,128,104)" stroke="rgb(248,128,104)" /><path d="M 100 2400 L 200 2400 L 200 2500 L 100 2500 Z" fill="rgb(255,0,255)" stroke="rgb(255,0,255)" /><path d="M 1300 2400 L 1400 2400 L 1400 2500 L 1325 2525 L 1300 2500 L 1275 2475 Z" fill="rgb(248,248,248)" stroke="rgb(248,248,248)" /><path d="M 200 3100 L 300 3100 L 300 3200 L 250 3200 L 200 3200 Z" fill="rgb(40,24,32)" stroke="rgb(40,24,32)" /><path d="M 325 3025 L 375 2975 L 425 3025 L 400 3100 L 300 3100 Z" fill="rgb(184,0,56)" stroke="rgb(184,0,56)" /><path d="M 400 2500 L 500 2500 L 525 2575 L 500 2600 L 475 2625 L 425 2575 Z" fill="rgb(168,168,112)" stroke="rgb(168,168,112)" /><path d="M 500 2800 L 600 2800 L 600 2900 L 525 2875 Z" fill="rgb(8,56,56)" stroke="rgb(8,56,56)" /><path d="M 1575 1225 L 1600 1200 L 1625 1175 L 1700 1200 L 1700 1250 L 1700 1300 L 1625 1275 Z" fill="rgb(255,0,255)" stroke="rgb(255,0,255)" /><path d="M 600 1900 L 700 1900 L 725 1975 L 700 2000 L 675 2025 L 625 1975 Z" fill="rgb(8,56,56)" stroke="rgb(8,56,56)" /><path d="M 700 2600 L 800 2600 L 800 2700 L 725 2725 L 675 2675 Z" fill="rgb(248,248,248)" stroke="rgb(248,248,248)" /><path d="M 800 800 L 875 775 L 900 800 L 925 825 L 875 875 L 800 900 Z" fill="rgb(88,0,0)" stroke="rgb(88,0,0)" /><path d="M 925 525 L 1000 500 L 1025 575 L 1000 600 L 975 625 L 925 575 Z" fill="rgb(88,0,0)" stroke="rgb(88,0,0)" /><path d="M 975 225 L 1000 200 L 1025 175 L 1100 200 L 1100 300 L 1025 275 Z" fill="rgb(255,0,255)" stroke="rgb(255,0,255)" /><path d="M 1475 2725 L 1525 2675 L 1575 2725 L 1600 2800 L 1500 2800 Z" fill="rgb(64,32,56)" stroke="rgb(64,32,56)" /><path d="M 1125 1125 L 1200 1100 L 1175 1175 L 1100 1200 Z" fill="rgb(88,0,0)" stroke="rgb(88,0,0)" /><path d="M 0 2000 L 100 2000 L 100 2100 L 0 2100 L 0 2050 Z" fill="rgb(255,0,255)" stroke="rgb(255,0,255)" /><path d="M 1425 425 L 1500 400 L 1500 500 L 1425 475 Z" fill="rgb(255,0,255)" stroke="rgb(255,0,255)" /><path d="M 1225 1225 L 1300 1200 L 1325 1275 L 1300 1300 L 1275 1325 L 1200 1300 Z" fill="rgb(88,0,0)" stroke="rgb(88,0,0)" /><path d="M 100 1700 L 200 1700 L 175 1775 L 100 1800 Z" fill="rgb(255,0,255)" stroke="rgb(255,0,255)" /><path d="M 1500 100 L 1600 100 L 1600 200 L 1500 200 Z" fill="rgb(255,0,255)" stroke="rgb(255,0,255)" /><path d="M 1300 1700 L 1400 1700 L 1400 1800 L 1325 1825 L 1275 1775 Z" fill="rgb(248,128,104)" stroke="rgb(248,128,104)" /><path d="M 200 2200 L 300 2200 L 275 2275 L 225 2325 L 200 2300 L 175 2275 Z" fill="rgb(255,0,255)" stroke="rgb(255,0,255)" /><path d="M 0 1000 L 75 1025 L 100 1100 L 0 1100 L 0 1050 Z" fill="rgb(255,0,255)" stroke="rgb(255,0,255)" /><path d="M 300 700 L 375 725 L 425 775 L 375 825 L 325 825 L 275 775 Z" fill="rgb(184,0,56)" stroke="rgb(184,0,56)" /><path d="M 100 1100 L 175 1125 L 175 1175 L 100 1200 Z" fill="rgb(255,0,255)" stroke="rgb(255,0,255)" /><path d="M 400 0 L 450 0 L 500 0 L 525 75 L 500 100 L 475 125 L 400 100 Z" fill="rgb(255,0,255)" stroke="rgb(255,0,255)" /><path d="M 500 500 L 575 525 L 600 600 L 525 575 Z" fill="rgb(248,136,0)" stroke="rgb(248,136,0)" /><path d="M 1600 300 L 1700 300 L 1700 350 L 1700 400 L 1600 400 Z" fill="rgb(255,0,255)" stroke="rgb(255,0,255)" /><path d="M 600 1000 L 700 1000 L 675 1075 L 650 1075 L 625 1075 Z" fill="rgb(248,136,0)" stroke="rgb(248,136,0)" /><path d="M 700 1900 L 775 1875 L 800 1900 L 825 1925 L 800 2000 L 725 1975 Z" fill="rgb(8,56,56)" stroke="rgb(8,56,56)" /><path d="M 1600 2500 L 1700 2500 L 1700 2550 L 1700 2600 L 1625 2625 L 1600 2600 L 1575 2575 Z" fill="rgb(255,0,255)" stroke="rgb(255,0,255)" /><path d="M 800 1500 L 875 1475 L 925 1525 L 875 1575 L 800 1600 Z" fill="rgb(248,128,104)" stroke="rgb(248,128,104)" /><path d="M 875 1425 L 925 1375 L 1000 1400 L 975 1475 L 925 1525 L 875 1475 Z" fill="rgb(248,128,104)" stroke="rgb(248,128,104)" /><path d="M 1000 1300 L 1100 1300 L 1125 1375 L 1075 1425 L 1000 1400 Z" fill="rgb(248,248,248)" stroke="rgb(248,248,248)" /><path d="M 800 2100 L 875 2075 L 925 2125 L 900 2200 L 800 2200 Z" fill="rgb(248,248,248)" stroke="rgb(248,248,248)" /><path d="M 1100 0 L 1150 0 L 1200 0 L 1200 100 L 1100 100 Z" fill="rgb(255,0,255)" stroke="rgb(255,0,255)" /><path d="M 925 1625 L 1000 1600 L 975 1675 L 900 1700 Z" fill="rgb(248,136,0)" stroke="rgb(248,136,0)" /><path d="M 1375 1525 L 1425 1475 L 1475 1525 L 1500 1600 L 1400 1600 Z" fill="rgb(8,56,56)" stroke="rgb(8,56,56)" /><path d="M 1200 1100 L 1275 1125 L 1300 1200 L 1225 1225 L 1175 1175 Z" fill="rgb(8,56,56)" stroke="rgb(8,56,56)" /><path d="M 1025 2325 L 1100 2300 L 1100 2400 L 1000 2400 Z" fill="rgb(80,208,232)" stroke="rgb(80,208,232)" /><path d="M 1475 1425 L 1525 1375 L 1600 1400 L 1600 1500 L 1525 1475 Z" fill="rgb(88,0,0)" stroke="rgb(88,0,0)" /><path d="M 1300 1000 L 1400 1000 L 1400 1100 L 1325 1075 Z" fill="rgb(64,32,56)" stroke="rgb(64,32,56)" /><path d="M 200 1700 L 300 1700 L 275 1775 L 225 1825 L 200 1800 L 175 1775 Z" fill="rgb(255,0,255)" stroke="rgb(255,0,255)" /><path d="M 0 100 L 100 100 L 100 200 L 0 200 L 0 150 Z" fill="rgb(255,0,255)" stroke="rgb(255,0,255)" /><path d="M 300 1200 L 400 1200 L 400 1300 L 300 1300 Z" fill="rgb(248,200,152)" stroke="rgb(248,200,152)" /><path d="M 100 1200 L 175 1175 L 200 1200 L 225 1225 L 200 1300 L 100 1300 Z" fill="rgb(255,0,255)" stroke="rgb(255,0,255)" /><path d="M 400 1500 L 475 1525 L 500 1600 L 400 1600 Z" fill="rgb(248,136,0)" stroke="rgb(248,136,0)" /><path d="M 175 1125 L 200 1100 L 225 1075 L 275 1125 L 300 1200 L 225 1225 L 200 1200 L 175 1175 Z" fill="rgb(255,0,255)" stroke="rgb(255,0,255)" /><path d="M 475 1425 L 525 1375 L 600 1400 L 625 1475 L 575 1525 L 525 1475 Z" fill="rgb(88,0,0)" stroke="rgb(88,0,0)" /><path d="M 325 1825 L 375 1775 L 400 1800 L 425 1825 L 425 1875 L 400 1900 L 375 1925 L 300 1900 Z" fill="rgb(80,208,232)" stroke="rgb(80,208,232)" /><path d="M 600 1300 L 700 1300 L 675 1375 L 600 1400 Z" fill="rgb(8,56,56)" stroke="rgb(8,56,56)" /><path d="M 400 2100 L 500 2100 L 500 2200 L 400 2200 Z" fill="rgb(8,56,56)" stroke="rgb(8,56,56)" /><path d="M 675 825 L 700 800 L 725 775 L 800 800 L 800 900 L 725 925 L 675 875 Z" fill="rgb(248,136,0)" stroke="rgb(248,136,0)" /><path d="M 1600 1600 L 1700 1600 L 1700 1650 L 1700 1700 L 1600 1700 Z" fill="rgb(255,0,255)" stroke="rgb(255,0,255)" /><path d="M 800 2800 L 875 2775 L 900 2800 L 925 2825 L 900 2900 L 800 2900 Z" fill="rgb(8,56,56)" stroke="rgb(8,56,56)" /><path d="M 900 2500 L 975 2525 L 1025 2575 L 1000 2600 L 975 2625 L 925 2625 L 875 2575 Z" fill="rgb(8,56,56)" stroke="rgb(8,56,56)" /><path d="M 1400 2200 L 1500 2200 L 1525 2275 L 1500 2300 L 1475 2325 L 1425 2275 Z" fill="rgb(255,0,255)" stroke="rgb(255,0,255)" /><path d="M 1200 200 L 1300 200 L 1300 300 L 1200 300 Z" fill="rgb(255,0,255)" stroke="rgb(255,0,255)" /><path d="M 1025 3025 L 1100 3000 L 1100 3100 L 1000 3100 Z" fill="rgb(64,32,56)" stroke="rgb(64,32,56)" /><path d="M 1475 2325 L 1500 2300 L 1525 2275 L 1600 2300 L 1625 2375 L 1600 2400 L 1575 2425 L 1525 2375 Z" fill="rgb(255,0,255)" stroke="rgb(255,0,255)" /><path d="M 1300 300 L 1375 325 L 1375 350 L 1375 375 L 1325 425 L 1300 400 L 1275 375 Z" fill="rgb(64,32,56)" stroke="rgb(64,32,56)" /><path d="M 1100 3100 L 1175 3075 L 1200 3100 L 1225 3125 L 1200 3200 L 1150 3200 L 1100 3200 Z" fill="rgb(255,0,255)" stroke="rgb(255,0,255)" /><path d="M 0 2400 L 100 2400 L 100 2500 L 0 2500 L 0 2450 Z" fill="rgb(255,0,255)" stroke="rgb(255,0,255)" /><path d="M 1200 2400 L 1300 2400 L 1275 2475 L 1225 2525 L 1175 2475 Z" fill="rgb(168,168,112)" stroke="rgb(168,168,112)" /><path d="M 100 500 L 175 525 L 175 575 L 100 600 Z" fill="rgb(255,0,255)" stroke="rgb(255,0,255)" /><path d="M 1300 2900 L 1400 2900 L 1400 3000 L 1300 3000 Z" fill="rgb(64,32,56)" stroke="rgb(64,32,56)" /><path d="M 200 200 L 300 200 L 300 300 L 200 300 Z" fill="rgb(255,0,255)" stroke="rgb(255,0,255)" /><path d="M 275 2725 L 300 2700 L 325 2675 L 375 2675 L 400 2700 L 425 2725 L 400 2800 L 300 2800 Z" fill="rgb(248,248,248)" stroke="rgb(248,248,248)" /><path d="M 600 400 L 700 400 L 725 475 L 675 525 L 625 475 Z" fill="rgb(88,0,0)" stroke="rgb(88,0,0)" /><path d="M 400 2800 L 500 2800 L 525 2875 L 475 2925 L 400 2900 Z" fill="rgb(88,0,0)" stroke="rgb(88,0,0)" /><path d="M 725 125 L 750 125 L 775 125 L 800 200 L 700 200 Z" fill="rgb(248,136,0)" stroke="rgb(248,136,0)" /><path d="M 500 1700 L 600 1700 L 625 1775 L 600 1800 L 575 1825 L 500 1800 Z" fill="rgb(80,208,232)" stroke="rgb(80,208,232)" /><path d="M 1600 2300 L 1700 2300 L 1700 2350 L 1700 2400 L 1625 2375 Z" fill="rgb(255,0,255)" stroke="rgb(255,0,255)" /><path d="M 600 3000 L 700 3000 L 675 3075 L 650 3075 L 625 3075 Z" fill="rgb(80,248,184)" stroke="rgb(80,248,184)" /><path d="M 725 3125 L 800 3100 L 800 3200 L 750 3200 L 700 3200 Z" fill="rgb(64,32,56)" stroke="rgb(64,32,56)" /><path d="M 800 300 L 900 300 L 900 400 L 825 375 Z" fill="rgb(248,136,0)" stroke="rgb(248,136,0)" /><path d="M 875 225 L 925 175 L 975 225 L 1025 275 L 975 325 L 900 300 Z" fill="rgb(64,32,56)" stroke="rgb(64,32,56)" /><path d="M 1400 2500 L 1500 2500 L 1500 2600 L 1425 2625 L 1375 2575 Z" fill="rgb(168,168,112)" stroke="rgb(168,168,112)" /><path d="M 975 2525 L 1000 2500 L 1025 2475 L 1075 2475 L 1125 2525 L 1125 2575 L 1100 2600 L 1075 2625 L 1025 2575 Z" fill="rgb(8,56,56)" stroke="rgb(8,56,56)" /><path d="M 1500 2800 L 1600 2800 L 1575 2875 L 1500 2900 Z" fill="rgb(40,24,32)" stroke="rgb(40,24,32)" /><path d="M 1125 2025 L 1200 2000 L 1200 2100 L 1125 2125 L 1100 2100 L 1075 2075 Z" fill="rgb(8,56,56)" stroke="rgb(8,56,56)" /><path d="M 0 3100 L 100 3100 L 100 3200 L 50 3200 L 0 3200 L 0 3150 Z" fill="rgb(255,0,255)" stroke="rgb(255,0,255)" /><path d="M 1375 325 L 1400 300 L 1425 275 L 1500 300 L 1500 400 L 1425 425 L 1400 400 L 1375 375 Z" fill="rgb(255,0,255)" stroke="rgb(255,0,255)" /><path d="M 1175 2325 L 1225 2275 L 1275 2325 L 1300 2400 L 1200 2400 Z" fill="rgb(48,112,112)" stroke="rgb(48,112,112)" /><path d="M 100 3000 L 200 3000 L 200 3100 L 100 3100 Z" fill="rgb(248,248,248)" stroke="rgb(248,248,248)" /><path d="M 1300 2200 L 1400 2200 L 1425 2275 L 1375 2325 L 1325 2275 Z" fill="rgb(40,24,32)" stroke="rgb(40,24,32)" /><path d="M 200 2900 L 300 2900 L 275 2975 L 200 3000 Z" fill="rgb(248,136,0)" stroke="rgb(248,136,0)" /><path d="M 300 0 L 350 0 L 400 0 L 400 100 L 300 100 Z" fill="rgb(255,0,255)" stroke="rgb(255,0,255)" /><path d="M 425 2725 L 475 2675 L 525 2725 L 500 2800 L 400 2800 Z" fill="rgb(168,168,112)" stroke="rgb(168,168,112)" /><path d="M 475 2625 L 500 2600 L 525 2575 L 600 2600 L 575 2675 L 525 2725 L 475 2675 Z" fill="rgb(168,168,112)" stroke="rgb(168,168,112)" /><path d="M 1600 1400 L 1700 1400 L 1700 1450 L 1700 1500 L 1600 1500 Z" fill="rgb(40,24,32)" stroke="rgb(40,24,32)" /><path d="M 600 1700 L 700 1700 L 725 1775 L 700 1800 L 675 1825 L 625 1775 Z" fill="rgb(48,112,112)" stroke="rgb(48,112,112)" /><path d="M 675 2025 L 700 2000 L 725 1975 L 800 2000 L 800 2100 L 725 2125 L 675 2075 Z" fill="rgb(8,56,56)" stroke="rgb(8,56,56)" /><path d="M 825 1025 L 900 1000 L 900 1100 L 800 1100 Z" fill="rgb(248,248,248)" stroke="rgb(248,248,248)" /><path d="M 900 1100 L 1000 1100 L 1000 1200 L 925 1225 L 900 1200 L 875 1175 Z" fill="rgb(248,128,104)" stroke="rgb(248,128,104)" /><path d="M 1000 0 L 1050 0 L 1100 0 L 1100 100 L 1000 100 Z" fill="rgb(255,0,255)" stroke="rgb(255,0,255)" /><path d="M 800 1600 L 875 1575 L 925 1625 L 900 1700 L 800 1700 Z" fill="rgb(88,0,0)" stroke="rgb(88,0,0)" /><path d="M 1100 1300 L 1200 1300 L 1200 1400 L 1125 1375 Z" fill="rgb(8,56,56)" stroke="rgb(8,56,56)" /><path d="M 0 2200 L 100 2200 L 100 2300 L 0 2300 L 0 2250 Z" fill="rgb(255,0,255)" stroke="rgb(255,0,255)" /><path d="M 1400 1000 L 1475 1025 L 1500 1100 L 1400 1100 Z" fill="rgb(40,24,32)" stroke="rgb(40,24,32)" /><path d="M 1200 1400 L 1300 1400 L 1325 1475 L 1275 1525 L 1200 1500 Z" fill="rgb(248,136,0)" stroke="rgb(248,136,0)" /><path d="M 100 2300 L 175 2275 L 200 2300 L 225 2325 L 200 2400 L 100 2400 Z" fill="rgb(255,0,255)" stroke="rgb(255,0,255)" /><path d="M 1500 300 L 1600 300 L 1600 400 L 1500 400 Z" fill="rgb(255,0,255)" stroke="rgb(255,0,255)" /><path d="M 1275 1525 L 1325 1475 L 1375 1525 L 1400 1600 L 1300 1600 Z" fill="rgb(248,136,0)" stroke="rgb(248,136,0)" /><path d="M 200 2000 L 300 2000 L 300 2100 L 225 2075 Z" fill="rgb(64,32,56)" stroke="rgb(64,32,56)" /><path d="M 0 1200 L 100 1200 L 100 1300 L 0 1300 L 0 1250 Z" fill="rgb(255,0,255)" stroke="rgb(255,0,255)" /><path d="M 325 925 L 400 900 L 375 975 L 300 1000 Z" fill="rgb(248,136,0)" stroke="rgb(248,136,0)" /><path d="M 75 925 L 125 875 L 200 900 L 225 975 L 175 1025 L 125 975 Z" fill="rgb(64,32,56)" stroke="rgb(64,32,56)" /><path d="M 400 200 L 500 200 L 500 300 L 400 300 Z" fill="rgb(255,0,255)" stroke="rgb(255,0,255)" /><path d="M 175 1425 L 200 1400 L 225 1375 L 300 1400 L 275 1475 L 225 1525 L 200 1500 L 175 1475 Z" fill="rgb(255,0,255)" stroke="rgb(255,0,255)" /><path d="M 500 300 L 575 275 L 625 325 L 600 400 L 500 400 Z" fill="rgb(64,32,56)" stroke="rgb(64,32,56)" /><path d="M 1600 500 L 1700 500 L 1700 550 L 1700 600 L 1600 600 Z" fill="rgb(255,0,255)" stroke="rgb(255,0,255)" /><path d="M 600 800 L 675 825 L 675 850 L 675 875 L 600 900 Z" fill="rgb(248,248,248)" stroke="rgb(248,248,248)" /><path d="M 700 1300 L 775 1275 L 800 1300 L 825 1325 L 800 1400 L 725 1425 L 675 1375 Z" fill="rgb(248,128,104)" stroke="rgb(248,128,104)" /><path d="M 1575 2725 L 1600 2700 L 1625 2675 L 1700 2700 L 1700 2750 L 1700 2800 L 1600 2800 Z" fill="rgb(255,0,255)" stroke="rgb(255,0,255)" /><path d="M 925 1225 L 1000 1200 L 1000 1300 L 900 1300 Z" fill="rgb(8,56,56)" stroke="rgb(8,56,56)" /><path d="M 1000 1100 L 1075 1075 L 1100 1100 L 1125 1125 L 1100 1200 L 1000 1200 Z" fill="rgb(88,0,0)" stroke="rgb(88,0,0)" /><path d="M 800 2300 L 900 2300 L 900 2400 L 825 2425 L 775 2375 Z" fill="rgb(248,248,248)" stroke="rgb(248,248,248)" /><path d="M 1100 200 L 1200 200 L 1200 300 L 1100 300 Z" fill="rgb(255,0,255)" stroke="rgb(255,0,255)" /><path d="M 900 2200 L 1000 2200 L 975 2275 L 900 2300 Z" fill="rgb(80,248,184)" stroke="rgb(80,248,184)" /><path d="M 1400 1300 L 1500 1300 L 1525 1375 L 1475 1425 L 1400 1400 Z" fill="rgb(88,0,0)" stroke="rgb(88,0,0)" /><path d="M 1175 525 L 1225 475 L 1275 525 L 1325 575 L 1275 625 L 1225 625 L 1175 575 Z" fill="rgb(184,0,56)" stroke="rgb(184,0,56)" /><path d="M 1000 2100 L 1075 2075 L 1100 2100 L 1125 2125 L 1100 2200 L 1000 2200 Z" fill="rgb(8,56,56)" stroke="rgb(8,56,56)" /><path d="M 1525 825 L 1600 800 L 1600 900 L 1500 900 Z" fill="rgb(255,0,255)" stroke="rgb(255,0,255)" /><path d="M 1300 800 L 1375 775 L 1425 825 L 1400 900 L 1300 900 Z" fill="rgb(64,32,56)" stroke="rgb(64,32,56)" /><path d="M 1100 2400 L 1200 2400 L 1175 2475 L 1125 2525 L 1075 2475 Z" fill="rgb(8,56,56)" stroke="rgb(8,56,56)" /><path d="M 0 300 L 75 275 L 100 300 L 125 325 L 125 375 L 100 400 L 75 425 L 0 400 L 0 350 Z" fill="rgb(255,0,255)" stroke="rgb(255,0,255)" /><path d="M 300 1400 L 400 1400 L 400 1500 L 325 1525 L 275 1475 Z" fill="rgb(64,32,56)" stroke="rgb(64,32,56)" /><path d="M 100 200 L 200 200 L 200 300 L 125 325 L 100 300 L 75 275 Z" fill="rgb(255,0,255)" stroke="rgb(255,0,255)" /><path d="M 400 900 L 500 900 L 500 1000 L 425 1025 L 400 1000 L 375 975 Z" fill="rgb(248,136,0)" stroke="rgb(248,136,0)" /><path d="M 200 900 L 275 875 L 325 925 L 300 1000 L 225 975 Z" fill="rgb(88,0,0)" stroke="rgb(88,0,0)" /><path d="M 525 1225 L 600 1200 L 600 1300 L 500 1300 Z" fill="rgb(248,248,248)" stroke="rgb(248,248,248)" /><path d="M 300 2000 L 400 2000 L 400 2100 L 300 2100 Z" fill="rgb(48,112,112)" stroke="rgb(48,112,112)" /><path d="M 625 325 L 700 300 L 700 400 L 600 400 Z" fill="rgb(88,0,0)" stroke="rgb(88,0,0)" /><path d="M 425 2325 L 475 2325 L 500 2400 L 400 2400 Z" fill="rgb(80,208,232)" stroke="rgb(80,208,232)" /><path d="M 700 1000 L 775 975 L 825 1025 L 800 1100 L 725 1125 L 675 1075 Z" fill="rgb(88,0,0)" stroke="rgb(88,0,0)" /><path d="M 500 2200 L 600 2200 L 625 2275 L 600 2300 L 575 2325 L 525 2275 Z" fill="rgb(48,112,112)" stroke="rgb(48,112,112)" /><path d="M 1625 1825 L 1700 1800 L 1700 1850 L 1700 1900 L 1600 1900 Z" fill="rgb(255,0,255)" stroke="rgb(255,0,255)" /><path d="M 800 3000 L 900 3000 L 900 3100 L 800 3100 Z" fill="rgb(40,24,32)" stroke="rgb(40,24,32)" /><path d="M 900 3100 L 1000 3100 L 1000 3200 L 950 3200 L 900 3200 Z" fill="rgb(255,0,255)" stroke="rgb(255,0,255)" /><path d="M 1400 2000 L 1500 2000 L 1500 2100 L 1400 2100 Z" fill="rgb(255,0,255)" stroke="rgb(255,0,255)" /><path d="M 1000 2800 L 1075 2825 L 1100 2900 L 1000 2900 Z" fill="rgb(88,0,0)" stroke="rgb(88,0,0)" /><path d="M 1500 1700 L 1600 1700 L 1575 1775 L 1525 1825 L 1475 1775 Z" fill="rgb(40,24,32)" stroke="rgb(40,24,32)" /><path d="M 1300 100 L 1400 100 L 1400 200 L 1300 200 Z" fill="rgb(255,0,255)" stroke="rgb(255,0,255)" /><path d="M 1125 1725 L 1200 1700 L 1175 1775 L 1100 1800 Z" fill="rgb(80,248,184)" stroke="rgb(80,248,184)" /><path d="M 0 2600 L 75 2575 L 100 2600 L 125 2625 L 100 2700 L 0 2700 L 0 2650 Z" fill="rgb(255,0,255)" stroke="rgb(255,0,255)" /><path d="M 1175 2625 L 1225 2575 L 1300 2600 L 1300 2700 L 1225 2675 Z" fill="rgb(168,168,112)" stroke="rgb(168,168,112)" /><path d="M 100 2700 L 200 2700 L 200 2800 L 125 2825 L 75 2775 Z" fill="rgb(40,24,32)" stroke="rgb(40,24,32)" /><path d="M 1300 2700 L 1400 2700 L 1400 2800 L 1300 2800 Z" fill="rgb(88,0,0)" stroke="rgb(88,0,0)" /><path d="M 200 0 L 250 0 L 300 0 L 300 100 L 200 100 Z" fill="rgb(255,0,255)" stroke="rgb(255,0,255)" /><path d="M 300 2900 L 400 2900 L 375 2975 L 325 3025 L 300 3000 L 275 2975 Z" fill="rgb(248,136,0)" stroke="rgb(248,136,0)" /><path d="M 425 3025 L 475 2975 L 525 3025 L 475 3075 L 400 3100 Z" fill="rgb(88,0,0)" stroke="rgb(88,0,0)" /></svg>