<?xml version="1.0" encoding="utf-8" ?>
<svg baseProfile="full" height="100%" version="1.1" width="100%" xmlns="http://www.w3.org/2000/svg" xmlns:ev="http://www.w3.org/2001/xml-events" xmlns:xlink="http://www.w3.org/1999/xlink"><defs /><rect fill="rgb(255,255,255)" height="100%" width="100%" x="0" y="0" /><path d="M 400 2900 L 400 2900 L 475 2925" fill="none" stroke="rgb(0,0,0)" /><path d="M 800 1700 L 800 1700 L 800 1800 L 775 1875 L 700 1900 L 600 1900 L 525 1925 L 500 2000 L 500 2100" fill="none" stroke="rgb(0,0,0)" /><path d="M 875 1425 L 875 1425 L 800 1400 L 725 1425" fill="none" stroke="rgb(0,0,0)" /><path d="M 1075 2475 L 1075 2475 L 1025 2475" fill="none" stroke="rgb(0,0,0)" /><path d="M 1075 2475 L 1075 2475 L 1025 2475" fill="none" stroke="rgb(0,0,0)" /><path d="M 1100 400 L 1100 400 L 1100 500" fill="none" stroke="rgb(0,0,0)" /><path d="M 475 2975 L 475 2975 L 425 3025 L 400 3100" fill="none" stroke="rgb(0,0,0)" /><path d="M 475 2975 L 475 2975 L 475 2925" fill="none" stroke="rgb(0,0,0)" /><path d="M 1075 2475 L 1075 2475 L 1100 2400" fill="none" stroke="rgb(0,0,0)" /><path d="M 1300 1200 L 1300 1200 L 1275 1125 L 1200 1100" fill="none" stroke="rgb(0,0,0)" /><path d="M 1600 1600 L 1600 1600 L 1600 1400 L 1575 1325 L 1500 1300" fill="none" stroke="rgb(0,0,0)" /><path d="M 1375 325 L 1375 325 L 1300 300 L 1100 300 L 1025 275 L 825 75 L 800 0" fill="none" stroke="rgb(0,0,0)" /><path d="M 475 2975 L 475 2975 L 475 2925" fill="none" stroke="rgb(0,0,0)" /><path d="M 1000 1200 L 1000 1200 L 1000 1100" fill="none" stroke="rgb(0,0,0)" /><path d="M 300 1200 L 300 1200 L 300 1400" fill="none" stroke="rgb(0,0,0)" /><path d="M 1000 1400 L 1000 1400 L 1000 1200" fill="none" stroke="rgb(0,0,0)" /><path d="M 1000 1200 L 1000 1200 L 1100 1200 L 1175 1175 L 1200 1100 L 1175 1025 L 1125 975 L 1100 900" fill="none" stroke="rgb(0,0,0)" /><path d="M 300 1300 L 300 1300 L 400 1300" fill="none" stroke="rgb(0,0,0)" /><path d="M 875 1475 L 875 1475 L 875 1425" fill="none" stroke="rgb(0,0,0)" /><path d="M 700 700 L 700 700 L 725 625 L 800 600 L 875 625 L 900 700 L 875 775 L 800 800" fill="none" stroke="rgb(0,0,0)" /><path d="M 875 1475 L 875 1475 L 800 1500 L 725 1475" fill="none" stroke="rgb(0,0,0)" /><path d="M 600 900 L 600 900 L 675 875" fill="none" stroke="rgb(0,0,0)" /><path d="M 1100 500 L 1100 500 L 1175 525" fill="none" stroke="rgb(0,0,0)" /><path d="M 1375 325 L 1375 325 L 1375 375" fill="none" stroke="rgb(0,0,0)" /><path d="M 400 1200 L 400 1200 L 475 1175 L 500 1100 L 500 900 L 475 825 L 375 725 L 300 700" fill="none" stroke="rgb(0,0,0)" /><path d="M 700 1700 L 700 1700 L 675 1625 L 475 1425 L 400 1400" fill="none" stroke="rgb(0,0,0)" /><path d="M 300 1200 L 300 1200 L 275 1125 L 75 925 L 0 900" fill="none" stroke="rgb(0,0,0)" /><path d="M 400 1600 L 400 1600 L 300 1600" fill="none" stroke="rgb(0,0,0)" /><path d="M 1500 1600 L 1500 1600 L 1600 1600" fill="none" stroke="rgb(0,0,0)" /><path d="M 925 2625 L 925 2625 L 975 2625" fill="none" stroke="rgb(0,0,0)" /><path d="M 1000 500 L 1000 500 L 1100 500" fill="none" stroke="rgb(0,0,0)" /><path d="M 400 2900 L 400 2900 L 375 2975 L 325 3025 L 300 3100" fill="none" stroke="rgb(0,0,0)" /><path d="M 1025 2475 L 1025 2475 L 1000 2400 L 1025 2325 L 1100 2300 L 1175 2325 L 1200 2400" fill="none" stroke="rgb(0,0,0)" /><path d="M 1200 1900 L 1200 1900 L 1275 1875 L 1325 1825 L 1400 1800" fill="none" stroke="rgb(0,0,0)" /><path d="M 200 3000 L 200 3000 L 100 3000" fill="none" stroke="rgb(0,0,0)" /><path d="M 400 2900 L 400 2900 L 400 2800" fill="none" stroke="rgb(0,0,0)" /><path d="M 800 900 L 800 900 L 725 925 L 700 1000 L 775 975 L 800 900" fill="none" stroke="rgb(0,0,0)" /><path d="M 400 1200 L 400 1200 L 300 1200" fill="none" stroke="rgb(0,0,0)" /><path d="M 1500 2600 L 1500 2600 L 1500 2500 L 1475 2425 L 1400 2400" fill="none" stroke="rgb(0,0,0)" /><path d="M 300 1900 L 300 1900 L 325 1825 L 375 1775 L 400 1700 L 400 1600" fill="none" stroke="rgb(0,0,0)" /><path d="M 1200 1400 L 1200 1400 L 1200 1300 L 1225 1225 L 1300 1200" fill="none" stroke="rgb(0,0,0)" /><path d="M 300 1400 L 300 1400 L 275 1475 L 225 1525 L 225 1575 L 300 1600" fill="none" stroke="rgb(0,0,0)" /><path d="M 500 0 L 500 0 L 525 75 L 575 125 L 600 200 L 575 275 L 500 300 L 200 300 L 125 325 L 125 375 L 275 525 L 275 575 L 75 775 L 0 800" fill="none" stroke="rgb(0,0,0)" /><path d="M 1500 2600 L 1500 2600 L 1425 2625 L 1400 2700" fill="none" stroke="rgb(0,0,0)" /><path d="M 600 1400 L 600 1400 L 600 1200" fill="none" stroke="rgb(0,0,0)" /><path d="M 625 3075 L 625 3075 L 675 3075" fill="none" stroke="rgb(0,0,0)" /><path d="M 1200 2400 L 1200 2400 L 1175 2475 L 1125 2525 L 1125 2575 L 1225 2675 L 1300 2700 L 1400 2700" fill="none" stroke="rgb(0,0,0)" /><path d="M 1500 2900 L 1500 2900 L 1475 2975 L 1400 3000 L 1100 3000 L 1025 3025 L 1000 3100" fill="none" stroke="rgb(0,0,0)" /><path d="M 400 2100 L 400 2100 L 600 2100 L 675 2075" fill="none" stroke="rgb(0,0,0)" /><path d="M 1200 700 L 1200 700 L 1225 625 L 1275 625 L 1300 700" fill="none" stroke="rgb(0,0,0)" /><path d="M 0 2800 L 0 2800 L 75 2775 L 125 2625 L 200 2600" fill="none" stroke="rgb(0,0,0)" /><path d="M 1200 1500 L 1200 1500 L 1125 1525 L 1125 1575 L 1175 1625 L 1200 1700 L 1175 1775 L 1100 1800" fill="none" stroke="rgb(0,0,0)" /><path d="M 900 400 L 900 400 L 825 375 L 800 300 L 800 200" fill="none" stroke="rgb(0,0,0)" /><path d="M 800 2200 L 800 2200 L 400 2200" fill="none" stroke="rgb(0,0,0)" /><path d="M 1400 1200 L 1400 1200 L 1400 900 L 1425 825 L 1475 775 L 1500 700 L 1475 625 L 1325 475" fill="none" stroke="rgb(0,0,0)" /><path d="M 500 1700 L 500 1700 L 500 1600" fill="none" stroke="rgb(0,0,0)" /><path d="M 1000 1400 L 1000 1400 L 975 1475 L 875 1575 L 800 1600 L 725 1575 L 625 1475 L 600 1400" fill="none" stroke="rgb(0,0,0)" /><path d="M 200 2700 L 200 2700 L 275 2725 L 300 2800" fill="none" stroke="rgb(0,0,0)" /><path d="M 600 2400 L 600 2400 L 300 2400" fill="none" stroke="rgb(0,0,0)" /><path d="M 325 825 L 325 825 L 275 875 L 200 900" fill="none" stroke="rgb(0,0,0)" /><path d="M 200 2800 L 200 2800 L 125 2825 L 100 2900 L 100 3100" fill="none" stroke="rgb(0,0,0)" /><path d="M 1400 1200 L 1400 1200 L 1300 1200" fill="none" stroke="rgb(0,0,0)" /><path d="M 200 800 L 200 800 L 200 900" fill="none" stroke="rgb(0,0,0)" /><path d="M 400 500 L 400 500 L 400 400" fill="none" stroke="rgb(0,0,0)" /><path d="M 1400 1200 L 1400 1200 L 1400 1300" fill="none" stroke="rgb(0,0,0)" /><path d="M 400 500 L 400 500 L 500 500" fill="none" stroke="rgb(0,0,0)" /><path d="M 1000 1100 L 1000 1100 L 800 1100 L 725 1125" fill="none" stroke="rgb(0,0,0)" /><path d="M 400 500 L 400 500 L 325 475" fill="none" stroke="rgb(0,0,0)" /><path d="M 400 500 L 400 500 L 400 600" fill="none" stroke="rgb(0,0,0)" /><path d="M 400 2200 L 400 2200 L 400 2100" fill="none" stroke="rgb(0,0,0)" /><path d="M 600 3000 L 600 3000 L 525 3025 L 475 3075 L 400 3100 L 100 3100" fill="none" stroke="rgb(0,0,0)" /><path d="M 300 700 L 300 700 L 325 625 L 400 600 L 475 625 L 525 675" fill="none" stroke="rgb(0,0,0)" /><path d="M 1700 1300 L 1700 1300 L 1625 1275 L 1525 1175 L 1475 1025 L 1400 1000" fill="none" stroke="rgb(0,0,0)" /><path d="M 300 2100 L 300 2100 L 400 2100" fill="none" stroke="rgb(0,0,0)" /><path d="M 400 1200 L 400 1200 L 400 1400" fill="none" stroke="rgb(0,0,0)" /><path d="M 200 2600 L 200 2600 L 200 2400 L 225 2325 L 275 2275 L 300 2200 L 300 2100" fill="none" stroke="rgb(0,0,0)" /><path d="M 125 825 L 125 825 L 125 875" fill="none" stroke="rgb(0,0,0)" /><path d="M 125 825 L 125 825 L 200 800" fill="none" stroke="rgb(0,0,0)" /><path d="M 1200 1500 L 1200 1500 L 1200 1400" fill="none" stroke="rgb(0,0,0)" /><path d="M 125 825 L 125 825 L 125 875" fill="none" stroke="rgb(0,0,0)" /><path d="M 1200 1500 L 1200 1500 L 1225 1575 L 1300 1600" fill="none" stroke="rgb(0,0,0)" /><path d="M 1325 425 L 1325 425 L 1375 375" fill="none" stroke="rgb(0,0,0)" /><path d="M 1000 2000 L 1000 2000 L 1075 1975 L 1100 1900 L 1100 1800 L 1125 1725 L 1200 1700" fill="none" stroke="rgb(0,0,0)" /><path d="M 1000 1400 L 1000 1400 L 925 1375 L 900 1300 L 925 1225 L 1000 1200" fill="none" stroke="rgb(0,0,0)" /><path d="M 1000 1400 L 1000 1400 L 1075 1425" fill="none" stroke="rgb(0,0,0)" /><path d="M 1325 425 L 1325 425 L 1325 475" fill="none" stroke="rgb(0,0,0)" /><path d="M 1300 3000 L 1300 3000 L 1300 2900" fill="none" stroke="rgb(0,0,0)" /><path d="M 1325 425 L 1325 425 L 1325 475" fill="none" stroke="rgb(0,0,0)" /><path d="M 1000 2100 L 1000 2100 L 925 2125 L 900 2200 L 900 2500 L 875 2575 L 800 2600" fill="none" stroke="rgb(0,0,0)" /><path d="M 200 800 L 200 800 L 275 775 L 300 700" fill="none" stroke="rgb(0,0,0)" /><path d="M 1500 1300 L 1500 1300 L 1525 1375 L 1600 1400" fill="none" stroke="rgb(0,0,0)" /><path d="M 1500 1300 L 1500 1300 L 1475 1225 L 1400 1200" fill="none" stroke="rgb(0,0,0)" /><path d="M 900 2300 L 900 2300 L 975 2275 L 1000 2200 L 1000 2000 L 1025 1925 L 1100 1900" fill="none" stroke="rgb(0,0,0)" /><path d="M 800 200 L 800 200 L 875 225 L 900 300" fill="none" stroke="rgb(0,0,0)" /><path d="M 800 200 L 800 200 L 775 125" fill="none" stroke="rgb(0,0,0)" /><path d="M 800 200 L 800 200 L 700 200" fill="none" stroke="rgb(0,0,0)" /><path d="M 1200 2200 L 1200 2200 L 1225 2275 L 1275 2325 L 1300 2400" fill="none" stroke="rgb(0,0,0)" /><path d="M 1000 2800 L 1000 2800 L 1075 2825 L 1100 2900" fill="none" stroke="rgb(0,0,0)" /><path d="M 325 425 L 325 425 L 325 475" fill="none" stroke="rgb(0,0,0)" /><path d="M 900 300 L 900 300 L 800 300" fill="none" stroke="rgb(0,0,0)" /><path d="M 100 3100 L 100 3100 L 100 3200" fill="none" stroke="rgb(0,0,0)" /><path d="M 200 2800 L 200 2800 L 300 2800" fill="none" stroke="rgb(0,0,0)" /><path d="M 1075 1675 L 1075 1675 L 1075 1625" fill="none" stroke="rgb(0,0,0)" /><path d="M 1500 2900 L 1500 2900 L 1500 2800" fill="none" stroke="rgb(0,0,0)" /><path d="M 675 2075 L 675 2075 L 675 2025" fill="none" stroke="rgb(0,0,0)" /><path d="M 300 1000 L 300 1000 L 225 975 L 200 900" fill="none" stroke="rgb(0,0,0)" /><path d="M 300 700 L 300 700 L 225 725 L 200 800" fill="none" stroke="rgb(0,0,0)" /><path d="M 200 2500 L 200 2500 L 275 2475 L 325 2325 L 375 2275 L 400 2200" fill="none" stroke="rgb(0,0,0)" /><path d="M 1500 2600 L 1500 2600 L 1575 2575 L 1600 2500 L 1575 2425 L 1425 2275 L 1400 2200 L 1400 2000 L 1425 1925 L 1575 1775 L 1600 1700 L 1600 1600" fill="none" stroke="rgb(0,0,0)" /><path d="M 600 1400 L 600 1400 L 525 1375 L 500 1300 L 525 1225 L 600 1200 L 675 1225 L 700 1300 L 675 1375 L 600 1400" fill="none" stroke="rgb(0,0,0)" /><path d="M 625 3075 L 625 3075 L 600 3000" fill="none" stroke="rgb(0,0,0)" /><path d="M 1075 1675 L 1075 1675 L 1075 1625" fill="none" stroke="rgb(0,0,0)" /><path d="M 875 2775 L 875 2775 L 800 2800" fill="none" stroke="rgb(0,0,0)" /><path d="M 900 2400 L 900 2400 L 825 2425 L 800 2500 L 800 2700" fill="none" stroke="rgb(0,0,0)" /><path d="M 0 2900 L 0 2900 L 100 2900" fill="none" stroke="rgb(0,0,0)" /><path d="M 775 125 L 775 125 L 725 125" fill="none" stroke="rgb(0,0,0)" /><path d="M 1400 2400 L 1400 2400 L 1375 2325 L 1325 2275 L 1300 2200 L 1300 2000 L 1325 1925 L 1375 1875 L 1400 1800" fill="none" stroke="rgb(0,0,0)" /><path d="M 775 125 L 775 125 L 725 125" fill="none" stroke="rgb(0,0,0)" /><path d="M 300 2200 L 300 2200 L 400 2200" fill="none" stroke="rgb(0,0,0)" /><path d="M 325 425 L 325 425 L 325 475" fill="none" stroke="rgb(0,0,0)" /><path d="M 1175 575 L 1175 575 L 1175 525" fill="none" stroke="rgb(0,0,0)" /><path d="M 600 1900 L 600 1900 L 625 1975 L 675 2025" fill="none" stroke="rgb(0,0,0)" /><path d="M 700 3000 L 700 3000 L 600 3000" fill="none" stroke="rgb(0,0,0)" /><path d="M 500 2800 L 500 2800 L 400 2800" fill="none" stroke="rgb(0,0,0)" /><path d="M 400 2900 L 400 2900 L 200 2900" fill="none" stroke="rgb(0,0,0)" /><path d="M 375 825 L 375 825 L 400 900" fill="none" stroke="rgb(0,0,0)" /><path d="M 300 2800 L 300 2800 L 300 2900" fill="none" stroke="rgb(0,0,0)" /><path d="M 375 825 L 375 825 L 325 825" fill="none" stroke="rgb(0,0,0)" /><path d="M 675 825 L 675 825 L 675 875" fill="none" stroke="rgb(0,0,0)" /><path d="M 300 1600 L 300 1600 L 325 1525 L 400 1500" fill="none" stroke="rgb(0,0,0)" /><path d="M 1100 500 L 1100 500 L 1075 575 L 1025 575 L 1000 500 L 1000 400 L 975 325 L 900 300" fill="none" stroke="rgb(0,0,0)" /><path d="M 1300 2200 L 1300 2200 L 1100 2200" fill="none" stroke="rgb(0,0,0)" /><path d="M 625 3075 L 625 3075 L 675 3075" fill="none" stroke="rgb(0,0,0)" /><path d="M 675 825 L 675 825 L 600 800" fill="none" stroke="rgb(0,0,0)" /><path d="M 1000 1100 L 1000 1100 L 1075 1075 L 1075 1025 L 975 925 L 925 925 L 900 1000" fill="none" stroke="rgb(0,0,0)" /><path d="M 325 425 L 325 425 L 400 400 L 600 400" fill="none" stroke="rgb(0,0,0)" /><path d="M 675 825 L 675 825 L 675 875" fill="none" stroke="rgb(0,0,0)" /><path d="M 100 3100 L 100 3100 L 0 3100" fill="none" stroke="rgb(0,0,0)" /><path d="M 1500 1300 L 1500 1300 L 1400 1300 L 1325 1275 L 1300 1200" fill="none" stroke="rgb(0,0,0)" /><path d="M 1000 400 L 1000 400 L 1100 400 L 1175 425 L 1375 625 L 1400 700 L 1375 775 L 1300 800 L 1100 800" fill="none" stroke="rgb(0,0,0)" /><path d="M 400 1600 L 400 1600 L 400 1400" fill="none" stroke="rgb(0,0,0)" /><path d="M 300 1200 L 300 1200 L 225 1225 L 200 1300 L 225 1375 L 300 1400" fill="none" stroke="rgb(0,0,0)" /><path d="M 200 2600 L 200 2600 L 200 2800" fill="none" stroke="rgb(0,0,0)" /><path d="M 1500 2800 L 1500 2800 L 1600 2800" fill="none" stroke="rgb(0,0,0)" /><path d="M 1075 1475 L 1075 1475 L 1025 1525 L 1000 1600" fill="none" stroke="rgb(0,0,0)" /><path d="M 1100 1200 L 1100 1200 L 1100 1300 L 1125 1375 L 1200 1400" fill="none" stroke="rgb(0,0,0)" /><path d="M 1075 1675 L 1075 1675 L 1025 1725 L 975 1875 L 925 1925 L 875 2075 L 725 2125 L 700 2200" fill="none" stroke="rgb(0,0,0)" /><path d="M 1000 2900 L 1000 2900 L 1000 2800 L 1025 2725 L 1100 2700 L 1175 2725 L 1225 2775 L 1300 2800 L 1500 2800" fill="none" stroke="rgb(0,0,0)" /><path d="M 900 300 L 900 300 L 900 400 L 875 475 L 800 500 L 725 475 L 700 400 L 700 200 L 725 125" fill="none" stroke="rgb(0,0,0)" /><path d="M 1175 575 L 1175 575 L 1175 525" fill="none" stroke="rgb(0,0,0)" /><path d="M 900 3200 L 900 3200 L 900 3100" fill="none" stroke="rgb(0,0,0)" /><path d="M 1000 1600 L 1000 1600 L 975 1675 L 900 1700 L 600 1700" fill="none" stroke="rgb(0,0,0)" /><path d="M 1300 800 L 1300 800 L 1300 1000 L 1325 1075 L 1400 1100" fill="none" stroke="rgb(0,0,0)" /><path d="M 675 2075 L 675 2075 L 675 2025" fill="none" stroke="rgb(0,0,0)" /><path d="M 1000 1600 L 1000 1600 L 925 1625 L 900 1700" fill="none" stroke="rgb(0,0,0)" /><path d="M 575 675 L 575 675 L 525 675" fill="none" stroke="rgb(0,0,0)" /><path d="M 400 1100 L 400 1100 L 325 1075 L 300 1000 L 325 925 L 400 900 L 500 900" fill="none" stroke="rgb(0,0,0)" /><path d="M 600 1700 L 600 1700 L 575 1625 L 500 1600 L 400 1600" fill="none" stroke="rgb(0,0,0)" /><path d="M 1200 2400 L 1200 2400 L 1000 2400" fill="none" stroke="rgb(0,0,0)" /><path d="M 1400 1400 L 1400 1400 L 1425 1475 L 1475 1525 L 1500 1600 L 1500 1700 L 1475 1775 L 1400 1800" fill="none" stroke="rgb(0,0,0)" /><path d="M 600 1700 L 600 1700 L 625 1775 L 675 1825 L 700 1900" fill="none" stroke="rgb(0,0,0)" /><path d="M 1100 900 L 1100 900 L 1025 875 L 1000 800 L 1025 725 L 1075 725 L 1100 800 L 1100 900" fill="none" stroke="rgb(0,0,0)" /><path d="M 400 1200 L 400 1200 L 400 1100 L 425 1025 L 500 1000" fill="none" stroke="rgb(0,0,0)" /><path d="M 400 1400 L 400 1400 L 300 1400" fill="none" stroke="rgb(0,0,0)" /><path d="M 875 2725 L 875 2725 L 800 2700" fill="none" stroke="rgb(0,0,0)" /><path d="M 300 1900 L 300 1900 L 200 1900" fill="none" stroke="rgb(0,0,0)" /><path d="M 300 1900 L 300 1900 L 300 2100" fill="none" stroke="rgb(0,0,0)" /><path d="M 300 1900 L 300 1900 L 375 1925 L 400 2000 L 400 2100" fill="none" stroke="rgb(0,0,0)" /><path d="M 725 1125 L 725 1125 L 725 1175" fill="none" stroke="rgb(0,0,0)" /><path d="M 1400 2800 L 1400 2800 L 1400 2700" fill="none" stroke="rgb(0,0,0)" /><path d="M 575 675 L 575 675 L 525 675" fill="none" stroke="rgb(0,0,0)" /><path d="M 1300 1400 L 1300 1400 L 1325 1475 L 1375 1525 L 1400 1600 L 1400 1800" fill="none" stroke="rgb(0,0,0)" /><path d="M 875 2725 L 875 2725 L 875 2775" fill="none" stroke="rgb(0,0,0)" /><path d="M 1400 2700 L 1400 2700 L 1475 2725 L 1500 2800" fill="none" stroke="rgb(0,0,0)" /><path d="M 875 2725 L 875 2725 L 875 2775" fill="none" stroke="rgb(0,0,0)" /><path d="M 800 1100 L 800 1100 L 825 1025 L 900 1000 L 975 1025 L 1000 1100" fill="none" stroke="rgb(0,0,0)" /><path d="M 600 1700 L 600 1700 L 400 1700" fill="none" stroke="rgb(0,0,0)" /><path d="M 925 2625 L 925 2625 L 925 2675 L 975 2675" fill="none" stroke="rgb(0,0,0)" /><path d="M 300 2100 L 300 2100 L 225 2075 L 200 2000 L 200 1900 L 225 1825 L 275 1775 L 300 1700 L 300 1600" fill="none" stroke="rgb(0,0,0)" /><path d="M 725 1125 L 725 1125 L 725 1175" fill="none" stroke="rgb(0,0,0)" /><path d="M 1400 1700 L 1400 1700 L 1300 1700" fill="none" stroke="rgb(0,0,0)" /><path d="M 1300 2400 L 1300 2400 L 1400 2400" fill="none" stroke="rgb(0,0,0)" /><path d="M 1075 1425 L 1075 1425 L 1075 1475" fill="none" stroke="rgb(0,0,0)" /><path d="M 1075 1425 L 1075 1425 L 1075 1475" fill="none" stroke="rgb(0,0,0)" /><path d="M 1300 2000 L 1300 2000 L 1200 2000" fill="none" stroke="rgb(0,0,0)" /><path d="M 575 675 L 575 675 L 600 600" fill="none" stroke="rgb(0,0,0)" /><path d="M 1600 1500 L 1600 1500 L 1525 1475 L 1475 1425 L 1400 1400 L 1200 1400" fill="none" stroke="rgb(0,0,0)" /><path d="M 1075 1625 L 1075 1625 L 1000 1600" fill="none" stroke="rgb(0,0,0)" /><path d="M 700 300 L 700 300 L 625 325 L 600 400 L 625 475 L 675 525 L 675 575 L 600 600 L 525 575 L 500 500 L 500 400" fill="none" stroke="rgb(0,0,0)" /><path d="M 1300 2100 L 1300 2100 L 1200 2100 L 1125 2125 L 1100 2200 L 1100 2300" fill="none" stroke="rgb(0,0,0)" /><path d="M 1100 900 L 1100 900 L 1200 900" fill="none" stroke="rgb(0,0,0)" /><path d="M 1200 3000 L 1200 3000 L 1175 3075 L 1100 3100 L 800 3100 L 725 3125 L 700 3200 L 0 3200 L 0 0 L 1700 0 L 1700 3200 L 700 3200" fill="none" stroke="rgb(0,0,0)" /><path d="M 1500 2900 L 1500 2900 L 1575 2875 L 1600 2800 L 1575 2725 L 1525 2675 L 1500 2600" fill="none" stroke="rgb(0,0,0)" /><path d="M 1300 1000 L 1300 1000 L 1225 975 L 1200 900 L 1200 800" fill="none" stroke="rgb(0,0,0)" /><path d="M 1600 1700 L 1600 1700 L 1500 1700" fill="none" stroke="rgb(0,0,0)" /><path d="M 975 2625 L 975 2625 L 975 2675" fill="none" stroke="rgb(0,0,0)" /><path d="M 400 2800 L 400 2800 L 425 2725 L 475 2675 L 475 2625 L 425 2575 L 400 2500" fill="none" stroke="rgb(0,0,0)" /><path d="M 975 2625 L 975 2625 L 975 2675" fill="none" stroke="rgb(0,0,0)" /><path d="M 700 2900 L 700 2900 L 1500 2900" fill="none" stroke="rgb(0,0,0)" /><path d="M 600 3000 L 600 3000 L 600 2800 L 625 2725 L 675 2675 L 700 2600 L 700 2500 L 725 2425 L 775 2375 L 800 2300 L 800 2100" fill="none" stroke="rgb(0,0,0)" /><path d="M 700 1300 L 700 1300 L 775 1275 L 775 1225 L 725 1175" fill="none" stroke="rgb(0,0,0)" /><path d="M 725 1475 L 725 1475 L 725 1425" fill="none" stroke="rgb(0,0,0)" /><path d="M 1300 2400 L 1300 2400 L 1200 2400" fill="none" stroke="rgb(0,0,0)" /><path d="M 200 3100 L 200 3100 L 200 2800" fill="none" stroke="rgb(0,0,0)" /><path d="M 725 1475 L 725 1475 L 725 1425" fill="none" stroke="rgb(0,0,0)" /><path d="M 925 2625 L 925 2625 L 975 2625" fill="none" stroke="rgb(0,0,0)" /><path d="M 1400 2400 L 1400 2400 L 1400 2500 L 1375 2575 L 1300 2600 L 1225 2575" fill="none" stroke="rgb(0,0,0)" /><path d="M 1225 2525 L 1225 2525 L 1275 2475 L 1300 2400" fill="none" stroke="rgb(0,0,0)" /><path d="M 1300 2800 L 1300 2800 L 1300 2700" fill="none" stroke="rgb(0,0,0)" /><path d="M 1200 2900 L 1200 2900 L 1175 2825 L 1125 2775 L 1100 2700" fill="none" stroke="rgb(0,0,0)" /><path d="M 1375 325 L 1375 325 L 1375 375" fill="none" stroke="rgb(0,0,0)" /><path d="M 700 2500 L 700 2500 L 625 2475 L 575 2325 L 525 2275 L 500 2200" fill="none" stroke="rgb(0,0,0)" /><path d="M 1225 2575 L 1225 2575 L 1225 2525" fill="none" stroke="rgb(0,0,0)" /><path d="M 1225 2575 L 1225 2575 L 1225 2525" fill="none" stroke="rgb(0,0,0)" /><path d="M 300 2800 L 300 2800 L 400 2800" fill="none" stroke="rgb(0,0,0)" /><path d="M 125 875 L 125 875 L 200 900" fill="none" stroke="rgb(0,0,0)" /><path d="M 800 2700 L 800 2700 L 725 2725 L 700 2800 L 700 3000 L 675 3075" fill="none" stroke="rgb(0,0,0)" /><path d="M 1200 1500 L 1200 1500 L 1275 1525 L 1300 1600 L 1300 1700 L 1275 1775 L 1225 1825 L 1200 1900 L 1200 2100" fill="none" stroke="rgb(0,0,0)" /><path d="M 1700 1600 L 1700 1600 L 1600 1600" fill="none" stroke="rgb(0,0,0)" /><path d="M 800 2700 L 800 2700 L 800 2900" fill="none" stroke="rgb(0,0,0)" /><path d="M 1175 575 L 1175 575 L 1125 625 L 1125 675 L 1200 700 L 1400 700" fill="none" stroke="rgb(0,0,0)" /><path d="M 875 1475 L 875 1475 L 875 1425" fill="none" stroke="rgb(0,0,0)" /><path d="M 600 2900 L 600 2900 L 525 2875 L 500 2800 L 525 2725 L 575 2675 L 600 2600 L 575 2525 L 500 2500 L 400 2500 L 325 2525 L 275 2575 L 200 2600" fill="none" stroke="rgb(0,0,0)" /><path d="M 375 825 L 375 825 L 325 825" fill="none" stroke="rgb(0,0,0)" /></svg>