<?xml version="1.0" encoding="utf-8" ?>
<svg baseProfile="full" height="100%" version="1.1" width="100%" xmlns="http://www.w3.org/2000/svg" xmlns:ev="http://www.w3.org/2001/xml-events" xmlns:xlink="http://www.w3.org/1999/xlink"><defs /><rect fill="rgb(255,255,255)" height="100%" width="100%" x="0" y="0" /><path d="M 1075 775 Q 1050 850 1025 825 M 1025 825 Q 1050 850 1000 900 M 1000 900 Q 1050 950 1000 1000 M 1000 1000 Q 1050 1050 1025 1075 M 1025 1075 Q 1075 1125 1125 1175" fill="rgb(0,0,0)" stroke="rgb(0,0,0)" /><path d="M 2975 875 Q 2975 850 2975 825" fill="rgb(0,0,0)" stroke="rgb(0,0,0)" /><path d="M 925 375 Q 925 350 925 325" fill="rgb(0,0,0)" stroke="rgb(0,0,0)" /><path d="M 2000 600 Q 2050 650 2025 675 M 2025 675 Q 2100 700 2175 725 M 2175 725 Q 2250 750 2200 800 M 2200 800 Q 2250 850 2200 900 M 2200 900 Q 2250 950 2225 975 M 2225 975 Q 2250 950 2275 1025 M 2275 1025 Q 2275 1050 2275 1075 M 2275 1075 Q 2250 1150 2200 1100 M 2200 1100 Q 2150 1150 2100 1100 M 2100 1100 Q 2050 1150 2025 1075 M 2025 1075 Q 1950 1050 1975 1025 M 1975 1025 Q 1900 1000 1825 975 M 1825 975 Q 1750 950 1800 900 M 1800 900 Q 1800 800 1800 700" fill="rgb(0,0,0)" stroke="rgb(0,0,0)" /><path d="M 0 900 Q 50 850 75 925 M 75 925 Q 150 1000 225 1075 M 225 1075 Q 250 1050 300 1100 M 300 1100 Q 350 1050 400 1100 M 400 1100 Q 450 1050 475 1125" fill="rgb(0,4,0)" stroke="rgb(0,0,0)" /><path d="M 1175 1125 Q 1175 1150 1175 1175" fill="rgb(0,0,0)" stroke="rgb(0,0,0)" /><path d="M 925 375 Q 850 350 925 325" fill="rgb(248,248,248)" stroke="rgb(0,0,0)" /><path d="M 2800 300 Q 2850 350 2825 375" fill="rgb(104,104,216)" stroke="rgb(0,0,0)" /><path d="M 725 325 Q 750 350 675 375 M 675 375 Q 650 375 625 375 M 625 375 Q 550 350 600 300 M 600 300 Q 550 250 625 225 M 625 225 Q 650 150 700 200 M 700 200 Q 900 200 1100 200 M 1100 200 Q 1150 150 1175 225 M 1175 225 Q 1225 275 1275 325 M 1275 325 Q 1350 350 1300 400 M 1300 400 Q 1350 450 1275 475 M 1275 475 Q 1225 525 1175 575 M 1175 575 Q 1150 650 1100 600 M 1100 600 Q 1050 650 1000 600 M 1000 600 Q 950 650 925 575 M 925 575 Q 875 525 825 475 M 825 475 Q 800 400 775 325" fill="rgb(0,0,0)" stroke="rgb(0,0,0)" /><path d="M 3500 1100 Q 3550 1150 3500 1200 M 3500 1200 Q 3550 1250 3475 1275 M 3475 1275 Q 3450 1350 3400 1300 M 3400 1300 Q 3350 1350 3300 1300" fill="rgb(64,64,216)" stroke="rgb(0,0,0)" /><path d="M 1975 725 Q 1950 750 1925 725" fill="rgb(136,136,248)" stroke="rgb(0,0,0)" /><path d="M 3500 1100 Q 3450 1150 3425 1075" fill="rgb(136,136,248)" stroke="rgb(0,0,0)" /><path d="M 625 1275 Q 625 1250 625 1225" fill="rgb(0,0,0)" stroke="rgb(0,0,0)" /><path d="M 925 325 Q 950 325 975 325" fill="rgb(0,0,0)" stroke="rgb(0,0,0)" /><path d="M 625 1275 Q 550 1250 625 1225" fill="rgb(248,248,248)" stroke="rgb(0,0,0)" /><path d="M 925 325 Q 950 250 975 325" fill="rgb(248,248,248)" stroke="rgb(0,0,0)" /><path d="M 2625 275 Q 2550 250 2625 225" fill="rgb(0,4,0)" stroke="rgb(0,0,0)" /><path d="M 475 1175 Q 475 1150 475 1125" fill="rgb(0,0,0)" stroke="rgb(0,0,0)" /><path d="M 3625 1025 Q 3650 1050 3625 1075" fill="rgb(0,192,0)" stroke="rgb(0,0,0)" /><path d="M 300 400 Q 350 450 275 475 M 275 475 Q 250 550 225 525 M 225 525 Q 250 550 200 600" fill="rgb(248,248,248)" stroke="rgb(0,0,0)" /><path d="M 925 375 Q 950 375 975 375" fill="rgb(0,0,0)" stroke="rgb(0,0,0)" /><path d="M 2700 1100 Q 2750 1050 2800 1100 M 2800 1100 Q 2850 1050 2875 1075 M 2875 1075 Q 2850 1050 2925 1025 M 2925 1025 Q 2950 950 3000 1000 M 3000 1000 Q 3050 950 3100 1000 M 3100 1000 Q 3150 950 3175 1025 M 3175 1025 Q 3225 1075 3275 1125 M 3275 1125 Q 3350 1150 3300 1200 M 3300 1200 Q 3300 1300 3300 1400 M 3300 1400 Q 3350 1450 3325 1475 M 3325 1475 Q 3350 1450 3400 1500 M 3400 1500 Q 3450 1450 3475 1475 M 3475 1475 Q 3525 1425 3575 1375 M 3575 1375 Q 3550 1350 3600 1300 M 3600 1300 Q 3550 1250 3600 1200 M 3600 1200 Q 3550 1150 3575 1125 M 3575 1125 Q 3550 1150 3500 1100" fill="rgb(64,64,216)" stroke="rgb(0,0,0)" /><path d="M 1175 1125 Q 1250 1150 1175 1175" fill="rgb(248,248,248)" stroke="rgb(0,0,0)" /><path d="M 3275 775 Q 3250 850 3225 775" fill="rgb(0,4,0)" stroke="rgb(0,0,0)" /><path d="M 3700 900 Q 3650 850 3675 825 M 3675 825 Q 3650 850 3600 800 M 3600 800 Q 3550 850 3525 825 M 3525 825 Q 3550 850 3475 875 M 3475 875 Q 3450 950 3400 900 M 3400 900 Q 3350 950 3300 900" fill="rgb(136,136,248)" stroke="rgb(0,0,0)" /><path d="M 3200 900 Q 3150 850 3175 825 M 3175 825 Q 3100 750 3025 675 M 3025 675 Q 2950 650 3000 600" fill="rgb(64,64,216)" stroke="rgb(0,0,0)" /><path d="M 1125 1175 Q 1150 1150 1175 1175" fill="rgb(0,4,0)" stroke="rgb(0,0,0)" /><path d="M 2375 1025 Q 2450 1050 2375 1075" fill="rgb(248,248,248)" stroke="rgb(0,0,0)" /><path d="M 2375 1025 Q 2350 1050 2325 975 M 2325 975 Q 2250 950 2300 900 M 2300 900 Q 2250 850 2300 800 M 2300 800 Q 2250 750 2275 725 M 2275 725 Q 2250 750 2225 675 M 2225 675 Q 2150 650 2200 600" fill="rgb(0,4,0)" stroke="rgb(0,0,0)" /><path d="M 1125 1175 Q 1150 1150 1175 1175" fill="rgb(0,4,0)" stroke="rgb(0,0,0)" /><path d="M 1075 775 Q 1050 750 1075 725" fill="rgb(104,104,216)" stroke="rgb(0,0,0)" /><path d="M 2825 375 Q 2850 350 2875 375" fill="rgb(104,104,216)" stroke="rgb(0,0,0)" /><path d="M 3875 875 Q 3850 950 3800 900 M 3800 900 Q 3750 950 3700 900 M 3700 900 Q 3650 950 3625 925 M 3625 925 Q 3575 975 3525 1025 M 3525 1025 Q 3550 1050 3500 1100" fill="rgb(0,4,0)" stroke="rgb(0,0,0)" /><path d="M 100 700 Q 150 650 175 725 M 175 725 Q 250 750 225 775 M 225 775 Q 250 750 300 800 M 300 800 Q 550 800 800 800 M 800 800 Q 850 750 875 825 M 875 825 Q 950 850 925 875 M 925 875 Q 950 850 1000 900" fill="rgb(104,104,216)" stroke="rgb(0,0,0)" /><path d="M 925 375 Q 950 350 975 375" fill="rgb(0,4,0)" stroke="rgb(0,0,0)" /><path d="M 3625 1025 Q 3650 1050 3625 1075" fill="rgb(0,192,0)" stroke="rgb(0,0,0)" /><path d="M 2000 100 Q 2050 150 1975 175 M 1975 175 Q 1950 250 1900 200 M 1900 200 Q 1850 250 1825 175 M 1825 175 Q 1750 150 1800 100" fill="rgb(64,64,216)" stroke="rgb(0,0,0)" /><path d="M 300 600 Q 200 600 100 600" fill="rgb(0,0,0)" stroke="rgb(0,0,0)" /><path d="M 475 1175 Q 450 1150 475 1125" fill="rgb(0,192,0)" stroke="rgb(0,0,0)" /><path d="M 1000 1600 Q 950 1550 1025 1525 M 1025 1525 Q 1100 1500 1175 1475 M 1175 1475 Q 1150 1450 1225 1425 M 1225 1425 Q 1250 1350 1300 1400 M 1300 1400 Q 1350 1350 1375 1425 M 1375 1425 Q 1450 1450 1425 1475 M 1425 1475 Q 1450 1450 1500 1500 M 1500 1500 Q 1800 1500 2100 1500 M 2100 1500 Q 2150 1450 2175 1475 M 2175 1475 Q 2150 1450 2225 1425 M 2225 1425 Q 2250 1350 2300 1400 M 2300 1400 Q 2350 1350 2400 1400 M 2400 1400 Q 2450 1350 2475 1375 M 2475 1375 Q 2450 1350 2525 1325 M 2525 1325 Q 2600 1300 2675 1275 M 2675 1275 Q 2650 1250 2725 1225 M 2725 1225 Q 2800 1200 2875 1175 M 2875 1175 Q 2850 1150 2925 1125 M 2925 1125 Q 2950 1050 3000 1100 M 3000 1100 Q 3050 1050 3100 1100 M 3100 1100 Q 3150 1050 3175 1125 M 3175 1125 Q 3250 1150 3200 1200 M 3200 1200 Q 3200 1400 3200 1600" fill="rgb(0,0,0)" stroke="rgb(0,0,0)" /><path d="M 900 1000 Q 950 1050 900 1100 M 900 1100 Q 950 1150 875 1175 M 875 1175 Q 825 1225 775 1275 M 775 1275 Q 750 1350 700 1300 M 700 1300 Q 650 1350 625 1275" fill="rgb(248,248,248)" stroke="rgb(0,0,0)" /><path d="M 3875 875 Q 3850 850 3875 825" fill="rgb(64,64,216)" stroke="rgb(0,0,0)" /><path d="M 2825 375 Q 2850 350 2875 375" fill="rgb(104,104,216)" stroke="rgb(0,0,0)" /><path d="M 3600 800 Q 3650 850 3575 875 M 3575 875 Q 3500 950 3425 1025" fill="rgb(0,0,0)" stroke="rgb(0,0,0)" /><path d="M 1700 300 Q 1700 400 1700 500" fill="rgb(0,0,0)" stroke="rgb(0,0,0)" /><path d="M 0 500 Q 50 450 75 475 M 75 475 Q 150 400 225 325 M 225 325 Q 250 250 300 300 M 300 300 Q 350 250 400 300 M 400 300 Q 450 250 475 275 M 475 275 Q 550 200 625 125 M 625 125 Q 650 50 700 100 M 700 100 Q 1050 100 1400 100 M 1400 100 Q 1450 50 1475 75 M 1475 75 Q 1450 50 1500 0" fill="rgb(0,192,0)" stroke="rgb(0,0,0)" /><path d="M 2200 0 Q 2250 50 2225 75 M 2225 75 Q 2300 100 2375 125 M 2375 125 Q 2450 150 2425 175 M 2425 175 Q 2450 175 2475 175 M 2475 175 Q 2450 150 2525 125 M 2525 125 Q 2550 50 2600 100 M 2600 100 Q 2700 100 2800 100 M 2800 100 Q 2850 50 2875 125 M 2875 125 Q 2925 175 2975 225 M 2975 225 Q 3050 250 3000 300 M 3000 300 Q 3050 350 2975 375 M 2975 375 Q 2950 450 2925 425 M 2925 425 Q 2950 450 2900 500 M 2900 500 Q 2950 550 2925 575 M 2925 575 Q 3000 600 3075 625 M 3075 625 Q 3150 700 3225 775" fill="rgb(0,0,0)" stroke="rgb(0,0,0)" /><path d="M 3425 1075 Q 3350 1050 3425 1025" fill="rgb(136,136,248)" stroke="rgb(0,0,0)" /><path d="M 1500 700 Q 1450 650 1525 625 M 1525 625 Q 1575 575 1625 525 M 1625 525 Q 1650 450 1700 500 M 1700 500 Q 2000 500 2300 500 M 2300 500 Q 2350 450 2375 525 M 2375 525 Q 2450 550 2425 575 M 2425 575 Q 2500 600 2575 625 M 2575 625 Q 2650 650 2625 675 M 2625 675 Q 2700 700 2775 725 M 2775 725 Q 2850 750 2825 775 M 2825 775 Q 2900 800 2975 825" fill="rgb(0,0,0)" stroke="rgb(0,0,0)" /><path d="M 3625 1075 Q 3650 1050 3675 1125 M 3675 1125 Q 3750 1150 3700 1200 M 3700 1200 Q 3750 1250 3700 1300 M 3700 1300 Q 3750 1350 3675 1375 M 3675 1375 Q 3600 1450 3525 1525 M 3525 1525 Q 3550 1550 3500 1600" fill="rgb(0,192,0)" stroke="rgb(0,0,0)" /><path d="M 2375 1025 Q 2450 1050 2375 1075" fill="rgb(248,248,248)" stroke="rgb(0,0,0)" /><path d="M 1400 400 Q 1500 400 1600 400" fill="rgb(0,0,0)" stroke="rgb(0,0,0)" /><path d="M 975 325 Q 975 350 975 375" fill="rgb(0,0,0)" stroke="rgb(0,0,0)" /><path d="M 600 1600 Q 550 1550 575 1525 M 575 1525 Q 500 1450 425 1375 M 425 1375 Q 350 1350 400 1300 M 400 1300 Q 350 1250 425 1225 M 425 1225 Q 450 1150 475 1175" fill="rgb(0,192,0)" stroke="rgb(0,0,0)" /><path d="M 1325 225 Q 1350 150 1400 200 M 1400 200 Q 1450 150 1475 225 M 1475 225 Q 1525 275 1575 325 M 1575 325 Q 1650 350 1600 400 M 1600 400 Q 1650 450 1575 475 M 1575 475 Q 1525 525 1475 575 M 1475 575 Q 1450 650 1400 600 M 1400 600 Q 1350 650 1325 575" fill="rgb(0,4,0)" stroke="rgb(0,0,0)" /><path d="M 1075 775 Q 1050 750 1075 725" fill="rgb(104,104,216)" stroke="rgb(0,0,0)" /><path d="M 2900 300 Q 2800 300 2700 300 M 2700 300 Q 2650 350 2625 275" fill="rgb(0,4,0)" stroke="rgb(0,0,0)" /><path d="M 3300 900 Q 3350 950 3300 1000 M 3300 1000 Q 3350 1050 3325 1075 M 3325 1075 Q 3375 1125 3425 1175 M 3425 1175 Q 3450 1150 3500 1200" fill="rgb(136,136,248)" stroke="rgb(0,0,0)" /><path d="M 3300 900 Q 3250 850 3325 825 M 3325 825 Q 3400 800 3475 775 M 3475 775 Q 3450 750 3525 725 M 3525 725 Q 3550 650 3600 700 M 3600 700 Q 3650 650 3700 700 M 3700 700 Q 3750 650 3775 725 M 3775 725 Q 3825 775 3875 825" fill="rgb(0,0,0)" stroke="rgb(0,0,0)" /><path d="M 2875 375 Q 2850 350 2900 300 M 2900 300 Q 2850 250 2875 225 M 2875 225 Q 2850 250 2800 200 M 2800 200 Q 2750 250 2700 200 M 2700 200 Q 2650 250 2625 225" fill="rgb(64,64,216)" stroke="rgb(0,0,0)" /><path d="M 775 325 Q 750 350 725 325" fill="rgb(0,4,0)" stroke="rgb(0,0,0)" /><path d="M 1975 725 Q 2025 775 2075 825 M 2075 825 Q 2150 850 2100 900 M 2100 900 Q 2150 950 2075 975 M 2075 975 Q 2050 975 2025 975 M 2025 975 Q 1975 925 1925 875 M 1925 875 Q 1850 850 1900 800 M 1900 800 Q 1850 750 1925 725" fill="rgb(104,104,216)" stroke="rgb(0,0,0)" /><path d="M 3625 1025 Q 3650 950 3700 1000 M 3700 1000 Q 3750 950 3800 1000 M 3800 1000 Q 3850 950 3875 975 M 3875 975 Q 3850 950 3925 925 M 3925 925 Q 3950 850 4000 900 M 4000 900 Q 4000 450 4000 0 M 4000 0 Q 2000 0 0 0 M 0 0 Q 0 800 0 1600 M 0 1600 Q 2000 1600 4000 1600 M 4000 1600 Q 4000 1250 4000 900" fill="rgb(0,0,0)" stroke="rgb(0,0,0)" /><path d="M 1000 1000 Q 950 1050 900 1000 M 900 1000 Q 850 1050 825 975 M 825 975 Q 750 950 775 925 M 775 925 Q 750 950 700 900 M 700 900 Q 650 950 600 900 M 600 900 Q 550 950 525 925 M 525 925 Q 550 950 475 975 M 475 975 Q 450 1050 400 1000 M 400 1000 Q 350 1050 300 1000 M 300 1000 Q 250 1050 225 975 M 225 975 Q 175 925 125 875 M 125 875 Q 50 850 100 800 M 100 800 Q 100 700 100 600 M 100 600 Q 50 550 125 525 M 125 525 Q 175 475 225 425 M 225 425 Q 250 350 300 400 M 300 400 Q 400 400 500 400 M 500 400 Q 550 350 575 425 M 575 425 Q 650 450 625 475 M 625 475 Q 700 500 775 525 M 775 525 Q 850 550 800 600" fill="rgb(0,4,0)" stroke="rgb(0,0,0)" /><path d="M 1325 275 Q 1350 250 1375 325 M 1375 325 Q 1450 350 1400 400 M 1400 400 Q 1450 450 1375 475 M 1375 475 Q 1350 550 1325 525" fill="rgb(184,40,0)" stroke="rgb(0,0,0)" /><path d="M 3275 775 Q 3250 750 3325 725 M 3325 725 Q 3400 700 3475 675 M 3475 675 Q 3450 650 3525 625 M 3525 625 Q 3550 550 3600 600 M 3600 600 Q 3650 550 3700 600 M 3700 600 Q 3750 550 3775 625 M 3775 625 Q 3850 700 3925 775 M 3925 775 Q 3950 750 4000 800" fill="rgb(0,192,0)" stroke="rgb(0,0,0)" /><path d="M 1325 225 Q 1325 250 1325 275" fill="rgb(0,0,0)" stroke="rgb(0,0,0)" /><path d="M 2375 1075 Q 2325 1125 2275 1175 M 2275 1175 Q 2250 1250 2200 1200 M 2200 1200 Q 2150 1250 2100 1200 M 2100 1200 Q 2050 1250 2025 1175 M 2025 1175 Q 1950 1150 1975 1125 M 1975 1125 Q 1900 1100 1825 1075 M 1825 1075 Q 1775 1025 1725 975 M 1725 975 Q 1650 950 1700 900 M 1700 900 Q 1650 850 1700 800 M 1700 800 Q 1650 750 1725 725 M 1725 725 Q 1800 700 1875 675 M 1875 675 Q 1850 650 1925 625 M 1925 625 Q 1950 550 2000 600 M 2000 600 Q 2150 600 2300 600 M 2300 600 Q 2350 550 2375 625 M 2375 625 Q 2450 650 2425 675 M 2425 675 Q 2500 700 2575 725 M 2575 725 Q 2600 800 2625 875 M 2625 875 Q 2650 850 2675 925 M 2675 925 Q 2750 950 2700 1000 M 2700 1000 Q 2750 1050 2700 1100 M 2700 1100 Q 2750 1150 2675 1175 M 2675 1175 Q 2600 1200 2525 1225 M 2525 1225 Q 2550 1250 2475 1275 M 2475 1275 Q 2450 1350 2400 1300 M 2400 1300 Q 2350 1350 2300 1300 M 2300 1300 Q 2250 1350 2225 1325 M 2225 1325 Q 2250 1350 2175 1375 M 2175 1375 Q 2150 1450 2100 1400 M 2100 1400 Q 1800 1400 1500 1400 M 1500 1400 Q 1450 1450 1425 1375 M 1425 1375 Q 1350 1350 1375 1325 M 1375 1325 Q 1350 1350 1300 1300 M 1300 1300 Q 1250 1350 1225 1325 M 1225 1325 Q 1250 1350 1175 1375 M 1175 1375 Q 1100 1400 1025 1425 M 1025 1425 Q 1050 1450 975 1475 M 975 1475 Q 950 1550 900 1500 M 900 1500 Q 800 1500 700 1500 M 700 1500 Q 650 1550 625 1475 M 625 1475 Q 575 1425 525 1375 M 525 1375 Q 450 1350 500 1300 M 500 1300 Q 450 1250 525 1225 M 525 1225 Q 575 1175 625 1125 M 625 1125 Q 650 1125 675 1125 M 675 1125 Q 675 1150 675 1175 M 675 1175 Q 650 1250 625 1225" fill="rgb(0,4,0)" stroke="rgb(0,0,0)" /><path d="M 3300 900 Q 3250 950 3200 900 M 3200 900 Q 3150 950 3125 875 M 3125 875 Q 3000 750 2875 625 M 2875 625 Q 2800 600 2725 575 M 2725 575 Q 2650 550 2675 525 M 2675 525 Q 2600 500 2525 475 M 2525 475 Q 2450 450 2475 425 M 2475 425 Q 2400 400 2325 375 M 2325 375 Q 2250 350 2275 325 M 2275 325 Q 2250 350 2200 300 M 2200 300 Q 1950 300 1700 300 M 1700 300 Q 1650 350 1625 275 M 1625 275 Q 1550 250 1600 200 M 1600 200 Q 1550 150 1625 125 M 1625 125 Q 1650 50 1700 100 M 1700 100 Q 1900 100 2100 100 M 2100 100 Q 2150 50 2175 125 M 2175 125 Q 2250 150 2225 175 M 2225 175 Q 2300 200 2375 225 M 2375 225 Q 2450 250 2425 275 M 2425 275 Q 2500 300 2575 325 M 2575 325 Q 2650 350 2625 375 M 2625 375 Q 2700 400 2775 425 M 2775 425 Q 2850 450 2825 475 M 2825 475 Q 2850 450 2900 500" fill="rgb(0,4,0)" stroke="rgb(0,0,0)" /><path d="M 2700 1000 Q 2750 950 2800 1000 M 2800 1000 Q 2850 950 2875 975 M 2875 975 Q 2925 925 2975 875" fill="rgb(0,0,0)" stroke="rgb(0,0,0)" /><path d="M 775 325 Q 750 350 725 325" fill="rgb(0,4,0)" stroke="rgb(0,0,0)" /><path d="M 1175 1125 Q 1150 1150 1125 1075 M 1125 1075 Q 1050 1050 1100 1000 M 1100 1000 Q 1050 950 1100 900 M 1100 900 Q 1050 850 1125 825 M 1125 825 Q 1175 775 1225 725 M 1225 725 Q 1250 650 1300 700 M 1300 700 Q 1400 700 1500 700 M 1500 700 Q 1550 650 1575 725 M 1575 725 Q 1650 750 1625 775 M 1625 775 Q 1650 750 1700 800" fill="rgb(136,136,248)" stroke="rgb(0,0,0)" /><path d="M 2625 275 Q 2550 250 2625 225" fill="rgb(0,4,0)" stroke="rgb(0,0,0)" /><path d="M 1325 225 Q 1350 250 1325 275" fill="rgb(248,136,0)" stroke="rgb(0,0,0)" /><path d="M 1975 725 Q 1950 750 1925 725" fill="rgb(136,136,248)" stroke="rgb(0,0,0)" /><path d="M 1075 725 Q 1000 700 925 675 M 925 675 Q 850 650 875 625 M 875 625 Q 850 650 800 600 M 800 600 Q 750 650 700 600 M 700 600 Q 650 650 625 625 M 625 625 Q 650 650 575 675 M 575 675 Q 550 750 500 700 M 500 700 Q 450 750 400 700 M 400 700 Q 350 750 325 675 M 325 675 Q 250 650 300 600 M 300 600 Q 250 550 325 525 M 325 525 Q 350 450 375 475 M 375 475 Q 350 450 400 400" fill="rgb(248,248,248)" stroke="rgb(0,0,0)" /><path d="M 3275 775 Q 3250 850 3225 775" fill="rgb(0,4,0)" stroke="rgb(0,0,0)" /><path d="M 3425 1075 Q 3350 1050 3425 1025" fill="rgb(136,136,248)" stroke="rgb(0,0,0)" /><path d="M 1325 525 Q 1325 550 1325 575" fill="rgb(0,0,0)" stroke="rgb(0,0,0)" /><path d="M 1325 525 Q 1350 550 1325 575" fill="rgb(184,40,0)" stroke="rgb(0,0,0)" /><path d="M 2975 875 Q 2950 850 2975 825" fill="rgb(136,136,248)" stroke="rgb(0,0,0)" /><path d="M 3875 875 Q 3850 850 3875 825" fill="rgb(64,64,216)" stroke="rgb(0,0,0)" /></svg>