<?xml version="1.0" encoding="utf-8" ?>
<svg baseProfile="full" height="100%" version="1.1" width="100%" xmlns="http://www.w3.org/2000/svg" xmlns:ev="http://www.w3.org/2001/xml-events" xmlns:xlink="http://www.w3.org/1999/xlink"><defs /><rect fill="rgb(255,255,255)" height="100%" width="100%" x="0" y="0" /><path d="M 0 500 L 0 500 L 75 475 L 225 325 L 300 300 L 400 300 L 475 275 L 625 125 L 700 100 L 1400 100 L 1475 75 L 1500 0" fill="none" stroke="rgb(0,0,0)" /><path d="M 1175 1125 L 1175 1125 L 1175 1175" fill="none" stroke="rgb(0,0,0)" /><path d="M 2200 0 L 2200 0 L 2225 75 L 2375 125 L 2425 175 L 2475 175 L 2525 125 L 2600 100 L 2800 100 L 2875 125 L 2975 225 L 3000 300 L 2975 375 L 2925 425 L 2900 500 L 2925 575 L 3075 625 L 3225 775" fill="none" stroke="rgb(0,0,0)" /><path d="M 625 1275 L 625 1275 L 625 1225" fill="none" stroke="rgb(0,0,0)" /><path d="M 3425 1075 L 3425 1075 L 3425 1025" fill="none" stroke="rgb(0,0,0)" /><path d="M 3625 1075 L 3625 1075 L 3675 1125 L 3700 1200 L 3700 1300 L 3675 1375 L 3525 1525 L 3500 1600" fill="none" stroke="rgb(0,0,0)" /><path d="M 1075 775 L 1075 775 L 1075 725" fill="none" stroke="rgb(0,0,0)" /><path d="M 1400 400 L 1400 400 L 1600 400" fill="none" stroke="rgb(0,0,0)" /><path d="M 975 325 L 975 325 L 975 375" fill="none" stroke="rgb(0,0,0)" /><path d="M 1325 225 L 1325 225 L 1400 200 L 1475 225 L 1575 325 L 1600 400 L 1575 475 L 1475 575 L 1400 600 L 1325 575" fill="none" stroke="rgb(0,0,0)" /><path d="M 1075 775 L 1075 775 L 1075 725" fill="none" stroke="rgb(0,0,0)" /><path d="M 3300 900 L 3300 900 L 3300 1000 L 3325 1075 L 3425 1175 L 3500 1200" fill="none" stroke="rgb(0,0,0)" /><path d="M 3300 900 L 3300 900 L 3325 825 L 3475 775 L 3525 725 L 3600 700 L 3700 700 L 3775 725 L 3875 825" fill="none" stroke="rgb(0,0,0)" /><path d="M 2875 375 L 2875 375 L 2900 300 L 2875 225 L 2800 200 L 2700 200 L 2625 225" fill="none" stroke="rgb(0,0,0)" /><path d="M 475 1175 L 475 1175 L 475 1125" fill="none" stroke="rgb(0,0,0)" /><path d="M 2625 275 L 2625 275 L 2625 225" fill="none" stroke="rgb(0,0,0)" /><path d="M 1975 725 L 1975 725 L 2075 825 L 2100 900 L 2075 975 L 2025 975 L 1925 875 L 1900 800 L 1925 725" fill="none" stroke="rgb(0,0,0)" /><path d="M 1325 225 L 1325 225 L 1325 275" fill="none" stroke="rgb(0,0,0)" /><path d="M 1000 1000 L 1000 1000 L 900 1000 L 825 975 L 775 925 L 700 900 L 600 900 L 525 925 L 475 975 L 400 1000 L 300 1000 L 225 975 L 125 875 L 100 800 L 100 600 L 125 525 L 225 425 L 300 400 L 500 400 L 575 425 L 625 475 L 775 525 L 800 600" fill="none" stroke="rgb(0,0,0)" /><path d="M 3200 900 L 3200 900 L 3175 825 L 3025 675 L 3000 600" fill="none" stroke="rgb(0,0,0)" /><path d="M 1325 275 L 1325 275 L 1375 325 L 1400 400 L 1375 475 L 1325 525" fill="none" stroke="rgb(0,0,0)" /><path d="M 3275 775 L 3275 775 L 3325 725 L 3475 675 L 3525 625 L 3600 600 L 3700 600 L 3775 625 L 3925 775 L 4000 800" fill="none" stroke="rgb(0,0,0)" /><path d="M 775 325 L 775 325 L 725 325" fill="none" stroke="rgb(0,0,0)" /><path d="M 2375 1075 L 2375 1075 L 2275 1175 L 2200 1200 L 2100 1200 L 2025 1175 L 1975 1125 L 1825 1075 L 1725 975 L 1700 900 L 1700 800 L 1725 725 L 1875 675 L 1925 625 L 2000 600 L 2300 600 L 2375 625 L 2425 675 L 2575 725 L 2625 875 L 2675 925 L 2700 1000 L 2700 1100 L 2675 1175 L 2525 1225 L 2475 1275 L 2400 1300 L 2300 1300 L 2225 1325 L 2175 1375 L 2100 1400 L 1500 1400 L 1425 1375 L 1375 1325 L 1300 1300 L 1225 1325 L 1175 1375 L 1025 1425 L 975 1475 L 900 1500 L 700 1500 L 625 1475 L 525 1375 L 500 1300 L 525 1225 L 625 1125 L 675 1125 L 675 1175 L 625 1225" fill="none" stroke="rgb(0,0,0)" /><path d="M 3300 900 L 3300 900 L 3200 900 L 3125 875 L 2875 625 L 2725 575 L 2675 525 L 2525 475 L 2475 425 L 2325 375 L 2275 325 L 2200 300 L 1700 300 L 1625 275 L 1600 200 L 1625 125 L 1700 100 L 2100 100 L 2175 125 L 2225 175 L 2375 225 L 2425 275 L 2575 325 L 2625 375 L 2775 425 L 2825 475 L 2900 500" fill="none" stroke="rgb(0,0,0)" /><path d="M 2700 1000 L 2700 1000 L 2800 1000 L 2875 975 L 2975 875" fill="none" stroke="rgb(0,0,0)" /><path d="M 1175 1125 L 1175 1125 L 1125 1075 L 1100 1000 L 1100 900 L 1125 825 L 1225 725 L 1300 700 L 1500 700 L 1575 725 L 1625 775 L 1700 800" fill="none" stroke="rgb(0,0,0)" /><path d="M 2625 275 L 2625 275 L 2625 225" fill="none" stroke="rgb(0,0,0)" /><path d="M 1325 225 L 1325 225 L 1325 275" fill="none" stroke="rgb(0,0,0)" /><path d="M 1975 725 L 1975 725 L 1925 725" fill="none" stroke="rgb(0,0,0)" /><path d="M 1075 725 L 1075 725 L 925 675 L 875 625 L 800 600 L 700 600 L 625 625 L 575 675 L 500 700 L 400 700 L 325 675 L 300 600 L 325 525 L 375 475 L 400 400" fill="none" stroke="rgb(0,0,0)" /><path d="M 3275 775 L 3275 775 L 3225 775" fill="none" stroke="rgb(0,0,0)" /><path d="M 2375 1025 L 2375 1025 L 2375 1075" fill="none" stroke="rgb(0,0,0)" /><path d="M 475 1175 L 475 1175 L 475 1125" fill="none" stroke="rgb(0,0,0)" /><path d="M 1325 525 L 1325 525 L 1325 575" fill="none" stroke="rgb(0,0,0)" /><path d="M 2975 875 L 2975 875 L 2975 825" fill="none" stroke="rgb(0,0,0)" /><path d="M 3625 1025 L 3625 1025 L 3625 1075" fill="none" stroke="rgb(0,0,0)" /><path d="M 3875 875 L 3875 875 L 3875 825" fill="none" stroke="rgb(0,0,0)" /><path d="M 3875 875 L 3875 875 L 3875 825" fill="none" stroke="rgb(0,0,0)" /><path d="M 1075 775 L 1075 775 L 1025 825 L 1000 900 L 1000 1000 L 1025 1075 L 1125 1175" fill="none" stroke="rgb(0,0,0)" /><path d="M 2975 875 L 2975 875 L 2975 825" fill="none" stroke="rgb(0,0,0)" /><path d="M 600 1600 L 600 1600 L 575 1525 L 425 1375 L 400 1300 L 425 1225 L 475 1175" fill="none" stroke="rgb(0,0,0)" /><path d="M 925 375 L 925 375 L 925 325" fill="none" stroke="rgb(0,0,0)" /><path d="M 1700 300 L 1700 300 L 1700 500" fill="none" stroke="rgb(0,0,0)" /><path d="M 0 900 L 0 900 L 75 925 L 225 1075 L 300 1100 L 400 1100 L 475 1125" fill="none" stroke="rgb(0,0,0)" /><path d="M 925 375 L 925 375 L 925 325" fill="none" stroke="rgb(0,0,0)" /><path d="M 2800 300 L 2800 300 L 2825 375" fill="none" stroke="rgb(0,0,0)" /><path d="M 1500 700 L 1500 700 L 1525 625 L 1625 525 L 1700 500 L 2300 500 L 2375 525 L 2425 575 L 2575 625 L 2625 675 L 2775 725 L 2825 775 L 2975 825" fill="none" stroke="rgb(0,0,0)" /><path d="M 725 325 L 725 325 L 675 375 L 625 375 L 600 300 L 625 225 L 700 200 L 1100 200 L 1175 225 L 1275 325 L 1300 400 L 1275 475 L 1175 575 L 1100 600 L 1000 600 L 925 575 L 825 475 L 775 325" fill="none" stroke="rgb(0,0,0)" /><path d="M 3500 1100 L 3500 1100 L 3500 1200 L 3475 1275 L 3400 1300 L 3300 1300" fill="none" stroke="rgb(0,0,0)" /><path d="M 1975 725 L 1975 725 L 1925 725" fill="none" stroke="rgb(0,0,0)" /><path d="M 3500 1100 L 3500 1100 L 3425 1075" fill="none" stroke="rgb(0,0,0)" /><path d="M 900 1000 L 900 1000 L 900 1100 L 875 1175 L 775 1275 L 700 1300 L 625 1275" fill="none" stroke="rgb(0,0,0)" /><path d="M 925 325 L 925 325 L 975 325" fill="none" stroke="rgb(0,0,0)" /><path d="M 2900 300 L 2900 300 L 2700 300 L 2625 275" fill="none" stroke="rgb(0,0,0)" /><path d="M 625 1275 L 625 1275 L 625 1225" fill="none" stroke="rgb(0,0,0)" /><path d="M 925 325 L 925 325 L 975 325" fill="none" stroke="rgb(0,0,0)" /><path d="M 300 400 L 300 400 L 275 475 L 225 525 L 200 600" fill="none" stroke="rgb(0,0,0)" /><path d="M 3275 775 L 3275 775 L 3225 775" fill="none" stroke="rgb(0,0,0)" /><path d="M 775 325 L 775 325 L 725 325" fill="none" stroke="rgb(0,0,0)" /><path d="M 925 375 L 925 375 L 975 375" fill="none" stroke="rgb(0,0,0)" /><path d="M 2700 1100 L 2700 1100 L 2800 1100 L 2875 1075 L 2925 1025 L 3000 1000 L 3100 1000 L 3175 1025 L 3275 1125 L 3300 1200 L 3300 1400 L 3325 1475 L 3400 1500 L 3475 1475 L 3575 1375 L 3600 1300 L 3600 1200 L 3575 1125 L 3500 1100" fill="none" stroke="rgb(0,0,0)" /><path d="M 925 375 L 925 375 L 975 375" fill="none" stroke="rgb(0,0,0)" /><path d="M 3625 1025 L 3625 1025 L 3700 1000 L 3800 1000 L 3875 975 L 3925 925 L 4000 900 L 4000 0 L 0 0 L 0 1600 L 4000 1600 L 4000 900" fill="none" stroke="rgb(0,0,0)" /><path d="M 3700 900 L 3700 900 L 3675 825 L 3600 800 L 3525 825 L 3475 875 L 3400 900 L 3300 900" fill="none" stroke="rgb(0,0,0)" /><path d="M 1125 1175 L 1125 1175 L 1175 1175" fill="none" stroke="rgb(0,0,0)" /><path d="M 2375 1025 L 2375 1025 L 2375 1075" fill="none" stroke="rgb(0,0,0)" /><path d="M 2825 375 L 2825 375 L 2875 375" fill="none" stroke="rgb(0,0,0)" /><path d="M 2375 1025 L 2375 1025 L 2325 975 L 2300 900 L 2300 800 L 2275 725 L 2225 675 L 2200 600" fill="none" stroke="rgb(0,0,0)" /><path d="M 1125 1175 L 1125 1175 L 1175 1175" fill="none" stroke="rgb(0,0,0)" /><path d="M 3875 875 L 3875 875 L 3800 900 L 3700 900 L 3625 925 L 3525 1025 L 3500 1100" fill="none" stroke="rgb(0,0,0)" /><path d="M 100 700 L 100 700 L 175 725 L 225 775 L 300 800 L 800 800 L 875 825 L 925 875 L 1000 900" fill="none" stroke="rgb(0,0,0)" /><path d="M 3625 1025 L 3625 1025 L 3625 1075" fill="none" stroke="rgb(0,0,0)" /><path d="M 2000 600 L 2000 600 L 2025 675 L 2175 725 L 2200 800 L 2200 900 L 2225 975 L 2275 1025 L 2275 1075 L 2200 1100 L 2100 1100 L 2025 1075 L 1975 1025 L 1825 975 L 1800 900 L 1800 700" fill="none" stroke="rgb(0,0,0)" /><path d="M 2000 100 L 2000 100 L 1975 175 L 1900 200 L 1825 175 L 1800 100" fill="none" stroke="rgb(0,0,0)" /><path d="M 300 600 L 300 600 L 100 600" fill="none" stroke="rgb(0,0,0)" /><path d="M 1000 1600 L 1000 1600 L 1025 1525 L 1175 1475 L 1225 1425 L 1300 1400 L 1375 1425 L 1425 1475 L 1500 1500 L 2100 1500 L 2175 1475 L 2225 1425 L 2300 1400 L 2400 1400 L 2475 1375 L 2525 1325 L 2675 1275 L 2725 1225 L 2875 1175 L 2925 1125 L 3000 1100 L 3100 1100 L 3175 1125 L 3200 1200 L 3200 1600" fill="none" stroke="rgb(0,0,0)" /><path d="M 3425 1075 L 3425 1075 L 3425 1025" fill="none" stroke="rgb(0,0,0)" /><path d="M 1325 525 L 1325 525 L 1325 575" fill="none" stroke="rgb(0,0,0)" /><path d="M 1175 1125 L 1175 1125 L 1175 1175" fill="none" stroke="rgb(0,0,0)" /><path d="M 2825 375 L 2825 375 L 2875 375" fill="none" stroke="rgb(0,0,0)" /><path d="M 3600 800 L 3600 800 L 3575 875 L 3425 1025" fill="none" stroke="rgb(0,0,0)" /></svg>