<?xml version="1.0" encoding="utf-8" ?>
<svg baseProfile="full" height="100%" version="1.1" width="100%" xmlns="http://www.w3.org/2000/svg" xmlns:ev="http://www.w3.org/2001/xml-events" xmlns:xlink="http://www.w3.org/1999/xlink"><defs /><path d="M 725 325 L 750 325 L 775 325 L 800 400 L 725 425 L 700 400 L 675 375 Z" fill="rgb(0,4,0)" stroke="rgb(0,4,0)" /><path d="M 3075 625 L 3100 600 L 3125 575 L 3200 600 L 3225 675 L 3200 700 L 3175 725 L 3125 675 Z" fill="rgb(0,192,0)" stroke="rgb(0,192,0)" /><path d="M 1600 900 L 1700 900 L 1725 975 L 1700 1000 L 1675 1025 L 1600 1000 Z" fill="rgb(248,248,248)" stroke="rgb(248,248,248)" /><path d="M 1900 400 L 2000 400 L 2000 500 L 1900 500 Z" fill="rgb(104,104,216)" stroke="rgb(104,104,216)" /><path d="M 1975 725 L 2025 675 L 2100 700 L 2125 775 L 2100 800 L 2075 825 L 2025 775 Z" fill="rgb(104,104,216)" stroke="rgb(104,104,216)" /><path d="M 2100 600 L 2200 600 L 2225 675 L 2175 725 L 2100 700 Z" fill="rgb(0,4,0)" stroke="rgb(0,4,0)" /><path d="M 775 525 L 825 475 L 875 525 L 925 575 L 875 625 L 800 600 Z" fill="rgb(0,4,0)" stroke="rgb(0,4,0)" /><path d="M 3200 200 L 3300 200 L 3300 300 L 3200 300 Z" fill="rgb(0,192,0)" stroke="rgb(0,192,0)" /><path d="M 3525 1525 L 3575 1475 L 3600 1500 L 3625 1525 L 3600 1600 L 3550 1600 L 3500 1600 Z" fill="rgb(0,192,0)" stroke="rgb(0,192,0)" /><path d="M 900 0 L 950 0 L 1000 0 L 1000 100 L 900 100 Z" fill="rgb(0,192,0)" stroke="rgb(0,192,0)" /><path d="M 3300 300 L 3400 300 L 3400 400 L 3300 400 Z" fill="rgb(0,192,0)" stroke="rgb(0,192,0)" /><path d="M 3600 800 L 3675 825 L 3700 900 L 3625 925 L 3575 875 Z" fill="rgb(104,104,216)" stroke="rgb(104,104,216)" /><path d="M 1000 700 L 1075 725 L 1075 750 L 1075 775 L 1025 825 L 1000 800 L 975 775 Z" fill="rgb(104,104,216)" stroke="rgb(104,104,216)" /><path d="M 3400 800 L 3475 775 L 3525 825 L 3475 875 L 3400 900 Z" fill="rgb(64,64,216)" stroke="rgb(64,64,216)" /><path d="M 3700 1300 L 3800 1300 L 3800 1400 L 3725 1425 L 3700 1400 L 3675 1375 Z" fill="rgb(0,192,0)" stroke="rgb(0,192,0)" /><path d="M 2400 1400 L 2475 1375 L 2500 1400 L 2525 1425 L 2500 1500 L 2400 1500 Z" fill="rgb(0,192,0)" stroke="rgb(0,192,0)" /><path d="M 1400 100 L 1475 75 L 1500 100 L 1525 125 L 1525 175 L 1500 200 L 1475 225 L 1400 200 Z" fill="rgb(0,4,0)" stroke="rgb(0,4,0)" /><path d="M 3800 200 L 3900 200 L 3900 300 L 3800 300 Z" fill="rgb(0,192,0)" stroke="rgb(0,192,0)" /><path d="M 2500 1500 L 2600 1500 L 2600 1600 L 2550 1600 L 2500 1600 Z" fill="rgb(0,192,0)" stroke="rgb(0,192,0)" /><path d="M 1500 400 L 1600 400 L 1575 475 L 1525 525 L 1500 500 L 1475 475 Z" fill="rgb(184,40,0)" stroke="rgb(184,40,0)" /><path d="M 3900 1100 L 4000 1100 L 4000 1150 L 4000 1200 L 3900 1200 Z" fill="rgb(0,192,0)" stroke="rgb(0,192,0)" /><path d="M 2600 1200 L 2675 1175 L 2725 1225 L 2675 1275 L 2600 1300 Z" fill="rgb(0,4,0)" stroke="rgb(0,4,0)" /><path d="M 300 200 L 400 200 L 400 300 L 300 300 Z" fill="rgb(0,192,0)" stroke="rgb(0,192,0)" /><path d="M 2700 100 L 2800 100 L 2800 200 L 2700 200 Z" fill="rgb(0,4,0)" stroke="rgb(0,4,0)" /><path d="M 3000 1400 L 3100 1400 L 3100 1500 L 3000 1500 Z" fill="rgb(0,192,0)" stroke="rgb(0,192,0)" /><path d="M 425 525 L 500 500 L 500 600 L 400 600 Z" fill="rgb(136,136,248)" stroke="rgb(136,136,248)" /><path d="M 2800 1000 L 2875 975 L 2925 1025 L 2875 1075 L 2800 1100 Z" fill="rgb(104,104,216)" stroke="rgb(104,104,216)" /><path d="M 3100 1500 L 3200 1500 L 3200 1600 L 3150 1600 L 3100 1600 Z" fill="rgb(0,192,0)" stroke="rgb(0,192,0)" /><path d="M 2925 1125 L 3000 1100 L 3000 1200 L 2925 1225 L 2900 1200 L 2875 1175 Z" fill="rgb(0,192,0)" stroke="rgb(0,192,0)" /><path d="M 1600 0 L 1650 0 L 1700 0 L 1700 100 L 1625 125 L 1600 100 L 1575 75 Z" fill="rgb(0,4,0)" stroke="rgb(0,4,0)" /><path d="M 1900 1300 L 2000 1300 L 2000 1400 L 1900 1400 Z" fill="rgb(248,248,248)" stroke="rgb(248,248,248)" /><path d="M 1700 1300 L 1800 1300 L 1800 1400 L 1700 1400 Z" fill="rgb(248,248,248)" stroke="rgb(248,248,248)" /><path d="M 2000 1400 L 2100 1400 L 2100 1500 L 2000 1500 Z" fill="rgb(0,4,0)" stroke="rgb(0,4,0)" /><path d="M 1775 1025 L 1825 975 L 1900 1000 L 1900 1100 L 1825 1075 Z" fill="rgb(0,4,0)" stroke="rgb(0,4,0)" /><path d="M 2100 1500 L 2175 1475 L 2200 1500 L 2225 1525 L 2200 1600 L 2150 1600 L 2100 1600 Z" fill="rgb(0,192,0)" stroke="rgb(0,192,0)" /><path d="M 825 1225 L 875 1175 L 900 1200 L 925 1225 L 900 1300 L 825 1325 L 800 1300 L 775 1275 Z" fill="rgb(248,248,248)" stroke="rgb(248,248,248)" /><path d="M 2200 1200 L 2275 1175 L 2300 1200 L 2325 1225 L 2300 1300 L 2225 1325 L 2200 1300 L 2175 1275 Z" fill="rgb(248,248,248)" stroke="rgb(248,248,248)" /><path d="M 875 925 L 900 900 L 925 875 L 1000 900 L 1000 1000 L 900 1000 Z" fill="rgb(64,64,216)" stroke="rgb(64,64,216)" /><path d="M 3300 400 L 3400 400 L 3400 500 L 3300 500 Z" fill="rgb(0,192,0)" stroke="rgb(0,192,0)" /><path d="M 2300 900 L 2400 900 L 2425 975 L 2400 1000 L 2375 1025 L 2325 975 Z" fill="rgb(248,248,248)" stroke="rgb(248,248,248)" /><path d="M 1025 1425 L 1100 1400 L 1100 1500 L 1025 1525 L 975 1475 Z" fill="rgb(0,4,0)" stroke="rgb(0,4,0)" /><path d="M 3400 300 L 3500 300 L 3500 400 L 3400 400 Z" fill="rgb(0,192,0)" stroke="rgb(0,192,0)" /><path d="M 1100 1500 L 1175 1475 L 1200 1500 L 1225 1525 L 1200 1600 L 1150 1600 L 1100 1600 Z" fill="rgb(0,192,0)" stroke="rgb(0,192,0)" /><path d="M 1400 800 L 1500 800 L 1500 900 L 1400 900 Z" fill="rgb(248,248,248)" stroke="rgb(248,248,248)" /><path d="M 3800 500 L 3900 500 L 3900 600 L 3825 575 Z" fill="rgb(0,192,0)" stroke="rgb(0,192,0)" /><path d="M 1225 825 L 1300 800 L 1300 900 L 1200 900 Z" fill="rgb(248,248,248)" stroke="rgb(248,248,248)" /><path d="M 1500 1300 L 1600 1300 L 1600 1400 L 1500 1400 Z" fill="rgb(248,248,248)" stroke="rgb(248,248,248)" /><path d="M 3900 0 L 3950 0 L 4000 0 L 4000 50 L 4000 100 L 3900 100 Z" fill="rgb(0,192,0)" stroke="rgb(0,192,0)" /><path d="M 1300 1300 L 1375 1325 L 1425 1375 L 1375 1425 L 1300 1400 Z" fill="rgb(0,4,0)" stroke="rgb(0,4,0)" /><path d="M 0 1400 L 100 1400 L 100 1500 L 0 1500 L 0 1450 Z" fill="rgb(0,192,0)" stroke="rgb(0,192,0)" /><path d="M 300 1100 L 400 1100 L 375 1175 L 300 1200 Z" fill="rgb(0,192,0)" stroke="rgb(0,192,0)" /><path d="M 2675 625 L 2700 600 L 2725 575 L 2800 600 L 2825 675 L 2800 700 L 2775 725 L 2700 700 Z" fill="rgb(104,104,216)" stroke="rgb(104,104,216)" /><path d="M 100 1500 L 200 1500 L 200 1600 L 150 1600 L 100 1600 Z" fill="rgb(0,192,0)" stroke="rgb(0,192,0)" /><path d="M 425 1225 L 475 1175 L 525 1225 L 500 1300 L 400 1300 Z" fill="rgb(0,4,0)" stroke="rgb(0,4,0)" /><path d="M 2800 100 L 2875 125 L 2925 175 L 2875 225 L 2800 200 Z" fill="rgb(0,4,0)" stroke="rgb(0,4,0)" /><path d="M 200 1200 L 300 1200 L 300 1300 L 200 1300 Z" fill="rgb(0,192,0)" stroke="rgb(0,192,0)" /><path d="M 500 100 L 575 75 L 600 100 L 625 125 L 575 175 L 525 225 L 500 200 L 475 175 Z" fill="rgb(0,192,0)" stroke="rgb(0,192,0)" /><path d="M 2925 425 L 2975 375 L 3000 400 L 3025 425 L 3000 500 L 2900 500 Z" fill="rgb(0,192,0)" stroke="rgb(0,192,0)" /><path d="M 1575 725 L 1600 700 L 1625 675 L 1675 675 L 1700 700 L 1725 725 L 1700 800 L 1625 775 Z" fill="rgb(136,136,248)" stroke="rgb(136,136,248)" /><path d="M 575 1425 L 600 1400 L 625 1375 L 700 1400 L 700 1500 L 625 1475 Z" fill="rgb(248,248,248)" stroke="rgb(248,248,248)" /><path d="M 1700 600 L 1800 600 L 1800 700 L 1725 725 L 1700 700 L 1675 675 Z" fill="rgb(136,136,248)" stroke="rgb(136,136,248)" /><path d="M 700 1500 L 800 1500 L 800 1600 L 750 1600 L 700 1600 Z" fill="rgb(0,4,0)" stroke="rgb(0,4,0)" /><path d="M 1800 500 L 1900 500 L 1875 575 L 1800 600 Z" fill="rgb(136,136,248)" stroke="rgb(136,136,248)" /><path d="M 2075 825 L 2100 800 L 2125 775 L 2200 800 L 2200 900 L 2100 900 Z" fill="rgb(104,104,216)" stroke="rgb(104,104,216)" /><path d="M 2175 725 L 2225 675 L 2275 725 L 2300 800 L 2200 800 Z" fill="rgb(0,4,0)" stroke="rgb(0,4,0)" /><path d="M 2300 600 L 2375 625 L 2425 675 L 2400 700 L 2375 725 L 2325 675 Z" fill="rgb(248,248,248)" stroke="rgb(248,248,248)" /><path d="M 1000 900 L 1100 900 L 1100 1000 L 1000 1000 Z" fill="rgb(0,4,0)" stroke="rgb(0,4,0)" /><path d="M 1100 400 L 1200 400 L 1175 475 L 1100 500 Z" fill="rgb(248,248,248)" stroke="rgb(248,248,248)" /><path d="M 3500 300 L 3600 300 L 3600 400 L 3500 400 Z" fill="rgb(0,192,0)" stroke="rgb(0,192,0)" /><path d="M 1225 725 L 1300 700 L 1300 800 L 1225 825 L 1200 800 L 1175 775 Z" fill="rgb(248,248,248)" stroke="rgb(248,248,248)" /><path d="M 3600 400 L 3700 400 L 3700 500 L 3600 500 Z" fill="rgb(0,192,0)" stroke="rgb(0,192,0)" /><path d="M 1500 1000 L 1600 1000 L 1600 1100 L 1500 1100 Z" fill="rgb(248,248,248)" stroke="rgb(248,248,248)" /><path d="M 1275 625 L 1300 600 L 1325 575 L 1400 600 L 1400 700 L 1300 700 Z" fill="rgb(0,4,0)" stroke="rgb(0,4,0)" /><path d="M 0 500 L 75 475 L 125 525 L 100 600 L 0 600 L 0 550 Z" fill="rgb(0,4,0)" stroke="rgb(0,4,0)" /><path d="M 2375 225 L 2425 175 L 2475 175 L 2500 200 L 2525 225 L 2500 300 L 2425 275 Z" fill="rgb(0,4,0)" stroke="rgb(0,4,0)" /><path d="M 100 0 L 150 0 L 200 0 L 200 100 L 100 100 Z" fill="rgb(0,192,0)" stroke="rgb(0,192,0)" /><path d="M 2500 300 L 2575 325 L 2625 375 L 2600 400 L 2575 425 L 2525 375 Z" fill="rgb(64,64,216)" stroke="rgb(64,64,216)" /><path d="M 400 1100 L 475 1125 L 475 1150 L 475 1175 L 425 1225 L 400 1200 L 375 1175 Z" fill="rgb(0,192,0)" stroke="rgb(0,192,0)" /><path d="M 175 725 L 200 700 L 225 675 L 275 725 L 300 800 L 225 775 Z" fill="rgb(104,104,216)" stroke="rgb(104,104,216)" /><path d="M 525 1025 L 600 1000 L 575 1075 L 525 1075 Z" fill="rgb(0,4,0)" stroke="rgb(0,4,0)" /><path d="M 625 125 L 700 100 L 700 200 L 625 225 L 575 175 Z" fill="rgb(0,4,0)" stroke="rgb(0,4,0)" /><path d="M 2975 225 L 3000 200 L 3025 175 L 3100 200 L 3100 300 L 3000 300 Z" fill="rgb(0,192,0)" stroke="rgb(0,192,0)" /><path d="M 725 425 L 800 400 L 825 475 L 775 525 L 700 500 Z" fill="rgb(0,4,0)" stroke="rgb(0,4,0)" /><path d="M 1900 100 L 2000 100 L 1975 175 L 1900 200 Z" fill="rgb(248,248,248)" stroke="rgb(248,248,248)" /><path d="M 800 0 L 850 0 L 900 0 L 900 100 L 800 100 Z" fill="rgb(0,192,0)" stroke="rgb(0,192,0)" /><path d="M 3200 1300 L 3300 1300 L 3300 1400 L 3200 1400 Z" fill="rgb(0,4,0)" stroke="rgb(0,4,0)" /><path d="M 3525 825 L 3600 800 L 3575 875 L 3525 925 L 3475 875 Z" fill="rgb(136,136,248)" stroke="rgb(136,136,248)" /><path d="M 3325 825 L 3400 800 L 3400 900 L 3300 900 Z" fill="rgb(64,64,216)" stroke="rgb(64,64,216)" /><path d="M 3600 300 L 3700 300 L 3700 400 L 3600 400 Z" fill="rgb(0,192,0)" stroke="rgb(0,192,0)" /><path d="M 3400 1500 L 3475 1475 L 3525 1525 L 3500 1600 L 3450 1600 L 3400 1600 Z" fill="rgb(0,4,0)" stroke="rgb(0,4,0)" /><path d="M 3700 200 L 3800 200 L 3800 300 L 3700 300 Z" fill="rgb(0,192,0)" stroke="rgb(0,192,0)" /><path d="M 2400 900 L 2500 900 L 2500 1000 L 2425 975 Z" fill="rgb(248,248,248)" stroke="rgb(248,248,248)" /><path d="M 3800 900 L 3875 875 L 3925 925 L 3875 975 L 3800 1000 Z" fill="rgb(0,4,0)" stroke="rgb(0,4,0)" /><path d="M 2475 425 L 2500 400 L 2525 375 L 2575 425 L 2600 500 L 2525 475 Z" fill="rgb(64,64,216)" stroke="rgb(64,64,216)" /><path d="M 3900 1200 L 4000 1200 L 4000 1250 L 4000 1300 L 3900 1300 Z" fill="rgb(0,192,0)" stroke="rgb(0,192,0)" /><path d="M 2575 325 L 2625 275 L 2700 300 L 2700 400 L 2625 375 Z" fill="rgb(0,4,0)" stroke="rgb(0,4,0)" /><path d="M 2700 1000 L 2800 1000 L 2800 1100 L 2700 1100 Z" fill="rgb(104,104,216)" stroke="rgb(104,104,216)" /><path d="M 3000 500 L 3100 500 L 3125 575 L 3100 600 L 3075 625 L 3000 600 Z" fill="rgb(0,192,0)" stroke="rgb(0,192,0)" /><path d="M 2800 1300 L 2900 1300 L 2900 1400 L 2800 1400 Z" fill="rgb(0,192,0)" stroke="rgb(0,192,0)" /><path d="M 3100 0 L 3150 0 L 3200 0 L 3200 100 L 3100 100 Z" fill="rgb(0,192,0)" stroke="rgb(0,192,0)" /><path d="M 1600 1100 L 1700 1100 L 1700 1200 L 1600 1200 Z" fill="rgb(248,248,248)" stroke="rgb(248,248,248)" /><path d="M 1925 625 L 2000 600 L 2025 675 L 1975 725 L 1925 725 L 1875 675 Z" fill="rgb(104,104,216)" stroke="rgb(104,104,216)" /><path d="M 1675 1025 L 1700 1000 L 1725 975 L 1775 1025 L 1825 1075 L 1800 1100 L 1775 1125 L 1700 1100 Z" fill="rgb(248,248,248)" stroke="rgb(248,248,248)" /><path d="M 2000 100 L 2100 100 L 2100 200 L 2025 225 L 2000 200 L 1975 175 Z" fill="rgb(64,64,216)" stroke="rgb(64,64,216)" /><path d="M 2100 400 L 2200 400 L 2200 500 L 2100 500 Z" fill="rgb(104,104,216)" stroke="rgb(104,104,216)" /><path d="M 800 700 L 875 725 L 925 775 L 900 800 L 875 825 L 800 800 Z" fill="rgb(104,104,216)" stroke="rgb(104,104,216)" /><path d="M 3200 400 L 3300 400 L 3300 500 L 3200 500 Z" fill="rgb(0,192,0)" stroke="rgb(0,192,0)" /><path d="M 2200 1100 L 2275 1075 L 2325 1125 L 2275 1175 L 2200 1200 Z" fill="rgb(0,4,0)" stroke="rgb(0,4,0)" /><path d="M 875 625 L 925 575 L 1000 600 L 1000 700 L 925 675 Z" fill="rgb(0,4,0)" stroke="rgb(0,4,0)" /><path d="M 3300 100 L 3400 100 L 3400 200 L 3300 200 Z" fill="rgb(0,192,0)" stroke="rgb(0,192,0)" /><path d="M 3625 1025 L 3700 1000 L 3725 1075 L 3700 1100 L 3675 1125 L 3625 1075 L 3625 1050 Z" fill="rgb(0,192,0)" stroke="rgb(0,192,0)" /><path d="M 1000 500 L 1100 500 L 1100 600 L 1000 600 Z" fill="rgb(248,248,248)" stroke="rgb(248,248,248)" /><path d="M 3400 600 L 3475 575 L 3500 600 L 3525 625 L 3475 675 L 3400 700 Z" fill="rgb(0,192,0)" stroke="rgb(0,192,0)" /><path d="M 3675 1125 L 3700 1100 L 3725 1075 L 3800 1100 L 3800 1200 L 3700 1200 Z" fill="rgb(0,192,0)" stroke="rgb(0,192,0)" /><path d="M 1125 825 L 1175 775 L 1200 800 L 1225 825 L 1200 900 L 1100 900 Z" fill="rgb(248,248,248)" stroke="rgb(248,248,248)" /><path d="M 1400 700 L 1500 700 L 1500 800 L 1400 800 Z" fill="rgb(248,248,248)" stroke="rgb(248,248,248)" /><path d="M 3800 0 L 3850 0 L 3900 0 L 3900 100 L 3800 100 Z" fill="rgb(0,192,0)" stroke="rgb(0,192,0)" /><path d="M 2525 1325 L 2600 1300 L 2600 1400 L 2525 1425 L 2500 1400 L 2475 1375 Z" fill="rgb(0,192,0)" stroke="rgb(0,192,0)" /><path d="M 1525 625 L 1575 575 L 1600 600 L 1625 625 L 1625 675 L 1600 700 L 1575 725 L 1500 700 Z" fill="rgb(136,136,248)" stroke="rgb(136,136,248)" /><path d="M 3900 500 L 4000 500 L 4000 550 L 4000 600 L 3900 600 Z" fill="rgb(0,192,0)" stroke="rgb(0,192,0)" /><path d="M 2600 1000 L 2700 1000 L 2700 1100 L 2600 1100 Z" fill="rgb(248,248,248)" stroke="rgb(248,248,248)" /><path d="M 0 900 L 75 925 L 125 975 L 100 1000 L 75 1025 L 0 1000 L 0 950 Z" fill="rgb(0,192,0)" stroke="rgb(0,192,0)" /><path d="M 300 400 L 400 400 L 375 475 L 325 525 L 275 475 Z" fill="rgb(248,248,248)" stroke="rgb(248,248,248)" /><path d="M 2700 300 L 2800 300 L 2825 375 L 2775 425 L 2700 400 Z" fill="rgb(0,4,0)" stroke="rgb(0,4,0)" /><path d="M 3000 1200 L 3100 1200 L 3100 1300 L 3000 1300 Z" fill="rgb(0,192,0)" stroke="rgb(0,192,0)" /><path d="M 400 700 L 500 700 L 500 800 L 400 800 Z" fill="rgb(104,104,216)" stroke="rgb(104,104,216)" /><path d="M 2775 425 L 2825 375 L 2875 375 L 2925 425 L 2900 500 L 2825 475 Z" fill="rgb(0,4,0)" stroke="rgb(0,4,0)" /><path d="M 3075 925 L 3100 900 L 3125 875 L 3200 900 L 3225 975 L 3200 1000 L 3175 1025 L 3100 1000 Z" fill="rgb(104,104,216)" stroke="rgb(104,104,216)" /><path d="M 500 600 L 575 575 L 600 600 L 625 625 L 575 675 L 500 700 Z" fill="rgb(136,136,248)" stroke="rgb(136,136,248)" /><path d="M 2925 925 L 2975 875 L 3000 900 L 3025 925 L 3000 1000 L 2925 1025 L 2875 975 Z" fill="rgb(104,104,216)" stroke="rgb(104,104,216)" /><path d="M 1600 200 L 1700 200 L 1700 300 L 1625 275 Z" fill="rgb(64,64,216)" stroke="rgb(64,64,216)" /><path d="M 1900 1500 L 2000 1500 L 2000 1600 L 1950 1600 L 1900 1600 Z" fill="rgb(0,192,0)" stroke="rgb(0,192,0)" /><path d="M 1700 300 L 1800 300 L 1800 400 L 1700 400 Z" fill="rgb(104,104,216)" stroke="rgb(104,104,216)" /><path d="M 1975 825 L 2000 800 L 2025 775 L 2075 825 L 2100 900 L 2025 875 Z" fill="rgb(136,136,248)" stroke="rgb(136,136,248)" /><path d="M 1800 800 L 1900 800 L 1925 875 L 1900 900 L 1875 925 L 1800 900 Z" fill="rgb(104,104,216)" stroke="rgb(104,104,216)" /><path d="M 2100 1300 L 2175 1275 L 2200 1300 L 2225 1325 L 2175 1375 L 2100 1400 Z" fill="rgb(248,248,248)" stroke="rgb(248,248,248)" /><path d="M 800 1400 L 900 1400 L 900 1500 L 800 1500 Z" fill="rgb(248,248,248)" stroke="rgb(248,248,248)" /><path d="M 2175 225 L 2200 200 L 2225 175 L 2300 200 L 2325 275 L 2300 300 L 2275 325 L 2200 300 Z" fill="rgb(64,64,216)" stroke="rgb(64,64,216)" /><path d="M 900 1500 L 975 1475 L 1025 1525 L 1000 1600 L 950 1600 L 900 1600 Z" fill="rgb(0,4,0)" stroke="rgb(0,4,0)" /><path d="M 2325 1125 L 2375 1075 L 2400 1100 L 2425 1125 L 2400 1200 L 2325 1225 L 2300 1200 L 2275 1175 Z" fill="rgb(248,248,248)" stroke="rgb(248,248,248)" /><path d="M 1000 1200 L 1075 1225 L 1100 1300 L 1000 1300 Z" fill="rgb(248,248,248)" stroke="rgb(248,248,248)" /><path d="M 3400 100 L 3500 100 L 3500 200 L 3400 200 Z" fill="rgb(0,192,0)" stroke="rgb(0,192,0)" /><path d="M 1100 100 L 1200 100 L 1225 175 L 1200 200 L 1175 225 L 1100 200 Z" fill="rgb(0,4,0)" stroke="rgb(0,4,0)" /><path d="M 1375 1425 L 1425 1375 L 1500 1400 L 1500 1500 L 1425 1475 Z" fill="rgb(0,4,0)" stroke="rgb(0,4,0)" /><path d="M 1200 1000 L 1300 1000 L 1300 1100 L 1225 1075 Z" fill="rgb(248,248,248)" stroke="rgb(248,248,248)" /><path d="M 1500 1500 L 1600 1500 L 1600 1600 L 1550 1600 L 1500 1600 Z" fill="rgb(0,192,0)" stroke="rgb(0,192,0)" /><path d="M 3900 200 L 4000 200 L 4000 250 L 4000 300 L 3900 300 Z" fill="rgb(0,192,0)" stroke="rgb(0,192,0)" /><path d="M 1300 1100 L 1400 1100 L 1400 1200 L 1300 1200 Z" fill="rgb(248,248,248)" stroke="rgb(248,248,248)" /><path d="M 0 0 L 50 0 L 100 0 L 100 100 L 0 100 L 0 50 Z" fill="rgb(0,192,0)" stroke="rgb(0,192,0)" /><path d="M 300 1300 L 400 1300 L 425 1375 L 400 1400 L 375 1425 L 300 1400 Z" fill="rgb(0,192,0)" stroke="rgb(0,192,0)" /><path d="M 100 1300 L 200 1300 L 200 1400 L 100 1400 Z" fill="rgb(0,192,0)" stroke="rgb(0,192,0)" /><path d="M 375 1425 L 400 1400 L 425 1375 L 475 1425 L 525 1475 L 500 1500 L 475 1525 L 400 1500 Z" fill="rgb(0,192,0)" stroke="rgb(0,192,0)" /><path d="M 2800 300 L 2900 300 L 2875 375 L 2850 375 L 2825 375 Z" fill="rgb(104,104,216)" stroke="rgb(104,104,216)" /><path d="M 175 1025 L 225 975 L 300 1000 L 300 1100 L 225 1075 Z" fill="rgb(0,4,0)" stroke="rgb(0,4,0)" /><path d="M 475 1525 L 500 1500 L 525 1475 L 575 1525 L 600 1600 L 550 1600 L 500 1600 Z" fill="rgb(0,192,0)" stroke="rgb(0,192,0)" /><path d="M 2875 225 L 2925 175 L 2975 225 L 3000 300 L 2900 300 Z" fill="rgb(0,4,0)" stroke="rgb(0,4,0)" /><path d="M 625 1225 L 675 1175 L 700 1200 L 725 1225 L 700 1300 L 625 1275 L 625 1250 Z" fill="rgb(0,4,0)" stroke="rgb(0,4,0)" /><path d="M 1700 400 L 1800 400 L 1800 500 L 1700 500 Z" fill="rgb(104,104,216)" stroke="rgb(104,104,216)" /><path d="M 700 900 L 775 925 L 825 975 L 800 1000 L 775 1025 L 700 1000 Z" fill="rgb(0,4,0)" stroke="rgb(0,4,0)" /><path d="M 1800 300 L 1900 300 L 1900 400 L 1800 400 Z" fill="rgb(104,104,216)" stroke="rgb(104,104,216)" /><path d="M 2200 500 L 2300 500 L 2300 600 L 2200 600 Z" fill="rgb(136,136,248)" stroke="rgb(136,136,248)" /><path d="M 2300 0 L 2350 0 L 2400 0 L 2425 75 L 2400 100 L 2375 125 L 2300 100 Z" fill="rgb(0,192,0)" stroke="rgb(0,192,0)" /><path d="M 3175 825 L 3225 775 L 3275 775 L 3325 825 L 3300 900 L 3200 900 Z" fill="rgb(0,4,0)" stroke="rgb(0,4,0)" /><path d="M 1100 600 L 1175 575 L 1200 600 L 1225 625 L 1175 675 L 1125 675 Z" fill="rgb(0,4,0)" stroke="rgb(0,4,0)" /><path d="M 3500 500 L 3600 500 L 3600 600 L 3525 625 L 3500 600 L 3475 575 Z" fill="rgb(0,192,0)" stroke="rgb(0,192,0)" /><path d="M 1200 100 L 1300 100 L 1275 175 L 1225 175 Z" fill="rgb(0,4,0)" stroke="rgb(0,4,0)" /><path d="M 3600 600 L 3700 600 L 3700 700 L 3600 700 Z" fill="rgb(0,4,0)" stroke="rgb(0,4,0)" /><path d="M 1300 400 L 1400 400 L 1375 475 L 1325 525 L 1275 475 Z" fill="rgb(0,4,0)" stroke="rgb(0,4,0)" /><path d="M 3700 700 L 3775 725 L 3825 775 L 3800 800 L 3775 825 L 3725 775 Z" fill="rgb(64,64,216)" stroke="rgb(64,64,216)" /><path d="M 0 700 L 100 700 L 100 800 L 0 800 L 0 750 Z" fill="rgb(0,4,0)" stroke="rgb(0,4,0)" /><path d="M 2400 400 L 2475 425 L 2525 475 L 2500 500 L 2475 525 L 2425 475 Z" fill="rgb(104,104,216)" stroke="rgb(104,104,216)" /><path d="M 100 600 L 200 600 L 225 675 L 200 700 L 175 725 L 100 700 Z" fill="rgb(104,104,216)" stroke="rgb(104,104,216)" /><path d="M 2525 125 L 2600 100 L 2575 175 L 2525 225 L 2500 200 L 2475 175 Z" fill="rgb(0,4,0)" stroke="rgb(0,4,0)" /><path d="M 225 525 L 275 475 L 325 525 L 300 600 L 200 600 Z" fill="rgb(248,248,248)" stroke="rgb(248,248,248)" /><path d="M 2575 625 L 2600 600 L 2625 575 L 2675 625 L 2700 700 L 2625 675 Z" fill="rgb(104,104,216)" stroke="rgb(104,104,216)" /><path d="M 500 800 L 600 800 L 600 900 L 525 925 L 500 900 L 475 875 Z" fill="rgb(64,64,216)" stroke="rgb(64,64,216)" /><path d="M 625 725 L 700 700 L 700 800 L 600 800 Z" fill="rgb(104,104,216)" stroke="rgb(104,104,216)" /><path d="M 3000 0 L 3050 0 L 3100 0 L 3100 100 L 3000 100 Z" fill="rgb(0,192,0)" stroke="rgb(0,192,0)" /><path d="M 700 600 L 800 600 L 800 700 L 700 700 Z" fill="rgb(104,104,216)" stroke="rgb(104,104,216)" /><path d="M 3100 500 L 3200 500 L 3200 600 L 3125 575 Z" fill="rgb(0,192,0)" stroke="rgb(0,192,0)" /><path d="M 1900 300 L 2000 300 L 2000 400 L 1900 400 Z" fill="rgb(104,104,216)" stroke="rgb(104,104,216)" /><path d="M 2000 400 L 2100 400 L 2100 500 L 2000 500 Z" fill="rgb(104,104,216)" stroke="rgb(104,104,216)" /><path d="M 800 200 L 900 200 L 875 275 L 825 275 Z" fill="rgb(248,248,248)" stroke="rgb(248,248,248)" /><path d="M 3200 1500 L 3275 1525 L 3300 1600 L 3250 1600 L 3200 1600 Z" fill="rgb(0,4,0)" stroke="rgb(0,4,0)" /><path d="M 3525 1025 L 3575 975 L 3625 1025 L 3625 1075 L 3575 1125 L 3500 1100 Z" fill="rgb(0,4,0)" stroke="rgb(0,4,0)" /><path d="M 925 325 L 950 325 L 975 325 L 975 350 L 975 375 L 950 375 L 925 375 L 925 350 Z" fill="rgb(0,4,0)" stroke="rgb(0,4,0)" /><path d="M 3300 1400 L 3400 1400 L 3400 1500 L 3325 1475 Z" fill="rgb(64,64,216)" stroke="rgb(64,64,216)" /><path d="M 3600 1300 L 3700 1300 L 3675 1375 L 3625 1425 L 3575 1375 Z" fill="rgb(0,4,0)" stroke="rgb(0,4,0)" /><path d="M 3400 1300 L 3475 1275 L 3500 1300 L 3525 1325 L 3475 1375 L 3400 1400 Z" fill="rgb(64,64,216)" stroke="rgb(64,64,216)" /><path d="M 3700 0 L 3750 0 L 3800 0 L 3800 100 L 3700 100 Z" fill="rgb(0,192,0)" stroke="rgb(0,192,0)" /><path d="M 2425 1125 L 2500 1100 L 2475 1175 L 2400 1200 Z" fill="rgb(248,248,248)" stroke="rgb(248,248,248)" /><path d="M 1400 200 L 1475 225 L 1525 275 L 1500 300 L 1475 325 L 1425 275 Z" fill="rgb(248,136,0)" stroke="rgb(248,136,0)" /><path d="M 3800 1500 L 3900 1500 L 3900 1600 L 3850 1600 L 3800 1600 Z" fill="rgb(0,192,0)" stroke="rgb(0,192,0)" /><path d="M 2500 1000 L 2600 1000 L 2600 1100 L 2500 1100 Z" fill="rgb(248,248,248)" stroke="rgb(248,248,248)" /><path d="M 3900 1400 L 4000 1400 L 4000 1450 L 4000 1500 L 3900 1500 Z" fill="rgb(0,192,0)" stroke="rgb(0,192,0)" /><path d="M 2600 100 L 2700 100 L 2700 200 L 2625 225 L 2600 200 L 2575 175 Z" fill="rgb(0,4,0)" stroke="rgb(0,4,0)" /><path d="M 300 100 L 400 100 L 400 200 L 300 200 Z" fill="rgb(0,192,0)" stroke="rgb(0,192,0)" /><path d="M 2725 1225 L 2800 1200 L 2800 1300 L 2725 1325 L 2700 1300 L 2675 1275 Z" fill="rgb(0,192,0)" stroke="rgb(0,192,0)" /><path d="M 3000 1100 L 3100 1100 L 3100 1200 L 3000 1200 Z" fill="rgb(0,192,0)" stroke="rgb(0,192,0)" /><path d="M 2800 1500 L 2900 1500 L 2900 1600 L 2850 1600 L 2800 1600 Z" fill="rgb(0,192,0)" stroke="rgb(0,192,0)" /><path d="M 3100 200 L 3200 200 L 3200 300 L 3100 300 Z" fill="rgb(0,192,0)" stroke="rgb(0,192,0)" /><path d="M 2900 1400 L 3000 1400 L 3000 1500 L 2900 1500 Z" fill="rgb(0,192,0)" stroke="rgb(0,192,0)" /><path d="M 1600 1300 L 1700 1300 L 1700 1400 L 1600 1400 Z" fill="rgb(248,248,248)" stroke="rgb(248,248,248)" /><path d="M 1900 800 L 1975 825 L 2025 875 L 2000 900 L 1975 925 L 1925 875 Z" fill="rgb(136,136,248)" stroke="rgb(136,136,248)" /><path d="M 1700 800 L 1800 800 L 1800 900 L 1700 900 Z" fill="rgb(0,4,0)" stroke="rgb(0,4,0)" /><path d="M 2000 300 L 2100 300 L 2100 400 L 2000 400 Z" fill="rgb(104,104,216)" stroke="rgb(104,104,216)" /><path d="M 1800 1500 L 1900 1500 L 1900 1600 L 1850 1600 L 1800 1600 Z" fill="rgb(0,192,0)" stroke="rgb(0,192,0)" /><path d="M 2100 200 L 2175 225 L 2200 300 L 2100 300 Z" fill="rgb(64,64,216)" stroke="rgb(64,64,216)" /><path d="M 775 925 L 800 900 L 825 875 L 875 925 L 900 1000 L 825 975 Z" fill="rgb(64,64,216)" stroke="rgb(64,64,216)" /><path d="M 3200 600 L 3300 600 L 3275 675 L 3225 675 Z" fill="rgb(0,192,0)" stroke="rgb(0,192,0)" /><path d="M 2200 900 L 2300 900 L 2325 975 L 2275 1025 L 2225 975 Z" fill="rgb(0,4,0)" stroke="rgb(0,4,0)" /><path d="M 875 425 L 900 400 L 925 375 L 975 375 L 1000 400 L 1025 425 L 1000 500 L 925 475 Z" fill="rgb(248,248,248)" stroke="rgb(248,248,248)" /><path d="M 3325 725 L 3400 700 L 3400 800 L 3325 825 L 3275 775 Z" fill="rgb(0,4,0)" stroke="rgb(0,4,0)" /><path d="M 2325 1225 L 2400 1200 L 2400 1300 L 2300 1300 Z" fill="rgb(248,248,248)" stroke="rgb(248,248,248)" /><path d="M 975 325 L 1000 300 L 1025 275 L 1100 300 L 1100 400 L 1025 425 L 1000 400 L 975 375 Z" fill="rgb(248,248,248)" stroke="rgb(248,248,248)" /><path d="M 3400 400 L 3500 400 L 3500 500 L 3400 500 Z" fill="rgb(0,192,0)" stroke="rgb(0,192,0)" /><path d="M 3700 900 L 3800 900 L 3800 1000 L 3700 1000 Z" fill="rgb(0,4,0)" stroke="rgb(0,4,0)" /><path d="M 1100 1000 L 1200 1000 L 1225 1075 L 1200 1100 L 1175 1125 L 1125 1075 Z" fill="rgb(248,248,248)" stroke="rgb(248,248,248)" /><path d="M 1425 525 L 1475 475 L 1500 500 L 1525 525 L 1475 575 L 1400 600 Z" fill="rgb(184,40,0)" stroke="rgb(184,40,0)" /><path d="M 3775 625 L 3800 600 L 3825 575 L 3900 600 L 3925 675 L 3900 700 L 3875 725 L 3825 675 Z" fill="rgb(0,192,0)" stroke="rgb(0,192,0)" /><path d="M 1225 1325 L 1300 1300 L 1300 1400 L 1225 1425 L 1175 1375 Z" fill="rgb(0,4,0)" stroke="rgb(0,4,0)" /><path d="M 1500 0 L 1550 0 L 1600 0 L 1575 75 L 1525 125 L 1500 100 L 1475 75 Z" fill="rgb(0,4,0)" stroke="rgb(0,4,0)" /><path d="M 3875 725 L 3900 700 L 3925 675 L 4000 700 L 4000 750 L 4000 800 L 3925 775 Z" fill="rgb(0,192,0)" stroke="rgb(0,192,0)" /><path d="M 2600 800 L 2700 800 L 2725 875 L 2700 900 L 2675 925 L 2625 875 Z" fill="rgb(136,136,248)" stroke="rgb(136,136,248)" /><path d="M 0 1100 L 100 1100 L 100 1200 L 0 1200 L 0 1150 Z" fill="rgb(0,192,0)" stroke="rgb(0,192,0)" /><path d="M 300 600 L 400 600 L 400 700 L 325 675 Z" fill="rgb(136,136,248)" stroke="rgb(136,136,248)" /><path d="M 2675 525 L 2700 500 L 2725 475 L 2775 525 L 2800 600 L 2725 575 Z" fill="rgb(64,64,216)" stroke="rgb(64,64,216)" /><path d="M 75 1025 L 100 1000 L 125 975 L 175 1025 L 225 1075 L 200 1100 L 175 1125 L 100 1100 Z" fill="rgb(0,192,0)" stroke="rgb(0,192,0)" /><path d="M 400 100 L 500 100 L 475 175 L 400 200 Z" fill="rgb(0,192,0)" stroke="rgb(0,192,0)" /><path d="M 2800 600 L 2875 625 L 2925 675 L 2900 700 L 2875 725 L 2825 675 Z" fill="rgb(104,104,216)" stroke="rgb(104,104,216)" /><path d="M 3100 1100 L 3175 1125 L 3200 1200 L 3100 1200 Z" fill="rgb(0,192,0)" stroke="rgb(0,192,0)" /><path d="M 500 400 L 575 425 L 625 475 L 600 500 L 575 525 L 500 500 Z" fill="rgb(136,136,248)" stroke="rgb(136,136,248)" /><path d="M 2875 725 L 2900 700 L 2925 675 L 2975 725 L 3025 775 L 2975 825 L 2900 800 Z" fill="rgb(104,104,216)" stroke="rgb(104,104,216)" /><path d="M 1600 400 L 1700 400 L 1700 500 L 1625 525 L 1575 475 Z" fill="rgb(0,4,0)" stroke="rgb(0,4,0)" /><path d="M 625 1125 L 650 1125 L 675 1125 L 675 1150 L 675 1175 L 625 1225 L 575 1175 Z" fill="rgb(248,248,248)" stroke="rgb(248,248,248)" /><path d="M 1700 100 L 1800 100 L 1825 175 L 1800 200 L 1775 225 L 1700 200 Z" fill="rgb(64,64,216)" stroke="rgb(64,64,216)" /><path d="M 1975 1025 L 2025 975 L 2075 975 L 2100 1000 L 2125 1025 L 2100 1100 L 2025 1075 Z" fill="rgb(104,104,216)" stroke="rgb(104,104,216)" /><path d="M 1800 600 L 1875 575 L 1900 600 L 1925 625 L 1875 675 L 1800 700 Z" fill="rgb(136,136,248)" stroke="rgb(136,136,248)" /><path d="M 2100 1100 L 2200 1100 L 2200 1200 L 2100 1200 Z" fill="rgb(0,4,0)" stroke="rgb(0,4,0)" /><path d="M 2200 0 L 2250 0 L 2300 0 L 2300 100 L 2225 75 Z" fill="rgb(0,192,0)" stroke="rgb(0,192,0)" /><path d="M 900 1300 L 1000 1300 L 975 1375 L 900 1400 Z" fill="rgb(248,248,248)" stroke="rgb(248,248,248)" /><path d="M 2300 500 L 2375 525 L 2425 575 L 2375 625 L 2300 600 Z" fill="rgb(136,136,248)" stroke="rgb(136,136,248)" /><path d="M 1000 1000 L 1100 1000 L 1125 1075 L 1075 1125 L 1025 1075 Z" fill="rgb(0,4,0)" stroke="rgb(0,4,0)" /><path d="M 1100 300 L 1175 325 L 1200 400 L 1100 400 Z" fill="rgb(248,248,248)" stroke="rgb(248,248,248)" /><path d="M 1400 1200 L 1500 1200 L 1500 1300 L 1425 1275 Z" fill="rgb(248,248,248)" stroke="rgb(248,248,248)" /><path d="M 1200 400 L 1300 400 L 1275 475 L 1225 525 L 1200 500 L 1175 475 Z" fill="rgb(248,248,248)" stroke="rgb(248,248,248)" /><path d="M 1500 900 L 1600 900 L 1600 1000 L 1500 1000 Z" fill="rgb(248,248,248)" stroke="rgb(248,248,248)" /><path d="M 1300 900 L 1400 900 L 1400 1000 L 1300 1000 Z" fill="rgb(248,248,248)" stroke="rgb(248,248,248)" /><path d="M 0 200 L 100 200 L 100 300 L 0 300 L 0 250 Z" fill="rgb(0,192,0)" stroke="rgb(0,192,0)" /><path d="M 300 1500 L 400 1500 L 400 1600 L 350 1600 L 300 1600 Z" fill="rgb(0,192,0)" stroke="rgb(0,192,0)" /><path d="M 100 300 L 175 275 L 200 300 L 225 325 L 175 375 L 125 425 L 100 400 L 75 375 Z" fill="rgb(0,192,0)" stroke="rgb(0,192,0)" /><path d="M 400 800 L 500 800 L 475 875 L 400 900 Z" fill="rgb(64,64,216)" stroke="rgb(64,64,216)" /><path d="M 175 825 L 200 800 L 225 775 L 300 800 L 300 900 L 225 875 Z" fill="rgb(64,64,216)" stroke="rgb(64,64,216)" /><path d="M 500 1300 L 575 1325 L 625 1375 L 600 1400 L 575 1425 L 525 1375 Z" fill="rgb(248,248,248)" stroke="rgb(248,248,248)" /><path d="M 2900 0 L 2950 0 L 3000 0 L 3000 100 L 2925 75 Z" fill="rgb(0,192,0)" stroke="rgb(0,192,0)" /><path d="M 625 225 L 700 200 L 675 275 L 600 300 Z" fill="rgb(248,248,248)" stroke="rgb(248,248,248)" /><path d="M 675 1125 L 700 1100 L 725 1075 L 800 1100 L 775 1175 L 725 1225 L 700 1200 L 675 1175 Z" fill="rgb(0,4,0)" stroke="rgb(0,4,0)" /><path d="M 1800 100 L 1900 100 L 1900 200 L 1825 175 Z" fill="rgb(248,248,248)" stroke="rgb(248,248,248)" /><path d="M 2300 200 L 2375 225 L 2425 275 L 2400 300 L 2375 325 L 2325 275 Z" fill="rgb(64,64,216)" stroke="rgb(64,64,216)" /><path d="M 3175 1025 L 3200 1000 L 3225 975 L 3300 1000 L 3325 1075 L 3275 1125 L 3225 1075 Z" fill="rgb(104,104,216)" stroke="rgb(104,104,216)" /><path d="M 3525 725 L 3600 700 L 3600 800 L 3525 825 L 3475 775 Z" fill="rgb(64,64,216)" stroke="rgb(64,64,216)" /><path d="M 3275 1125 L 3325 1075 L 3375 1125 L 3425 1175 L 3400 1200 L 3375 1225 L 3300 1200 Z" fill="rgb(104,104,216)" stroke="rgb(104,104,216)" /><path d="M 1175 325 L 1200 300 L 1225 275 L 1275 325 L 1300 400 L 1200 400 Z" fill="rgb(248,248,248)" stroke="rgb(248,248,248)" /><path d="M 3600 0 L 3650 0 L 3700 0 L 3700 100 L 3600 100 Z" fill="rgb(0,192,0)" stroke="rgb(0,192,0)" /><path d="M 1325 225 L 1400 200 L 1425 275 L 1400 300 L 1375 325 L 1325 275 L 1325 250 Z" fill="rgb(248,136,0)" stroke="rgb(248,136,0)" /><path d="M 3700 500 L 3800 500 L 3825 575 L 3800 600 L 3775 625 L 3700 600 Z" fill="rgb(0,192,0)" stroke="rgb(0,192,0)" /><path d="M 2375 625 L 2425 575 L 2500 600 L 2500 700 L 2425 675 Z" fill="rgb(136,136,248)" stroke="rgb(136,136,248)" /><path d="M 3800 1000 L 3875 975 L 3900 1000 L 3925 1025 L 3900 1100 L 3800 1100 Z" fill="rgb(0,192,0)" stroke="rgb(0,192,0)" /><path d="M 125 425 L 175 375 L 225 425 L 175 475 L 125 525 L 75 475 Z" fill="rgb(0,4,0)" stroke="rgb(0,4,0)" /><path d="M 2500 700 L 2575 725 L 2600 800 L 2500 800 Z" fill="rgb(248,248,248)" stroke="rgb(248,248,248)" /><path d="M 225 325 L 300 300 L 300 400 L 225 425 L 175 375 Z" fill="rgb(0,4,0)" stroke="rgb(0,4,0)" /><path d="M 2575 425 L 2600 400 L 2625 375 L 2700 400 L 2725 475 L 2700 500 L 2675 525 L 2600 500 Z" fill="rgb(64,64,216)" stroke="rgb(64,64,216)" /><path d="M 2675 925 L 2700 900 L 2725 875 L 2800 900 L 2800 1000 L 2700 1000 Z" fill="rgb(136,136,248)" stroke="rgb(136,136,248)" /><path d="M 575 525 L 600 500 L 625 475 L 700 500 L 700 600 L 625 625 L 600 600 L 575 575 Z" fill="rgb(136,136,248)" stroke="rgb(136,136,248)" /><path d="M 3000 600 L 3075 625 L 3125 675 L 3075 725 L 3025 675 Z" fill="rgb(0,4,0)" stroke="rgb(0,4,0)" /><path d="M 700 0 L 750 0 L 800 0 L 800 100 L 700 100 Z" fill="rgb(0,192,0)" stroke="rgb(0,192,0)" /><path d="M 3075 725 L 3125 675 L 3175 725 L 3225 775 L 3175 825 L 3125 775 Z" fill="rgb(0,4,0)" stroke="rgb(0,4,0)" /><path d="M 1575 825 L 1600 800 L 1625 775 L 1700 800 L 1700 900 L 1600 900 Z" fill="rgb(248,248,248)" stroke="rgb(248,248,248)" /><path d="M 1900 500 L 2000 500 L 2000 600 L 1925 625 L 1900 600 L 1875 575 Z" fill="rgb(136,136,248)" stroke="rgb(136,136,248)" /><path d="M 2000 600 L 2100 600 L 2100 700 L 2025 675 Z" fill="rgb(0,4,0)" stroke="rgb(0,4,0)" /><path d="M 2100 700 L 2175 725 L 2200 800 L 2125 775 Z" fill="rgb(104,104,216)" stroke="rgb(104,104,216)" /><path d="M 800 400 L 875 425 L 925 475 L 900 500 L 875 525 L 825 475 Z" fill="rgb(248,248,248)" stroke="rgb(248,248,248)" /><path d="M 3200 100 L 3300 100 L 3300 200 L 3200 200 Z" fill="rgb(0,192,0)" stroke="rgb(0,192,0)" /><path d="M 3500 1200 L 3600 1200 L 3600 1300 L 3525 1325 L 3500 1300 L 3475 1275 Z" fill="rgb(64,64,216)" stroke="rgb(64,64,216)" /><path d="M 900 100 L 1000 100 L 1000 200 L 900 200 Z" fill="rgb(0,4,0)" stroke="rgb(0,4,0)" /><path d="M 3300 1200 L 3375 1225 L 3400 1300 L 3300 1300 Z" fill="rgb(104,104,216)" stroke="rgb(104,104,216)" /><path d="M 3625 1525 L 3700 1500 L 3700 1600 L 3650 1600 L 3600 1600 Z" fill="rgb(0,192,0)" stroke="rgb(0,192,0)" /><path d="M 1000 600 L 1100 600 L 1125 675 L 1100 700 L 1075 725 L 1000 700 Z" fill="rgb(0,4,0)" stroke="rgb(0,4,0)" /><path d="M 3375 1125 L 3425 1075 L 3500 1100 L 3500 1200 L 3425 1175 Z" fill="rgb(136,136,248)" stroke="rgb(136,136,248)" /><path d="M 3725 1425 L 3800 1400 L 3800 1500 L 3700 1500 Z" fill="rgb(0,192,0)" stroke="rgb(0,192,0)" /><path d="M 2400 1300 L 2475 1275 L 2525 1325 L 2475 1375 L 2400 1400 Z" fill="rgb(0,4,0)" stroke="rgb(0,4,0)" /><path d="M 1400 0 L 1450 0 L 1500 0 L 1475 75 L 1400 100 Z" fill="rgb(0,192,0)" stroke="rgb(0,192,0)" /><path d="M 3800 1300 L 3900 1300 L 3900 1400 L 3800 1400 Z" fill="rgb(0,192,0)" stroke="rgb(0,192,0)" /><path d="M 2500 800 L 2600 800 L 2625 875 L 2600 900 L 2575 925 L 2500 900 Z" fill="rgb(248,248,248)" stroke="rgb(248,248,248)" /><path d="M 1525 525 L 1575 475 L 1625 525 L 1575 575 L 1525 625 L 1475 575 Z" fill="rgb(0,4,0)" stroke="rgb(0,4,0)" /><path d="M 3875 825 L 3925 775 L 4000 800 L 4000 850 L 4000 900 L 3925 925 L 3875 875 Z" fill="rgb(0,4,0)" stroke="rgb(0,4,0)" /><path d="M 2600 1500 L 2700 1500 L 2700 1600 L 2650 1600 L 2600 1600 Z" fill="rgb(0,192,0)" stroke="rgb(0,192,0)" /><path d="M 300 300 L 400 300 L 400 400 L 300 400 Z" fill="rgb(0,4,0)" stroke="rgb(0,4,0)" /><path d="M 2700 1400 L 2800 1400 L 2800 1500 L 2700 1500 Z" fill="rgb(0,192,0)" stroke="rgb(0,192,0)" /><path d="M 3025 925 L 3075 925 L 3100 1000 L 3000 1000 Z" fill="rgb(104,104,216)" stroke="rgb(104,104,216)" /><path d="M 400 400 L 500 400 L 500 500 L 425 525 L 400 500 L 375 475 Z" fill="rgb(136,136,248)" stroke="rgb(136,136,248)" /><path d="M 2800 900 L 2875 875 L 2900 900 L 2925 925 L 2875 975 L 2800 1000 Z" fill="rgb(136,136,248)" stroke="rgb(136,136,248)" /><path d="M 3100 1200 L 3200 1200 L 3200 1300 L 3100 1300 Z" fill="rgb(0,192,0)" stroke="rgb(0,192,0)" /><path d="M 2925 1225 L 3000 1200 L 3000 1300 L 2900 1300 Z" fill="rgb(0,192,0)" stroke="rgb(0,192,0)" /><path d="M 1600 1500 L 1700 1500 L 1700 1600 L 1650 1600 L 1600 1600 Z" fill="rgb(0,192,0)" stroke="rgb(0,192,0)" /><path d="M 1900 1000 L 1975 1025 L 2025 1075 L 1975 1125 L 1900 1100 Z" fill="rgb(0,4,0)" stroke="rgb(0,4,0)" /><path d="M 1700 1400 L 1800 1400 L 1800 1500 L 1700 1500 Z" fill="rgb(0,4,0)" stroke="rgb(0,4,0)" /><path d="M 2000 1300 L 2100 1300 L 2100 1400 L 2000 1400 Z" fill="rgb(248,248,248)" stroke="rgb(248,248,248)" /><path d="M 1800 1300 L 1900 1300 L 1900 1400 L 1800 1400 Z" fill="rgb(248,248,248)" stroke="rgb(248,248,248)" /><path d="M 2100 0 L 2150 0 L 2200 0 L 2225 75 L 2175 125 L 2100 100 Z" fill="rgb(0,4,0)" stroke="rgb(0,4,0)" /><path d="M 800 1100 L 900 1100 L 875 1175 L 825 1225 L 800 1200 L 775 1175 Z" fill="rgb(0,4,0)" stroke="rgb(0,4,0)" /><path d="M 2225 1525 L 2300 1500 L 2300 1600 L 2250 1600 L 2200 1600 Z" fill="rgb(0,192,0)" stroke="rgb(0,192,0)" /><path d="M 900 1000 L 1000 1000 L 1025 1075 L 1000 1100 L 975 1125 L 900 1100 Z" fill="rgb(248,248,248)" stroke="rgb(248,248,248)" /><path d="M 3300 500 L 3400 500 L 3400 600 L 3300 600 Z" fill="rgb(0,192,0)" stroke="rgb(0,192,0)" /><path d="M 2300 1400 L 2400 1400 L 2400 1500 L 2300 1500 Z" fill="rgb(0,192,0)" stroke="rgb(0,192,0)" /><path d="M 1000 100 L 1100 100 L 1100 200 L 1000 200 Z" fill="rgb(0,4,0)" stroke="rgb(0,4,0)" /><path d="M 3400 200 L 3500 200 L 3500 300 L 3400 300 Z" fill="rgb(0,192,0)" stroke="rgb(0,192,0)" /><path d="M 1075 1225 L 1100 1200 L 1125 1175 L 1175 1175 L 1200 1200 L 1225 1225 L 1175 1275 L 1100 1300 Z" fill="rgb(248,248,248)" stroke="rgb(248,248,248)" /><path d="M 1400 1100 L 1500 1100 L 1500 1200 L 1400 1200 Z" fill="rgb(248,248,248)" stroke="rgb(248,248,248)" /><path d="M 3800 400 L 3900 400 L 3900 500 L 3800 500 Z" fill="rgb(0,192,0)" stroke="rgb(0,192,0)" /><path d="M 1225 1525 L 1300 1500 L 1300 1600 L 1250 1600 L 1200 1600 Z" fill="rgb(0,192,0)" stroke="rgb(0,192,0)" /><path d="M 1475 225 L 1500 200 L 1525 175 L 1600 200 L 1625 275 L 1575 325 L 1525 275 Z" fill="rgb(0,4,0)" stroke="rgb(0,4,0)" /><path d="M 3900 100 L 4000 100 L 4000 150 L 4000 200 L 3900 200 Z" fill="rgb(0,192,0)" stroke="rgb(0,192,0)" /><path d="M 1300 1400 L 1375 1425 L 1425 1475 L 1400 1500 L 1375 1525 L 1300 1500 Z" fill="rgb(0,192,0)" stroke="rgb(0,192,0)" /><path d="M 0 1300 L 100 1300 L 100 1400 L 0 1400 L 0 1350 Z" fill="rgb(0,192,0)" stroke="rgb(0,192,0)" /><path d="M 300 800 L 400 800 L 400 900 L 300 900 Z" fill="rgb(64,64,216)" stroke="rgb(64,64,216)" /><path d="M 2700 700 L 2775 725 L 2825 775 L 2800 800 L 2775 825 L 2700 800 Z" fill="rgb(136,136,248)" stroke="rgb(136,136,248)" /><path d="M 100 800 L 175 825 L 225 875 L 200 900 L 175 925 L 125 875 Z" fill="rgb(64,64,216)" stroke="rgb(64,64,216)" /><path d="M 400 300 L 475 275 L 500 300 L 525 325 L 500 400 L 400 400 Z" fill="rgb(0,4,0)" stroke="rgb(0,4,0)" /><path d="M 2800 0 L 2850 0 L 2900 0 L 2925 75 L 2900 100 L 2875 125 L 2800 100 Z" fill="rgb(0,192,0)" stroke="rgb(0,192,0)" /><path d="M 200 1500 L 300 1500 L 300 1600 L 250 1600 L 200 1600 Z" fill="rgb(0,192,0)" stroke="rgb(0,192,0)" /><path d="M 525 225 L 575 175 L 625 225 L 600 300 L 525 325 L 500 300 L 475 275 Z" fill="rgb(0,4,0)" stroke="rgb(0,4,0)" /><path d="M 2900 500 L 3000 500 L 3000 600 L 2925 575 Z" fill="rgb(0,192,0)" stroke="rgb(0,192,0)" /><path d="M 1625 625 L 1700 600 L 1675 675 L 1625 675 Z" fill="rgb(136,136,248)" stroke="rgb(136,136,248)" /><path d="M 600 900 L 700 900 L 700 1000 L 600 1000 Z" fill="rgb(0,4,0)" stroke="rgb(0,4,0)" /><path d="M 1725 725 L 1800 700 L 1800 800 L 1700 800 Z" fill="rgb(0,4,0)" stroke="rgb(0,4,0)" /><path d="M 725 1225 L 775 1175 L 800 1200 L 825 1225 L 775 1275 L 700 1300 Z" fill="rgb(0,4,0)" stroke="rgb(0,4,0)" /><path d="M 1800 400 L 1900 400 L 1900 500 L 1800 500 Z" fill="rgb(104,104,216)" stroke="rgb(104,104,216)" /><path d="M 2100 900 L 2200 900 L 2225 975 L 2200 1000 L 2175 1025 L 2125 1025 L 2100 1000 L 2075 975 Z" fill="rgb(104,104,216)" stroke="rgb(104,104,216)" /><path d="M 2200 600 L 2300 600 L 2325 675 L 2300 700 L 2275 725 L 2225 675 Z" fill="rgb(248,248,248)" stroke="rgb(248,248,248)" /><path d="M 2275 725 L 2300 700 L 2325 675 L 2375 725 L 2400 800 L 2300 800 Z" fill="rgb(248,248,248)" stroke="rgb(248,248,248)" /><path d="M 1025 825 L 1075 775 L 1125 825 L 1100 900 L 1000 900 Z" fill="rgb(0,4,0)" stroke="rgb(0,4,0)" /><path d="M 1100 500 L 1175 475 L 1200 500 L 1225 525 L 1175 575 L 1100 600 Z" fill="rgb(248,248,248)" stroke="rgb(248,248,248)" /><path d="M 3500 0 L 3550 0 L 3600 0 L 3600 100 L 3500 100 Z" fill="rgb(0,192,0)" stroke="rgb(0,192,0)" /><path d="M 1225 625 L 1275 625 L 1300 700 L 1225 725 L 1200 700 L 1175 675 Z" fill="rgb(0,4,0)" stroke="rgb(0,4,0)" /><path d="M 1500 1100 L 1600 1100 L 1600 1200 L 1500 1200 Z" fill="rgb(248,248,248)" stroke="rgb(248,248,248)" /><path d="M 1300 700 L 1400 700 L 1400 800 L 1300 800 Z" fill="rgb(248,248,248)" stroke="rgb(248,248,248)" /><path d="M 0 400 L 75 375 L 100 400 L 125 425 L 75 475 L 0 500 L 0 450 Z" fill="rgb(0,192,0)" stroke="rgb(0,192,0)" /><path d="M 2375 125 L 2400 100 L 2425 75 L 2475 75 L 2500 100 L 2525 125 L 2475 175 L 2450 175 L 2425 175 Z" fill="rgb(0,192,0)" stroke="rgb(0,192,0)" /><path d="M 100 100 L 200 100 L 200 200 L 100 200 Z" fill="rgb(0,192,0)" stroke="rgb(0,192,0)" /><path d="M 400 1000 L 475 975 L 500 1000 L 525 1025 L 525 1075 L 500 1100 L 475 1125 L 400 1100 Z" fill="rgb(0,4,0)" stroke="rgb(0,4,0)" /><path d="M 200 600 L 300 600 L 325 675 L 300 700 L 275 725 L 225 675 Z" fill="rgb(104,104,216)" stroke="rgb(104,104,216)" /><path d="M 475 1125 L 500 1100 L 525 1075 L 575 1075 L 600 1100 L 625 1125 L 575 1175 L 525 1225 L 475 1175 Z" fill="rgb(0,4,0)" stroke="rgb(0,4,0)" /><path d="M 600 0 L 650 0 L 700 0 L 700 100 L 625 125 L 600 100 L 575 75 Z" fill="rgb(0,192,0)" stroke="rgb(0,192,0)" /><path d="M 700 500 L 775 525 L 800 600 L 700 600 Z" fill="rgb(136,136,248)" stroke="rgb(136,136,248)" /><path d="M 3200 1200 L 3300 1200 L 3300 1300 L 3200 1300 Z" fill="rgb(0,4,0)" stroke="rgb(0,4,0)" /><path d="M 3525 925 L 3575 875 L 3625 925 L 3575 975 L 3525 1025 L 3475 975 Z" fill="rgb(104,104,216)" stroke="rgb(104,104,216)" /><path d="M 3300 900 L 3400 900 L 3375 975 L 3300 1000 Z" fill="rgb(136,136,248)" stroke="rgb(136,136,248)" /><path d="M 3600 200 L 3700 200 L 3700 300 L 3600 300 Z" fill="rgb(0,192,0)" stroke="rgb(0,192,0)" /><path d="M 3400 1400 L 3475 1375 L 3500 1400 L 3525 1425 L 3475 1475 L 3400 1500 Z" fill="rgb(64,64,216)" stroke="rgb(64,64,216)" /><path d="M 1300 0 L 1350 0 L 1400 0 L 1400 100 L 1300 100 Z" fill="rgb(0,192,0)" stroke="rgb(0,192,0)" /><path d="M 3700 300 L 3800 300 L 3800 400 L 3700 400 Z" fill="rgb(0,192,0)" stroke="rgb(0,192,0)" /><path d="M 2400 800 L 2500 800 L 2500 900 L 2400 900 Z" fill="rgb(248,248,248)" stroke="rgb(248,248,248)" /><path d="M 3775 825 L 3800 800 L 3825 775 L 3875 825 L 3875 850 L 3875 875 L 3800 900 Z" fill="rgb(64,64,216)" stroke="rgb(64,64,216)" /><path d="M 2475 525 L 2500 500 L 2525 475 L 2600 500 L 2625 575 L 2600 600 L 2575 625 L 2500 600 Z" fill="rgb(104,104,216)" stroke="rgb(104,104,216)" /><path d="M 3900 1300 L 4000 1300 L 4000 1350 L 4000 1400 L 3900 1400 Z" fill="rgb(0,192,0)" stroke="rgb(0,192,0)" /><path d="M 200 100 L 300 100 L 300 200 L 200 200 Z" fill="rgb(0,192,0)" stroke="rgb(0,192,0)" /><path d="M 2625 225 L 2700 200 L 2700 300 L 2625 275 L 2625 250 Z" fill="rgb(64,64,216)" stroke="rgb(64,64,216)" /><path d="M 2700 1100 L 2800 1100 L 2800 1200 L 2725 1225 L 2675 1175 Z" fill="rgb(0,4,0)" stroke="rgb(0,4,0)" /><path d="M 3025 425 L 3100 400 L 3100 500 L 3000 500 Z" fill="rgb(0,192,0)" stroke="rgb(0,192,0)" /><path d="M 2800 1200 L 2875 1175 L 2900 1200 L 2925 1225 L 2900 1300 L 2800 1300 Z" fill="rgb(0,192,0)" stroke="rgb(0,192,0)" /><path d="M 700 200 L 800 200 L 825 275 L 800 300 L 775 325 L 725 325 L 700 300 L 675 275 Z" fill="rgb(248,248,248)" stroke="rgb(248,248,248)" /><path d="M 3100 100 L 3200 100 L 3200 200 L 3100 200 Z" fill="rgb(0,192,0)" stroke="rgb(0,192,0)" /><path d="M 1600 1000 L 1675 1025 L 1700 1100 L 1600 1100 Z" fill="rgb(248,248,248)" stroke="rgb(248,248,248)" /><path d="M 1925 725 L 1950 725 L 1975 725 L 2025 775 L 2000 800 L 1975 825 L 1900 800 Z" fill="rgb(136,136,248)" stroke="rgb(136,136,248)" /><path d="M 1700 1100 L 1775 1125 L 1800 1200 L 1700 1200 Z" fill="rgb(248,248,248)" stroke="rgb(248,248,248)" /><path d="M 2000 0 L 2050 0 L 2100 0 L 2100 100 L 2000 100 Z" fill="rgb(0,4,0)" stroke="rgb(0,4,0)" /><path d="M 2100 500 L 2200 500 L 2200 600 L 2100 600 Z" fill="rgb(136,136,248)" stroke="rgb(136,136,248)" /><path d="M 800 600 L 875 625 L 925 675 L 900 700 L 875 725 L 800 700 Z" fill="rgb(104,104,216)" stroke="rgb(104,104,216)" /><path d="M 3200 300 L 3300 300 L 3300 400 L 3200 400 Z" fill="rgb(0,192,0)" stroke="rgb(0,192,0)" /><path d="M 2175 1025 L 2200 1000 L 2225 975 L 2275 1025 L 2275 1050 L 2275 1075 L 2200 1100 Z" fill="rgb(104,104,216)" stroke="rgb(104,104,216)" /><path d="M 3525 1425 L 3575 1375 L 3625 1425 L 3575 1475 L 3525 1525 L 3475 1475 Z" fill="rgb(0,4,0)" stroke="rgb(0,4,0)" /><path d="M 875 725 L 900 700 L 925 675 L 1000 700 L 975 775 L 925 775 Z" fill="rgb(104,104,216)" stroke="rgb(104,104,216)" /><path d="M 3300 200 L 3400 200 L 3400 300 L 3300 300 Z" fill="rgb(0,192,0)" stroke="rgb(0,192,0)" /><path d="M 3625 925 L 3700 900 L 3700 1000 L 3625 1025 L 3575 975 Z" fill="rgb(0,4,0)" stroke="rgb(0,4,0)" /><path d="M 1025 425 L 1100 400 L 1100 500 L 1000 500 Z" fill="rgb(248,248,248)" stroke="rgb(248,248,248)" /><path d="M 3400 900 L 3475 875 L 3525 925 L 3475 975 L 3425 1025 L 3400 1000 L 3375 975 Z" fill="rgb(136,136,248)" stroke="rgb(136,136,248)" /><path d="M 3700 1200 L 3800 1200 L 3800 1300 L 3700 1300 Z" fill="rgb(0,192,0)" stroke="rgb(0,192,0)" /><path d="M 1100 900 L 1200 900 L 1200 1000 L 1100 1000 Z" fill="rgb(248,248,248)" stroke="rgb(248,248,248)" /><path d="M 2400 1500 L 2500 1500 L 2500 1600 L 2450 1600 L 2400 1600 Z" fill="rgb(0,192,0)" stroke="rgb(0,192,0)" /><path d="M 1400 600 L 1475 575 L 1525 625 L 1500 700 L 1400 700 Z" fill="rgb(0,4,0)" stroke="rgb(0,4,0)" /><path d="M 3800 300 L 3900 300 L 3900 400 L 3800 400 Z" fill="rgb(0,192,0)" stroke="rgb(0,192,0)" /><path d="M 2525 1425 L 2600 1400 L 2600 1500 L 2500 1500 Z" fill="rgb(0,192,0)" stroke="rgb(0,192,0)" /><path d="M 1500 700 L 1575 725 L 1625 775 L 1600 800 L 1575 825 L 1500 800 Z" fill="rgb(248,248,248)" stroke="rgb(248,248,248)" /><path d="M 3925 1025 L 4000 1000 L 4000 1050 L 4000 1100 L 3900 1100 Z" fill="rgb(0,192,0)" stroke="rgb(0,192,0)" /><path d="M 2600 1300 L 2675 1275 L 2700 1300 L 2725 1325 L 2700 1400 L 2600 1400 Z" fill="rgb(0,192,0)" stroke="rgb(0,192,0)" /><path d="M 0 800 L 100 800 L 125 875 L 75 925 L 0 900 L 0 850 Z" fill="rgb(0,4,0)" stroke="rgb(0,4,0)" /><path d="M 325 525 L 375 475 L 400 500 L 425 525 L 400 600 L 300 600 Z" fill="rgb(136,136,248)" stroke="rgb(136,136,248)" /><path d="M 2700 0 L 2750 0 L 2800 0 L 2800 100 L 2700 100 Z" fill="rgb(0,192,0)" stroke="rgb(0,192,0)" /><path d="M 3000 1500 L 3100 1500 L 3100 1600 L 3050 1600 L 3000 1600 Z" fill="rgb(0,192,0)" stroke="rgb(0,192,0)" /><path d="M 400 600 L 500 600 L 500 700 L 400 700 Z" fill="rgb(136,136,248)" stroke="rgb(136,136,248)" /><path d="M 2800 1100 L 2875 1075 L 2925 1125 L 2875 1175 L 2800 1200 Z" fill="rgb(0,4,0)" stroke="rgb(0,4,0)" /><path d="M 3100 1400 L 3200 1400 L 3200 1500 L 3100 1500 Z" fill="rgb(0,192,0)" stroke="rgb(0,192,0)" /><path d="M 500 700 L 575 675 L 600 700 L 625 725 L 600 800 L 500 800 Z" fill="rgb(104,104,216)" stroke="rgb(104,104,216)" /><path d="M 2925 1025 L 3000 1000 L 3000 1100 L 2925 1125 L 2875 1075 Z" fill="rgb(0,4,0)" stroke="rgb(0,4,0)" /><path d="M 1625 125 L 1700 100 L 1700 200 L 1600 200 Z" fill="rgb(64,64,216)" stroke="rgb(64,64,216)" /><path d="M 1900 1200 L 1975 1225 L 2000 1300 L 1900 1300 Z" fill="rgb(248,248,248)" stroke="rgb(248,248,248)" /><path d="M 1700 1200 L 1800 1200 L 1800 1300 L 1700 1300 Z" fill="rgb(248,248,248)" stroke="rgb(248,248,248)" /><path d="M 2000 1500 L 2100 1500 L 2100 1600 L 2050 1600 L 2000 1600 Z" fill="rgb(0,192,0)" stroke="rgb(0,192,0)" /><path d="M 1775 1125 L 1800 1100 L 1825 1075 L 1900 1100 L 1900 1200 L 1800 1200 Z" fill="rgb(248,248,248)" stroke="rgb(248,248,248)" /><path d="M 2100 1400 L 2175 1375 L 2225 1425 L 2175 1475 L 2100 1500 Z" fill="rgb(0,4,0)" stroke="rgb(0,4,0)" /><path d="M 825 1325 L 900 1300 L 900 1400 L 800 1400 Z" fill="rgb(248,248,248)" stroke="rgb(248,248,248)" /><path d="M 2225 1325 L 2300 1300 L 2300 1400 L 2225 1425 L 2175 1375 Z" fill="rgb(0,4,0)" stroke="rgb(0,4,0)" /><path d="M 875 825 L 900 800 L 925 775 L 975 775 L 1000 800 L 1025 825 L 1000 900 L 925 875 Z" fill="rgb(104,104,216)" stroke="rgb(104,104,216)" /><path d="M 2300 800 L 2400 800 L 2400 900 L 2300 900 Z" fill="rgb(248,248,248)" stroke="rgb(248,248,248)" /><path d="M 1025 1525 L 1100 1500 L 1100 1600 L 1050 1600 L 1000 1600 Z" fill="rgb(0,192,0)" stroke="rgb(0,192,0)" /><path d="M 3400 0 L 3450 0 L 3500 0 L 3500 100 L 3400 100 Z" fill="rgb(0,192,0)" stroke="rgb(0,192,0)" /><path d="M 1100 1400 L 1175 1375 L 1225 1425 L 1175 1475 L 1100 1500 Z" fill="rgb(0,4,0)" stroke="rgb(0,4,0)" /><path d="M 1400 900 L 1500 900 L 1500 1000 L 1400 1000 Z" fill="rgb(248,248,248)" stroke="rgb(248,248,248)" /><path d="M 1200 900 L 1300 900 L 1300 1000 L 1200 1000 Z" fill="rgb(248,248,248)" stroke="rgb(248,248,248)" /><path d="M 1500 1200 L 1600 1200 L 1600 1300 L 1500 1300 Z" fill="rgb(248,248,248)" stroke="rgb(248,248,248)" /><path d="M 3900 300 L 4000 300 L 4000 350 L 4000 400 L 3900 400 Z" fill="rgb(0,192,0)" stroke="rgb(0,192,0)" /><path d="M 1300 1200 L 1400 1200 L 1425 1275 L 1400 1300 L 1375 1325 L 1300 1300 Z" fill="rgb(248,248,248)" stroke="rgb(248,248,248)" /><path d="M 0 1500 L 100 1500 L 100 1600 L 50 1600 L 0 1600 L 0 1550 Z" fill="rgb(0,192,0)" stroke="rgb(0,192,0)" /><path d="M 300 1000 L 400 1000 L 400 1100 L 300 1100 Z" fill="rgb(0,4,0)" stroke="rgb(0,4,0)" /><path d="M 100 1400 L 200 1400 L 200 1500 L 100 1500 Z" fill="rgb(0,192,0)" stroke="rgb(0,192,0)" /><path d="M 400 1300 L 500 1300 L 525 1375 L 475 1425 L 425 1375 Z" fill="rgb(0,4,0)" stroke="rgb(0,4,0)" /><path d="M 2800 200 L 2875 225 L 2900 300 L 2800 300 Z" fill="rgb(64,64,216)" stroke="rgb(64,64,216)" /><path d="M 200 1300 L 300 1300 L 300 1400 L 200 1400 Z" fill="rgb(0,192,0)" stroke="rgb(0,192,0)" /><path d="M 500 0 L 550 0 L 600 0 L 575 75 L 500 100 Z" fill="rgb(0,192,0)" stroke="rgb(0,192,0)" /><path d="M 2900 300 L 3000 300 L 2975 375 L 2925 425 L 2875 375 Z" fill="rgb(0,4,0)" stroke="rgb(0,4,0)" /><path d="M 575 1525 L 625 1475 L 700 1500 L 700 1600 L 650 1600 L 600 1600 Z" fill="rgb(0,4,0)" stroke="rgb(0,4,0)" /><path d="M 1700 500 L 1800 500 L 1800 600 L 1700 600 Z" fill="rgb(136,136,248)" stroke="rgb(136,136,248)" /><path d="M 700 1400 L 800 1400 L 800 1500 L 700 1500 Z" fill="rgb(248,248,248)" stroke="rgb(248,248,248)" /><path d="M 1775 225 L 1800 200 L 1825 175 L 1900 200 L 1900 300 L 1800 300 Z" fill="rgb(64,64,216)" stroke="rgb(64,64,216)" /><path d="M 2200 400 L 2275 425 L 2300 500 L 2200 500 Z" fill="rgb(104,104,216)" stroke="rgb(104,104,216)" /><path d="M 2300 100 L 2375 125 L 2425 175 L 2375 225 L 2300 200 Z" fill="rgb(0,4,0)" stroke="rgb(0,4,0)" /><path d="M 1075 725 L 1100 700 L 1125 675 L 1175 675 L 1200 700 L 1225 725 L 1175 775 L 1125 825 L 1075 775 Z" fill="rgb(0,4,0)" stroke="rgb(0,4,0)" /><path d="M 3500 200 L 3600 200 L 3600 300 L 3500 300 Z" fill="rgb(0,192,0)" stroke="rgb(0,192,0)" /><path d="M 1200 0 L 1250 0 L 1300 0 L 1300 100 L 1200 100 Z" fill="rgb(0,192,0)" stroke="rgb(0,192,0)" /><path d="M 3600 500 L 3700 500 L 3700 600 L 3600 600 Z" fill="rgb(0,192,0)" stroke="rgb(0,192,0)" /><path d="M 1325 525 L 1375 475 L 1400 500 L 1425 525 L 1400 600 L 1325 575 L 1325 550 Z" fill="rgb(184,40,0)" stroke="rgb(184,40,0)" /><path d="M 0 600 L 100 600 L 100 700 L 0 700 L 0 650 Z" fill="rgb(0,4,0)" stroke="rgb(0,4,0)" /><path d="M 2375 325 L 2400 300 L 2425 275 L 2500 300 L 2525 375 L 2500 400 L 2475 425 L 2400 400 Z" fill="rgb(64,64,216)" stroke="rgb(64,64,216)" /><path d="M 100 700 L 175 725 L 225 775 L 200 800 L 175 825 L 100 800 Z" fill="rgb(64,64,216)" stroke="rgb(64,64,216)" /><path d="M 2525 225 L 2575 175 L 2600 200 L 2625 225 L 2625 275 L 2575 325 L 2500 300 Z" fill="rgb(0,4,0)" stroke="rgb(0,4,0)" /><path d="M 225 425 L 300 400 L 275 475 L 225 525 L 175 475 Z" fill="rgb(136,136,248)" stroke="rgb(136,136,248)" /><path d="M 525 925 L 600 900 L 600 1000 L 525 1025 L 500 1000 L 475 975 Z" fill="rgb(0,4,0)" stroke="rgb(0,4,0)" /><path d="M 625 625 L 700 600 L 700 700 L 625 725 L 600 700 L 575 675 Z" fill="rgb(104,104,216)" stroke="rgb(104,104,216)" /><path d="M 3000 300 L 3100 300 L 3100 400 L 3025 425 L 3000 400 L 2975 375 Z" fill="rgb(0,192,0)" stroke="rgb(0,192,0)" /><path d="M 700 700 L 800 700 L 800 800 L 700 800 Z" fill="rgb(104,104,216)" stroke="rgb(104,104,216)" /><path d="M 1900 0 L 1950 0 L 2000 0 L 2000 100 L 1900 100 Z" fill="rgb(0,4,0)" stroke="rgb(0,4,0)" /><path d="M 800 100 L 900 100 L 900 200 L 800 200 Z" fill="rgb(0,4,0)" stroke="rgb(0,4,0)" /><path d="M 3200 1400 L 3300 1400 L 3325 1475 L 3300 1500 L 3275 1525 L 3200 1500 Z" fill="rgb(0,4,0)" stroke="rgb(0,4,0)" /><path d="M 3500 1100 L 3575 1125 L 3600 1200 L 3500 1200 Z" fill="rgb(64,64,216)" stroke="rgb(64,64,216)" /><path d="M 3275 1525 L 3300 1500 L 3325 1475 L 3400 1500 L 3400 1600 L 3350 1600 L 3300 1600 Z" fill="rgb(0,4,0)" stroke="rgb(0,4,0)" /><path d="M 3600 1200 L 3700 1200 L 3700 1300 L 3600 1300 Z" fill="rgb(0,4,0)" stroke="rgb(0,4,0)" /><path d="M 3375 1225 L 3400 1200 L 3425 1175 L 3500 1200 L 3475 1275 L 3400 1300 Z" fill="rgb(104,104,216)" stroke="rgb(104,104,216)" /><path d="M 3700 100 L 3800 100 L 3800 200 L 3700 200 Z" fill="rgb(0,192,0)" stroke="rgb(0,192,0)" /><path d="M 2375 1025 L 2400 1000 L 2425 975 L 2500 1000 L 2500 1100 L 2425 1125 L 2400 1100 L 2375 1075 Z" fill="rgb(248,248,248)" stroke="rgb(248,248,248)" /><path d="M 3800 1400 L 3900 1400 L 3900 1500 L 3800 1500 Z" fill="rgb(0,192,0)" stroke="rgb(0,192,0)" /><path d="M 2500 1100 L 2600 1100 L 2600 1200 L 2525 1225 L 2500 1200 L 2475 1175 Z" fill="rgb(248,248,248)" stroke="rgb(248,248,248)" /><path d="M 3900 1500 L 4000 1500 L 4000 1550 L 4000 1600 L 3950 1600 L 3900 1600 Z" fill="rgb(0,192,0)" stroke="rgb(0,192,0)" /><path d="M 2600 0 L 2650 0 L 2700 0 L 2700 100 L 2600 100 Z" fill="rgb(0,192,0)" stroke="rgb(0,192,0)" /><path d="M 2725 1325 L 2800 1300 L 2800 1400 L 2700 1400 Z" fill="rgb(0,192,0)" stroke="rgb(0,192,0)" /><path d="M 3000 1000 L 3100 1000 L 3100 1100 L 3000 1100 Z" fill="rgb(0,4,0)" stroke="rgb(0,4,0)" /><path d="M 2800 1400 L 2900 1400 L 2900 1500 L 2800 1500 Z" fill="rgb(0,192,0)" stroke="rgb(0,192,0)" /><path d="M 3100 300 L 3200 300 L 3200 400 L 3100 400 Z" fill="rgb(0,192,0)" stroke="rgb(0,192,0)" /><path d="M 2900 1500 L 3000 1500 L 3000 1600 L 2950 1600 L 2900 1600 Z" fill="rgb(0,192,0)" stroke="rgb(0,192,0)" /><path d="M 1600 1200 L 1700 1200 L 1700 1300 L 1600 1300 Z" fill="rgb(248,248,248)" stroke="rgb(248,248,248)" /><path d="M 1875 925 L 1900 900 L 1925 875 L 1975 925 L 2025 975 L 1975 1025 L 1900 1000 Z" fill="rgb(104,104,216)" stroke="rgb(104,104,216)" /><path d="M 1700 900 L 1800 900 L 1825 975 L 1775 1025 L 1725 975 Z" fill="rgb(0,4,0)" stroke="rgb(0,4,0)" /><path d="M 2025 225 L 2100 200 L 2100 300 L 2000 300 Z" fill="rgb(64,64,216)" stroke="rgb(64,64,216)" /><path d="M 1800 1400 L 1900 1400 L 1900 1500 L 1800 1500 Z" fill="rgb(0,4,0)" stroke="rgb(0,4,0)" /><path d="M 2100 300 L 2200 300 L 2200 400 L 2100 400 Z" fill="rgb(104,104,216)" stroke="rgb(104,104,216)" /><path d="M 800 800 L 875 825 L 925 875 L 900 900 L 875 925 L 825 875 Z" fill="rgb(64,64,216)" stroke="rgb(64,64,216)" /><path d="M 3200 500 L 3300 500 L 3300 600 L 3200 600 Z" fill="rgb(0,192,0)" stroke="rgb(0,192,0)" /><path d="M 2200 800 L 2300 800 L 2300 900 L 2200 900 Z" fill="rgb(0,4,0)" stroke="rgb(0,4,0)" /><path d="M 875 525 L 900 500 L 925 475 L 1000 500 L 1000 600 L 925 575 Z" fill="rgb(248,248,248)" stroke="rgb(248,248,248)" /><path d="M 3300 0 L 3350 0 L 3400 0 L 3400 100 L 3300 100 Z" fill="rgb(0,192,0)" stroke="rgb(0,192,0)" /><path d="M 2300 1300 L 2400 1300 L 2400 1400 L 2300 1400 Z" fill="rgb(0,4,0)" stroke="rgb(0,4,0)" /><path d="M 3575 1125 L 3625 1075 L 3675 1125 L 3700 1200 L 3600 1200 Z" fill="rgb(0,4,0)" stroke="rgb(0,4,0)" /><path d="M 1000 200 L 1100 200 L 1100 300 L 1025 275 Z" fill="rgb(248,248,248)" stroke="rgb(248,248,248)" /><path d="M 3400 700 L 3475 675 L 3525 725 L 3475 775 L 3400 800 Z" fill="rgb(0,4,0)" stroke="rgb(0,4,0)" /><path d="M 3700 1000 L 3800 1000 L 3800 1100 L 3725 1075 Z" fill="rgb(0,192,0)" stroke="rgb(0,192,0)" /><path d="M 1075 1125 L 1125 1075 L 1175 1125 L 1175 1150 L 1175 1175 L 1150 1175 L 1125 1175 Z" fill="rgb(0,4,0)" stroke="rgb(0,4,0)" /><path d="M 1400 400 L 1500 400 L 1475 475 L 1425 525 L 1400 500 L 1375 475 Z" fill="rgb(184,40,0)" stroke="rgb(184,40,0)" /><path d="M 3800 100 L 3900 100 L 3900 200 L 3800 200 Z" fill="rgb(0,192,0)" stroke="rgb(0,192,0)" /><path d="M 1225 1225 L 1300 1200 L 1300 1300 L 1225 1325 L 1200 1300 L 1175 1275 Z" fill="rgb(248,248,248)" stroke="rgb(248,248,248)" /><path d="M 2525 1225 L 2600 1200 L 2600 1300 L 2525 1325 L 2475 1275 Z" fill="rgb(0,4,0)" stroke="rgb(0,4,0)" /><path d="M 1525 125 L 1575 75 L 1600 100 L 1625 125 L 1600 200 L 1525 175 Z" fill="rgb(0,4,0)" stroke="rgb(0,4,0)" /><path d="M 3900 400 L 4000 400 L 4000 450 L 4000 500 L 3900 500 Z" fill="rgb(0,192,0)" stroke="rgb(0,192,0)" /><path d="M 2600 1100 L 2700 1100 L 2675 1175 L 2600 1200 Z" fill="rgb(248,248,248)" stroke="rgb(248,248,248)" /><path d="M 0 1000 L 75 1025 L 100 1100 L 0 1100 L 0 1050 Z" fill="rgb(0,192,0)" stroke="rgb(0,192,0)" /><path d="M 275 725 L 300 700 L 325 675 L 400 700 L 400 800 L 300 800 Z" fill="rgb(104,104,216)" stroke="rgb(104,104,216)" /><path d="M 2700 200 L 2800 200 L 2800 300 L 2700 300 Z" fill="rgb(64,64,216)" stroke="rgb(64,64,216)" /><path d="M 100 1100 L 175 1125 L 200 1200 L 100 1200 Z" fill="rgb(0,192,0)" stroke="rgb(0,192,0)" /><path d="M 3000 1300 L 3100 1300 L 3100 1400 L 3000 1400 Z" fill="rgb(0,192,0)" stroke="rgb(0,192,0)" /><path d="M 400 0 L 450 0 L 500 0 L 500 100 L 400 100 Z" fill="rgb(0,192,0)" stroke="rgb(0,192,0)" /><path d="M 2775 525 L 2800 500 L 2825 475 L 2900 500 L 2925 575 L 2875 625 L 2800 600 Z" fill="rgb(64,64,216)" stroke="rgb(64,64,216)" /><path d="M 3075 825 L 3125 775 L 3175 825 L 3200 900 L 3125 875 Z" fill="rgb(64,64,216)" stroke="rgb(64,64,216)" /><path d="M 500 500 L 575 525 L 575 575 L 500 600 Z" fill="rgb(136,136,248)" stroke="rgb(136,136,248)" /><path d="M 2900 800 L 2975 825 L 2975 850 L 2975 875 L 2925 925 L 2900 900 L 2875 875 Z" fill="rgb(136,136,248)" stroke="rgb(136,136,248)" /><path d="M 1575 325 L 1625 275 L 1700 300 L 1700 400 L 1600 400 Z" fill="rgb(0,4,0)" stroke="rgb(0,4,0)" /><path d="M 600 1000 L 700 1000 L 725 1075 L 700 1100 L 675 1125 L 625 1125 L 600 1100 L 575 1075 Z" fill="rgb(0,4,0)" stroke="rgb(0,4,0)" /><path d="M 1900 1400 L 2000 1400 L 2000 1500 L 1900 1500 Z" fill="rgb(0,4,0)" stroke="rgb(0,4,0)" /><path d="M 1700 200 L 1775 225 L 1800 300 L 1700 300 Z" fill="rgb(64,64,216)" stroke="rgb(64,64,216)" /><path d="M 1975 925 L 2000 900 L 2025 875 L 2100 900 L 2075 975 L 2050 975 L 2025 975 Z" fill="rgb(136,136,248)" stroke="rgb(136,136,248)" /><path d="M 1800 900 L 1875 925 L 1900 1000 L 1825 975 Z" fill="rgb(104,104,216)" stroke="rgb(104,104,216)" /><path d="M 2100 1200 L 2200 1200 L 2175 1275 L 2100 1300 Z" fill="rgb(248,248,248)" stroke="rgb(248,248,248)" /><path d="M 800 1500 L 900 1500 L 900 1600 L 850 1600 L 800 1600 Z" fill="rgb(0,4,0)" stroke="rgb(0,4,0)" /><path d="M 2200 300 L 2275 325 L 2325 375 L 2300 400 L 2275 425 L 2200 400 Z" fill="rgb(104,104,216)" stroke="rgb(104,104,216)" /><path d="M 900 1400 L 975 1375 L 1000 1400 L 1025 1425 L 975 1475 L 900 1500 Z" fill="rgb(248,248,248)" stroke="rgb(248,248,248)" /><path d="M 2275 1025 L 2325 975 L 2375 1025 L 2375 1050 L 2375 1075 L 2325 1125 L 2275 1075 Z" fill="rgb(0,4,0)" stroke="rgb(0,4,0)" /><path d="M 1000 1300 L 1100 1300 L 1100 1400 L 1025 1425 L 1000 1400 L 975 1375 Z" fill="rgb(248,248,248)" stroke="rgb(248,248,248)" /><path d="M 1100 0 L 1150 0 L 1200 0 L 1200 100 L 1100 100 Z" fill="rgb(0,192,0)" stroke="rgb(0,192,0)" /><path d="M 1375 1525 L 1400 1500 L 1425 1475 L 1500 1500 L 1500 1600 L 1450 1600 L 1400 1600 Z" fill="rgb(0,192,0)" stroke="rgb(0,192,0)" /><path d="M 1175 1125 L 1200 1100 L 1225 1075 L 1300 1100 L 1300 1200 L 1225 1225 L 1200 1200 L 1175 1175 Z" fill="rgb(248,248,248)" stroke="rgb(248,248,248)" /><path d="M 1500 1400 L 1600 1400 L 1600 1500 L 1500 1500 Z" fill="rgb(0,4,0)" stroke="rgb(0,4,0)" /><path d="M 1300 1000 L 1400 1000 L 1400 1100 L 1300 1100 Z" fill="rgb(248,248,248)" stroke="rgb(248,248,248)" /><path d="M 0 100 L 100 100 L 100 200 L 0 200 L 0 150 Z" fill="rgb(0,192,0)" stroke="rgb(0,192,0)" /><path d="M 300 1200 L 375 1175 L 400 1200 L 425 1225 L 400 1300 L 300 1300 Z" fill="rgb(0,192,0)" stroke="rgb(0,192,0)" /><path d="M 100 1200 L 200 1200 L 200 1300 L 100 1300 Z" fill="rgb(0,192,0)" stroke="rgb(0,192,0)" /><path d="M 400 1500 L 475 1525 L 500 1600 L 450 1600 L 400 1600 Z" fill="rgb(0,192,0)" stroke="rgb(0,192,0)" /><path d="M 175 1125 L 200 1100 L 225 1075 L 300 1100 L 300 1200 L 200 1200 Z" fill="rgb(0,192,0)" stroke="rgb(0,192,0)" /><path d="M 475 1425 L 525 1375 L 575 1425 L 625 1475 L 575 1525 L 525 1475 Z" fill="rgb(0,4,0)" stroke="rgb(0,4,0)" /><path d="M 2875 125 L 2900 100 L 2925 75 L 3000 100 L 3025 175 L 3000 200 L 2975 225 L 2925 175 Z" fill="rgb(0,192,0)" stroke="rgb(0,192,0)" /><path d="M 575 1325 L 600 1300 L 625 1275 L 700 1300 L 700 1400 L 625 1375 Z" fill="rgb(248,248,248)" stroke="rgb(248,248,248)" /><path d="M 700 800 L 800 800 L 825 875 L 800 900 L 775 925 L 700 900 Z" fill="rgb(64,64,216)" stroke="rgb(64,64,216)" /><path d="M 1800 0 L 1850 0 L 1900 0 L 1900 100 L 1800 100 Z" fill="rgb(0,4,0)" stroke="rgb(0,4,0)" /><path d="M 2275 325 L 2300 300 L 2325 275 L 2375 325 L 2400 400 L 2325 375 Z" fill="rgb(64,64,216)" stroke="rgb(64,64,216)" /><path d="M 3200 900 L 3300 900 L 3300 1000 L 3225 975 Z" fill="rgb(104,104,216)" stroke="rgb(104,104,216)" /><path d="M 3500 400 L 3600 400 L 3600 500 L 3500 500 Z" fill="rgb(0,192,0)" stroke="rgb(0,192,0)" /><path d="M 1175 225 L 1200 200 L 1225 175 L 1275 175 L 1300 200 L 1325 225 L 1325 275 L 1275 325 L 1225 275 Z" fill="rgb(0,4,0)" stroke="rgb(0,4,0)" /><path d="M 3600 700 L 3700 700 L 3725 775 L 3700 800 L 3675 825 L 3600 800 Z" fill="rgb(64,64,216)" stroke="rgb(64,64,216)" /><path d="M 1275 325 L 1325 275 L 1375 325 L 1400 400 L 1300 400 Z" fill="rgb(0,4,0)" stroke="rgb(0,4,0)" /><path d="M 3700 600 L 3775 625 L 3825 675 L 3775 725 L 3700 700 Z" fill="rgb(0,4,0)" stroke="rgb(0,4,0)" /><path d="M 2375 525 L 2400 500 L 2425 475 L 2475 525 L 2500 600 L 2425 575 Z" fill="rgb(104,104,216)" stroke="rgb(104,104,216)" /><path d="M 125 525 L 175 475 L 225 525 L 200 600 L 100 600 Z" fill="rgb(136,136,248)" stroke="rgb(136,136,248)" /><path d="M 2500 0 L 2550 0 L 2600 0 L 2600 100 L 2525 125 L 2500 100 L 2475 75 Z" fill="rgb(0,192,0)" stroke="rgb(0,192,0)" /><path d="M 200 200 L 300 200 L 300 300 L 225 325 L 200 300 L 175 275 Z" fill="rgb(0,192,0)" stroke="rgb(0,192,0)" /><path d="M 2575 725 L 2625 675 L 2700 700 L 2700 800 L 2600 800 Z" fill="rgb(136,136,248)" stroke="rgb(136,136,248)" /><path d="M 575 425 L 625 375 L 675 375 L 700 400 L 725 425 L 700 500 L 625 475 Z" fill="rgb(0,4,0)" stroke="rgb(0,4,0)" /><path d="M 3000 100 L 3100 100 L 3100 200 L 3025 175 Z" fill="rgb(0,192,0)" stroke="rgb(0,192,0)" /><path d="M 700 100 L 800 100 L 800 200 L 700 200 Z" fill="rgb(0,4,0)" stroke="rgb(0,4,0)" /><path d="M 3100 400 L 3200 400 L 3200 500 L 3100 500 Z" fill="rgb(0,192,0)" stroke="rgb(0,192,0)" /><path d="M 1900 200 L 1975 175 L 2000 200 L 2025 225 L 2000 300 L 1900 300 Z" fill="rgb(64,64,216)" stroke="rgb(64,64,216)" /><path d="M 2000 500 L 2100 500 L 2100 600 L 2000 600 Z" fill="rgb(136,136,248)" stroke="rgb(136,136,248)" /><path d="M 775 325 L 800 300 L 825 275 L 875 275 L 900 300 L 925 325 L 925 375 L 900 400 L 875 425 L 800 400 Z" fill="rgb(248,248,248)" stroke="rgb(248,248,248)" /><path d="M 3200 0 L 3250 0 L 3300 0 L 3300 100 L 3200 100 Z" fill="rgb(0,192,0)" stroke="rgb(0,192,0)" /><path d="M 3525 1325 L 3600 1300 L 3575 1375 L 3525 1425 L 3500 1400 L 3475 1375 Z" fill="rgb(64,64,216)" stroke="rgb(64,64,216)" /><path d="M 900 200 L 1000 200 L 1025 275 L 1000 300 L 975 325 L 925 325 L 900 300 L 875 275 Z" fill="rgb(248,248,248)" stroke="rgb(248,248,248)" /><path d="M 3300 1300 L 3400 1300 L 3400 1400 L 3300 1400 Z" fill="rgb(64,64,216)" stroke="rgb(64,64,216)" /><path d="M 3625 1425 L 3675 1375 L 3700 1400 L 3725 1425 L 3700 1500 L 3625 1525 L 3600 1500 L 3575 1475 Z" fill="rgb(0,192,0)" stroke="rgb(0,192,0)" /><path d="M 3425 1025 L 3475 975 L 3525 1025 L 3500 1100 L 3425 1075 L 3425 1050 Z" fill="rgb(104,104,216)" stroke="rgb(104,104,216)" /><path d="M 3700 1500 L 3800 1500 L 3800 1600 L 3750 1600 L 3700 1600 Z" fill="rgb(0,192,0)" stroke="rgb(0,192,0)" /><path d="M 2400 1200 L 2475 1175 L 2500 1200 L 2525 1225 L 2475 1275 L 2400 1300 Z" fill="rgb(248,248,248)" stroke="rgb(248,248,248)" /><path d="M 1375 325 L 1400 300 L 1425 275 L 1475 325 L 1500 400 L 1400 400 Z" fill="rgb(248,136,0)" stroke="rgb(248,136,0)" /><path d="M 3800 1200 L 3900 1200 L 3900 1300 L 3800 1300 Z" fill="rgb(0,192,0)" stroke="rgb(0,192,0)" /><path d="M 2500 900 L 2575 925 L 2600 1000 L 2500 1000 Z" fill="rgb(248,248,248)" stroke="rgb(248,248,248)" /><path d="M 3925 925 L 4000 900 L 4000 950 L 4000 1000 L 3925 1025 L 3900 1000 L 3875 975 Z" fill="rgb(0,192,0)" stroke="rgb(0,192,0)" /><path d="M 2600 1400 L 2700 1400 L 2700 1500 L 2600 1500 Z" fill="rgb(0,192,0)" stroke="rgb(0,192,0)" /><path d="M 300 0 L 350 0 L 400 0 L 400 100 L 300 100 Z" fill="rgb(0,192,0)" stroke="rgb(0,192,0)" /><path d="M 2700 1500 L 2800 1500 L 2800 1600 L 2750 1600 L 2700 1600 Z" fill="rgb(0,192,0)" stroke="rgb(0,192,0)" /><path d="M 2975 825 L 3025 775 L 3075 825 L 3125 875 L 3100 900 L 3075 925 L 3025 925 L 3000 900 L 2975 875 Z" fill="rgb(104,104,216)" stroke="rgb(104,104,216)" /><path d="M 2775 825 L 2800 800 L 2825 775 L 2900 800 L 2875 875 L 2800 900 Z" fill="rgb(136,136,248)" stroke="rgb(136,136,248)" /><path d="M 3100 1300 L 3200 1300 L 3200 1400 L 3100 1400 Z" fill="rgb(0,192,0)" stroke="rgb(0,192,0)" /><path d="M 2900 1300 L 3000 1300 L 3000 1400 L 2900 1400 Z" fill="rgb(0,192,0)" stroke="rgb(0,192,0)" /><path d="M 1600 1400 L 1700 1400 L 1700 1500 L 1600 1500 Z" fill="rgb(0,4,0)" stroke="rgb(0,4,0)" /><path d="M 1900 1100 L 1975 1125 L 2025 1175 L 2000 1200 L 1975 1225 L 1900 1200 Z" fill="rgb(248,248,248)" stroke="rgb(248,248,248)" /><path d="M 1700 1500 L 1800 1500 L 1800 1600 L 1750 1600 L 1700 1600 Z" fill="rgb(0,192,0)" stroke="rgb(0,192,0)" /><path d="M 1975 1225 L 2000 1200 L 2025 1175 L 2100 1200 L 2100 1300 L 2000 1300 Z" fill="rgb(248,248,248)" stroke="rgb(248,248,248)" /><path d="M 1800 1200 L 1900 1200 L 1900 1300 L 1800 1300 Z" fill="rgb(248,248,248)" stroke="rgb(248,248,248)" /><path d="M 2100 100 L 2175 125 L 2225 175 L 2200 200 L 2175 225 L 2100 200 Z" fill="rgb(64,64,216)" stroke="rgb(64,64,216)" /><path d="M 775 1025 L 800 1000 L 825 975 L 900 1000 L 900 1100 L 800 1100 Z" fill="rgb(0,4,0)" stroke="rgb(0,4,0)" /><path d="M 3175 725 L 3200 700 L 3225 675 L 3275 675 L 3300 700 L 3325 725 L 3275 775 L 3250 775 L 3225 775 Z" fill="rgb(0,192,0)" stroke="rgb(0,192,0)" /><path d="M 2225 1425 L 2300 1400 L 2300 1500 L 2225 1525 L 2200 1500 L 2175 1475 Z" fill="rgb(0,192,0)" stroke="rgb(0,192,0)" /><path d="M 900 1100 L 975 1125 L 1000 1200 L 925 1225 L 900 1200 L 875 1175 Z" fill="rgb(248,248,248)" stroke="rgb(248,248,248)" /><path d="M 3300 600 L 3400 600 L 3400 700 L 3325 725 L 3300 700 L 3275 675 Z" fill="rgb(0,192,0)" stroke="rgb(0,192,0)" /><path d="M 2300 1500 L 2400 1500 L 2400 1600 L 2350 1600 L 2300 1600 Z" fill="rgb(0,192,0)" stroke="rgb(0,192,0)" /><path d="M 1000 0 L 1050 0 L 1100 0 L 1100 100 L 1000 100 Z" fill="rgb(0,192,0)" stroke="rgb(0,192,0)" /><path d="M 3400 500 L 3500 500 L 3475 575 L 3400 600 Z" fill="rgb(0,192,0)" stroke="rgb(0,192,0)" /><path d="M 3675 825 L 3700 800 L 3725 775 L 3775 825 L 3800 900 L 3700 900 Z" fill="rgb(64,64,216)" stroke="rgb(64,64,216)" /><path d="M 1100 1300 L 1175 1275 L 1200 1300 L 1225 1325 L 1175 1375 L 1100 1400 Z" fill="rgb(248,248,248)" stroke="rgb(248,248,248)" /><path d="M 1400 1000 L 1500 1000 L 1500 1100 L 1400 1100 Z" fill="rgb(248,248,248)" stroke="rgb(248,248,248)" /><path d="M 3775 725 L 3825 675 L 3875 725 L 3925 775 L 3875 825 L 3825 775 Z" fill="rgb(0,4,0)" stroke="rgb(0,4,0)" /><path d="M 1225 1425 L 1300 1400 L 1300 1500 L 1225 1525 L 1200 1500 L 1175 1475 Z" fill="rgb(0,192,0)" stroke="rgb(0,192,0)" /><path d="M 1475 325 L 1500 300 L 1525 275 L 1575 325 L 1600 400 L 1500 400 Z" fill="rgb(248,136,0)" stroke="rgb(248,136,0)" /><path d="M 3900 600 L 4000 600 L 4000 650 L 4000 700 L 3925 675 Z" fill="rgb(0,192,0)" stroke="rgb(0,192,0)" /><path d="M 1300 1500 L 1375 1525 L 1400 1600 L 1350 1600 L 1300 1600 Z" fill="rgb(0,192,0)" stroke="rgb(0,192,0)" /><path d="M 2575 925 L 2600 900 L 2625 875 L 2675 925 L 2700 1000 L 2600 1000 Z" fill="rgb(248,248,248)" stroke="rgb(248,248,248)" /><path d="M 0 1200 L 100 1200 L 100 1300 L 0 1300 L 0 1250 Z" fill="rgb(0,192,0)" stroke="rgb(0,192,0)" /><path d="M 300 900 L 400 900 L 400 1000 L 300 1000 Z" fill="rgb(64,64,216)" stroke="rgb(64,64,216)" /><path d="M 2700 400 L 2775 425 L 2825 475 L 2800 500 L 2775 525 L 2725 475 Z" fill="rgb(64,64,216)" stroke="rgb(64,64,216)" /><path d="M 75 925 L 125 875 L 175 925 L 225 975 L 175 1025 L 125 975 Z" fill="rgb(0,4,0)" stroke="rgb(0,4,0)" /><path d="M 400 200 L 475 175 L 500 200 L 525 225 L 475 275 L 400 300 Z" fill="rgb(0,192,0)" stroke="rgb(0,192,0)" /><path d="M 2775 725 L 2800 700 L 2825 675 L 2875 725 L 2900 800 L 2825 775 Z" fill="rgb(104,104,216)" stroke="rgb(104,104,216)" /><path d="M 200 1400 L 300 1400 L 300 1500 L 200 1500 Z" fill="rgb(0,192,0)" stroke="rgb(0,192,0)" /><path d="M 3100 1000 L 3175 1025 L 3225 1075 L 3175 1125 L 3100 1100 Z" fill="rgb(0,4,0)" stroke="rgb(0,4,0)" /><path d="M 525 325 L 600 300 L 625 375 L 575 425 L 500 400 Z" fill="rgb(0,4,0)" stroke="rgb(0,4,0)" /><path d="M 2875 625 L 2925 575 L 3000 600 L 3025 675 L 2975 725 L 2925 675 Z" fill="rgb(64,64,216)" stroke="rgb(64,64,216)" /><path d="M 1625 525 L 1700 500 L 1700 600 L 1625 625 L 1600 600 L 1575 575 Z" fill="rgb(136,136,248)" stroke="rgb(136,136,248)" /><path d="M 600 800 L 700 800 L 700 900 L 600 900 Z" fill="rgb(64,64,216)" stroke="rgb(64,64,216)" /><path d="M 1700 0 L 1750 0 L 1800 0 L 1800 100 L 1700 100 Z" fill="rgb(0,4,0)" stroke="rgb(0,4,0)" /><path d="M 700 1300 L 775 1275 L 800 1300 L 825 1325 L 800 1400 L 700 1400 Z" fill="rgb(248,248,248)" stroke="rgb(248,248,248)" /><path d="M 1975 1125 L 2025 1075 L 2100 1100 L 2100 1200 L 2025 1175 Z" fill="rgb(0,4,0)" stroke="rgb(0,4,0)" /><path d="M 1800 700 L 1875 675 L 1925 725 L 1900 800 L 1800 800 Z" fill="rgb(104,104,216)" stroke="rgb(104,104,216)" /><path d="M 2125 1025 L 2175 1025 L 2200 1100 L 2100 1100 Z" fill="rgb(104,104,216)" stroke="rgb(104,104,216)" /><path d="M 2175 125 L 2225 75 L 2300 100 L 2300 200 L 2225 175 Z" fill="rgb(0,4,0)" stroke="rgb(0,4,0)" /><path d="M 925 1225 L 1000 1200 L 1000 1300 L 900 1300 Z" fill="rgb(248,248,248)" stroke="rgb(248,248,248)" /><path d="M 2275 425 L 2300 400 L 2325 375 L 2400 400 L 2425 475 L 2400 500 L 2375 525 L 2300 500 Z" fill="rgb(104,104,216)" stroke="rgb(104,104,216)" /><path d="M 975 1125 L 1000 1100 L 1025 1075 L 1075 1125 L 1125 1175 L 1100 1200 L 1075 1225 L 1000 1200 Z" fill="rgb(248,248,248)" stroke="rgb(248,248,248)" /><path d="M 1100 200 L 1175 225 L 1225 275 L 1200 300 L 1175 325 L 1100 300 Z" fill="rgb(248,248,248)" stroke="rgb(248,248,248)" /><path d="M 3500 100 L 3600 100 L 3600 200 L 3500 200 Z" fill="rgb(0,192,0)" stroke="rgb(0,192,0)" /><path d="M 1375 1325 L 1400 1300 L 1425 1275 L 1500 1300 L 1500 1400 L 1425 1375 Z" fill="rgb(248,248,248)" stroke="rgb(248,248,248)" /><path d="M 1225 525 L 1275 475 L 1325 525 L 1325 575 L 1300 600 L 1275 625 L 1225 625 L 1200 600 L 1175 575 Z" fill="rgb(0,4,0)" stroke="rgb(0,4,0)" /><path d="M 1500 800 L 1575 825 L 1600 900 L 1500 900 Z" fill="rgb(248,248,248)" stroke="rgb(248,248,248)" /><path d="M 1300 800 L 1400 800 L 1400 900 L 1300 900 Z" fill="rgb(248,248,248)" stroke="rgb(248,248,248)" /><path d="M 0 300 L 100 300 L 75 375 L 0 400 L 0 350 Z" fill="rgb(0,192,0)" stroke="rgb(0,192,0)" /><path d="M 2400 0 L 2450 0 L 2500 0 L 2475 75 L 2425 75 Z" fill="rgb(0,192,0)" stroke="rgb(0,192,0)" /><path d="M 300 1400 L 375 1425 L 400 1500 L 300 1500 Z" fill="rgb(0,192,0)" stroke="rgb(0,192,0)" /><path d="M 100 200 L 200 200 L 175 275 L 100 300 Z" fill="rgb(0,192,0)" stroke="rgb(0,192,0)" /><path d="M 400 900 L 475 875 L 500 900 L 525 925 L 475 975 L 400 1000 Z" fill="rgb(64,64,216)" stroke="rgb(64,64,216)" /><path d="M 175 925 L 200 900 L 225 875 L 300 900 L 300 1000 L 225 975 Z" fill="rgb(64,64,216)" stroke="rgb(64,64,216)" /><path d="M 525 1225 L 575 1175 L 625 1225 L 625 1275 L 600 1300 L 575 1325 L 500 1300 Z" fill="rgb(248,248,248)" stroke="rgb(248,248,248)" /><path d="M 600 300 L 675 275 L 700 300 L 725 325 L 675 375 L 650 375 L 625 375 Z" fill="rgb(248,248,248)" stroke="rgb(248,248,248)" /><path d="M 700 1000 L 775 1025 L 800 1100 L 725 1075 Z" fill="rgb(0,4,0)" stroke="rgb(0,4,0)" /><path d="M 3175 1125 L 3225 1075 L 3275 1125 L 3300 1200 L 3200 1200 Z" fill="rgb(0,4,0)" stroke="rgb(0,4,0)" /><path d="M 3525 625 L 3600 600 L 3600 700 L 3525 725 L 3475 675 Z" fill="rgb(0,4,0)" stroke="rgb(0,4,0)" /><path d="M 3300 1000 L 3375 975 L 3400 1000 L 3425 1025 L 3425 1075 L 3375 1125 L 3325 1075 Z" fill="rgb(136,136,248)" stroke="rgb(136,136,248)" /><path d="M 3600 100 L 3700 100 L 3700 200 L 3600 200 Z" fill="rgb(0,192,0)" stroke="rgb(0,192,0)" /><path d="M 1300 100 L 1400 100 L 1400 200 L 1325 225 L 1300 200 L 1275 175 Z" fill="rgb(0,4,0)" stroke="rgb(0,4,0)" /><path d="M 3700 400 L 3800 400 L 3800 500 L 3700 500 Z" fill="rgb(0,192,0)" stroke="rgb(0,192,0)" /><path d="M 2375 725 L 2400 700 L 2425 675 L 2500 700 L 2500 800 L 2400 800 Z" fill="rgb(248,248,248)" stroke="rgb(248,248,248)" /><path d="M 3800 1100 L 3900 1100 L 3900 1200 L 3800 1200 Z" fill="rgb(0,192,0)" stroke="rgb(0,192,0)" /><path d="M 2500 600 L 2575 625 L 2625 675 L 2575 725 L 2500 700 Z" fill="rgb(136,136,248)" stroke="rgb(136,136,248)" /><path d="M 200 0 L 250 0 L 300 0 L 300 100 L 200 100 Z" fill="rgb(0,192,0)" stroke="rgb(0,192,0)" /><path d="M 2600 500 L 2675 525 L 2725 575 L 2700 600 L 2675 625 L 2625 575 Z" fill="rgb(104,104,216)" stroke="rgb(104,104,216)" /><path d="M 2700 800 L 2775 825 L 2800 900 L 2725 875 Z" fill="rgb(136,136,248)" stroke="rgb(136,136,248)" /><path d="M 2975 725 L 3025 675 L 3075 725 L 3125 775 L 3075 825 L 3025 775 Z" fill="rgb(64,64,216)" stroke="rgb(64,64,216)" /></svg>