<?xml version="1.0" encoding="utf-8" ?>
<svg baseProfile="full" height="100%" version="1.1" width="100%" xmlns="http://www.w3.org/2000/svg" xmlns:ev="http://www.w3.org/2001/xml-events" xmlns:xlink="http://www.w3.org/1999/xlink"><defs /><path d="M 725 325 L 800 300 L 800 400 L 725 425 L 700 400 L 675 375 Z" fill="rgb(0,0,0)" stroke="rgb(0,0,0)" /><path d="M 625 925 L 675 875 L 700 900 L 725 925 L 700 1000 L 600 1000 Z" fill="rgb(0,0,0)" stroke="rgb(0,0,0)" /><path d="M 1175 125 L 1200 100 L 1225 75 L 1300 100 L 1300 200 L 1200 200 Z" fill="rgb(157,159,159)" stroke="rgb(157,159,159)" /><path d="M 1100 1100 L 1175 1075 L 1200 1100 L 1225 1125 L 1200 1200 L 1125 1175 Z" fill="rgb(157,159,159)" stroke="rgb(157,159,159)" /><path d="M 1000 1700 L 1075 1675 L 1100 1700 L 1125 1725 L 1125 1775 L 1100 1800 L 1075 1825 L 1025 1775 Z" fill="rgb(157,159,159)" stroke="rgb(157,159,159)" /><path d="M 700 1200 L 800 1200 L 800 1300 L 725 1325 L 700 1300 L 675 1275 Z" fill="rgb(64,128,152)" stroke="rgb(64,128,152)" /><path d="M 1275 425 L 1300 400 L 1325 375 L 1400 400 L 1400 450 L 1400 500 L 1300 500 Z" fill="rgb(0,0,0)" stroke="rgb(0,0,0)" /><path d="M 1200 1200 L 1300 1200 L 1300 1300 L 1225 1275 Z" fill="rgb(157,159,159)" stroke="rgb(157,159,159)" /><path d="M 100 1700 L 175 1725 L 200 1800 L 100 1800 Z" fill="rgb(157,159,159)" stroke="rgb(157,159,159)" /><path d="M 0 700 L 100 700 L 100 800 L 0 800 L 0 750 Z" fill="rgb(80,0,0)" stroke="rgb(80,0,0)" /><path d="M 1300 1700 L 1400 1700 L 1400 1750 L 1400 1800 L 1300 1800 Z" fill="rgb(157,159,159)" stroke="rgb(157,159,159)" /><path d="M 125 625 L 175 575 L 225 625 L 200 700 L 100 700 Z" fill="rgb(248,208,192)" stroke="rgb(248,208,192)" /><path d="M 0 1000 L 75 1025 L 100 1100 L 0 1100 L 0 1050 Z" fill="rgb(157,159,159)" stroke="rgb(157,159,159)" /><path d="M 300 700 L 400 700 L 400 800 L 300 800 Z" fill="rgb(248,208,192)" stroke="rgb(248,208,192)" /><path d="M 200 500 L 300 500 L 325 575 L 275 625 L 225 625 L 175 575 Z" fill="rgb(248,208,192)" stroke="rgb(248,208,192)" /><path d="M 100 1100 L 175 1125 L 175 1175 L 100 1200 Z" fill="rgb(157,159,159)" stroke="rgb(157,159,159)" /><path d="M 825 525 L 850 525 L 875 525 L 900 600 L 800 600 Z" fill="rgb(248,112,104)" stroke="rgb(248,112,104)" /><path d="M 525 825 L 575 775 L 600 800 L 625 825 L 575 875 L 500 900 Z" fill="rgb(248,208,192)" stroke="rgb(248,208,192)" /><path d="M 400 0 L 450 0 L 500 0 L 500 100 L 425 125 L 400 100 L 375 75 Z" fill="rgb(157,159,159)" stroke="rgb(157,159,159)" /><path d="M 1000 800 L 1100 800 L 1100 900 L 1000 900 Z" fill="rgb(248,112,104)" stroke="rgb(248,112,104)" /><path d="M 900 0 L 950 0 L 1000 0 L 1000 100 L 900 100 Z" fill="rgb(80,0,0)" stroke="rgb(80,0,0)" /><path d="M 600 700 L 675 725 L 675 775 L 625 825 L 600 800 L 575 775 Z" fill="rgb(248,208,192)" stroke="rgb(248,208,192)" /><path d="M 525 525 L 575 475 L 600 500 L 625 525 L 575 575 L 525 625 L 500 600 L 475 575 Z" fill="rgb(0,0,0)" stroke="rgb(0,0,0)" /><path d="M 375 1925 L 400 1900 L 425 1875 L 500 1900 L 500 2000 L 450 2000 L 400 2000 Z" fill="rgb(0,0,0)" stroke="rgb(0,0,0)" /><path d="M 1100 500 L 1200 500 L 1200 600 L 1100 600 Z" fill="rgb(157,159,159)" stroke="rgb(157,159,159)" /><path d="M 1025 725 L 1075 725 L 1100 800 L 1000 800 Z" fill="rgb(248,208,192)" stroke="rgb(248,208,192)" /><path d="M 700 600 L 800 600 L 775 675 L 750 675 L 725 675 Z" fill="rgb(0,0,0)" stroke="rgb(0,0,0)" /><path d="M 600 1000 L 700 1000 L 700 1100 L 600 1100 Z" fill="rgb(248,112,104)" stroke="rgb(248,112,104)" /><path d="M 500 1800 L 600 1800 L 600 1900 L 500 1900 Z" fill="rgb(136,88,24)" stroke="rgb(136,88,24)" /><path d="M 1200 600 L 1275 625 L 1325 675 L 1275 725 L 1200 700 Z" fill="rgb(136,88,24)" stroke="rgb(136,88,24)" /><path d="M 975 1825 L 1025 1775 L 1075 1825 L 1100 1900 L 1025 1925 L 1000 1900 L 975 1875 Z" fill="rgb(0,0,0)" stroke="rgb(0,0,0)" /><path d="M 0 1700 L 100 1700 L 100 1800 L 0 1800 L 0 1750 Z" fill="rgb(157,159,159)" stroke="rgb(157,159,159)" /><path d="M 700 1900 L 775 1875 L 800 1900 L 825 1925 L 800 2000 L 750 2000 L 700 2000 Z" fill="rgb(0,0,0)" stroke="rgb(0,0,0)" /><path d="M 1275 725 L 1325 675 L 1400 700 L 1400 750 L 1400 800 L 1300 800 Z" fill="rgb(136,88,24)" stroke="rgb(136,88,24)" /><path d="M 1200 1700 L 1300 1700 L 1300 1800 L 1200 1800 Z" fill="rgb(157,159,159)" stroke="rgb(157,159,159)" /><path d="M 0 400 L 75 375 L 100 400 L 125 425 L 100 500 L 0 500 L 0 450 Z" fill="rgb(157,159,159)" stroke="rgb(157,159,159)" /><path d="M 100 100 L 200 100 L 200 200 L 100 200 Z" fill="rgb(157,159,159)" stroke="rgb(157,159,159)" /><path d="M 800 1500 L 900 1500 L 925 1575 L 875 1625 L 825 1625 L 800 1600 L 775 1575 Z" fill="rgb(64,128,152)" stroke="rgb(64,128,152)" /><path d="M 400 1000 L 475 1025 L 525 1075 L 475 1125 L 400 1100 Z" fill="rgb(136,88,24)" stroke="rgb(136,88,24)" /><path d="M 325 225 L 375 175 L 425 225 L 400 300 L 325 325 L 275 275 Z" fill="rgb(80,0,0)" stroke="rgb(80,0,0)" /><path d="M 225 625 L 250 625 L 275 625 L 300 700 L 200 700 Z" fill="rgb(136,88,24)" stroke="rgb(136,88,24)" /><path d="M 900 1400 L 1000 1400 L 1025 1475 L 1000 1500 L 975 1525 L 900 1500 Z" fill="rgb(128,216,200)" stroke="rgb(128,216,200)" /><path d="M 800 200 L 900 200 L 900 300 L 800 300 Z" fill="rgb(216,160,56)" stroke="rgb(216,160,56)" /><path d="M 475 1125 L 525 1075 L 600 1100 L 600 1200 L 500 1200 Z" fill="rgb(136,88,24)" stroke="rgb(136,88,24)" /><path d="M 400 500 L 475 475 L 500 500 L 525 525 L 475 575 L 425 575 Z" fill="rgb(0,0,0)" stroke="rgb(0,0,0)" /><path d="M 1000 1300 L 1075 1325 L 1100 1400 L 1000 1400 Z" fill="rgb(248,248,248)" stroke="rgb(248,248,248)" /><path d="M 900 300 L 1000 300 L 1000 400 L 900 400 Z" fill="rgb(0,0,0)" stroke="rgb(0,0,0)" /><path d="M 600 0 L 650 0 L 700 0 L 700 100 L 625 125 L 575 75 Z" fill="rgb(80,0,0)" stroke="rgb(80,0,0)" /><path d="M 400 1600 L 500 1600 L 475 1675 L 400 1700 Z" fill="rgb(248,248,248)" stroke="rgb(248,248,248)" /><path d="M 1100 0 L 1150 0 L 1200 0 L 1225 75 L 1200 100 L 1175 125 L 1125 75 Z" fill="rgb(157,159,159)" stroke="rgb(157,159,159)" /><path d="M 875 1625 L 925 1575 L 1000 1600 L 1000 1700 L 900 1700 Z" fill="rgb(64,128,152)" stroke="rgb(64,128,152)" /><path d="M 675 525 L 700 500 L 725 475 L 775 475 L 800 500 L 825 525 L 800 600 L 700 600 Z" fill="rgb(0,0,0)" stroke="rgb(0,0,0)" /><path d="M 1225 1125 L 1300 1100 L 1300 1200 L 1200 1200 Z" fill="rgb(157,159,159)" stroke="rgb(157,159,159)" /><path d="M 1325 1025 L 1400 1000 L 1400 1050 L 1400 1100 L 1300 1100 Z" fill="rgb(157,159,159)" stroke="rgb(157,159,159)" /><path d="M 175 1725 L 200 1700 L 225 1675 L 275 1725 L 300 1800 L 200 1800 Z" fill="rgb(157,159,159)" stroke="rgb(157,159,159)" /><path d="M 0 100 L 100 100 L 100 200 L 0 200 L 0 150 Z" fill="rgb(157,159,159)" stroke="rgb(157,159,159)" /><path d="M 325 1225 L 375 1175 L 400 1200 L 425 1225 L 400 1300 L 300 1300 Z" fill="rgb(176,40,96)" stroke="rgb(176,40,96)" /><path d="M 100 1200 L 175 1175 L 200 1200 L 225 1225 L 200 1300 L 100 1300 Z" fill="rgb(157,159,159)" stroke="rgb(157,159,159)" /><path d="M 800 1200 L 900 1200 L 925 1275 L 900 1300 L 875 1325 L 800 1300 Z" fill="rgb(128,216,200)" stroke="rgb(128,216,200)" /><path d="M 400 1500 L 475 1475 L 500 1500 L 525 1525 L 500 1600 L 400 1600 Z" fill="rgb(248,248,248)" stroke="rgb(248,248,248)" /><path d="M 300 100 L 375 75 L 400 100 L 425 125 L 375 175 L 325 225 L 300 200 L 275 175 Z" fill="rgb(157,159,159)" stroke="rgb(157,159,159)" /><path d="M 175 1125 L 200 1100 L 225 1075 L 300 1100 L 275 1175 L 225 1225 L 200 1200 L 175 1175 Z" fill="rgb(157,159,159)" stroke="rgb(157,159,159)" /><path d="M 900 900 L 1000 900 L 1000 1000 L 900 1000 Z" fill="rgb(0,0,0)" stroke="rgb(0,0,0)" /><path d="M 500 1400 L 575 1425 L 575 1450 L 575 1475 L 525 1525 L 500 1500 L 475 1475 Z" fill="rgb(248,248,248)" stroke="rgb(248,248,248)" /><path d="M 300 1800 L 375 1825 L 425 1875 L 400 1900 L 375 1925 L 300 1900 Z" fill="rgb(0,0,0)" stroke="rgb(0,0,0)" /><path d="M 1000 1400 L 1100 1400 L 1100 1500 L 1025 1475 Z" fill="rgb(248,248,248)" stroke="rgb(248,248,248)" /><path d="M 775 1825 L 825 1775 L 875 1775 L 925 1825 L 925 1875 L 900 1900 L 875 1925 L 825 1925 L 800 1900 L 775 1875 Z" fill="rgb(0,0,0)" stroke="rgb(0,0,0)" /><path d="M 600 1300 L 675 1275 L 700 1300 L 725 1325 L 700 1400 L 625 1375 Z" fill="rgb(64,128,152)" stroke="rgb(64,128,152)" /><path d="M 1100 1500 L 1200 1500 L 1175 1575 L 1125 1625 L 1075 1575 Z" fill="rgb(32,48,136)" stroke="rgb(32,48,136)" /><path d="M 875 1925 L 900 1900 L 925 1875 L 975 1875 L 1000 1900 L 1025 1925 L 1000 2000 L 950 2000 L 900 2000 Z" fill="rgb(0,0,0)" stroke="rgb(0,0,0)" /><path d="M 725 825 L 800 800 L 825 875 L 800 900 L 775 925 L 725 925 L 700 900 L 675 875 Z" fill="rgb(0,0,0)" stroke="rgb(0,0,0)" /><path d="M 600 1600 L 700 1600 L 700 1700 L 625 1675 Z" fill="rgb(64,128,152)" stroke="rgb(64,128,152)" /><path d="M 1300 0 L 1350 0 L 1400 0 L 1400 50 L 1400 100 L 1300 100 Z" fill="rgb(157,159,159)" stroke="rgb(157,159,159)" /><path d="M 1200 800 L 1300 800 L 1300 900 L 1200 900 Z" fill="rgb(248,112,104)" stroke="rgb(248,112,104)" /><path d="M 1125 1625 L 1175 1575 L 1200 1600 L 1225 1625 L 1200 1700 L 1125 1725 L 1100 1700 L 1075 1675 Z" fill="rgb(157,159,159)" stroke="rgb(157,159,159)" /><path d="M 1300 1300 L 1400 1300 L 1400 1350 L 1400 1400 L 1300 1400 Z" fill="rgb(157,159,159)" stroke="rgb(157,159,159)" /><path d="M 200 1800 L 300 1800 L 300 1900 L 200 1900 Z" fill="rgb(157,159,159)" stroke="rgb(157,159,159)" /><path d="M 0 1400 L 100 1400 L 100 1500 L 0 1500 L 0 1450 Z" fill="rgb(157,159,159)" stroke="rgb(157,159,159)" /><path d="M 300 1100 L 400 1100 L 375 1175 L 325 1225 L 275 1175 Z" fill="rgb(80,0,0)" stroke="rgb(80,0,0)" /><path d="M 200 100 L 300 100 L 275 175 L 200 200 Z" fill="rgb(157,159,159)" stroke="rgb(157,159,159)" /><path d="M 100 1500 L 200 1500 L 200 1600 L 100 1600 Z" fill="rgb(157,159,159)" stroke="rgb(157,159,159)" /><path d="M 775 925 L 800 900 L 825 875 L 900 900 L 900 1000 L 825 975 Z" fill="rgb(0,0,0)" stroke="rgb(0,0,0)" /><path d="M 425 1225 L 500 1200 L 500 1300 L 400 1300 Z" fill="rgb(176,40,96)" stroke="rgb(176,40,96)" /><path d="M 225 1225 L 275 1175 L 325 1225 L 300 1300 L 200 1300 Z" fill="rgb(80,0,0)" stroke="rgb(80,0,0)" /><path d="M 900 400 L 1000 400 L 975 475 L 925 475 Z" fill="rgb(0,0,0)" stroke="rgb(0,0,0)" /><path d="M 500 100 L 575 75 L 625 125 L 575 175 L 500 200 Z" fill="rgb(80,0,0)" stroke="rgb(80,0,0)" /><path d="M 275 1725 L 325 1675 L 400 1700 L 425 1775 L 400 1800 L 375 1825 L 300 1800 Z" fill="rgb(136,88,24)" stroke="rgb(136,88,24)" /><path d="M 1000 300 L 1100 300 L 1100 400 L 1000 400 Z" fill="rgb(0,0,0)" stroke="rgb(0,0,0)" /><path d="M 700 200 L 800 200 L 800 300 L 725 325 L 700 300 L 675 275 Z" fill="rgb(176,40,96)" stroke="rgb(176,40,96)" /><path d="M 575 1425 L 625 1375 L 700 1400 L 700 1500 L 625 1525 L 575 1475 Z" fill="rgb(136,88,24)" stroke="rgb(136,88,24)" /><path d="M 1200 200 L 1300 200 L 1325 275 L 1300 300 L 1275 325 L 1200 300 Z" fill="rgb(157,159,159)" stroke="rgb(157,159,159)" /><path d="M 1100 1000 L 1175 975 L 1200 1000 L 1225 1025 L 1175 1075 L 1100 1100 Z" fill="rgb(0,0,0)" stroke="rgb(0,0,0)" /><path d="M 700 1500 L 800 1500 L 775 1575 L 700 1600 Z" fill="rgb(64,128,152)" stroke="rgb(64,128,152)" /><path d="M 1275 325 L 1300 300 L 1325 275 L 1400 300 L 1400 350 L 1400 400 L 1325 375 Z" fill="rgb(157,159,159)" stroke="rgb(157,159,159)" /><path d="M 1175 1325 L 1200 1300 L 1225 1275 L 1300 1300 L 1300 1400 L 1200 1400 Z" fill="rgb(157,159,159)" stroke="rgb(157,159,159)" /><path d="M 100 1600 L 200 1600 L 225 1675 L 200 1700 L 175 1725 L 100 1700 Z" fill="rgb(157,159,159)" stroke="rgb(157,159,159)" /><path d="M 1300 1600 L 1400 1600 L 1400 1650 L 1400 1700 L 1300 1700 Z" fill="rgb(157,159,159)" stroke="rgb(157,159,159)" /><path d="M 100 500 L 200 500 L 175 575 L 125 625 L 75 575 Z" fill="rgb(80,0,0)" stroke="rgb(80,0,0)" /><path d="M 0 1100 L 100 1100 L 100 1200 L 0 1200 L 0 1150 Z" fill="rgb(157,159,159)" stroke="rgb(157,159,159)" /><path d="M 275 625 L 325 575 L 375 625 L 400 700 L 300 700 Z" fill="rgb(248,208,192)" stroke="rgb(248,208,192)" /><path d="M 200 200 L 275 175 L 300 200 L 325 225 L 275 275 L 225 325 L 200 300 L 175 275 Z" fill="rgb(157,159,159)" stroke="rgb(157,159,159)" /><path d="M 75 1025 L 100 1000 L 125 975 L 175 1025 L 225 1075 L 200 1100 L 175 1125 L 100 1100 Z" fill="rgb(157,159,159)" stroke="rgb(157,159,159)" /><path d="M 800 600 L 900 600 L 925 675 L 900 700 L 875 725 L 825 725 L 800 700 L 775 675 Z" fill="rgb(248,208,192)" stroke="rgb(248,208,192)" /><path d="M 425 125 L 500 100 L 500 200 L 425 225 L 375 175 Z" fill="rgb(80,0,0)" stroke="rgb(80,0,0)" /><path d="M 1000 900 L 1100 900 L 1100 1000 L 1000 1000 Z" fill="rgb(0,0,0)" stroke="rgb(0,0,0)" /><path d="M 875 725 L 900 700 L 925 675 L 975 675 L 1000 700 L 1025 725 L 1000 800 L 900 800 Z" fill="rgb(248,208,192)" stroke="rgb(248,208,192)" /><path d="M 600 400 L 675 375 L 700 400 L 725 425 L 725 475 L 700 500 L 675 525 L 625 525 L 600 500 L 575 475 Z" fill="rgb(0,0,0)" stroke="rgb(0,0,0)" /><path d="M 525 425 L 600 400 L 575 475 L 525 525 L 500 500 L 475 475 Z" fill="rgb(0,0,0)" stroke="rgb(0,0,0)" /><path d="M 1100 400 L 1200 400 L 1200 500 L 1100 500 Z" fill="rgb(0,0,0)" stroke="rgb(0,0,0)" /><path d="M 1000 400 L 1100 400 L 1100 500 L 1025 525 L 1000 500 L 975 475 Z" fill="rgb(0,0,0)" stroke="rgb(0,0,0)" /><path d="M 700 100 L 800 100 L 800 200 L 700 200 Z" fill="rgb(248,64,112)" stroke="rgb(248,64,112)" /><path d="M 600 1100 L 700 1100 L 700 1200 L 600 1200 Z" fill="rgb(136,88,24)" stroke="rgb(136,88,24)" /><path d="M 525 1725 L 575 1725 L 600 1800 L 500 1800 Z" fill="rgb(136,88,24)" stroke="rgb(136,88,24)" /><path d="M 1200 700 L 1275 725 L 1300 800 L 1200 800 Z" fill="rgb(248,208,192)" stroke="rgb(248,208,192)" /><path d="M 1100 900 L 1200 900 L 1175 975 L 1100 1000 Z" fill="rgb(0,0,0)" stroke="rgb(0,0,0)" /><path d="M 1025 1925 L 1100 1900 L 1100 2000 L 1050 2000 L 1000 2000 Z" fill="rgb(0,0,0)" stroke="rgb(0,0,0)" /><path d="M 0 1800 L 100 1800 L 100 1900 L 0 1900 L 0 1850 Z" fill="rgb(157,159,159)" stroke="rgb(157,159,159)" /><path d="M 700 1800 L 775 1825 L 775 1850 L 775 1875 L 700 1900 Z" fill="rgb(248,216,112)" stroke="rgb(248,216,112)" /><path d="M 1275 625 L 1300 600 L 1325 575 L 1400 600 L 1400 650 L 1400 700 L 1325 675 Z" fill="rgb(157,159,159)" stroke="rgb(157,159,159)" /><path d="M 1200 1800 L 1300 1800 L 1300 1900 L 1200 1900 Z" fill="rgb(157,159,159)" stroke="rgb(157,159,159)" /><path d="M 100 1900 L 200 1900 L 200 2000 L 150 2000 L 100 2000 Z" fill="rgb(157,159,159)" stroke="rgb(157,159,159)" /><path d="M 0 500 L 100 500 L 75 575 L 0 600 L 0 550 Z" fill="rgb(157,159,159)" stroke="rgb(157,159,159)" /><path d="M 1300 1900 L 1400 1900 L 1400 1950 L 1400 2000 L 1350 2000 L 1300 2000 Z" fill="rgb(157,159,159)" stroke="rgb(157,159,159)" /><path d="M 100 0 L 150 0 L 200 0 L 200 100 L 100 100 Z" fill="rgb(157,159,159)" stroke="rgb(157,159,159)" /><path d="M 0 800 L 100 800 L 100 900 L 0 900 L 0 850 Z" fill="rgb(80,0,0)" stroke="rgb(80,0,0)" /><path d="M 400 1100 L 475 1125 L 500 1200 L 425 1225 L 400 1200 L 375 1175 Z" fill="rgb(176,40,96)" stroke="rgb(176,40,96)" /><path d="M 300 500 L 400 500 L 425 575 L 400 600 L 375 625 L 325 575 Z" fill="rgb(0,0,0)" stroke="rgb(0,0,0)" /><path d="M 200 700 L 300 700 L 300 800 L 225 775 Z" fill="rgb(136,88,24)" stroke="rgb(136,88,24)" /><path d="M 875 1325 L 900 1300 L 925 1275 L 1000 1300 L 1000 1400 L 900 1400 Z" fill="rgb(128,216,200)" stroke="rgb(128,216,200)" /><path d="M 800 300 L 900 300 L 900 400 L 800 400 Z" fill="rgb(0,0,0)" stroke="rgb(0,0,0)" /><path d="M 475 1025 L 525 975 L 600 1000 L 600 1100 L 525 1075 Z" fill="rgb(248,112,104)" stroke="rgb(248,112,104)" /><path d="M 375 625 L 400 600 L 425 575 L 475 575 L 500 600 L 525 625 L 525 675 L 500 700 L 475 725 L 400 700 Z" fill="rgb(0,0,0)" stroke="rgb(0,0,0)" /><path d="M 1000 1000 L 1100 1000 L 1100 1100 L 1000 1100 Z" fill="rgb(0,0,0)" stroke="rgb(0,0,0)" /><path d="M 900 200 L 1000 200 L 1000 300 L 900 300 Z" fill="rgb(248,216,112)" stroke="rgb(248,216,112)" /><path d="M 625 125 L 700 100 L 700 200 L 625 225 L 575 175 Z" fill="rgb(248,64,112)" stroke="rgb(248,64,112)" /><path d="M 475 725 L 500 700 L 525 675 L 600 700 L 575 775 L 525 825 L 500 800 L 475 775 Z" fill="rgb(0,0,0)" stroke="rgb(0,0,0)" /><path d="M 400 1700 L 475 1675 L 500 1700 L 525 1725 L 500 1800 L 425 1775 Z" fill="rgb(136,88,24)" stroke="rgb(136,88,24)" /><path d="M 1100 300 L 1200 300 L 1200 400 L 1100 400 Z" fill="rgb(0,0,0)" stroke="rgb(0,0,0)" /><path d="M 725 425 L 800 400 L 775 475 L 725 475 Z" fill="rgb(0,0,0)" stroke="rgb(0,0,0)" /><path d="M 1200 400 L 1275 425 L 1300 500 L 1200 500 Z" fill="rgb(0,0,0)" stroke="rgb(0,0,0)" /><path d="M 700 1700 L 800 1700 L 825 1775 L 775 1825 L 700 1800 Z" fill="rgb(0,0,0)" stroke="rgb(0,0,0)" /><path d="M 1300 900 L 1400 900 L 1400 950 L 1400 1000 L 1325 1025 L 1300 1000 L 1275 975 Z" fill="rgb(157,159,159)" stroke="rgb(157,159,159)" /><path d="M 0 200 L 100 200 L 100 300 L 0 300 L 0 250 Z" fill="rgb(157,159,159)" stroke="rgb(157,159,159)" /><path d="M 300 1500 L 400 1500 L 400 1600 L 300 1600 Z" fill="rgb(248,248,248)" stroke="rgb(248,248,248)" /><path d="M 100 300 L 175 275 L 200 300 L 225 325 L 175 375 L 125 425 L 100 400 L 75 375 Z" fill="rgb(157,159,159)" stroke="rgb(157,159,159)" /><path d="M 800 1300 L 875 1325 L 900 1400 L 800 1400 Z" fill="rgb(248,248,248)" stroke="rgb(248,248,248)" /><path d="M 400 800 L 475 775 L 500 800 L 525 825 L 500 900 L 400 900 Z" fill="rgb(0,0,0)" stroke="rgb(0,0,0)" /><path d="M 300 0 L 350 0 L 400 0 L 375 75 L 300 100 Z" fill="rgb(157,159,159)" stroke="rgb(157,159,159)" /><path d="M 175 825 L 225 775 L 300 800 L 325 875 L 275 925 L 225 875 Z" fill="rgb(248,112,104)" stroke="rgb(248,112,104)" /><path d="M 900 800 L 1000 800 L 1000 900 L 900 900 Z" fill="rgb(248,112,104)" stroke="rgb(248,112,104)" /><path d="M 800 0 L 850 0 L 900 0 L 900 100 L 800 100 Z" fill="rgb(80,0,0)" stroke="rgb(80,0,0)" /><path d="M 500 1300 L 600 1300 L 625 1375 L 575 1425 L 500 1400 Z" fill="rgb(136,88,24)" stroke="rgb(136,88,24)" /><path d="M 975 1525 L 1000 1500 L 1025 1475 L 1100 1500 L 1075 1575 L 1000 1600 Z" fill="rgb(128,216,200)" stroke="rgb(128,216,200)" /><path d="M 825 1925 L 875 1925 L 900 2000 L 850 2000 L 800 2000 Z" fill="rgb(0,0,0)" stroke="rgb(0,0,0)" /><path d="M 625 225 L 700 200 L 675 275 L 625 325 L 600 300 L 575 275 Z" fill="rgb(176,40,96)" stroke="rgb(176,40,96)" /><path d="M 1100 1400 L 1200 1400 L 1200 1500 L 1100 1500 Z" fill="rgb(32,48,136)" stroke="rgb(32,48,136)" /><path d="M 925 1825 L 950 1825 L 975 1825 L 975 1850 L 975 1875 L 950 1875 L 925 1875 L 925 1850 Z" fill="rgb(248,216,112)" stroke="rgb(248,216,112)" /><path d="M 700 1100 L 800 1100 L 800 1200 L 700 1200 Z" fill="rgb(136,88,24)" stroke="rgb(136,88,24)" /><path d="M 575 1725 L 600 1700 L 625 1675 L 700 1700 L 700 1800 L 600 1800 Z" fill="rgb(136,88,24)" stroke="rgb(136,88,24)" /><path d="M 1200 900 L 1300 900 L 1275 975 L 1225 1025 L 1200 1000 L 1175 975 Z" fill="rgb(0,0,0)" stroke="rgb(0,0,0)" /><path d="M 1100 1900 L 1200 1900 L 1200 2000 L 1150 2000 L 1100 2000 Z" fill="rgb(157,159,159)" stroke="rgb(157,159,159)" /><path d="M 1300 1200 L 1400 1200 L 1400 1250 L 1400 1300 L 1300 1300 Z" fill="rgb(157,159,159)" stroke="rgb(157,159,159)" /><path d="M 200 1900 L 300 1900 L 300 2000 L 250 2000 L 200 2000 Z" fill="rgb(157,159,159)" stroke="rgb(157,159,159)" /><path d="M 0 1500 L 100 1500 L 100 1600 L 0 1600 L 0 1550 Z" fill="rgb(157,159,159)" stroke="rgb(157,159,159)" /><path d="M 300 1000 L 400 1000 L 400 1100 L 300 1100 Z" fill="rgb(136,88,24)" stroke="rgb(136,88,24)" /><path d="M 100 1400 L 200 1400 L 200 1500 L 100 1500 Z" fill="rgb(157,159,159)" stroke="rgb(157,159,159)" /><path d="M 775 1025 L 800 1000 L 825 975 L 900 1000 L 900 1100 L 800 1100 Z" fill="rgb(0,0,0)" stroke="rgb(0,0,0)" /><path d="M 400 1300 L 500 1300 L 500 1400 L 400 1400 Z" fill="rgb(136,88,24)" stroke="rgb(136,88,24)" /><path d="M 200 1300 L 300 1300 L 275 1375 L 200 1400 Z" fill="rgb(80,0,0)" stroke="rgb(80,0,0)" /><path d="M 900 1100 L 1000 1100 L 1025 1175 L 975 1225 L 900 1200 Z" fill="rgb(32,48,136)" stroke="rgb(32,48,136)" /><path d="M 500 0 L 550 0 L 600 0 L 575 75 L 500 100 Z" fill="rgb(157,159,159)" stroke="rgb(157,159,159)" /><path d="M 300 1600 L 400 1600 L 400 1700 L 325 1675 Z" fill="rgb(248,248,248)" stroke="rgb(248,248,248)" /><path d="M 1000 0 L 1050 0 L 1100 0 L 1125 75 L 1075 125 L 1000 100 Z" fill="rgb(80,0,0)" stroke="rgb(80,0,0)" /><path d="M 825 1625 L 850 1625 L 875 1625 L 900 1700 L 800 1700 Z" fill="rgb(32,48,136)" stroke="rgb(32,48,136)" /><path d="M 625 1525 L 700 1500 L 700 1600 L 600 1600 Z" fill="rgb(64,128,152)" stroke="rgb(64,128,152)" /><path d="M 1200 300 L 1275 325 L 1325 375 L 1300 400 L 1275 425 L 1200 400 Z" fill="rgb(0,0,0)" stroke="rgb(0,0,0)" /><path d="M 1075 1325 L 1125 1275 L 1175 1325 L 1200 1400 L 1100 1400 Z" fill="rgb(32,48,136)" stroke="rgb(32,48,136)" /><path d="M 700 1400 L 800 1400 L 800 1500 L 700 1500 Z" fill="rgb(248,248,248)" stroke="rgb(248,248,248)" /><path d="M 600 1800 L 700 1800 L 700 1900 L 600 1900 Z" fill="rgb(136,88,24)" stroke="rgb(136,88,24)" /><path d="M 1300 200 L 1400 200 L 1400 250 L 1400 300 L 1325 275 Z" fill="rgb(157,159,159)" stroke="rgb(157,159,159)" /><path d="M 1200 1400 L 1300 1400 L 1300 1500 L 1200 1500 Z" fill="rgb(157,159,159)" stroke="rgb(157,159,159)" /><path d="M 1300 1500 L 1400 1500 L 1400 1550 L 1400 1600 L 1300 1600 Z" fill="rgb(157,159,159)" stroke="rgb(157,159,159)" /><path d="M 125 425 L 175 375 L 225 425 L 200 500 L 100 500 Z" fill="rgb(80,0,0)" stroke="rgb(80,0,0)" /><path d="M 0 1200 L 100 1200 L 100 1300 L 0 1300 L 0 1250 Z" fill="rgb(157,159,159)" stroke="rgb(157,159,159)" /><path d="M 275 925 L 325 875 L 400 900 L 400 1000 L 300 1000 Z" fill="rgb(248,112,104)" stroke="rgb(248,112,104)" /><path d="M 225 325 L 275 275 L 325 325 L 275 375 L 225 425 L 175 375 Z" fill="rgb(80,0,0)" stroke="rgb(80,0,0)" /><path d="M 100 900 L 175 925 L 225 975 L 200 1000 L 175 1025 L 125 975 Z" fill="rgb(0,0,0)" stroke="rgb(0,0,0)" /><path d="M 825 725 L 875 725 L 900 800 L 800 800 Z" fill="rgb(248,208,192)" stroke="rgb(248,208,192)" /><path d="M 425 225 L 500 200 L 475 275 L 400 300 Z" fill="rgb(248,64,112)" stroke="rgb(248,64,112)" /><path d="M 200 1400 L 275 1375 L 325 1425 L 300 1500 L 200 1500 Z" fill="rgb(136,88,24)" stroke="rgb(136,88,24)" /><path d="M 900 600 L 1000 600 L 975 675 L 950 675 L 925 675 Z" fill="rgb(0,0,0)" stroke="rgb(0,0,0)" /><path d="M 625 525 L 650 525 L 675 525 L 700 600 L 625 625 L 575 575 Z" fill="rgb(248,112,104)" stroke="rgb(248,112,104)" /><path d="M 525 325 L 575 275 L 600 300 L 625 325 L 600 400 L 525 425 L 475 375 Z" fill="rgb(176,40,96)" stroke="rgb(176,40,96)" /><path d="M 1075 725 L 1100 700 L 1125 675 L 1200 700 L 1200 800 L 1100 800 Z" fill="rgb(248,208,192)" stroke="rgb(248,208,192)" /><path d="M 1025 525 L 1100 500 L 1100 600 L 1000 600 Z" fill="rgb(248,112,104)" stroke="rgb(248,112,104)" /><path d="M 700 0 L 750 0 L 800 0 L 800 100 L 700 100 Z" fill="rgb(80,0,0)" stroke="rgb(80,0,0)" /><path d="M 625 825 L 675 775 L 700 800 L 725 825 L 675 875 L 625 925 L 600 900 L 575 875 Z" fill="rgb(248,208,192)" stroke="rgb(248,208,192)" /><path d="M 500 1600 L 600 1600 L 625 1675 L 600 1700 L 575 1725 L 525 1725 L 500 1700 L 475 1675 Z" fill="rgb(136,88,24)" stroke="rgb(136,88,24)" /><path d="M 1200 0 L 1250 0 L 1300 0 L 1300 100 L 1225 75 Z" fill="rgb(157,159,159)" stroke="rgb(157,159,159)" /><path d="M 1100 800 L 1200 800 L 1200 900 L 1100 900 Z" fill="rgb(248,112,104)" stroke="rgb(248,112,104)" /><path d="M 1000 1600 L 1075 1575 L 1125 1625 L 1075 1675 L 1000 1700 Z" fill="rgb(32,48,136)" stroke="rgb(32,48,136)" /><path d="M 0 1900 L 100 1900 L 100 2000 L 50 2000 L 0 2000 L 0 1950 Z" fill="rgb(157,159,159)" stroke="rgb(157,159,159)" /><path d="M 725 1325 L 800 1300 L 800 1400 L 700 1400 Z" fill="rgb(248,248,248)" stroke="rgb(248,248,248)" /><path d="M 1300 500 L 1400 500 L 1400 550 L 1400 600 L 1325 575 Z" fill="rgb(157,159,159)" stroke="rgb(157,159,159)" /><path d="M 1200 1900 L 1300 1900 L 1300 2000 L 1250 2000 L 1200 2000 Z" fill="rgb(157,159,159)" stroke="rgb(157,159,159)" /><path d="M 100 1800 L 200 1800 L 200 1900 L 100 1900 Z" fill="rgb(157,159,159)" stroke="rgb(157,159,159)" /><path d="M 0 600 L 75 575 L 125 625 L 100 700 L 0 700 L 0 650 Z" fill="rgb(80,0,0)" stroke="rgb(80,0,0)" /><path d="M 1300 1800 L 1400 1800 L 1400 1850 L 1400 1900 L 1300 1900 Z" fill="rgb(157,159,159)" stroke="rgb(157,159,159)" /><path d="M 100 700 L 200 700 L 225 775 L 175 825 L 100 800 Z" fill="rgb(248,112,104)" stroke="rgb(248,112,104)" /><path d="M 0 900 L 100 900 L 125 975 L 100 1000 L 75 1025 L 0 1000 L 0 950 Z" fill="rgb(157,159,159)" stroke="rgb(157,159,159)" /><path d="M 325 425 L 375 425 L 400 500 L 300 500 Z" fill="rgb(176,40,96)" stroke="rgb(176,40,96)" /><path d="M 225 425 L 275 375 L 300 400 L 325 425 L 300 500 L 200 500 Z" fill="rgb(176,40,96)" stroke="rgb(176,40,96)" /><path d="M 900 1200 L 975 1225 L 1000 1300 L 925 1275 Z" fill="rgb(128,216,200)" stroke="rgb(128,216,200)" /><path d="M 800 400 L 900 400 L 925 475 L 900 500 L 875 525 L 825 525 L 800 500 L 775 475 Z" fill="rgb(0,0,0)" stroke="rgb(0,0,0)" /><path d="M 500 900 L 575 875 L 600 900 L 625 925 L 600 1000 L 525 975 Z" fill="rgb(248,208,192)" stroke="rgb(248,208,192)" /><path d="M 400 700 L 475 725 L 475 775 L 400 800 Z" fill="rgb(0,0,0)" stroke="rgb(0,0,0)" /><path d="M 1000 1100 L 1100 1100 L 1125 1175 L 1100 1200 L 1075 1225 L 1025 1175 Z" fill="rgb(157,159,159)" stroke="rgb(157,159,159)" /><path d="M 900 100 L 1000 100 L 1000 200 L 900 200 Z" fill="rgb(248,216,112)" stroke="rgb(248,216,112)" /><path d="M 625 625 L 700 600 L 725 675 L 700 700 L 675 725 L 600 700 Z" fill="rgb(248,208,192)" stroke="rgb(248,208,192)" /><path d="M 525 625 L 575 575 L 625 625 L 600 700 L 525 675 L 525 650 Z" fill="rgb(248,112,104)" stroke="rgb(248,112,104)" /><path d="M 375 1825 L 400 1800 L 425 1775 L 500 1800 L 500 1900 L 425 1875 Z" fill="rgb(136,88,24)" stroke="rgb(136,88,24)" /><path d="M 1100 200 L 1200 200 L 1200 300 L 1100 300 Z" fill="rgb(80,0,0)" stroke="rgb(80,0,0)" /><path d="M 1000 600 L 1100 600 L 1125 675 L 1100 700 L 1075 725 L 1025 725 L 1000 700 L 975 675 Z" fill="rgb(248,208,192)" stroke="rgb(248,208,192)" /><path d="M 675 725 L 700 700 L 725 675 L 775 675 L 800 700 L 825 725 L 800 800 L 725 825 L 700 800 L 675 775 Z" fill="rgb(248,208,192)" stroke="rgb(248,208,192)" /><path d="M 500 1900 L 600 1900 L 600 2000 L 550 2000 L 500 2000 Z" fill="rgb(0,0,0)" stroke="rgb(0,0,0)" /><path d="M 1200 500 L 1300 500 L 1325 575 L 1300 600 L 1275 625 L 1200 600 Z" fill="rgb(157,159,159)" stroke="rgb(157,159,159)" /><path d="M 0 1600 L 100 1600 L 100 1700 L 0 1700 L 0 1650 Z" fill="rgb(157,159,159)" stroke="rgb(157,159,159)" /><path d="M 700 1600 L 775 1575 L 800 1600 L 825 1625 L 800 1700 L 700 1700 Z" fill="rgb(64,128,152)" stroke="rgb(64,128,152)" /><path d="M 1300 800 L 1400 800 L 1400 850 L 1400 900 L 1300 900 Z" fill="rgb(136,88,24)" stroke="rgb(136,88,24)" /><path d="M 1225 1625 L 1300 1600 L 1300 1700 L 1200 1700 Z" fill="rgb(157,159,159)" stroke="rgb(157,159,159)" /><path d="M 0 300 L 100 300 L 75 375 L 0 400 L 0 350 Z" fill="rgb(157,159,159)" stroke="rgb(157,159,159)" /><path d="M 325 1425 L 400 1400 L 400 1500 L 300 1500 Z" fill="rgb(248,248,248)" stroke="rgb(248,248,248)" /><path d="M 100 200 L 200 200 L 175 275 L 100 300 Z" fill="rgb(157,159,159)" stroke="rgb(157,159,159)" /><path d="M 800 1400 L 900 1400 L 900 1500 L 800 1500 Z" fill="rgb(248,248,248)" stroke="rgb(248,248,248)" /><path d="M 400 900 L 500 900 L 525 975 L 475 1025 L 400 1000 Z" fill="rgb(248,112,104)" stroke="rgb(248,112,104)" /><path d="M 325 325 L 400 300 L 425 375 L 400 400 L 375 425 L 325 425 L 300 400 L 275 375 Z" fill="rgb(176,40,96)" stroke="rgb(176,40,96)" /><path d="M 175 925 L 200 900 L 225 875 L 275 925 L 300 1000 L 225 975 Z" fill="rgb(0,0,0)" stroke="rgb(0,0,0)" /><path d="M 900 1500 L 975 1525 L 1000 1600 L 925 1575 Z" fill="rgb(128,216,200)" stroke="rgb(128,216,200)" /><path d="M 800 100 L 900 100 L 900 200 L 800 200 Z" fill="rgb(248,64,112)" stroke="rgb(248,64,112)" /><path d="M 500 1200 L 600 1200 L 600 1300 L 500 1300 Z" fill="rgb(248,64,112)" stroke="rgb(248,64,112)" /><path d="M 375 425 L 400 400 L 425 375 L 475 375 L 525 425 L 475 475 L 400 500 Z" fill="rgb(176,40,96)" stroke="rgb(176,40,96)" /><path d="M 975 1225 L 1025 1175 L 1075 1225 L 1125 1275 L 1075 1325 L 1000 1300 Z" fill="rgb(32,48,136)" stroke="rgb(32,48,136)" /><path d="M 625 325 L 675 275 L 700 300 L 725 325 L 675 375 L 600 400 Z" fill="rgb(176,40,96)" stroke="rgb(176,40,96)" /><path d="M 1075 125 L 1125 75 L 1175 125 L 1200 200 L 1100 200 Z" fill="rgb(80,0,0)" stroke="rgb(80,0,0)" /><path d="M 900 1700 L 1000 1700 L 1025 1775 L 975 1825 L 925 1825 L 875 1775 Z" fill="rgb(0,0,0)" stroke="rgb(0,0,0)" /><path d="M 700 1000 L 775 1025 L 800 1100 L 700 1100 Z" fill="rgb(248,112,104)" stroke="rgb(248,112,104)" /><path d="M 1225 1025 L 1275 975 L 1300 1000 L 1325 1025 L 1300 1100 L 1225 1125 L 1200 1100 L 1175 1075 Z" fill="rgb(157,159,159)" stroke="rgb(157,159,159)" /><path d="M 1075 1825 L 1100 1800 L 1125 1775 L 1200 1800 L 1200 1900 L 1100 1900 Z" fill="rgb(157,159,159)" stroke="rgb(157,159,159)" /><path d="M 1300 1100 L 1400 1100 L 1400 1150 L 1400 1200 L 1300 1200 Z" fill="rgb(157,159,159)" stroke="rgb(157,159,159)" /><path d="M 200 1600 L 300 1600 L 325 1675 L 275 1725 L 225 1675 Z" fill="rgb(136,88,24)" stroke="rgb(136,88,24)" /><path d="M 0 0 L 50 0 L 100 0 L 100 100 L 0 100 L 0 50 Z" fill="rgb(157,159,159)" stroke="rgb(157,159,159)" /><path d="M 300 1300 L 400 1300 L 400 1400 L 325 1425 L 275 1375 Z" fill="rgb(136,88,24)" stroke="rgb(136,88,24)" /><path d="M 100 1300 L 200 1300 L 200 1400 L 100 1400 Z" fill="rgb(157,159,159)" stroke="rgb(157,159,159)" /><path d="M 800 1100 L 900 1100 L 900 1200 L 800 1200 Z" fill="rgb(136,88,24)" stroke="rgb(136,88,24)" /><path d="M 400 1400 L 500 1400 L 475 1475 L 400 1500 Z" fill="rgb(248,248,248)" stroke="rgb(248,248,248)" /><path d="M 175 1025 L 200 1000 L 225 975 L 300 1000 L 300 1100 L 225 1075 Z" fill="rgb(0,0,0)" stroke="rgb(0,0,0)" /><path d="M 900 1000 L 1000 1000 L 1000 1100 L 900 1100 Z" fill="rgb(0,0,0)" stroke="rgb(0,0,0)" /><path d="M 525 1525 L 575 1475 L 625 1525 L 600 1600 L 500 1600 Z" fill="rgb(136,88,24)" stroke="rgb(136,88,24)" /><path d="M 300 1900 L 375 1925 L 400 2000 L 350 2000 L 300 2000 Z" fill="rgb(0,0,0)" stroke="rgb(0,0,0)" /><path d="M 1000 100 L 1075 125 L 1100 200 L 1000 200 Z" fill="rgb(248,64,112)" stroke="rgb(248,64,112)" /><path d="M 800 1700 L 900 1700 L 875 1775 L 850 1775 L 825 1775 Z" fill="rgb(136,88,24)" stroke="rgb(136,88,24)" /><path d="M 600 1200 L 700 1200 L 675 1275 L 600 1300 Z" fill="rgb(64,128,152)" stroke="rgb(64,128,152)" /><path d="M 1075 1225 L 1100 1200 L 1125 1175 L 1200 1200 L 1225 1275 L 1200 1300 L 1175 1325 L 1125 1275 Z" fill="rgb(157,159,159)" stroke="rgb(157,159,159)" /><path d="M 725 925 L 775 925 L 825 975 L 800 1000 L 775 1025 L 700 1000 Z" fill="rgb(0,0,0)" stroke="rgb(0,0,0)" /><path d="M 600 1900 L 700 1900 L 700 2000 L 650 2000 L 600 2000 Z" fill="rgb(0,0,0)" stroke="rgb(0,0,0)" /><path d="M 1300 100 L 1400 100 L 1400 150 L 1400 200 L 1300 200 Z" fill="rgb(157,159,159)" stroke="rgb(157,159,159)" /><path d="M 1200 1500 L 1300 1500 L 1300 1600 L 1225 1625 L 1200 1600 L 1175 1575 Z" fill="rgb(157,159,159)" stroke="rgb(157,159,159)" /><path d="M 1125 1725 L 1200 1700 L 1200 1800 L 1125 1775 Z" fill="rgb(157,159,159)" stroke="rgb(157,159,159)" /><path d="M 1300 1400 L 1400 1400 L 1400 1450 L 1400 1500 L 1300 1500 Z" fill="rgb(157,159,159)" stroke="rgb(157,159,159)" /><path d="M 0 1300 L 100 1300 L 100 1400 L 0 1400 L 0 1350 Z" fill="rgb(157,159,159)" stroke="rgb(157,159,159)" /><path d="M 300 800 L 400 800 L 400 900 L 325 875 Z" fill="rgb(248,208,192)" stroke="rgb(248,208,192)" /><path d="M 200 0 L 250 0 L 300 0 L 300 100 L 200 100 Z" fill="rgb(157,159,159)" stroke="rgb(157,159,159)" /><path d="M 100 800 L 175 825 L 225 875 L 200 900 L 175 925 L 100 900 Z" fill="rgb(0,0,0)" stroke="rgb(0,0,0)" /><path d="M 800 800 L 900 800 L 900 900 L 825 875 Z" fill="rgb(248,112,104)" stroke="rgb(248,112,104)" /><path d="M 400 300 L 475 275 L 500 300 L 525 325 L 475 375 L 450 375 L 425 375 Z" fill="rgb(248,64,112)" stroke="rgb(248,64,112)" /><path d="M 200 1500 L 300 1500 L 300 1600 L 200 1600 Z" fill="rgb(136,88,24)" stroke="rgb(136,88,24)" /><path d="M 875 525 L 900 500 L 925 475 L 975 475 L 1000 500 L 1025 525 L 1000 600 L 900 600 Z" fill="rgb(0,0,0)" stroke="rgb(0,0,0)" /><path d="M 500 200 L 575 175 L 625 225 L 575 275 L 525 325 L 500 300 L 475 275 Z" fill="rgb(248,64,112)" stroke="rgb(248,64,112)" /><path d="M 1100 600 L 1200 600 L 1200 700 L 1125 675 Z" fill="rgb(136,88,24)" stroke="rgb(136,88,24)" /><path d="M 1000 200 L 1100 200 L 1100 300 L 1000 300 Z" fill="rgb(248,248,248)" stroke="rgb(248,248,248)" /></svg>