<?xml version="1.0" encoding="utf-8" ?>
<svg baseProfile="full" height="100%" version="1.1" width="100%" xmlns="http://www.w3.org/2000/svg" xmlns:ev="http://www.w3.org/2001/xml-events" xmlns:xlink="http://www.w3.org/1999/xlink"><defs /><rect fill="rgb(255,255,255)" height="100%" width="100%" x="0" y="0" /><path d="M 725 675 L 725 675 L 775 675" fill="none" stroke="rgb(0,0,0)" /><path d="M 0 900 L 0 900 L 100 900" fill="none" stroke="rgb(0,0,0)" /><path d="M 625 525 L 625 525 L 675 525" fill="none" stroke="rgb(0,0,0)" /><path d="M 875 1625 L 875 1625 L 825 1625" fill="none" stroke="rgb(0,0,0)" /><path d="M 525 675 L 525 675 L 525 625" fill="none" stroke="rgb(0,0,0)" /><path d="M 400 900 L 400 900 L 400 700 L 375 625 L 325 575 L 300 500" fill="none" stroke="rgb(0,0,0)" /><path d="M 875 1625 L 875 1625 L 900 1700" fill="none" stroke="rgb(0,0,0)" /><path d="M 925 1825 L 925 1825 L 975 1825" fill="none" stroke="rgb(0,0,0)" /><path d="M 600 0 L 600 0 L 575 75 L 425 125 L 125 425 L 75 575 L 0 600" fill="none" stroke="rgb(0,0,0)" /><path d="M 900 1700 L 900 1700 L 800 1700" fill="none" stroke="rgb(0,0,0)" /><path d="M 300 800 L 300 800 L 225 775 L 200 700 L 225 625" fill="none" stroke="rgb(0,0,0)" /><path d="M 1100 600 L 1100 600 L 1000 600" fill="none" stroke="rgb(0,0,0)" /><path d="M 900 600 L 900 600 L 800 600" fill="none" stroke="rgb(0,0,0)" /><path d="M 1000 1700 L 1000 1700 L 1025 1775 L 1075 1825 L 1100 1900 L 1100 2000" fill="none" stroke="rgb(0,0,0)" /><path d="M 875 1625 L 875 1625 L 825 1625" fill="none" stroke="rgb(0,0,0)" /><path d="M 925 1825 L 925 1825 L 975 1825" fill="none" stroke="rgb(0,0,0)" /><path d="M 800 1200 L 800 1200 L 800 1300" fill="none" stroke="rgb(0,0,0)" /><path d="M 800 800 L 800 800 L 825 875 L 900 900 L 1300 900" fill="none" stroke="rgb(0,0,0)" /><path d="M 200 700 L 200 700 L 100 700" fill="none" stroke="rgb(0,0,0)" /><path d="M 975 1875 L 975 1875 L 975 1825" fill="none" stroke="rgb(0,0,0)" /><path d="M 975 1875 L 975 1875 L 975 1825" fill="none" stroke="rgb(0,0,0)" /><path d="M 525 675 L 525 675 L 600 700" fill="none" stroke="rgb(0,0,0)" /><path d="M 925 1875 L 925 1875 L 975 1875" fill="none" stroke="rgb(0,0,0)" /><path d="M 900 1700 L 900 1700 L 1000 1700" fill="none" stroke="rgb(0,0,0)" /><path d="M 1000 200 L 1000 200 L 1100 200" fill="none" stroke="rgb(0,0,0)" /><path d="M 1100 600 L 1100 600 L 1100 500" fill="none" stroke="rgb(0,0,0)" /><path d="M 825 1775 L 825 1775 L 875 1775" fill="none" stroke="rgb(0,0,0)" /><path d="M 900 1100 L 900 1100 L 900 1200" fill="none" stroke="rgb(0,0,0)" /><path d="M 925 1875 L 925 1875 L 975 1875" fill="none" stroke="rgb(0,0,0)" /><path d="M 1400 700 L 1400 700 L 1325 675 L 1275 625 L 1200 600 L 1100 600" fill="none" stroke="rgb(0,0,0)" /><path d="M 1000 1700 L 1000 1700 L 1000 1600" fill="none" stroke="rgb(0,0,0)" /><path d="M 500 1200 L 500 1200 L 900 1200 L 975 1225 L 1000 1300 L 1000 1400 L 1025 1475 L 1100 1500" fill="none" stroke="rgb(0,0,0)" /><path d="M 725 675 L 725 675 L 775 675" fill="none" stroke="rgb(0,0,0)" /><path d="M 825 1775 L 825 1775 L 800 1700" fill="none" stroke="rgb(0,0,0)" /><path d="M 825 1775 L 825 1775 L 875 1775" fill="none" stroke="rgb(0,0,0)" /><path d="M 1200 300 L 1200 300 L 1200 200 L 1175 125 L 1125 75 L 1100 0" fill="none" stroke="rgb(0,0,0)" /><path d="M 975 675 L 975 675 L 925 675" fill="none" stroke="rgb(0,0,0)" /><path d="M 700 1800 L 700 1800 L 775 1825 L 775 1875 L 700 1900 L 500 1900 L 425 1875 L 375 1825 L 300 1800" fill="none" stroke="rgb(0,0,0)" /><path d="M 725 675 L 725 675 L 675 525" fill="none" stroke="rgb(0,0,0)" /><path d="M 275 625 L 275 625 L 225 625" fill="none" stroke="rgb(0,0,0)" /><path d="M 1100 300 L 1100 300 L 1100 200 L 1075 125 L 1000 100 L 700 100 L 625 125 L 575 175 L 425 225 L 400 300 L 425 375 L 475 375 L 625 225 L 700 200 L 900 200" fill="none" stroke="rgb(0,0,0)" /><path d="M 700 1500 L 700 1500 L 700 1400 L 725 1325 L 800 1300 L 875 1325 L 900 1400 L 900 1500 L 925 1575 L 1000 1600 L 1075 1575 L 1100 1500 L 1100 1400 L 1075 1325 L 1000 1300" fill="none" stroke="rgb(0,0,0)" /><path d="M 600 1000 L 600 1000 L 625 925 L 725 825 L 800 800 L 1300 800" fill="none" stroke="rgb(0,0,0)" /><path d="M 300 1100 L 300 1100 L 400 1100 L 475 1125 L 500 1200 L 500 1300" fill="none" stroke="rgb(0,0,0)" /><path d="M 775 675 L 775 675 L 825 525 L 875 525 L 925 675" fill="none" stroke="rgb(0,0,0)" /><path d="M 900 1700 L 900 1700 L 875 1775" fill="none" stroke="rgb(0,0,0)" /><path d="M 925 1875 L 925 1875 L 925 1825" fill="none" stroke="rgb(0,0,0)" /><path d="M 975 675 L 975 675 L 925 675" fill="none" stroke="rgb(0,0,0)" /><path d="M 700 1700 L 700 1700 L 700 1900" fill="none" stroke="rgb(0,0,0)" /><path d="M 800 1100 L 800 1100 L 775 1025 L 700 1000 L 600 1000 L 525 975 L 500 900 L 525 825 L 575 775 L 625 625 L 700 600" fill="none" stroke="rgb(0,0,0)" /><path d="M 300 1100 L 300 1100 L 275 1175 L 225 1225 L 200 1300 L 200 1600 L 225 1675 L 275 1725 L 300 1800 L 300 2000 L 1400 2000 L 1400 0 L 0 0 L 0 2000 L 300 2000" fill="none" stroke="rgb(0,0,0)" /><path d="M 1100 600 L 1100 600 L 1125 675 L 1275 725 L 1300 800 L 1300 900" fill="none" stroke="rgb(0,0,0)" /><path d="M 525 675 L 525 675 L 525 625" fill="none" stroke="rgb(0,0,0)" /><path d="M 1000 100 L 1000 100 L 1000 300" fill="none" stroke="rgb(0,0,0)" /><path d="M 800 1700 L 800 1700 L 825 1625" fill="none" stroke="rgb(0,0,0)" /><path d="M 1000 1700 L 1000 1700 L 1075 1675 L 1175 1575 L 1200 1500 L 1200 1400 L 1175 1325 L 1025 1175 L 1000 1100" fill="none" stroke="rgb(0,0,0)" /><path d="M 800 200 L 800 200 L 800 300" fill="none" stroke="rgb(0,0,0)" /><path d="M 600 1300 L 600 1300 L 300 1300" fill="none" stroke="rgb(0,0,0)" /><path d="M 100 800 L 100 800 L 175 825 L 275 925 L 300 1000 L 300 1100" fill="none" stroke="rgb(0,0,0)" /><path d="M 925 1875 L 925 1875 L 925 1825" fill="none" stroke="rgb(0,0,0)" /><path d="M 1300 900 L 1300 900 L 1275 975 L 1175 1075 L 1100 1100 L 600 1100 L 525 1075 L 475 1025 L 400 1000 L 300 1000" fill="none" stroke="rgb(0,0,0)" /><path d="M 600 1200 L 600 1200 L 600 1300 L 625 1375 L 700 1400" fill="none" stroke="rgb(0,0,0)" /><path d="M 1400 400 L 1400 400 L 1325 375 L 1275 325 L 1200 300 L 800 300 L 725 325 L 675 375 L 525 425 L 475 475 L 400 500 L 200 500" fill="none" stroke="rgb(0,0,0)" /><path d="M 275 625 L 275 625 L 225 625" fill="none" stroke="rgb(0,0,0)" /><path d="M 975 675 L 975 675 L 1025 525 L 1100 500 L 1400 500" fill="none" stroke="rgb(0,0,0)" /><path d="M 900 300 L 900 300 L 900 100" fill="none" stroke="rgb(0,0,0)" /><path d="M 800 1700 L 800 1700 L 700 1700 L 625 1675 L 600 1600 L 625 1525 L 700 1500 L 900 1500" fill="none" stroke="rgb(0,0,0)" /><path d="M 500 900 L 500 900 L 400 900 L 325 875 L 300 800 L 300 700 L 275 625" fill="none" stroke="rgb(0,0,0)" /><path d="M 400 1100 L 400 1100 L 375 1175 L 325 1225 L 275 1375 L 200 1400" fill="none" stroke="rgb(0,0,0)" /><path d="M 625 525 L 625 525 L 525 625" fill="none" stroke="rgb(0,0,0)" /><path d="M 1300 900 L 1300 900 L 1400 900" fill="none" stroke="rgb(0,0,0)" /><path d="M 400 300 L 400 300 L 325 325 L 225 425 L 175 575 L 125 625 L 100 700 L 100 900 L 125 975 L 225 1075 L 300 1100" fill="none" stroke="rgb(0,0,0)" /><path d="M 575 1425 L 575 1425 L 500 1400 L 400 1400 L 325 1425 L 300 1500 L 300 1600 L 325 1675 L 400 1700 L 475 1675 L 525 1525 L 575 1475 L 575 1425" fill="none" stroke="rgb(0,0,0)" /><path d="M 625 525 L 625 525 L 675 525" fill="none" stroke="rgb(0,0,0)" /></svg>