<?xml version="1.0" encoding="utf-8" ?>
<svg baseProfile="full" height="100%" version="1.1" width="100%" xmlns="http://www.w3.org/2000/svg" xmlns:ev="http://www.w3.org/2001/xml-events" xmlns:xlink="http://www.w3.org/1999/xlink"><defs /><rect fill="rgb(255,255,255)" height="100%" width="100%" x="0" y="0" /><path d="M 725 675 Q 750 650 775 675" fill="rgb(0,0,0)" stroke="rgb(0,0,0)" /><path d="M 0 900 Q 50 850 100 900" fill="rgb(80,0,0)" stroke="rgb(0,0,0)" /><path d="M 300 800 Q 250 850 225 775 M 225 775 Q 150 750 200 700 M 200 700 Q 150 650 225 625" fill="rgb(248,208,192)" stroke="rgb(0,0,0)" /><path d="M 625 525 Q 650 525 675 525" fill="rgb(0,0,0)" stroke="rgb(0,0,0)" /><path d="M 875 1625 Q 850 1650 825 1625" fill="rgb(32,48,136)" stroke="rgb(0,0,0)" /><path d="M 400 900 Q 400 800 400 700 M 400 700 Q 350 650 375 625 M 375 625 Q 350 650 325 575 M 325 575 Q 250 550 300 500" fill="rgb(248,208,192)" stroke="rgb(0,0,0)" /><path d="M 875 1625 Q 950 1650 900 1700" fill="rgb(64,128,152)" stroke="rgb(0,0,0)" /><path d="M 600 0 Q 650 50 575 75 M 575 75 Q 500 100 425 125 M 425 125 Q 275 275 125 425 M 125 425 Q 100 500 75 575 M 75 575 Q 50 650 0 600" fill="rgb(80,0,0)" stroke="rgb(0,0,0)" /><path d="M 900 1700 Q 850 1750 800 1700" fill="rgb(136,88,24)" stroke="rgb(0,0,0)" /><path d="M 1000 1700 Q 1050 1650 1075 1675 M 1075 1675 Q 1125 1625 1175 1575 M 1175 1575 Q 1150 1550 1200 1500 M 1200 1500 Q 1150 1450 1200 1400 M 1200 1400 Q 1150 1350 1175 1325 M 1175 1325 Q 1100 1250 1025 1175 M 1025 1175 Q 950 1150 1000 1100" fill="rgb(32,48,136)" stroke="rgb(0,0,0)" /><path d="M 700 1700 Q 700 1800 700 1900" fill="rgb(0,0,0)" stroke="rgb(0,0,0)" /><path d="M 900 1700 Q 950 1650 1000 1700" fill="rgb(64,128,152)" stroke="rgb(0,0,0)" /><path d="M 900 600 Q 850 650 800 600" fill="rgb(248,208,192)" stroke="rgb(0,0,0)" /><path d="M 1000 200 Q 1050 150 1100 200" fill="rgb(248,64,112)" stroke="rgb(0,0,0)" /><path d="M 1000 1700 Q 1050 1750 1025 1775 M 1025 1775 Q 1050 1750 1075 1825 M 1075 1825 Q 1150 1850 1100 1900 M 1100 1900 Q 1150 1950 1100 2000" fill="rgb(157,159,159)" stroke="rgb(0,0,0)" /><path d="M 875 1625 Q 850 1650 825 1625" fill="rgb(32,48,136)" stroke="rgb(0,0,0)" /><path d="M 800 1200 Q 850 1250 800 1300" fill="rgb(128,216,200)" stroke="rgb(0,0,0)" /><path d="M 800 800 Q 850 850 825 875 M 825 875 Q 850 850 900 900 M 900 900 Q 1100 900 1300 900" fill="rgb(0,0,0)" stroke="rgb(0,0,0)" /><path d="M 200 700 Q 150 750 100 700" fill="rgb(248,112,104)" stroke="rgb(0,0,0)" /><path d="M 975 1875 Q 950 1850 975 1825" fill="rgb(248,216,112)" stroke="rgb(0,0,0)" /><path d="M 975 1875 Q 950 1850 975 1825" fill="rgb(248,216,112)" stroke="rgb(0,0,0)" /><path d="M 525 675 Q 550 650 600 700" fill="rgb(248,112,104)" stroke="rgb(0,0,0)" /><path d="M 925 1875 Q 950 1850 975 1875" fill="rgb(248,216,112)" stroke="rgb(0,0,0)" /><path d="M 1100 600 Q 1050 550 1100 500" fill="rgb(248,112,104)" stroke="rgb(0,0,0)" /><path d="M 825 1775 Q 850 1750 875 1775" fill="rgb(136,88,24)" stroke="rgb(0,0,0)" /><path d="M 900 1100 Q 950 1150 900 1200" fill="rgb(32,48,136)" stroke="rgb(0,0,0)" /><path d="M 925 1875 Q 950 1850 975 1875" fill="rgb(248,216,112)" stroke="rgb(0,0,0)" /><path d="M 700 1500 Q 650 1450 700 1400 M 700 1400 Q 650 1350 725 1325 M 725 1325 Q 750 1250 800 1300 M 800 1300 Q 850 1250 875 1325 M 875 1325 Q 950 1350 900 1400 M 900 1400 Q 950 1450 900 1500 M 900 1500 Q 950 1550 925 1575 M 925 1575 Q 950 1550 1000 1600 M 1000 1600 Q 1050 1550 1075 1575 M 1075 1575 Q 1050 1550 1100 1500 M 1100 1500 Q 1050 1450 1100 1400 M 1100 1400 Q 1050 1350 1075 1325 M 1075 1325 Q 1050 1350 1000 1300" fill="rgb(248,248,248)" stroke="rgb(0,0,0)" /><path d="M 1400 700 Q 1350 750 1325 675 M 1325 675 Q 1250 650 1275 625 M 1275 625 Q 1250 650 1200 600 M 1200 600 Q 1150 650 1100 600" fill="rgb(136,88,24)" stroke="rgb(0,0,0)" /><path d="M 1000 1700 Q 950 1650 1000 1600" fill="rgb(64,128,152)" stroke="rgb(0,0,0)" /><path d="M 725 675 Q 750 650 775 675" fill="rgb(0,0,0)" stroke="rgb(0,0,0)" /><path d="M 825 1775 Q 750 1750 800 1700" fill="rgb(0,0,0)" stroke="rgb(0,0,0)" /><path d="M 525 675 Q 525 650 525 625" fill="rgb(0,0,0)" stroke="rgb(0,0,0)" /><path d="M 825 1775 Q 850 1750 875 1775" fill="rgb(136,88,24)" stroke="rgb(0,0,0)" /><path d="M 1200 300 Q 1150 250 1200 200 M 1200 200 Q 1150 150 1175 125 M 1175 125 Q 1150 150 1125 75 M 1125 75 Q 1050 50 1100 0" fill="rgb(80,0,0)" stroke="rgb(0,0,0)" /><path d="M 975 675 Q 950 675 925 675" fill="rgb(0,0,0)" stroke="rgb(0,0,0)" /><path d="M 700 1800 Q 750 1750 775 1825 M 775 1825 Q 775 1850 775 1875 M 775 1875 Q 750 1950 700 1900 M 700 1900 Q 600 1900 500 1900 M 500 1900 Q 450 1950 425 1875 M 425 1875 Q 350 1850 375 1825 M 375 1825 Q 350 1850 300 1800" fill="rgb(0,0,0)" stroke="rgb(0,0,0)" /><path d="M 800 1700 Q 750 1650 825 1625" fill="rgb(64,128,152)" stroke="rgb(0,0,0)" /><path d="M 725 675 Q 700 600 675 525" fill="rgb(0,0,0)" stroke="rgb(0,0,0)" /><path d="M 275 625 Q 250 650 225 625" fill="rgb(136,88,24)" stroke="rgb(0,0,0)" /><path d="M 900 200 Q 800 200 700 200 M 700 200 Q 650 250 625 225 M 625 225 Q 550 300 475 375 M 475 375 Q 450 375 425 375 M 425 375 Q 350 350 400 300 M 400 300 Q 350 250 425 225 M 425 225 Q 500 200 575 175 M 575 175 Q 550 150 625 125 M 625 125 Q 650 50 700 100 M 700 100 Q 850 100 1000 100 M 1000 100 Q 1050 50 1075 125 M 1075 125 Q 1150 150 1100 200 M 1100 200 Q 1150 250 1100 300" fill="rgb(80,0,0)" stroke="rgb(0,0,0)" /><path d="M 600 1000 Q 550 950 625 925 M 625 925 Q 675 875 725 825 M 725 825 Q 750 750 800 800 M 800 800 Q 1050 800 1300 800" fill="rgb(0,0,0)" stroke="rgb(0,0,0)" /><path d="M 300 1100 Q 350 1050 400 1100 M 400 1100 Q 450 1050 475 1125 M 475 1125 Q 550 1150 500 1200 M 500 1200 Q 550 1250 500 1300" fill="rgb(248,64,112)" stroke="rgb(0,0,0)" /><path d="M 775 675 Q 800 600 825 525 M 825 525 Q 850 525 875 525 M 875 525 Q 900 600 925 675" fill="rgb(0,0,0)" stroke="rgb(0,0,0)" /><path d="M 900 1700 Q 950 1750 875 1775" fill="rgb(0,0,0)" stroke="rgb(0,0,0)" /><path d="M 925 1875 Q 925 1850 925 1825" fill="rgb(0,0,0)" stroke="rgb(0,0,0)" /><path d="M 975 675 Q 950 750 925 675" fill="rgb(248,208,192)" stroke="rgb(0,0,0)" /><path d="M 800 1100 Q 750 1050 775 1025 M 775 1025 Q 750 1050 700 1000 M 700 1000 Q 650 1050 600 1000 M 600 1000 Q 550 1050 525 975 M 525 975 Q 450 950 500 900 M 500 900 Q 450 850 525 825 M 525 825 Q 550 750 575 775 M 575 775 Q 600 700 625 625 M 625 625 Q 650 550 700 600" fill="rgb(248,112,104)" stroke="rgb(0,0,0)" /><path d="M 1100 600 Q 1150 650 1125 675 M 1125 675 Q 1200 700 1275 725 M 1275 725 Q 1350 750 1300 800 M 1300 800 Q 1350 850 1300 900" fill="rgb(136,88,24)" stroke="rgb(0,0,0)" /><path d="M 525 675 Q 450 650 525 625" fill="rgb(0,0,0)" stroke="rgb(0,0,0)" /><path d="M 1000 100 Q 1000 200 1000 300" fill="rgb(0,0,0)" stroke="rgb(0,0,0)" /><path d="M 575 1425 Q 550 1450 500 1400 M 500 1400 Q 450 1450 400 1400 M 400 1400 Q 350 1450 325 1425 M 325 1425 Q 350 1450 300 1500 M 300 1500 Q 350 1550 300 1600 M 300 1600 Q 350 1650 325 1675 M 325 1675 Q 350 1650 400 1700 M 400 1700 Q 450 1650 475 1675 M 475 1675 Q 500 1600 525 1525 M 525 1525 Q 550 1450 575 1475 M 575 1475 Q 575 1450 575 1425" fill="rgb(0,0,0)" stroke="rgb(0,0,0)" /><path d="M 400 1100 Q 450 1150 375 1175 M 375 1175 Q 350 1250 325 1225 M 325 1225 Q 300 1300 275 1375 M 275 1375 Q 250 1450 200 1400" fill="rgb(136,88,24)" stroke="rgb(0,0,0)" /><path d="M 925 1825 Q 950 1750 975 1825" fill="rgb(0,0,0)" stroke="rgb(0,0,0)" /><path d="M 800 200 Q 850 250 800 300" fill="rgb(216,160,56)" stroke="rgb(0,0,0)" /><path d="M 1100 600 Q 1050 650 1000 600" fill="rgb(248,208,192)" stroke="rgb(0,0,0)" /><path d="M 500 1200 Q 700 1200 900 1200 M 900 1200 Q 950 1150 975 1225 M 975 1225 Q 1050 1250 1000 1300 M 1000 1300 Q 1050 1350 1000 1400 M 1000 1400 Q 1050 1450 1025 1475 M 1025 1475 Q 1050 1450 1100 1500" fill="rgb(248,248,248)" stroke="rgb(0,0,0)" /><path d="M 600 1300 Q 450 1300 300 1300" fill="rgb(0,0,0)" stroke="rgb(0,0,0)" /><path d="M 100 800 Q 150 750 175 825 M 175 825 Q 225 875 275 925 M 275 925 Q 350 950 300 1000 M 300 1000 Q 350 1050 300 1100" fill="rgb(136,88,24)" stroke="rgb(0,0,0)" /><path d="M 925 1875 Q 850 1850 925 1825" fill="rgb(0,0,0)" stroke="rgb(0,0,0)" /><path d="M 1300 900 Q 1350 950 1275 975 M 1275 975 Q 1225 1025 1175 1075 M 1175 1075 Q 1150 1150 1100 1100 M 1100 1100 Q 850 1100 600 1100 M 600 1100 Q 550 1150 525 1075 M 525 1075 Q 450 1050 475 1025 M 475 1025 Q 450 1050 400 1000 M 400 1000 Q 350 1050 300 1000" fill="rgb(136,88,24)" stroke="rgb(0,0,0)" /><path d="M 600 1200 Q 650 1250 600 1300 M 600 1300 Q 650 1350 625 1375 M 625 1375 Q 650 1350 700 1400" fill="rgb(64,128,152)" stroke="rgb(0,0,0)" /><path d="M 1400 400 Q 1350 450 1325 375 M 1325 375 Q 1250 350 1275 325 M 1275 325 Q 1250 350 1200 300 M 1200 300 Q 1000 300 800 300 M 800 300 Q 750 350 725 325 M 725 325 Q 750 350 675 375 M 675 375 Q 600 400 525 425 M 525 425 Q 550 450 475 475 M 475 475 Q 450 550 400 500 M 400 500 Q 300 500 200 500" fill="rgb(0,0,0)" stroke="rgb(0,0,0)" /><path d="M 275 625 Q 250 650 225 625" fill="rgb(136,88,24)" stroke="rgb(0,0,0)" /><path d="M 975 675 Q 1000 600 1025 525 M 1025 525 Q 1050 450 1100 500 M 1100 500 Q 1250 500 1400 500" fill="rgb(0,0,0)" stroke="rgb(0,0,0)" /><path d="M 900 300 Q 900 200 900 100" fill="rgb(0,0,0)" stroke="rgb(0,0,0)" /><path d="M 800 1700 Q 750 1750 700 1700 M 700 1700 Q 650 1750 625 1675 M 625 1675 Q 550 1650 600 1600 M 600 1600 Q 550 1550 625 1525 M 625 1525 Q 650 1450 700 1500 M 700 1500 Q 800 1500 900 1500" fill="rgb(0,0,0)" stroke="rgb(0,0,0)" /><path d="M 500 900 Q 450 950 400 900 M 400 900 Q 350 950 325 875 M 325 875 Q 250 850 300 800 M 300 800 Q 250 750 300 700 M 300 700 Q 250 650 275 625" fill="rgb(136,88,24)" stroke="rgb(0,0,0)" /><path d="M 300 1100 Q 350 1150 275 1175 M 275 1175 Q 250 1250 225 1225 M 225 1225 Q 250 1250 200 1300 M 200 1300 Q 200 1450 200 1600 M 200 1600 Q 250 1650 225 1675 M 225 1675 Q 250 1650 275 1725 M 275 1725 Q 350 1750 300 1800 M 300 1800 Q 300 1900 300 2000 M 300 2000 Q 850 2000 1400 2000 M 1400 2000 Q 1400 1000 1400 0 M 1400 0 Q 700 0 0 0 M 0 0 Q 0 1000 0 2000 M 0 2000 Q 150 2000 300 2000" fill="rgb(0,0,0)" stroke="rgb(0,0,0)" /><path d="M 625 525 Q 575 575 525 625" fill="rgb(0,0,0)" stroke="rgb(0,0,0)" /><path d="M 1300 900 Q 1350 850 1400 900" fill="rgb(136,88,24)" stroke="rgb(0,0,0)" /><path d="M 925 1825 Q 950 1750 975 1825" fill="rgb(0,0,0)" stroke="rgb(0,0,0)" /><path d="M 400 300 Q 350 350 325 325 M 325 325 Q 275 375 225 425 M 225 425 Q 200 500 175 575 M 175 575 Q 150 650 125 625 M 125 625 Q 150 650 100 700 M 100 700 Q 100 800 100 900 M 100 900 Q 150 950 125 975 M 125 975 Q 175 1025 225 1075 M 225 1075 Q 250 1050 300 1100" fill="rgb(0,0,0)" stroke="rgb(0,0,0)" /><path d="M 625 525 Q 650 450 675 525" fill="rgb(0,0,0)" stroke="rgb(0,0,0)" /></svg>