<?xml version="1.0" encoding="utf-8" ?>
<svg baseProfile="full" height="100%" version="1.1" width="100%" xmlns="http://www.w3.org/2000/svg" xmlns:ev="http://www.w3.org/2001/xml-events" xmlns:xlink="http://www.w3.org/1999/xlink"><defs /><path d="M 725 325 L 800 300 L 800 400 L 725 425 L 700 400 L 675 375 Z" fill="rgb(176,248,200)" stroke="rgb(176,248,200)" /><path d="M 800 500 L 900 500 L 900 600 L 800 600 Z" fill="rgb(24,144,56)" stroke="rgb(24,144,56)" /><path d="M 900 0 L 950 0 L 1000 0 L 1000 100 L 900 100 Z" fill="rgb(0,0,0)" stroke="rgb(0,0,0)" /><path d="M 975 725 L 1000 700 L 1025 675 L 1075 725 L 1125 775 L 1075 825 L 1000 800 Z" fill="rgb(192,128,80)" stroke="rgb(192,128,80)" /><path d="M 1100 2200 L 1175 2175 L 1200 2200 L 1225 2225 L 1175 2275 L 1125 2325 L 1075 2275 Z" fill="rgb(0,0,0)" stroke="rgb(0,0,0)" /><path d="M 0 1700 L 75 1725 L 125 1775 L 100 1800 L 75 1825 L 0 1800 L 0 1750 Z" fill="rgb(0,255,255)" stroke="rgb(0,255,255)" /><path d="M 1400 100 L 1500 100 L 1500 200 L 1425 175 Z" fill="rgb(0,255,255)" stroke="rgb(0,255,255)" /><path d="M 1175 1725 L 1200 1700 L 1225 1675 L 1300 1700 L 1325 1775 L 1300 1800 L 1275 1825 L 1200 1800 Z" fill="rgb(0,0,0)" stroke="rgb(0,0,0)" /><path d="M 1500 400 L 1600 400 L 1600 450 L 1600 500 L 1525 475 Z" fill="rgb(0,255,255)" stroke="rgb(0,255,255)" /><path d="M 1275 2025 L 1325 1975 L 1375 2025 L 1375 2050 L 1375 2075 L 1350 2075 L 1325 2075 Z" fill="rgb(246,246,114)" stroke="rgb(246,246,114)" /><path d="M 300 200 L 375 175 L 400 200 L 425 225 L 375 275 L 325 325 L 300 300 L 275 275 Z" fill="rgb(0,255,255)" stroke="rgb(0,255,255)" /><path d="M 400 500 L 475 475 L 500 500 L 525 525 L 475 575 L 425 575 Z" fill="rgb(176,248,200)" stroke="rgb(176,248,200)" /><path d="M 575 2325 L 600 2300 L 625 2275 L 675 2325 L 700 2400 L 650 2400 L 600 2400 Z" fill="rgb(0,255,255)" stroke="rgb(0,255,255)" /><path d="M 725 2225 L 800 2200 L 800 2300 L 725 2275 L 725 2250 Z" fill="rgb(192,128,80)" stroke="rgb(192,128,80)" /><path d="M 800 1200 L 900 1200 L 900 1300 L 800 1300 Z" fill="rgb(248,168,96)" stroke="rgb(248,168,96)" /><path d="M 900 900 L 1000 900 L 1000 1000 L 900 1000 Z" fill="rgb(0,89,0)" stroke="rgb(0,89,0)" /><path d="M 975 1425 L 1025 1375 L 1100 1400 L 1125 1475 L 1100 1500 L 1075 1525 L 1000 1500 Z" fill="rgb(0,0,0)" stroke="rgb(0,0,0)" /><path d="M 800 1800 L 900 1800 L 900 1900 L 825 1925 L 775 1875 Z" fill="rgb(246,187,0)" stroke="rgb(246,187,0)" /><path d="M 1075 1525 L 1100 1500 L 1125 1475 L 1175 1475 L 1200 1500 L 1225 1525 L 1200 1600 L 1100 1600 Z" fill="rgb(0,0,0)" stroke="rgb(0,0,0)" /><path d="M 900 1900 L 975 1875 L 1025 1925 L 1000 2000 L 900 2000 Z" fill="rgb(0,0,0)" stroke="rgb(0,0,0)" /><path d="M 1375 825 L 1400 800 L 1425 775 L 1500 800 L 1500 900 L 1400 900 Z" fill="rgb(24,144,56)" stroke="rgb(24,144,56)" /><path d="M 1200 800 L 1275 775 L 1325 825 L 1300 900 L 1200 900 Z" fill="rgb(24,144,56)" stroke="rgb(24,144,56)" /><path d="M 100 2100 L 200 2100 L 200 2200 L 100 2200 Z" fill="rgb(0,255,255)" stroke="rgb(0,255,255)" /><path d="M 1500 1300 L 1600 1300 L 1600 1350 L 1600 1400 L 1500 1400 Z" fill="rgb(0,255,255)" stroke="rgb(0,255,255)" /><path d="M 1275 1325 L 1325 1275 L 1375 1325 L 1400 1400 L 1325 1425 L 1300 1400 L 1275 1375 Z" fill="rgb(0,0,0)" stroke="rgb(0,0,0)" /><path d="M 200 1800 L 300 1800 L 300 1900 L 200 1900 Z" fill="rgb(0,255,255)" stroke="rgb(0,255,255)" /><path d="M 0 1400 L 75 1375 L 100 1400 L 125 1425 L 75 1475 L 0 1500 L 0 1450 Z" fill="rgb(0,255,255)" stroke="rgb(0,255,255)" /><path d="M 300 1100 L 375 1075 L 400 1100 L 425 1125 L 375 1175 L 350 1175 L 325 1175 Z" fill="rgb(24,144,56)" stroke="rgb(24,144,56)" /><path d="M 125 1525 L 200 1500 L 175 1575 L 100 1600 Z" fill="rgb(248,168,96)" stroke="rgb(248,168,96)" /><path d="M 425 1225 L 450 1225 L 475 1225 L 475 1250 L 475 1275 L 425 1325 L 375 1275 Z" fill="rgb(0,255,255)" stroke="rgb(0,255,255)" /><path d="M 175 1225 L 200 1200 L 225 1175 L 275 1225 L 325 1275 L 300 1300 L 275 1325 L 200 1300 Z" fill="rgb(0,255,255)" stroke="rgb(0,255,255)" /><path d="M 525 125 L 600 100 L 600 200 L 525 225 L 475 175 Z" fill="rgb(0,0,0)" stroke="rgb(0,0,0)" /><path d="M 325 1725 L 375 1725 L 425 1775 L 400 1800 L 375 1825 L 300 1800 Z" fill="rgb(0,0,0)" stroke="rgb(0,0,0)" /><path d="M 600 1400 L 700 1400 L 700 1500 L 625 1475 Z" fill="rgb(0,0,248)" stroke="rgb(0,0,248)" /><path d="M 700 1500 L 775 1475 L 825 1525 L 800 1600 L 700 1600 Z" fill="rgb(246,187,0)" stroke="rgb(246,187,0)" /><path d="M 1000 900 L 1075 925 L 1100 1000 L 1000 1000 Z" fill="rgb(246,246,246)" stroke="rgb(246,246,246)" /><path d="M 1125 425 L 1200 400 L 1200 500 L 1125 525 L 1075 475 Z" fill="rgb(0,0,0)" stroke="rgb(0,0,0)" /><path d="M 900 2000 L 1000 2000 L 1000 2100 L 900 2100 Z" fill="rgb(248,168,96)" stroke="rgb(248,168,96)" /><path d="M 1375 1925 L 1425 1875 L 1475 1925 L 1525 1975 L 1475 2025 L 1425 1975 Z" fill="rgb(0,0,0)" stroke="rgb(0,0,0)" /><path d="M 1200 700 L 1275 675 L 1325 725 L 1275 775 L 1200 800 Z" fill="rgb(0,0,0)" stroke="rgb(0,0,0)" /><path d="M 1025 1925 L 1050 1925 L 1075 1925 L 1100 2000 L 1000 2000 Z" fill="rgb(192,128,80)" stroke="rgb(192,128,80)" /><path d="M 1525 1025 L 1600 1000 L 1600 1050 L 1600 1100 L 1525 1125 L 1500 1100 L 1475 1075 Z" fill="rgb(0,255,255)" stroke="rgb(0,255,255)" /><path d="M 1300 600 L 1400 600 L 1375 675 L 1325 725 L 1275 675 Z" fill="rgb(0,0,0)" stroke="rgb(0,0,0)" /><path d="M 0 500 L 75 475 L 100 500 L 125 525 L 75 575 L 0 600 L 0 550 Z" fill="rgb(0,255,255)" stroke="rgb(0,255,255)" /><path d="M 100 0 L 150 0 L 200 0 L 200 100 L 100 100 Z" fill="rgb(0,255,255)" stroke="rgb(0,255,255)" /><path d="M 425 1125 L 500 1100 L 525 1175 L 475 1225 L 425 1225 L 375 1175 Z" fill="rgb(0,0,0)" stroke="rgb(0,0,0)" /><path d="M 225 725 L 275 675 L 325 725 L 275 775 L 225 825 L 175 775 Z" fill="rgb(0,0,0)" stroke="rgb(0,0,0)" /><path d="M 500 1000 L 600 1000 L 600 1100 L 500 1100 Z" fill="rgb(246,246,246)" stroke="rgb(246,246,246)" /><path d="M 300 2200 L 400 2200 L 400 2300 L 300 2300 Z" fill="rgb(0,255,255)" stroke="rgb(0,255,255)" /><path d="M 600 100 L 675 75 L 725 125 L 675 175 L 600 200 Z" fill="rgb(0,0,0)" stroke="rgb(0,0,0)" /><path d="M 375 1725 L 400 1700 L 425 1675 L 475 1675 L 500 1700 L 525 1725 L 475 1775 L 425 1775 Z" fill="rgb(0,0,0)" stroke="rgb(0,0,0)" /><path d="M 725 425 L 800 400 L 800 500 L 725 525 L 675 475 Z" fill="rgb(80,208,88)" stroke="rgb(80,208,88)" /><path d="M 475 2025 L 525 1975 L 600 2000 L 600 2100 L 525 2075 Z" fill="rgb(0,0,0)" stroke="rgb(0,0,0)" /><path d="M 800 0 L 850 0 L 900 0 L 900 100 L 800 100 Z" fill="rgb(0,0,0)" stroke="rgb(0,0,0)" /><path d="M 1475 1925 L 1500 1900 L 1525 1875 L 1600 1900 L 1600 1950 L 1600 2000 L 1525 1975 Z" fill="rgb(0,255,255)" stroke="rgb(0,255,255)" /><path d="M 1075 1925 L 1125 1875 L 1200 1900 L 1200 2000 L 1100 2000 Z" fill="rgb(0,0,0)" stroke="rgb(0,0,0)" /><path d="M 1200 2000 L 1275 2025 L 1325 2075 L 1275 2125 L 1225 2075 Z" fill="rgb(246,187,0)" stroke="rgb(246,187,0)" /><path d="M 625 1825 L 700 1800 L 700 1900 L 600 1900 Z" fill="rgb(0,128,248)" stroke="rgb(0,128,248)" /><path d="M 800 700 L 900 700 L 875 775 L 800 800 Z" fill="rgb(192,128,80)" stroke="rgb(192,128,80)" /><path d="M 900 600 L 1000 600 L 1025 675 L 1000 700 L 975 725 L 900 700 Z" fill="rgb(192,128,80)" stroke="rgb(192,128,80)" /><path d="M 1000 500 L 1075 475 L 1125 525 L 1100 600 L 1000 600 Z" fill="rgb(0,0,0)" stroke="rgb(0,0,0)" /><path d="M 1075 825 L 1125 775 L 1200 800 L 1200 900 L 1125 875 Z" fill="rgb(192,128,80)" stroke="rgb(192,128,80)" /><path d="M 0 1900 L 100 1900 L 100 2000 L 0 2000 L 0 1950 Z" fill="rgb(0,255,255)" stroke="rgb(0,255,255)" /><path d="M 1425 725 L 1500 700 L 1500 800 L 1425 775 Z" fill="rgb(24,144,56)" stroke="rgb(24,144,56)" /><path d="M 1200 1900 L 1275 1925 L 1325 1975 L 1275 2025 L 1200 2000 Z" fill="rgb(246,246,114)" stroke="rgb(246,246,114)" /><path d="M 75 1825 L 100 1800 L 125 1775 L 200 1800 L 200 1900 L 100 1900 Z" fill="rgb(0,255,255)" stroke="rgb(0,255,255)" /><path d="M 1500 600 L 1600 600 L 1600 650 L 1600 700 L 1500 700 Z" fill="rgb(0,0,0)" stroke="rgb(0,0,0)" /><path d="M 1275 1825 L 1300 1800 L 1325 1775 L 1400 1800 L 1425 1875 L 1375 1925 L 1325 1875 Z" fill="rgb(0,0,0)" stroke="rgb(0,0,0)" /><path d="M 0 900 L 100 900 L 100 1000 L 0 1000 L 0 950 Z" fill="rgb(0,255,255)" stroke="rgb(0,255,255)" /><path d="M 325 425 L 400 400 L 400 500 L 325 525 L 275 475 Z" fill="rgb(80,208,88)" stroke="rgb(80,208,88)" /><path d="M 400 700 L 475 675 L 525 725 L 475 775 L 425 825 L 400 800 L 375 775 Z" fill="rgb(80,208,88)" stroke="rgb(80,208,88)" /><path d="M 525 625 L 575 575 L 625 625 L 575 675 L 525 725 L 475 675 Z" fill="rgb(80,208,88)" stroke="rgb(80,208,88)" /><path d="M 600 2100 L 675 2125 L 675 2150 L 675 2175 L 625 2225 L 600 2200 L 575 2175 Z" fill="rgb(0,255,255)" stroke="rgb(0,255,255)" /><path d="M 700 1600 L 800 1600 L 825 1675 L 775 1725 L 725 1675 Z" fill="rgb(0,0,248)" stroke="rgb(0,0,248)" /><path d="M 800 1400 L 900 1400 L 900 1500 L 825 1525 L 775 1475 Z" fill="rgb(246,187,0)" stroke="rgb(246,187,0)" /><path d="M 900 1500 L 1000 1500 L 975 1575 L 900 1600 Z" fill="rgb(248,168,96)" stroke="rgb(248,168,96)" /><path d="M 1000 1200 L 1075 1175 L 1125 1225 L 1075 1275 L 1025 1325 L 975 1275 Z" fill="rgb(0,0,0)" stroke="rgb(0,0,0)" /><path d="M 825 2025 L 900 2000 L 900 2100 L 800 2100 Z" fill="rgb(192,128,80)" stroke="rgb(192,128,80)" /><path d="M 1075 125 L 1125 75 L 1200 100 L 1200 200 L 1125 175 Z" fill="rgb(0,0,0)" stroke="rgb(0,0,0)" /><path d="M 875 1725 L 925 1675 L 1000 1700 L 1025 1775 L 1000 1800 L 975 1825 L 900 1800 Z" fill="rgb(0,0,0)" stroke="rgb(0,0,0)" /><path d="M 1400 1400 L 1500 1400 L 1525 1475 L 1500 1500 L 1475 1525 L 1425 1475 Z" fill="rgb(0,255,255)" stroke="rgb(0,255,255)" /><path d="M 1200 1000 L 1300 1000 L 1300 1100 L 1200 1100 Z" fill="rgb(24,144,56)" stroke="rgb(24,144,56)" /><path d="M 1000 2200 L 1100 2200 L 1075 2275 L 1000 2300 Z" fill="rgb(168,0,136)" stroke="rgb(168,0,136)" /><path d="M 1475 1525 L 1500 1500 L 1525 1475 L 1600 1500 L 1600 1550 L 1600 1600 L 1500 1600 Z" fill="rgb(0,255,255)" stroke="rgb(0,255,255)" /><path d="M 1300 1100 L 1375 1075 L 1425 1125 L 1375 1175 L 1325 1225 L 1300 1200 L 1275 1175 Z" fill="rgb(0,0,0)" stroke="rgb(0,0,0)" /><path d="M 225 1625 L 300 1600 L 275 1675 L 200 1700 Z" fill="rgb(192,128,80)" stroke="rgb(192,128,80)" /><path d="M 0 0 L 50 0 L 100 0 L 100 100 L 0 100 L 0 50 Z" fill="rgb(0,255,255)" stroke="rgb(0,255,255)" /><path d="M 275 1325 L 300 1300 L 325 1275 L 375 1275 L 425 1325 L 375 1375 L 300 1400 Z" fill="rgb(0,255,255)" stroke="rgb(0,255,255)" /><path d="M 100 1300 L 200 1300 L 200 1400 L 125 1425 L 100 1400 L 75 1375 Z" fill="rgb(0,255,255)" stroke="rgb(0,255,255)" /><path d="M 425 1425 L 475 1375 L 525 1425 L 525 1475 L 475 1525 L 425 1475 L 425 1450 Z" fill="rgb(0,128,248)" stroke="rgb(0,128,248)" /><path d="M 200 1000 L 275 975 L 300 1000 L 325 1025 L 300 1100 L 225 1075 Z" fill="rgb(80,208,88)" stroke="rgb(80,208,88)" /><path d="M 475 1525 L 525 1475 L 575 1525 L 625 1575 L 575 1625 L 525 1575 Z" fill="rgb(0,128,248)" stroke="rgb(0,128,248)" /><path d="M 300 1900 L 400 1900 L 425 1975 L 400 2000 L 375 2025 L 300 2000 Z" fill="rgb(0,255,255)" stroke="rgb(0,255,255)" /><path d="M 575 1225 L 600 1200 L 625 1175 L 700 1200 L 700 1300 L 625 1275 Z" fill="rgb(248,168,96)" stroke="rgb(248,168,96)" /><path d="M 375 2025 L 400 2000 L 425 1975 L 475 2025 L 525 2075 L 500 2100 L 475 2125 L 400 2100 Z" fill="rgb(0,255,255)" stroke="rgb(0,255,255)" /><path d="M 700 900 L 800 900 L 800 1000 L 700 1000 Z" fill="rgb(192,128,80)" stroke="rgb(192,128,80)" /><path d="M 1100 600 L 1175 575 L 1200 600 L 1225 625 L 1200 700 L 1125 675 Z" fill="rgb(168,0,136)" stroke="rgb(168,0,136)" /><path d="M 1425 1725 L 1475 1675 L 1500 1700 L 1525 1725 L 1500 1800 L 1400 1800 Z" fill="rgb(0,255,255)" stroke="rgb(0,255,255)" /><path d="M 1200 100 L 1275 125 L 1325 175 L 1275 225 L 1200 200 Z" fill="rgb(0,0,0)" stroke="rgb(0,0,0)" /><path d="M 1000 1700 L 1075 1675 L 1100 1700 L 1125 1725 L 1075 1775 L 1025 1775 Z" fill="rgb(0,0,0)" stroke="rgb(0,0,0)" /><path d="M 1475 2025 L 1525 1975 L 1600 2000 L 1600 2050 L 1600 2100 L 1525 2125 L 1475 2075 Z" fill="rgb(0,0,0)" stroke="rgb(0,0,0)" /><path d="M 1275 425 L 1300 400 L 1325 375 L 1400 400 L 1375 475 L 1350 475 L 1325 475 Z" fill="rgb(80,208,88)" stroke="rgb(80,208,88)" /><path d="M 0 700 L 100 700 L 125 775 L 75 825 L 0 800 L 0 750 Z" fill="rgb(0,0,0)" stroke="rgb(0,0,0)" /><path d="M 125 625 L 175 575 L 200 600 L 225 625 L 175 675 L 100 700 Z" fill="rgb(80,208,88)" stroke="rgb(80,208,88)" /><path d="M 225 525 L 275 475 L 325 525 L 300 600 L 225 625 L 200 600 L 175 575 Z" fill="rgb(80,208,88)" stroke="rgb(80,208,88)" /><path d="M 525 825 L 600 800 L 600 900 L 525 925 L 475 875 Z" fill="rgb(0,0,0)" stroke="rgb(0,0,0)" /><path d="M 625 725 L 675 675 L 700 700 L 725 725 L 725 775 L 700 800 L 675 825 L 600 800 Z" fill="rgb(192,128,80)" stroke="rgb(192,128,80)" /><path d="M 400 1900 L 500 1900 L 525 1975 L 475 2025 L 425 1975 Z" fill="rgb(0,0,0)" stroke="rgb(0,0,0)" /><path d="M 725 625 L 800 600 L 800 700 L 725 725 L 700 700 L 675 675 Z" fill="rgb(192,128,80)" stroke="rgb(192,128,80)" /><path d="M 525 1825 L 575 1775 L 600 1800 L 625 1825 L 600 1900 L 500 1900 Z" fill="rgb(0,128,248)" stroke="rgb(0,128,248)" /><path d="M 800 200 L 900 200 L 900 300 L 800 300 Z" fill="rgb(176,248,200)" stroke="rgb(176,248,200)" /><path d="M 900 300 L 975 275 L 1000 300 L 1025 325 L 975 375 L 900 400 Z" fill="rgb(176,248,200)" stroke="rgb(176,248,200)" /><path d="M 1100 2100 L 1175 2125 L 1175 2175 L 1100 2200 Z" fill="rgb(0,0,0)" stroke="rgb(0,0,0)" /><path d="M 1375 225 L 1400 200 L 1425 175 L 1500 200 L 1525 275 L 1500 300 L 1475 325 L 1425 275 Z" fill="rgb(0,255,255)" stroke="rgb(0,255,255)" /><path d="M 1225 2225 L 1250 2225 L 1275 2225 L 1325 2275 L 1300 2300 L 1275 2325 L 1225 2325 L 1200 2300 L 1175 2275 Z" fill="rgb(0,255,255)" stroke="rgb(0,255,255)" /><path d="M 1275 2325 L 1300 2300 L 1325 2275 L 1375 2275 L 1400 2300 L 1425 2325 L 1400 2400 L 1350 2400 L 1300 2400 Z" fill="rgb(0,255,255)" stroke="rgb(0,255,255)" /><path d="M 300 100 L 400 100 L 375 175 L 300 200 Z" fill="rgb(0,255,255)" stroke="rgb(0,255,255)" /><path d="M 575 1625 L 625 1575 L 700 1600 L 725 1675 L 700 1700 L 675 1725 L 600 1700 Z" fill="rgb(0,128,248)" stroke="rgb(0,128,248)" /><path d="M 675 2125 L 700 2100 L 725 2075 L 800 2100 L 800 2200 L 725 2225 L 675 2175 Z" fill="rgb(0,0,0)" stroke="rgb(0,0,0)" /><path d="M 800 900 L 900 900 L 900 1000 L 800 1000 Z" fill="rgb(192,128,80)" stroke="rgb(192,128,80)" /><path d="M 900 400 L 975 375 L 1000 400 L 1025 425 L 1000 500 L 900 500 Z" fill="rgb(80,208,88)" stroke="rgb(80,208,88)" /><path d="M 1025 325 L 1075 275 L 1100 300 L 1125 325 L 1075 375 L 1025 425 L 1000 400 L 975 375 Z" fill="rgb(80,208,88)" stroke="rgb(80,208,88)" /><path d="M 1100 1000 L 1200 1000 L 1200 1100 L 1125 1125 L 1075 1075 Z" fill="rgb(192,128,80)" stroke="rgb(192,128,80)" /><path d="M 0 2100 L 100 2100 L 100 2200 L 0 2200 L 0 2150 Z" fill="rgb(0,255,255)" stroke="rgb(0,255,255)" /><path d="M 1425 525 L 1450 525 L 1475 525 L 1500 600 L 1400 600 Z" fill="rgb(24,144,56)" stroke="rgb(24,144,56)" /><path d="M 1175 1325 L 1225 1275 L 1275 1325 L 1275 1350 L 1275 1375 L 1200 1400 Z" fill="rgb(246,187,0)" stroke="rgb(246,187,0)" /><path d="M 100 1600 L 175 1575 L 200 1600 L 225 1625 L 200 1700 L 125 1675 Z" fill="rgb(248,168,96)" stroke="rgb(248,168,96)" /><path d="M 1500 0 L 1550 0 L 1600 0 L 1600 50 L 1600 100 L 1500 100 Z" fill="rgb(0,255,255)" stroke="rgb(0,255,255)" /><path d="M 1325 1625 L 1400 1600 L 1375 1675 L 1300 1700 Z" fill="rgb(168,0,136)" stroke="rgb(168,0,136)" /><path d="M 200 2300 L 300 2300 L 300 2400 L 250 2400 L 200 2400 Z" fill="rgb(0,255,255)" stroke="rgb(0,255,255)" /><path d="M 0 1100 L 75 1125 L 100 1200 L 0 1200 L 0 1150 Z" fill="rgb(0,255,255)" stroke="rgb(0,255,255)" /><path d="M 300 600 L 375 625 L 400 700 L 325 725 L 275 675 Z" fill="rgb(0,0,0)" stroke="rgb(0,0,0)" /><path d="M 100 1000 L 200 1000 L 225 1075 L 175 1125 L 125 1075 Z" fill="rgb(0,0,0)" stroke="rgb(0,0,0)" /><path d="M 400 100 L 475 75 L 500 100 L 525 125 L 475 175 L 425 225 L 400 200 L 375 175 Z" fill="rgb(0,255,255)" stroke="rgb(0,255,255)" /><path d="M 525 425 L 575 375 L 600 400 L 625 425 L 575 475 L 525 525 L 500 500 L 475 475 Z" fill="rgb(176,248,200)" stroke="rgb(176,248,200)" /><path d="M 600 1100 L 675 1075 L 700 1100 L 725 1125 L 700 1200 L 625 1175 Z" fill="rgb(248,168,96)" stroke="rgb(248,168,96)" /><path d="M 700 1800 L 800 1800 L 775 1875 L 700 1900 Z" fill="rgb(0,128,248)" stroke="rgb(0,128,248)" /><path d="M 900 1300 L 975 1275 L 1025 1325 L 1025 1375 L 975 1425 L 900 1400 Z" fill="rgb(0,0,0)" stroke="rgb(0,0,0)" /><path d="M 1000 1000 L 1100 1000 L 1075 1075 L 1000 1100 Z" fill="rgb(246,246,246)" stroke="rgb(246,246,246)" /><path d="M 800 2200 L 900 2200 L 900 2300 L 800 2300 Z" fill="rgb(248,168,96)" stroke="rgb(248,168,96)" /><path d="M 1125 325 L 1200 300 L 1200 400 L 1125 425 L 1100 400 L 1075 375 Z" fill="rgb(80,208,88)" stroke="rgb(80,208,88)" /><path d="M 900 2300 L 1000 2300 L 1000 2400 L 950 2400 L 900 2400 Z" fill="rgb(0,0,0)" stroke="rgb(0,0,0)" /><path d="M 1425 1225 L 1500 1200 L 1500 1300 L 1425 1275 Z" fill="rgb(0,255,255)" stroke="rgb(0,255,255)" /><path d="M 1200 400 L 1275 425 L 1325 475 L 1275 525 L 1200 500 Z" fill="rgb(0,0,0)" stroke="rgb(0,0,0)" /><path d="M 1000 2000 L 1100 2000 L 1100 2100 L 1000 2100 Z" fill="rgb(192,128,80)" stroke="rgb(192,128,80)" /><path d="M 1500 900 L 1600 900 L 1600 950 L 1600 1000 L 1525 1025 L 1475 975 Z" fill="rgb(0,0,0)" stroke="rgb(0,0,0)" /><path d="M 1300 900 L 1400 900 L 1400 1000 L 1300 1000 Z" fill="rgb(248,168,96)" stroke="rgb(248,168,96)" /><path d="M 0 200 L 100 200 L 100 300 L 0 300 L 0 250 Z" fill="rgb(0,255,255)" stroke="rgb(0,255,255)" /><path d="M 275 1525 L 300 1500 L 325 1475 L 375 1525 L 375 1575 L 300 1600 Z" fill="rgb(0,0,0)" stroke="rgb(0,0,0)" /><path d="M 100 300 L 200 300 L 175 375 L 100 400 Z" fill="rgb(0,255,255)" stroke="rgb(0,255,255)" /><path d="M 425 825 L 475 775 L 525 825 L 475 875 L 400 900 Z" fill="rgb(24,144,56)" stroke="rgb(24,144,56)" /><path d="M 225 825 L 275 775 L 300 800 L 325 825 L 300 900 L 200 900 Z" fill="rgb(80,208,88)" stroke="rgb(80,208,88)" /><path d="M 525 1325 L 550 1325 L 575 1325 L 600 1400 L 525 1425 L 475 1375 Z" fill="rgb(0,128,248)" stroke="rgb(0,128,248)" /><path d="M 300 2100 L 400 2100 L 400 2200 L 300 2200 Z" fill="rgb(0,255,255)" stroke="rgb(0,255,255)" /><path d="M 600 200 L 675 175 L 725 225 L 675 275 L 625 325 L 600 300 L 575 275 Z" fill="rgb(80,208,88)" stroke="rgb(80,208,88)" /><path d="M 400 2200 L 500 2200 L 500 2300 L 400 2300 Z" fill="rgb(0,255,255)" stroke="rgb(0,255,255)" /><path d="M 725 1125 L 800 1100 L 800 1200 L 700 1200 Z" fill="rgb(248,168,96)" stroke="rgb(248,168,96)" /><path d="M 500 2300 L 575 2325 L 600 2400 L 550 2400 L 500 2400 Z" fill="rgb(0,255,255)" stroke="rgb(0,255,255)" /><path d="M 1425 2325 L 1500 2300 L 1500 2400 L 1450 2400 L 1400 2400 Z" fill="rgb(0,255,255)" stroke="rgb(0,255,255)" /><path d="M 1200 300 L 1275 325 L 1325 375 L 1300 400 L 1275 425 L 1200 400 Z" fill="rgb(80,208,88)" stroke="rgb(80,208,88)" /><path d="M 1525 2225 L 1600 2200 L 1600 2250 L 1600 2300 L 1500 2300 Z" fill="rgb(0,255,255)" stroke="rgb(0,255,255)" /><path d="M 1275 225 L 1325 175 L 1375 225 L 1425 275 L 1375 325 L 1325 275 Z" fill="rgb(0,0,0)" stroke="rgb(0,0,0)" /><path d="M 100 400 L 175 375 L 200 400 L 225 425 L 175 475 L 125 525 L 100 500 L 75 475 Z" fill="rgb(0,255,255)" stroke="rgb(0,255,255)" /><path d="M 200 300 L 275 275 L 300 300 L 325 325 L 275 375 L 225 425 L 200 400 L 175 375 Z" fill="rgb(0,255,255)" stroke="rgb(0,255,255)" /><path d="M 625 525 L 675 475 L 725 525 L 675 575 L 625 625 L 575 575 Z" fill="rgb(80,208,88)" stroke="rgb(80,208,88)" /><path d="M 700 0 L 750 0 L 800 0 L 800 100 L 725 125 L 675 75 Z" fill="rgb(0,0,0)" stroke="rgb(0,0,0)" /><path d="M 475 1625 L 525 1575 L 575 1625 L 600 1700 L 525 1725 L 500 1700 L 475 1675 Z" fill="rgb(0,0,0)" stroke="rgb(0,0,0)" /><path d="M 800 400 L 900 400 L 900 500 L 800 500 Z" fill="rgb(80,208,88)" stroke="rgb(80,208,88)" /><path d="M 900 100 L 1000 100 L 1000 200 L 900 200 Z" fill="rgb(80,208,88)" stroke="rgb(80,208,88)" /><path d="M 1000 600 L 1100 600 L 1125 675 L 1075 725 L 1025 675 Z" fill="rgb(0,0,0)" stroke="rgb(0,0,0)" /><path d="M 1125 2325 L 1175 2275 L 1200 2300 L 1225 2325 L 1200 2400 L 1150 2400 L 1100 2400 Z" fill="rgb(0,255,255)" stroke="rgb(0,255,255)" /><path d="M 0 1600 L 100 1600 L 125 1675 L 75 1725 L 0 1700 L 0 1650 Z" fill="rgb(0,0,0)" stroke="rgb(0,0,0)" /><path d="M 1400 0 L 1450 0 L 1500 0 L 1500 100 L 1400 100 Z" fill="rgb(0,255,255)" stroke="rgb(0,255,255)" /><path d="M 1200 1600 L 1275 1575 L 1300 1600 L 1325 1625 L 1300 1700 L 1225 1675 Z" fill="rgb(248,48,216)" stroke="rgb(248,48,216)" /><path d="M 1475 525 L 1525 475 L 1600 500 L 1600 550 L 1600 600 L 1500 600 Z" fill="rgb(0,0,0)" stroke="rgb(0,0,0)" /><path d="M 1275 2125 L 1325 2075 L 1375 2075 L 1425 2125 L 1375 2175 L 1350 2175 L 1325 2175 Z" fill="rgb(246,187,0)" stroke="rgb(246,187,0)" /><path d="M 325 325 L 375 275 L 400 300 L 425 325 L 400 400 L 325 425 L 275 375 Z" fill="rgb(0,0,0)" stroke="rgb(0,0,0)" /><path d="M 400 400 L 475 375 L 525 425 L 475 475 L 400 500 Z" fill="rgb(80,208,88)" stroke="rgb(80,208,88)" /><path d="M 625 2225 L 675 2175 L 725 2225 L 725 2275 L 675 2325 L 625 2275 L 625 2250 Z" fill="rgb(0,0,0)" stroke="rgb(0,0,0)" /><path d="M 675 2325 L 725 2275 L 800 2300 L 800 2400 L 750 2400 L 700 2400 Z" fill="rgb(0,0,0)" stroke="rgb(0,0,0)" /><path d="M 800 1100 L 875 1125 L 900 1200 L 800 1200 Z" fill="rgb(248,168,96)" stroke="rgb(248,168,96)" /><path d="M 900 1000 L 1000 1000 L 1000 1100 L 925 1075 Z" fill="rgb(0,89,0)" stroke="rgb(0,89,0)" /><path d="M 1000 100 L 1075 125 L 1125 175 L 1075 225 L 1000 200 Z" fill="rgb(80,208,88)" stroke="rgb(80,208,88)" /><path d="M 775 1725 L 825 1675 L 875 1725 L 900 1800 L 800 1800 Z" fill="rgb(0,0,248)" stroke="rgb(0,0,248)" /><path d="M 1125 1225 L 1150 1225 L 1175 1225 L 1225 1275 L 1175 1325 L 1125 1325 L 1075 1275 Z" fill="rgb(246,187,0)" stroke="rgb(246,187,0)" /><path d="M 0 2300 L 100 2300 L 100 2400 L 50 2400 L 0 2400 L 0 2350 Z" fill="rgb(0,255,255)" stroke="rgb(0,255,255)" /><path d="M 1425 1125 L 1475 1075 L 1500 1100 L 1525 1125 L 1500 1200 L 1425 1225 L 1400 1200 L 1375 1175 Z" fill="rgb(0,255,255)" stroke="rgb(0,255,255)" /><path d="M 1225 1525 L 1300 1500 L 1275 1575 L 1200 1600 Z" fill="rgb(248,48,216)" stroke="rgb(248,48,216)" /><path d="M 100 2200 L 200 2200 L 200 2300 L 100 2300 Z" fill="rgb(0,255,255)" stroke="rgb(0,255,255)" /><path d="M 1500 200 L 1600 200 L 1600 250 L 1600 300 L 1525 275 Z" fill="rgb(0,255,255)" stroke="rgb(0,255,255)" /><path d="M 1325 1425 L 1400 1400 L 1425 1475 L 1375 1525 L 1300 1500 Z" fill="rgb(0,0,0)" stroke="rgb(0,0,0)" /><path d="M 200 2100 L 300 2100 L 300 2200 L 200 2200 Z" fill="rgb(0,255,255)" stroke="rgb(0,255,255)" /><path d="M 0 1300 L 100 1300 L 75 1375 L 0 1400 L 0 1350 Z" fill="rgb(0,255,255)" stroke="rgb(0,255,255)" /><path d="M 325 825 L 375 775 L 400 800 L 425 825 L 400 900 L 300 900 Z" fill="rgb(80,208,88)" stroke="rgb(80,208,88)" /><path d="M 75 825 L 125 775 L 175 775 L 225 825 L 200 900 L 100 900 Z" fill="rgb(0,0,0)" stroke="rgb(0,0,0)" /><path d="M 425 325 L 500 300 L 475 375 L 400 400 Z" fill="rgb(0,0,0)" stroke="rgb(0,0,0)" /><path d="M 200 1500 L 275 1525 L 300 1600 L 225 1625 L 200 1600 L 175 1575 Z" fill="rgb(248,168,96)" stroke="rgb(248,168,96)" /><path d="M 525 225 L 600 200 L 575 275 L 500 300 Z" fill="rgb(80,208,88)" stroke="rgb(80,208,88)" /><path d="M 600 900 L 700 900 L 700 1000 L 600 1000 Z" fill="rgb(0,89,0)" stroke="rgb(0,89,0)" /><path d="M 700 1200 L 800 1200 L 800 1300 L 700 1300 Z" fill="rgb(248,168,96)" stroke="rgb(248,168,96)" /><path d="M 1000 800 L 1075 825 L 1125 875 L 1075 925 L 1000 900 Z" fill="rgb(0,0,0)" stroke="rgb(0,0,0)" /><path d="M 1125 525 L 1200 500 L 1175 575 L 1100 600 Z" fill="rgb(248,48,216)" stroke="rgb(248,48,216)" /><path d="M 900 2100 L 1000 2100 L 1000 2200 L 900 2200 Z" fill="rgb(149,81,0)" stroke="rgb(149,81,0)" /><path d="M 1400 1800 L 1500 1800 L 1525 1875 L 1500 1900 L 1475 1925 L 1425 1875 Z" fill="rgb(0,255,255)" stroke="rgb(0,255,255)" /><path d="M 1225 625 L 1300 600 L 1275 675 L 1200 700 Z" fill="rgb(168,0,136)" stroke="rgb(168,0,136)" /><path d="M 975 1825 L 1000 1800 L 1025 1775 L 1075 1775 L 1100 1800 L 1125 1825 L 1125 1875 L 1075 1925 L 1025 1925 L 975 1875 Z" fill="rgb(0,0,0)" stroke="rgb(0,0,0)" /><path d="M 1525 1125 L 1600 1100 L 1600 1150 L 1600 1200 L 1500 1200 Z" fill="rgb(0,255,255)" stroke="rgb(0,255,255)" /><path d="M 1325 725 L 1375 675 L 1400 700 L 1425 725 L 1425 775 L 1400 800 L 1375 825 L 1325 825 L 1275 775 Z" fill="rgb(24,144,56)" stroke="rgb(24,144,56)" /><path d="M 0 400 L 100 400 L 75 475 L 0 500 L 0 450 Z" fill="rgb(0,255,255)" stroke="rgb(0,255,255)" /><path d="M 100 100 L 200 100 L 200 200 L 100 200 Z" fill="rgb(0,255,255)" stroke="rgb(0,255,255)" /><path d="M 400 1000 L 500 1000 L 500 1100 L 425 1125 L 400 1100 L 375 1075 Z" fill="rgb(24,144,56)" stroke="rgb(24,144,56)" /><path d="M 225 625 L 300 600 L 275 675 L 225 725 L 200 700 L 175 675 Z" fill="rgb(80,208,88)" stroke="rgb(80,208,88)" /><path d="M 500 1100 L 600 1100 L 625 1175 L 600 1200 L 575 1225 L 525 1175 Z" fill="rgb(248,168,96)" stroke="rgb(248,168,96)" /><path d="M 300 2300 L 400 2300 L 400 2400 L 350 2400 L 300 2400 Z" fill="rgb(0,255,255)" stroke="rgb(0,255,255)" /><path d="M 600 0 L 650 0 L 700 0 L 675 75 L 600 100 Z" fill="rgb(0,255,255)" stroke="rgb(0,255,255)" /><path d="M 425 1625 L 450 1625 L 475 1625 L 475 1650 L 475 1675 L 450 1675 L 425 1675 L 425 1650 Z" fill="rgb(248,48,216)" stroke="rgb(248,48,216)" /><path d="M 725 525 L 800 500 L 800 600 L 725 625 L 675 575 Z" fill="rgb(24,144,56)" stroke="rgb(24,144,56)" /><path d="M 475 2125 L 500 2100 L 525 2075 L 600 2100 L 575 2175 L 500 2200 Z" fill="rgb(0,255,255)" stroke="rgb(0,255,255)" /><path d="M 1425 2125 L 1475 2075 L 1525 2125 L 1475 2175 L 1425 2225 L 1375 2175 Z" fill="rgb(0,0,0)" stroke="rgb(0,0,0)" /><path d="M 1500 1600 L 1600 1600 L 1600 1650 L 1600 1700 L 1525 1725 L 1500 1700 L 1475 1675 Z" fill="rgb(0,255,255)" stroke="rgb(0,255,255)" /><path d="M 1300 0 L 1350 0 L 1400 0 L 1400 100 L 1325 75 Z" fill="rgb(0,255,255)" stroke="rgb(0,255,255)" /><path d="M 1100 1600 L 1200 1600 L 1225 1675 L 1200 1700 L 1175 1725 L 1125 1725 L 1100 1700 L 1075 1675 Z" fill="rgb(0,0,0)" stroke="rgb(0,0,0)" /><path d="M 200 100 L 300 100 L 300 200 L 200 200 Z" fill="rgb(0,255,255)" stroke="rgb(0,255,255)" /><path d="M 725 225 L 800 200 L 800 300 L 725 325 L 700 300 L 675 275 Z" fill="rgb(176,248,200)" stroke="rgb(176,248,200)" /><path d="M 800 600 L 900 600 L 900 700 L 800 700 Z" fill="rgb(192,128,80)" stroke="rgb(192,128,80)" /><path d="M 900 700 L 975 725 L 1000 800 L 925 825 L 900 800 L 875 775 Z" fill="rgb(192,128,80)" stroke="rgb(192,128,80)" /><path d="M 1025 425 L 1075 375 L 1100 400 L 1125 425 L 1075 475 L 1000 500 Z" fill="rgb(80,208,88)" stroke="rgb(80,208,88)" /><path d="M 1075 925 L 1125 875 L 1200 900 L 1200 1000 L 1100 1000 Z" fill="rgb(0,0,0)" stroke="rgb(0,0,0)" /><path d="M 0 1800 L 75 1825 L 100 1900 L 0 1900 L 0 1850 Z" fill="rgb(0,255,255)" stroke="rgb(0,255,255)" /><path d="M 1400 600 L 1500 600 L 1500 700 L 1425 725 L 1400 700 L 1375 675 Z" fill="rgb(24,144,56)" stroke="rgb(24,144,56)" /><path d="M 1200 1800 L 1275 1825 L 1325 1875 L 1275 1925 L 1200 1900 Z" fill="rgb(246,187,0)" stroke="rgb(246,187,0)" /><path d="M 100 1900 L 200 1900 L 200 2000 L 100 2000 Z" fill="rgb(0,255,255)" stroke="rgb(0,255,255)" /><path d="M 1500 700 L 1600 700 L 1600 750 L 1600 800 L 1500 800 Z" fill="rgb(0,0,0)" stroke="rgb(0,0,0)" /><path d="M 1275 1925 L 1325 1875 L 1375 1925 L 1425 1975 L 1375 2025 L 1325 1975 Z" fill="rgb(246,187,0)" stroke="rgb(246,187,0)" /><path d="M 0 800 L 75 825 L 100 900 L 0 900 L 0 850 Z" fill="rgb(0,255,255)" stroke="rgb(0,255,255)" /><path d="M 325 525 L 400 500 L 425 575 L 400 600 L 375 625 L 300 600 Z" fill="rgb(176,248,200)" stroke="rgb(176,248,200)" /><path d="M 375 625 L 400 600 L 425 575 L 475 575 L 500 600 L 525 625 L 475 675 L 400 700 Z" fill="rgb(176,248,200)" stroke="rgb(176,248,200)" /><path d="M 525 725 L 575 675 L 625 725 L 600 800 L 525 825 L 475 775 Z" fill="rgb(24,144,56)" stroke="rgb(24,144,56)" /><path d="M 600 2000 L 700 2000 L 725 2075 L 700 2100 L 675 2125 L 600 2100 Z" fill="rgb(0,0,0)" stroke="rgb(0,0,0)" /><path d="M 675 1725 L 700 1700 L 725 1675 L 775 1725 L 800 1800 L 700 1800 Z" fill="rgb(0,128,248)" stroke="rgb(0,128,248)" /><path d="M 800 1300 L 900 1300 L 900 1400 L 800 1400 Z" fill="rgb(0,0,0)" stroke="rgb(0,0,0)" /><path d="M 925 825 L 1000 800 L 1000 900 L 900 900 Z" fill="rgb(0,0,0)" stroke="rgb(0,0,0)" /><path d="M 1000 1500 L 1075 1525 L 1100 1600 L 1025 1625 L 1000 1600 L 975 1575 Z" fill="rgb(248,168,96)" stroke="rgb(248,168,96)" /><path d="M 825 1925 L 900 1900 L 900 2000 L 825 2025 L 775 1975 Z" fill="rgb(0,0,0)" stroke="rgb(0,0,0)" /><path d="M 1100 1400 L 1200 1400 L 1175 1475 L 1125 1475 Z" fill="rgb(0,0,0)" stroke="rgb(0,0,0)" /><path d="M 900 1800 L 975 1825 L 975 1850 L 975 1875 L 900 1900 Z" fill="rgb(149,81,0)" stroke="rgb(149,81,0)" /><path d="M 1400 900 L 1500 900 L 1475 975 L 1400 1000 Z" fill="rgb(24,144,56)" stroke="rgb(24,144,56)" /><path d="M 1200 900 L 1300 900 L 1300 1000 L 1200 1000 Z" fill="rgb(24,144,56)" stroke="rgb(24,144,56)" /><path d="M 100 2000 L 200 2000 L 200 2100 L 100 2100 Z" fill="rgb(0,255,255)" stroke="rgb(0,255,255)" /><path d="M 1500 1200 L 1600 1200 L 1600 1250 L 1600 1300 L 1500 1300 Z" fill="rgb(0,255,255)" stroke="rgb(0,255,255)" /><path d="M 1325 1225 L 1375 1175 L 1400 1200 L 1425 1225 L 1425 1275 L 1400 1300 L 1375 1325 L 1325 1275 L 1325 1250 Z" fill="rgb(0,255,255)" stroke="rgb(0,255,255)" /><path d="M 200 1900 L 300 1900 L 300 2000 L 200 2000 Z" fill="rgb(0,255,255)" stroke="rgb(0,255,255)" /><path d="M 0 1500 L 75 1475 L 125 1525 L 100 1600 L 0 1600 L 0 1550 Z" fill="rgb(0,0,0)" stroke="rgb(0,0,0)" /><path d="M 325 1025 L 400 1000 L 375 1075 L 300 1100 Z" fill="rgb(24,144,56)" stroke="rgb(24,144,56)" /><path d="M 125 1425 L 200 1400 L 200 1500 L 125 1525 L 75 1475 Z" fill="rgb(0,0,0)" stroke="rgb(0,0,0)" /><path d="M 425 1325 L 475 1275 L 525 1325 L 475 1375 L 425 1425 L 375 1375 Z" fill="rgb(0,0,0)" stroke="rgb(0,0,0)" /><path d="M 200 1300 L 275 1325 L 300 1400 L 200 1400 Z" fill="rgb(0,255,255)" stroke="rgb(0,255,255)" /><path d="M 500 0 L 550 0 L 600 0 L 600 100 L 525 125 L 500 100 L 475 75 Z" fill="rgb(0,255,255)" stroke="rgb(0,255,255)" /><path d="M 300 1600 L 375 1575 L 400 1600 L 425 1625 L 425 1675 L 400 1700 L 375 1725 L 325 1725 L 300 1700 L 275 1675 Z" fill="rgb(0,0,0)" stroke="rgb(0,0,0)" /><path d="M 575 1525 L 625 1475 L 700 1500 L 700 1600 L 625 1575 Z" fill="rgb(246,246,114)" stroke="rgb(246,246,114)" /><path d="M 700 1400 L 800 1400 L 775 1475 L 700 1500 Z" fill="rgb(0,0,248)" stroke="rgb(0,0,248)" /><path d="M 1075 725 L 1125 675 L 1200 700 L 1200 800 L 1125 775 Z" fill="rgb(0,0,0)" stroke="rgb(0,0,0)" /><path d="M 1400 1600 L 1500 1600 L 1475 1675 L 1425 1725 L 1375 1675 Z" fill="rgb(0,0,0)" stroke="rgb(0,0,0)" /><path d="M 1200 0 L 1250 0 L 1300 0 L 1325 75 L 1300 100 L 1275 125 L 1200 100 Z" fill="rgb(0,255,255)" stroke="rgb(0,255,255)" /><path d="M 1025 1625 L 1100 1600 L 1075 1675 L 1000 1700 Z" fill="rgb(192,128,80)" stroke="rgb(192,128,80)" /><path d="M 1525 2125 L 1600 2100 L 1600 2150 L 1600 2200 L 1525 2225 L 1500 2200 L 1475 2175 Z" fill="rgb(0,255,255)" stroke="rgb(0,255,255)" /><path d="M 1275 525 L 1325 475 L 1375 475 L 1425 525 L 1400 600 L 1300 600 Z" fill="rgb(0,0,0)" stroke="rgb(0,0,0)" /><path d="M 0 600 L 75 575 L 125 625 L 100 700 L 0 700 L 0 650 Z" fill="rgb(0,0,0)" stroke="rgb(0,0,0)" /><path d="M 100 700 L 175 675 L 200 700 L 225 725 L 175 775 L 150 775 L 125 775 Z" fill="rgb(80,208,88)" stroke="rgb(80,208,88)" /><path d="M 225 425 L 275 375 L 325 425 L 275 475 L 225 525 L 175 475 Z" fill="rgb(0,0,0)" stroke="rgb(0,0,0)" /><path d="M 525 925 L 600 900 L 600 1000 L 500 1000 Z" fill="rgb(246,246,246)" stroke="rgb(246,246,246)" /><path d="M 625 625 L 675 575 L 725 625 L 675 675 L 625 725 L 575 675 Z" fill="rgb(24,144,56)" stroke="rgb(24,144,56)" /><path d="M 375 1825 L 400 1800 L 425 1775 L 475 1775 L 500 1800 L 525 1825 L 500 1900 L 400 1900 Z" fill="rgb(0,0,0)" stroke="rgb(0,0,0)" /><path d="M 725 725 L 800 700 L 800 800 L 725 775 Z" fill="rgb(192,128,80)" stroke="rgb(192,128,80)" /><path d="M 500 1900 L 600 1900 L 600 2000 L 525 1975 Z" fill="rgb(246,187,0)" stroke="rgb(246,187,0)" /><path d="M 800 100 L 900 100 L 900 200 L 800 200 Z" fill="rgb(80,208,88)" stroke="rgb(80,208,88)" /><path d="M 1500 1800 L 1600 1800 L 1600 1850 L 1600 1900 L 1525 1875 Z" fill="rgb(0,255,255)" stroke="rgb(0,255,255)" /><path d="M 1125 1825 L 1200 1800 L 1200 1900 L 1125 1875 L 1125 1850 Z" fill="rgb(246,187,0)" stroke="rgb(246,187,0)" /><path d="M 1175 2125 L 1200 2100 L 1225 2075 L 1275 2125 L 1325 2175 L 1275 2225 L 1225 2225 L 1200 2200 L 1175 2175 Z" fill="rgb(0,0,0)" stroke="rgb(0,0,0)" /><path d="M 600 1900 L 700 1900 L 700 2000 L 600 2000 Z" fill="rgb(246,246,114)" stroke="rgb(246,246,114)" /><path d="M 800 800 L 875 775 L 900 800 L 925 825 L 900 900 L 800 900 Z" fill="rgb(192,128,80)" stroke="rgb(192,128,80)" /><path d="M 900 500 L 1000 500 L 1000 600 L 900 600 Z" fill="rgb(24,144,56)" stroke="rgb(24,144,56)" /><path d="M 1000 200 L 1075 225 L 1075 250 L 1075 275 L 1025 325 L 1000 300 L 975 275 Z" fill="rgb(176,248,200)" stroke="rgb(176,248,200)" /><path d="M 1125 1125 L 1200 1100 L 1225 1175 L 1200 1200 L 1175 1225 L 1125 1225 L 1075 1175 Z" fill="rgb(0,0,0)" stroke="rgb(0,0,0)" /><path d="M 0 2000 L 100 2000 L 100 2100 L 0 2100 L 0 2050 Z" fill="rgb(0,255,255)" stroke="rgb(0,255,255)" /><path d="M 1400 400 L 1500 400 L 1525 475 L 1475 525 L 1425 525 L 1375 475 Z" fill="rgb(0,0,0)" stroke="rgb(0,0,0)" /><path d="M 1175 1225 L 1200 1200 L 1225 1175 L 1275 1175 L 1300 1200 L 1325 1225 L 1325 1275 L 1275 1325 L 1225 1275 Z" fill="rgb(0,0,0)" stroke="rgb(0,0,0)" /><path d="M 75 1725 L 125 1675 L 200 1700 L 200 1800 L 125 1775 Z" fill="rgb(0,0,0)" stroke="rgb(0,0,0)" /><path d="M 1500 100 L 1600 100 L 1600 150 L 1600 200 L 1500 200 Z" fill="rgb(0,255,255)" stroke="rgb(0,255,255)" /><path d="M 1300 1700 L 1375 1675 L 1425 1725 L 1400 1800 L 1325 1775 Z" fill="rgb(0,0,0)" stroke="rgb(0,0,0)" /><path d="M 200 2200 L 300 2200 L 300 2300 L 200 2300 Z" fill="rgb(0,255,255)" stroke="rgb(0,255,255)" /><path d="M 0 1000 L 100 1000 L 125 1075 L 100 1100 L 75 1125 L 0 1100 L 0 1050 Z" fill="rgb(0,255,255)" stroke="rgb(0,255,255)" /><path d="M 325 725 L 400 700 L 375 775 L 325 825 L 300 800 L 275 775 Z" fill="rgb(80,208,88)" stroke="rgb(80,208,88)" /><path d="M 75 1125 L 100 1100 L 125 1075 L 175 1125 L 225 1175 L 200 1200 L 175 1225 L 100 1200 Z" fill="rgb(0,255,255)" stroke="rgb(0,255,255)" /><path d="M 400 0 L 450 0 L 500 0 L 475 75 L 400 100 Z" fill="rgb(0,255,255)" stroke="rgb(0,255,255)" /><path d="M 525 525 L 575 475 L 600 500 L 625 525 L 575 575 L 525 625 L 500 600 L 475 575 Z" fill="rgb(176,248,200)" stroke="rgb(176,248,200)" /><path d="M 600 1000 L 700 1000 L 675 1075 L 600 1100 Z" fill="rgb(0,89,0)" stroke="rgb(0,89,0)" /><path d="M 700 1900 L 775 1875 L 825 1925 L 775 1975 L 700 2000 Z" fill="rgb(246,187,0)" stroke="rgb(246,187,0)" /><path d="M 825 1525 L 900 1500 L 900 1600 L 800 1600 Z" fill="rgb(0,0,0)" stroke="rgb(0,0,0)" /><path d="M 900 1400 L 975 1425 L 1000 1500 L 900 1500 Z" fill="rgb(0,0,248)" stroke="rgb(0,0,248)" /><path d="M 1025 1325 L 1075 1275 L 1125 1325 L 1100 1400 L 1025 1375 L 1025 1350 Z" fill="rgb(246,187,0)" stroke="rgb(246,187,0)" /><path d="M 800 2100 L 900 2100 L 900 2200 L 800 2200 Z" fill="rgb(168,0,136)" stroke="rgb(168,0,136)" /><path d="M 1100 0 L 1150 0 L 1200 0 L 1200 100 L 1125 75 Z" fill="rgb(0,255,255)" stroke="rgb(0,255,255)" /><path d="M 900 1600 L 975 1575 L 1000 1600 L 1025 1625 L 1000 1700 L 925 1675 Z" fill="rgb(248,168,96)" stroke="rgb(248,168,96)" /><path d="M 1375 1525 L 1425 1475 L 1475 1525 L 1500 1600 L 1400 1600 Z" fill="rgb(0,0,0)" stroke="rgb(0,0,0)" /><path d="M 1200 1100 L 1300 1100 L 1275 1175 L 1225 1175 Z" fill="rgb(0,0,0)" stroke="rgb(0,0,0)" /><path d="M 1000 2300 L 1075 2275 L 1125 2325 L 1100 2400 L 1050 2400 L 1000 2400 Z" fill="rgb(0,0,0)" stroke="rgb(0,0,0)" /><path d="M 1500 1400 L 1600 1400 L 1600 1450 L 1600 1500 L 1525 1475 Z" fill="rgb(0,255,255)" stroke="rgb(0,255,255)" /><path d="M 1300 1000 L 1400 1000 L 1375 1075 L 1300 1100 Z" fill="rgb(248,168,96)" stroke="rgb(248,168,96)" /><path d="M 200 1700 L 275 1675 L 300 1700 L 325 1725 L 300 1800 L 200 1800 Z" fill="rgb(0,0,0)" stroke="rgb(0,0,0)" /><path d="M 0 100 L 100 100 L 100 200 L 0 200 L 0 150 Z" fill="rgb(0,255,255)" stroke="rgb(0,255,255)" /><path d="M 275 1225 L 325 1175 L 375 1175 L 425 1225 L 375 1275 L 350 1275 L 325 1275 Z" fill="rgb(0,0,0)" stroke="rgb(0,0,0)" /><path d="M 100 1200 L 175 1225 L 200 1300 L 100 1300 Z" fill="rgb(0,255,255)" stroke="rgb(0,255,255)" /><path d="M 375 1525 L 400 1500 L 425 1475 L 475 1525 L 525 1575 L 475 1625 L 425 1625 L 400 1600 L 375 1575 Z" fill="rgb(0,0,0)" stroke="rgb(0,0,0)" /><path d="M 175 1125 L 225 1075 L 300 1100 L 325 1175 L 275 1225 L 225 1175 Z" fill="rgb(0,0,0)" stroke="rgb(0,0,0)" /><path d="M 525 1425 L 600 1400 L 625 1475 L 575 1525 L 525 1475 L 525 1450 Z" fill="rgb(246,246,114)" stroke="rgb(246,246,114)" /><path d="M 300 1800 L 375 1825 L 400 1900 L 300 1900 Z" fill="rgb(0,255,255)" stroke="rgb(0,255,255)" /><path d="M 575 1325 L 625 1275 L 700 1300 L 700 1400 L 600 1400 Z" fill="rgb(0,0,0)" stroke="rgb(0,0,0)" /><path d="M 400 2100 L 475 2125 L 500 2200 L 400 2200 Z" fill="rgb(0,255,255)" stroke="rgb(0,255,255)" /><path d="M 675 825 L 700 800 L 725 775 L 800 800 L 800 900 L 700 900 Z" fill="rgb(192,128,80)" stroke="rgb(192,128,80)" /><path d="M 1425 2225 L 1475 2175 L 1500 2200 L 1525 2225 L 1500 2300 L 1425 2325 L 1400 2300 L 1375 2275 Z" fill="rgb(0,255,255)" stroke="rgb(0,255,255)" /><path d="M 1200 200 L 1275 225 L 1325 275 L 1300 300 L 1275 325 L 1200 300 Z" fill="rgb(80,208,88)" stroke="rgb(80,208,88)" /><path d="M 1500 2300 L 1600 2300 L 1600 2350 L 1600 2400 L 1550 2400 L 1500 2400 Z" fill="rgb(0,255,255)" stroke="rgb(0,255,255)" /><path d="M 1275 325 L 1300 300 L 1325 275 L 1375 325 L 1400 400 L 1325 375 Z" fill="rgb(80,208,88)" stroke="rgb(80,208,88)" /><path d="M 125 525 L 175 475 L 225 525 L 175 575 L 125 625 L 75 575 Z" fill="rgb(0,0,0)" stroke="rgb(0,0,0)" /><path d="M 200 200 L 300 200 L 275 275 L 200 300 Z" fill="rgb(0,255,255)" stroke="rgb(0,255,255)" /><path d="M 625 425 L 675 375 L 700 400 L 725 425 L 675 475 L 625 525 L 600 500 L 575 475 Z" fill="rgb(176,248,200)" stroke="rgb(176,248,200)" /><path d="M 725 125 L 800 100 L 800 200 L 725 225 L 675 175 Z" fill="rgb(80,208,88)" stroke="rgb(80,208,88)" /><path d="M 525 1725 L 600 1700 L 575 1775 L 525 1825 L 500 1800 L 475 1775 Z" fill="rgb(0,0,0)" stroke="rgb(0,0,0)" /><path d="M 800 300 L 900 300 L 900 400 L 800 400 Z" fill="rgb(176,248,200)" stroke="rgb(176,248,200)" /><path d="M 900 200 L 1000 200 L 975 275 L 900 300 Z" fill="rgb(176,248,200)" stroke="rgb(176,248,200)" /><path d="M 1100 2000 L 1200 2000 L 1225 2075 L 1200 2100 L 1175 2125 L 1100 2100 Z" fill="rgb(0,0,0)" stroke="rgb(0,0,0)" /><path d="M 1375 325 L 1425 275 L 1475 325 L 1500 400 L 1400 400 Z" fill="rgb(0,0,0)" stroke="rgb(0,0,0)" /><path d="M 1225 2325 L 1275 2325 L 1300 2400 L 1250 2400 L 1200 2400 Z" fill="rgb(0,255,255)" stroke="rgb(0,255,255)" /><path d="M 1275 2225 L 1325 2175 L 1375 2175 L 1425 2225 L 1375 2275 L 1350 2275 L 1325 2275 Z" fill="rgb(0,0,0)" stroke="rgb(0,0,0)" /><path d="M 300 0 L 350 0 L 400 0 L 400 100 L 300 100 Z" fill="rgb(0,255,255)" stroke="rgb(0,255,255)" /><path d="M 600 1700 L 675 1725 L 700 1800 L 625 1825 L 600 1800 L 575 1775 Z" fill="rgb(0,128,248)" stroke="rgb(0,128,248)" /><path d="M 700 2000 L 775 1975 L 825 2025 L 800 2100 L 725 2075 Z" fill="rgb(0,0,0)" stroke="rgb(0,0,0)" /><path d="M 800 1000 L 900 1000 L 925 1075 L 900 1100 L 875 1125 L 800 1100 Z" fill="rgb(248,168,96)" stroke="rgb(248,168,96)" /><path d="M 875 1125 L 900 1100 L 925 1075 L 1000 1100 L 1000 1200 L 900 1200 Z" fill="rgb(248,168,96)" stroke="rgb(248,168,96)" /><path d="M 1000 0 L 1050 0 L 1100 0 L 1125 75 L 1075 125 L 1000 100 Z" fill="rgb(0,0,0)" stroke="rgb(0,0,0)" /><path d="M 800 1600 L 900 1600 L 925 1675 L 875 1725 L 825 1675 Z" fill="rgb(0,0,0)" stroke="rgb(0,0,0)" /><path d="M 1125 1325 L 1150 1325 L 1175 1325 L 1200 1400 L 1100 1400 Z" fill="rgb(246,246,114)" stroke="rgb(246,246,114)" /><path d="M 0 2200 L 100 2200 L 100 2300 L 0 2300 L 0 2250 Z" fill="rgb(0,255,255)" stroke="rgb(0,255,255)" /><path d="M 1400 1000 L 1475 975 L 1525 1025 L 1475 1075 L 1425 1125 L 1375 1075 Z" fill="rgb(0,0,0)" stroke="rgb(0,0,0)" /><path d="M 1200 1400 L 1275 1375 L 1300 1400 L 1325 1425 L 1300 1500 L 1225 1525 L 1200 1500 L 1175 1475 Z" fill="rgb(0,0,0)" stroke="rgb(0,0,0)" /><path d="M 100 2300 L 200 2300 L 200 2400 L 150 2400 L 100 2400 Z" fill="rgb(0,255,255)" stroke="rgb(0,255,255)" /><path d="M 1475 325 L 1500 300 L 1525 275 L 1600 300 L 1600 350 L 1600 400 L 1500 400 Z" fill="rgb(0,255,255)" stroke="rgb(0,255,255)" /><path d="M 1300 1500 L 1375 1525 L 1400 1600 L 1325 1625 L 1300 1600 L 1275 1575 Z" fill="rgb(248,48,216)" stroke="rgb(248,48,216)" /><path d="M 200 2000 L 300 2000 L 300 2100 L 200 2100 Z" fill="rgb(0,255,255)" stroke="rgb(0,255,255)" /><path d="M 0 1200 L 100 1200 L 100 1300 L 0 1300 L 0 1250 Z" fill="rgb(0,255,255)" stroke="rgb(0,255,255)" /><path d="M 300 900 L 400 900 L 400 1000 L 325 1025 L 300 1000 L 275 975 Z" fill="rgb(80,208,88)" stroke="rgb(80,208,88)" /><path d="M 100 900 L 200 900 L 200 1000 L 100 1000 Z" fill="rgb(0,0,0)" stroke="rgb(0,0,0)" /><path d="M 425 225 L 475 175 L 525 225 L 500 300 L 425 325 L 400 300 L 375 275 Z" fill="rgb(0,0,0)" stroke="rgb(0,0,0)" /><path d="M 200 1400 L 300 1400 L 325 1475 L 300 1500 L 275 1525 L 200 1500 Z" fill="rgb(0,0,0)" stroke="rgb(0,0,0)" /><path d="M 500 300 L 575 275 L 600 300 L 625 325 L 575 375 L 525 425 L 475 375 Z" fill="rgb(80,208,88)" stroke="rgb(80,208,88)" /><path d="M 600 800 L 675 825 L 700 900 L 600 900 Z" fill="rgb(0,0,0)" stroke="rgb(0,0,0)" /><path d="M 700 1300 L 800 1300 L 800 1400 L 700 1400 Z" fill="rgb(0,0,0)" stroke="rgb(0,0,0)" /><path d="M 900 1200 L 1000 1200 L 975 1275 L 900 1300 Z" fill="rgb(248,168,96)" stroke="rgb(248,168,96)" /><path d="M 1000 1100 L 1075 1075 L 1125 1125 L 1075 1175 L 1000 1200 Z" fill="rgb(192,128,80)" stroke="rgb(192,128,80)" /><path d="M 800 2300 L 900 2300 L 900 2400 L 850 2400 L 800 2400 Z" fill="rgb(0,0,0)" stroke="rgb(0,0,0)" /><path d="M 1075 225 L 1125 175 L 1200 200 L 1200 300 L 1125 325 L 1100 300 L 1075 275 Z" fill="rgb(80,208,88)" stroke="rgb(80,208,88)" /><path d="M 900 2200 L 1000 2200 L 1000 2300 L 900 2300 Z" fill="rgb(248,168,96)" stroke="rgb(248,168,96)" /><path d="M 1375 1325 L 1400 1300 L 1425 1275 L 1500 1300 L 1500 1400 L 1400 1400 Z" fill="rgb(0,255,255)" stroke="rgb(0,255,255)" /><path d="M 1200 500 L 1275 525 L 1300 600 L 1225 625 L 1200 600 L 1175 575 Z" fill="rgb(168,0,136)" stroke="rgb(168,0,136)" /><path d="M 1000 2100 L 1100 2100 L 1100 2200 L 1000 2200 Z" fill="rgb(192,128,80)" stroke="rgb(192,128,80)" /><path d="M 1500 800 L 1600 800 L 1600 850 L 1600 900 L 1500 900 Z" fill="rgb(0,0,0)" stroke="rgb(0,0,0)" /><path d="M 1325 825 L 1350 825 L 1375 825 L 1400 900 L 1300 900 Z" fill="rgb(248,168,96)" stroke="rgb(248,168,96)" /><path d="M 0 300 L 100 300 L 100 400 L 0 400 L 0 350 Z" fill="rgb(0,255,255)" stroke="rgb(0,255,255)" /><path d="M 300 1400 L 375 1375 L 425 1425 L 425 1475 L 400 1500 L 375 1525 L 325 1475 Z" fill="rgb(0,0,0)" stroke="rgb(0,0,0)" /><path d="M 100 200 L 200 200 L 200 300 L 100 300 Z" fill="rgb(0,255,255)" stroke="rgb(0,255,255)" /><path d="M 400 900 L 475 875 L 525 925 L 500 1000 L 400 1000 Z" fill="rgb(0,0,0)" stroke="rgb(0,0,0)" /><path d="M 200 900 L 300 900 L 275 975 L 200 1000 Z" fill="rgb(80,208,88)" stroke="rgb(80,208,88)" /><path d="M 475 1225 L 525 1175 L 575 1225 L 625 1275 L 575 1325 L 525 1325 L 475 1275 Z" fill="rgb(0,0,0)" stroke="rgb(0,0,0)" /><path d="M 300 2000 L 375 2025 L 400 2100 L 300 2100 Z" fill="rgb(0,255,255)" stroke="rgb(0,255,255)" /><path d="M 625 325 L 675 275 L 700 300 L 725 325 L 675 375 L 625 425 L 600 400 L 575 375 Z" fill="rgb(176,248,200)" stroke="rgb(176,248,200)" /><path d="M 400 2300 L 500 2300 L 500 2400 L 450 2400 L 400 2400 Z" fill="rgb(0,255,255)" stroke="rgb(0,255,255)" /><path d="M 700 1000 L 800 1000 L 800 1100 L 725 1125 L 700 1100 L 675 1075 Z" fill="rgb(248,168,96)" stroke="rgb(248,168,96)" /><path d="M 500 2200 L 575 2175 L 600 2200 L 625 2225 L 625 2275 L 600 2300 L 575 2325 L 500 2300 Z" fill="rgb(0,255,255)" stroke="rgb(0,255,255)" /><path d="M 1375 2025 L 1425 1975 L 1475 2025 L 1475 2050 L 1475 2075 L 1425 2125 L 1375 2075 Z" fill="rgb(246,187,0)" stroke="rgb(246,187,0)" /><path d="M 1525 1725 L 1600 1700 L 1600 1750 L 1600 1800 L 1500 1800 Z" fill="rgb(0,255,255)" stroke="rgb(0,255,255)" /><path d="M 1275 125 L 1300 100 L 1325 75 L 1400 100 L 1425 175 L 1400 200 L 1375 225 L 1325 175 Z" fill="rgb(0,255,255)" stroke="rgb(0,255,255)" /><path d="M 1125 1725 L 1175 1725 L 1200 1800 L 1125 1825 L 1100 1800 L 1075 1775 Z" fill="rgb(0,0,0)" stroke="rgb(0,0,0)" /><path d="M 200 0 L 250 0 L 300 0 L 300 100 L 200 100 Z" fill="rgb(0,255,255)" stroke="rgb(0,255,255)" /></svg>