<?xml version="1.0" encoding="utf-8" ?>
<svg baseProfile="full" height="100%" version="1.1" width="100%" xmlns="http://www.w3.org/2000/svg" xmlns:ev="http://www.w3.org/2001/xml-events" xmlns:xlink="http://www.w3.org/1999/xlink"><defs /><rect fill="rgb(255,255,255)" height="100%" width="100%" x="0" y="0" /><path d="M 425 1675 Q 350 1650 425 1625" fill="rgb(0,0,0)" stroke="rgb(0,0,0)" /><path d="M 1400 1600 Q 1350 1650 1325 1625 M 1325 1625 Q 1350 1650 1300 1700 M 1300 1700 Q 1350 1650 1375 1675 M 1375 1675 Q 1350 1650 1400 1600" fill="rgb(168,0,136)" stroke="rgb(0,0,0)" /><path d="M 1100 600 Q 1150 550 1175 575 M 1175 575 Q 1150 550 1200 500 M 1200 500 Q 1150 550 1125 525 M 1125 525 Q 1150 550 1100 600" fill="rgb(248,48,216)" stroke="rgb(0,0,0)" /><path d="M 200 1700 Q 150 1650 225 1625 M 225 1625 Q 250 1550 300 1600 M 300 1600 Q 350 1650 275 1675 M 275 1675 Q 250 1750 200 1700" fill="rgb(0,0,0)" stroke="rgb(0,0,0)" /><path d="M 900 2100 Q 950 2150 900 2200" fill="rgb(149,81,0)" stroke="rgb(0,0,0)" /><path d="M 475 1225 Q 475 1250 475 1275" fill="rgb(0,0,0)" stroke="rgb(0,0,0)" /><path d="M 600 1100 Q 600 1000 600 900" fill="rgb(0,0,0)" stroke="rgb(0,0,0)" /><path d="M 1425 525 Q 1450 525 1475 525" fill="rgb(0,0,0)" stroke="rgb(0,0,0)" /><path d="M 700 1600 Q 650 1650 625 1575 M 625 1575 Q 575 1525 525 1475" fill="rgb(0,0,0)" stroke="rgb(0,0,0)" /><path d="M 425 1675 Q 450 1650 475 1675" fill="rgb(248,48,216)" stroke="rgb(0,0,0)" /><path d="M 900 2100 Q 950 2050 1000 2100" fill="rgb(248,168,96)" stroke="rgb(0,0,0)" /><path d="M 1175 1225 Q 1225 1275 1275 1325" fill="rgb(0,0,0)" stroke="rgb(0,0,0)" /><path d="M 900 1800 Q 950 1750 975 1825 M 975 1825 Q 975 1850 975 1875 M 975 1875 Q 900 1900 825 1925 M 825 1925 Q 850 1950 775 1975 M 775 1975 Q 750 2050 700 2000 M 700 2000 Q 650 2050 600 2000 M 600 2000 Q 550 2050 525 1975 M 525 1975 Q 450 1950 500 1900 M 500 1900 Q 450 1850 525 1825 M 525 1825 Q 550 1750 575 1775 M 575 1775 Q 550 1750 600 1700 M 600 1700 Q 550 1650 575 1625 M 575 1625 Q 500 1550 425 1475" fill="rgb(0,0,0)" stroke="rgb(0,0,0)" /><path d="M 700 900 Q 650 950 600 900 M 600 900 Q 550 950 525 925 M 525 925 Q 550 950 500 1000 M 500 1000 Q 550 1050 500 1100" fill="rgb(246,246,246)" stroke="rgb(0,0,0)" /><path d="M 1175 1225 Q 1150 1250 1125 1225" fill="rgb(246,187,0)" stroke="rgb(0,0,0)" /><path d="M 1075 1925 Q 1050 1950 1025 1925" fill="rgb(192,128,80)" stroke="rgb(0,0,0)" /><path d="M 1075 1925 Q 1050 1950 1025 1925" fill="rgb(192,128,80)" stroke="rgb(0,0,0)" /><path d="M 1375 2175 Q 1350 2175 1325 2175" fill="rgb(0,0,0)" stroke="rgb(0,0,0)" /><path d="M 600 1400 Q 650 1450 625 1475 M 625 1475 Q 650 1450 700 1500 M 700 1500 Q 750 1450 775 1475 M 775 1475 Q 750 1450 800 1400" fill="rgb(0,0,248)" stroke="rgb(0,0,0)" /><path d="M 1025 1325 Q 1050 1350 1025 1375" fill="rgb(246,187,0)" stroke="rgb(0,0,0)" /><path d="M 900 1500 Q 850 1550 825 1525 M 825 1525 Q 850 1550 800 1600 M 800 1600 Q 850 1650 825 1675 M 825 1675 Q 850 1650 875 1725 M 875 1725 Q 950 1750 900 1800" fill="rgb(0,0,0)" stroke="rgb(0,0,0)" /><path d="M 1000 2000 Q 950 2050 900 2000 M 900 2000 Q 850 2050 825 2025 M 825 2025 Q 850 2050 800 2100 M 800 2100 Q 850 2150 800 2200" fill="rgb(168,0,136)" stroke="rgb(0,0,0)" /><path d="M 1325 475 Q 1350 475 1375 475" fill="rgb(0,0,0)" stroke="rgb(0,0,0)" /><path d="M 1375 2175 Q 1350 2250 1325 2175" fill="rgb(0,0,0)" stroke="rgb(0,0,0)" /><path d="M 900 1500 Q 850 1450 900 1400" fill="rgb(246,187,0)" stroke="rgb(0,0,0)" /><path d="M 475 1675 Q 475 1650 475 1625" fill="rgb(0,0,0)" stroke="rgb(0,0,0)" /><path d="M 1375 475 Q 1350 450 1400 400 M 1400 400 Q 1350 350 1375 325 M 1375 325 Q 1325 275 1275 225 M 1275 225 Q 1200 200 1125 175 M 1125 175 Q 1050 150 1075 125 M 1075 125 Q 1050 150 1000 100 M 1000 100 Q 900 100 800 100 M 800 100 Q 750 150 725 125 M 725 125 Q 750 150 675 175 M 675 175 Q 600 200 525 225 M 525 225 Q 500 300 475 375 M 475 375 Q 400 400 325 425 M 325 425 Q 225 525 125 625 M 125 625 Q 150 650 100 700 M 100 700 Q 150 750 125 775" fill="rgb(80,208,88)" stroke="rgb(0,0,0)" /><path d="M 1600 2000 Q 1550 2050 1525 1975 M 1525 1975 Q 1475 1925 1425 1875 M 1425 1875 Q 1350 1850 1400 1800 M 1400 1800 Q 1350 1750 1425 1725 M 1425 1725 Q 1450 1650 1475 1675 M 1475 1675 Q 1450 1650 1500 1600 M 1500 1600 Q 1450 1550 1475 1525 M 1475 1525 Q 1450 1550 1425 1475 M 1425 1475 Q 1400 1400 1375 1325 M 1375 1325 Q 1350 1350 1325 1275 M 1325 1275 Q 1325 1250 1325 1225 M 1325 1225 Q 1425 1125 1525 1025 M 1525 1025 Q 1550 950 1600 1000" fill="rgb(0,0,0)" stroke="rgb(0,0,0)" /><path d="M 1000 1200 Q 1050 1150 1075 1175 M 1075 1175 Q 1050 1150 1125 1125 M 1125 1125 Q 1150 1050 1200 1100 M 1200 1100 Q 1250 1050 1300 1100 M 1300 1100 Q 1350 1050 1375 1075 M 1375 1075 Q 1350 1050 1400 1000 M 1400 1000 Q 1350 950 1400 900 M 1400 900 Q 1350 850 1375 825" fill="rgb(248,168,96)" stroke="rgb(0,0,0)" /><path d="M 1025 1325 Q 1050 1350 1025 1375" fill="rgb(246,187,0)" stroke="rgb(0,0,0)" /><path d="M 1200 2000 Q 1250 1950 1275 2025 M 1275 2025 Q 1350 2050 1325 2075 M 1325 2075 Q 1350 2075 1375 2075" fill="rgb(0,0,0)" stroke="rgb(0,0,0)" /><path d="M 475 1675 Q 450 1650 475 1625" fill="rgb(248,48,216)" stroke="rgb(0,0,0)" /><path d="M 475 1225 Q 450 1250 425 1225" fill="rgb(0,255,255)" stroke="rgb(0,0,0)" /><path d="M 600 1400 Q 550 1450 525 1425" fill="rgb(246,246,114)" stroke="rgb(0,0,0)" /><path d="M 1175 1225 Q 1150 1250 1125 1225" fill="rgb(246,187,0)" stroke="rgb(0,0,0)" /><path d="M 0 800 Q 50 750 75 825 M 75 825 Q 150 850 100 900 M 100 900 Q 150 950 100 1000 M 100 1000 Q 150 1050 125 1075 M 125 1075 Q 225 1175 325 1275 M 325 1275 Q 350 1275 375 1275 M 375 1275 Q 350 1250 425 1225" fill="rgb(0,0,0)" stroke="rgb(0,0,0)" /><path d="M 700 1500 Q 750 1550 700 1600" fill="rgb(246,187,0)" stroke="rgb(0,0,0)" /><path d="M 1000 1500 Q 950 1450 975 1425 M 975 1425 Q 950 1450 900 1400 M 900 1400 Q 750 1400 600 1400" fill="rgb(0,0,0)" stroke="rgb(0,0,0)" /><path d="M 1000 900 Q 1000 1000 1000 1100" fill="rgb(0,0,0)" stroke="rgb(0,0,0)" /><path d="M 1275 1375 Q 1275 1350 1275 1325" fill="rgb(0,0,0)" stroke="rgb(0,0,0)" /><path d="M 1375 2175 Q 1425 2125 1475 2075 M 1475 2075 Q 1475 2050 1475 2025 M 1475 2025 Q 1375 1925 1275 1825 M 1275 1825 Q 1250 1850 1200 1800 M 1200 1800 Q 1150 1850 1125 1825" fill="rgb(246,187,0)" stroke="rgb(0,0,0)" /><path d="M 400 1000 Q 350 950 400 900 M 400 900 Q 350 850 425 825 M 425 825 Q 575 675 725 525 M 725 525 Q 750 450 800 500 M 800 500 Q 900 500 1000 500 M 1000 500 Q 1050 450 1075 475 M 1075 475 Q 1050 450 1125 425 M 1125 425 Q 1150 350 1200 400 M 1200 400 Q 1250 350 1275 425 M 1275 425 Q 1350 450 1325 475" fill="rgb(80,208,88)" stroke="rgb(0,0,0)" /><path d="M 1000 600 Q 900 600 800 600 M 800 600 Q 750 650 725 625 M 725 625 Q 675 675 625 725 M 625 725 Q 650 750 600 800" fill="rgb(192,128,80)" stroke="rgb(0,0,0)" /><path d="M 900 1500 Q 950 1450 1000 1500 M 1000 1500 Q 1050 1450 1075 1525 M 1075 1525 Q 1150 1550 1100 1600 M 1100 1600 Q 1150 1650 1075 1675 M 1075 1675 Q 1050 1750 1000 1700 M 1000 1700 Q 950 1750 925 1675 M 925 1675 Q 850 1650 900 1600 M 900 1600 Q 850 1550 900 1500" fill="rgb(0,0,0)" stroke="rgb(0,0,0)" /><path d="M 1275 2225 Q 1350 2250 1325 2275 M 1325 2275 Q 1350 2275 1375 2275 M 1375 2275 Q 1450 2200 1525 2125 M 1525 2125 Q 1550 2050 1600 2100" fill="rgb(0,0,0)" stroke="rgb(0,0,0)" /><path d="M 125 775 Q 150 775 175 775" fill="rgb(0,0,0)" stroke="rgb(0,0,0)" /><path d="M 900 2000 Q 950 2050 900 2100" fill="rgb(248,168,96)" stroke="rgb(0,0,0)" /><path d="M 1225 2225 Q 1175 2275 1125 2325 M 1125 2325 Q 1150 2350 1100 2400 M 1100 2400 Q 550 2400 0 2400 M 0 2400 Q 0 1200 0 0 M 0 0 Q 800 0 1600 0 M 1600 0 Q 1600 1200 1600 2400 M 1600 2400 Q 1350 2400 1100 2400" fill="rgb(0,0,0)" stroke="rgb(0,0,0)" /><path d="M 900 2100 Q 850 2150 800 2100" fill="rgb(168,0,136)" stroke="rgb(0,0,0)" /><path d="M 700 2000 Q 650 1950 700 1900" fill="rgb(246,246,114)" stroke="rgb(0,0,0)" /><path d="M 525 1425 Q 550 1450 525 1475" fill="rgb(246,246,114)" stroke="rgb(0,0,0)" /><path d="M 1000 2300 Q 950 2250 1000 2200" fill="rgb(248,168,96)" stroke="rgb(0,0,0)" /><path d="M 1375 825 Q 1350 850 1325 825" fill="rgb(248,168,96)" stroke="rgb(0,0,0)" /><path d="M 1275 1375 Q 1250 1350 1275 1325" fill="rgb(246,187,0)" stroke="rgb(0,0,0)" /><path d="M 125 775 Q 150 750 175 775" fill="rgb(80,208,88)" stroke="rgb(0,0,0)" /><path d="M 1100 2200 Q 1050 2250 1000 2200" fill="rgb(168,0,136)" stroke="rgb(0,0,0)" /><path d="M 1375 825 Q 1350 850 1325 825" fill="rgb(248,168,96)" stroke="rgb(0,0,0)" /><path d="M 1275 2225 Q 1250 2225 1225 2225" fill="rgb(0,0,0)" stroke="rgb(0,0,0)" /><path d="M 525 1425 Q 550 1450 525 1475" fill="rgb(246,246,114)" stroke="rgb(0,0,0)" /><path d="M 425 1425 Q 475 1375 525 1325 M 525 1325 Q 550 1325 575 1325 M 575 1325 Q 650 1350 600 1400" fill="rgb(0,0,0)" stroke="rgb(0,0,0)" /><path d="M 1375 2075 Q 1375 2050 1375 2025" fill="rgb(0,0,0)" stroke="rgb(0,0,0)" /><path d="M 475 1225 Q 550 1250 475 1275" fill="rgb(0,0,0)" stroke="rgb(0,0,0)" /><path d="M 0 600 Q 50 550 75 575 M 75 575 Q 300 350 525 125 M 525 125 Q 600 100 675 75 M 675 75 Q 650 50 700 0" fill="rgb(0,255,255)" stroke="rgb(0,0,0)" /><path d="M 1375 2025 Q 1325 1975 1275 1925 M 1275 1925 Q 1200 1900 1125 1875" fill="rgb(0,0,0)" stroke="rgb(0,0,0)" /><path d="M 700 1600 Q 750 1550 800 1600" fill="rgb(246,187,0)" stroke="rgb(0,0,0)" /><path d="M 1000 1100 Q 1050 1050 1075 1075 M 1075 1075 Q 1050 1050 1100 1000 M 1100 1000 Q 1050 950 1075 925 M 1075 925 Q 1050 950 1000 900 M 1000 900 Q 950 950 900 900" fill="rgb(0,89,0)" stroke="rgb(0,0,0)" /><path d="M 1075 275 Q 1050 250 1075 225" fill="rgb(176,248,200)" stroke="rgb(0,0,0)" /><path d="M 1425 525 Q 1450 450 1475 525" fill="rgb(0,0,0)" stroke="rgb(0,0,0)" /><path d="M 1200 1000 Q 1150 1050 1100 1000" fill="rgb(192,128,80)" stroke="rgb(0,0,0)" /><path d="M 1275 1375 Q 1250 1450 1200 1400 M 1200 1400 Q 1150 1450 1100 1400 M 1100 1400 Q 1050 1450 1025 1375" fill="rgb(0,0,0)" stroke="rgb(0,0,0)" /><path d="M 1100 0 Q 1150 50 1125 75 M 1125 75 Q 1200 100 1275 125 M 1275 125 Q 1375 225 1475 325 M 1475 325 Q 1500 400 1525 475 M 1525 475 Q 1550 450 1600 500" fill="rgb(0,255,255)" stroke="rgb(0,0,0)" /><path d="M 0 1700 Q 50 1650 75 1725 M 75 1725 Q 150 1750 125 1775 M 125 1775 Q 150 1750 200 1800 M 200 1800 Q 250 1750 300 1800 M 300 1800 Q 350 1750 375 1825 M 375 1825 Q 400 1900 425 1975 M 425 1975 Q 475 2025 525 2075 M 525 2075 Q 600 2100 675 2125 M 675 2125 Q 675 2150 675 2175 M 675 2175 Q 650 2250 625 2225 M 625 2225 Q 625 2250 625 2275 M 625 2275 Q 650 2250 675 2325 M 675 2325 Q 750 2350 700 2400" fill="rgb(0,0,0)" stroke="rgb(0,0,0)" /><path d="M 1375 2075 Q 1350 2050 1375 2025" fill="rgb(246,246,114)" stroke="rgb(0,0,0)" /><path d="M 800 2200 Q 750 2250 725 2225 M 725 2225 Q 725 2250 725 2275 M 725 2275 Q 750 2250 800 2300 M 800 2300 Q 900 2300 1000 2300 M 1000 2300 Q 1050 2250 1075 2275 M 1075 2275 Q 1050 2250 1100 2200 M 1100 2200 Q 1100 2100 1100 2000 M 1100 2000 Q 1050 1950 1075 1925" fill="rgb(192,128,80)" stroke="rgb(0,0,0)" /><path d="M 1200 1900 Q 1250 1950 1200 2000 M 1200 2000 Q 1250 2050 1225 2075 M 1225 2075 Q 1275 2125 1325 2175" fill="rgb(0,0,0)" stroke="rgb(0,0,0)" /><path d="M 800 2200 Q 900 2200 1000 2200" fill="rgb(0,0,0)" stroke="rgb(0,0,0)" /><path d="M 1275 2225 Q 1250 2250 1225 2225" fill="rgb(0,255,255)" stroke="rgb(0,0,0)" /><path d="M 900 1000 Q 800 1000 700 1000" fill="rgb(0,0,0)" stroke="rgb(0,0,0)" /><path d="M 1075 275 Q 1050 250 1075 225" fill="rgb(176,248,200)" stroke="rgb(0,0,0)" /><path d="M 1100 1600 Q 1050 1650 1025 1625 M 1025 1625 Q 1050 1650 1000 1700" fill="rgb(192,128,80)" stroke="rgb(0,0,0)" /><path d="M 400 700 Q 350 650 375 625 M 375 625 Q 350 650 300 600" fill="rgb(0,0,0)" stroke="rgb(0,0,0)" /><path d="M 1475 525 Q 1550 550 1500 600 M 1500 600 Q 1500 750 1500 900 M 1500 900 Q 1550 950 1475 975 M 1475 975 Q 1450 1050 1400 1000" fill="rgb(0,0,0)" stroke="rgb(0,0,0)" /><path d="M 500 1100 Q 450 1150 425 1125 M 425 1125 Q 450 1150 375 1175 M 375 1175 Q 350 1175 325 1175 M 325 1175 Q 250 1150 300 1100 M 300 1100 Q 250 1050 325 1025 M 325 1025 Q 350 950 400 1000 M 400 1000 Q 450 950 500 1000" fill="rgb(0,0,0)" stroke="rgb(0,0,0)" /><path d="M 425 1675 Q 350 1650 425 1625" fill="rgb(0,0,0)" stroke="rgb(0,0,0)" /><path d="M 425 1425 Q 425 1450 425 1475" fill="rgb(0,0,0)" stroke="rgb(0,0,0)" /><path d="M 475 1275 Q 425 1325 375 1375 M 375 1375 Q 350 1450 300 1400 M 300 1400 Q 250 1450 200 1400 M 200 1400 Q 150 1450 125 1425 M 125 1425 Q 150 1450 75 1475 M 75 1475 Q 50 1550 0 1500" fill="rgb(0,0,0)" stroke="rgb(0,0,0)" /><path d="M 800 2200 Q 850 2250 800 2300" fill="rgb(248,168,96)" stroke="rgb(0,0,0)" /><path d="M 1125 1825 Q 1125 1850 1125 1875" fill="rgb(0,0,0)" stroke="rgb(0,0,0)" /><path d="M 175 775 Q 225 725 275 675 M 275 675 Q 300 600 325 525 M 325 525 Q 400 500 475 475 M 475 475 Q 600 350 725 225 M 725 225 Q 750 150 800 200 M 800 200 Q 900 200 1000 200 M 1000 200 Q 1050 150 1075 225" fill="rgb(80,208,88)" stroke="rgb(0,0,0)" /><path d="M 425 1625 Q 450 1550 475 1625" fill="rgb(0,0,0)" stroke="rgb(0,0,0)" /><path d="M 425 1425 Q 450 1450 425 1475" fill="rgb(0,128,248)" stroke="rgb(0,0,0)" /><path d="M 700 1600 Q 750 1650 725 1675 M 725 1675 Q 750 1650 775 1725 M 775 1725 Q 850 1750 800 1800 M 800 1800 Q 850 1850 775 1875 M 775 1875 Q 750 1950 700 1900 M 700 1900 Q 600 1900 500 1900" fill="rgb(0,0,0)" stroke="rgb(0,0,0)" /><path d="M 1000 1100 Q 1050 1150 1000 1200 M 1000 1200 Q 1050 1250 975 1275 M 975 1275 Q 950 1350 900 1300 M 900 1300 Q 800 1300 700 1300 M 700 1300 Q 650 1350 625 1275 M 625 1275 Q 575 1225 525 1175 M 525 1175 Q 450 1150 500 1100" fill="rgb(0,0,0)" stroke="rgb(0,0,0)" /><path d="M 425 1675 Q 450 1650 475 1675" fill="rgb(248,48,216)" stroke="rgb(0,0,0)" /><path d="M 425 1625 Q 450 1550 475 1625" fill="rgb(0,0,0)" stroke="rgb(0,0,0)" /><path d="M 1425 525 Q 1400 600 1375 675 M 1375 675 Q 1325 725 1275 775 M 1275 775 Q 1250 850 1200 800 M 1200 800 Q 1150 850 1125 775 M 1125 775 Q 1075 725 1025 675 M 1025 675 Q 950 650 1000 600 M 1000 600 Q 950 550 1000 500" fill="rgb(24,144,56)" stroke="rgb(0,0,0)" /><path d="M 1300 1100 Q 1300 1000 1300 900 M 1300 900 Q 1250 850 1325 825" fill="rgb(24,144,56)" stroke="rgb(0,0,0)" /><path d="M 1200 1400 Q 1150 1350 1175 1325 M 1175 1325 Q 1150 1325 1125 1325 M 1125 1325 Q 1150 1350 1100 1400" fill="rgb(246,246,114)" stroke="rgb(0,0,0)" /><path d="M 1000 1100 Q 950 1150 925 1075 M 925 1075 Q 850 1050 900 1000 M 900 1000 Q 850 950 900 900 M 900 900 Q 850 850 925 825 M 925 825 Q 950 750 1000 800 M 1000 800 Q 1050 750 1075 825 M 1075 825 Q 1150 850 1125 875 M 1125 875 Q 1150 850 1200 900" fill="rgb(192,128,80)" stroke="rgb(0,0,0)" /><path d="M 1325 475 Q 1350 450 1375 475" fill="rgb(80,208,88)" stroke="rgb(0,0,0)" /><path d="M 800 1800 Q 850 1750 900 1800" fill="rgb(0,0,248)" stroke="rgb(0,0,0)" /><path d="M 1025 1925 Q 1050 1950 1000 2000 M 1000 2000 Q 1000 2100 1000 2200" fill="rgb(0,0,0)" stroke="rgb(0,0,0)" /><path d="M 300 1100 Q 250 1150 225 1075 M 225 1075 Q 150 1050 200 1000 M 200 1000 Q 150 950 200 900 M 200 900 Q 150 850 225 825 M 225 825 Q 275 775 325 725 M 325 725 Q 400 700 475 675 M 475 675 Q 600 550 725 425 M 725 425 Q 750 350 800 400 M 800 400 Q 850 350 900 400 M 900 400 Q 950 350 975 375 M 975 375 Q 1025 325 1075 275" fill="rgb(0,0,0)" stroke="rgb(0,0,0)" /><path d="M 475 1225 Q 450 1250 425 1225" fill="rgb(0,255,255)" stroke="rgb(0,0,0)" /><path d="M 600 2000 Q 550 1950 600 1900" fill="rgb(246,187,0)" stroke="rgb(0,0,0)" /><path d="M 1025 1325 Q 1075 1275 1125 1225" fill="rgb(0,0,0)" stroke="rgb(0,0,0)" /><path d="M 900 1900 Q 850 1850 900 1800" fill="rgb(246,187,0)" stroke="rgb(0,0,0)" /><path d="M 1125 1825 Q 1150 1850 1125 1875" fill="rgb(246,187,0)" stroke="rgb(0,0,0)" /><path d="M 400 900 Q 450 850 475 875 M 475 875 Q 450 850 525 825 M 525 825 Q 550 750 600 800 M 600 800 Q 650 750 675 825 M 675 825 Q 750 850 700 900 M 700 900 Q 750 950 700 1000 M 700 1000 Q 750 1050 675 1075 M 675 1075 Q 650 1150 600 1100 M 600 1100 Q 550 1150 500 1100" fill="rgb(248,168,96)" stroke="rgb(0,0,0)" /><path d="M 1200 800 Q 1200 950 1200 1100" fill="rgb(0,0,0)" stroke="rgb(0,0,0)" /></svg>