<?xml version="1.0" encoding="utf-8" ?>
<svg baseProfile="full" height="100%" version="1.1" width="100%" xmlns="http://www.w3.org/2000/svg" xmlns:ev="http://www.w3.org/2001/xml-events" xmlns:xlink="http://www.w3.org/1999/xlink"><defs /><rect fill="rgb(255,255,255)" height="100%" width="100%" x="0" y="0" /><path d="M 1100 2200 L 1100 2200 L 1000 2200" fill="none" stroke="rgb(0,0,0)" /><path d="M 1375 825 L 1375 825 L 1325 825" fill="none" stroke="rgb(0,0,0)" /><path d="M 900 2100 L 900 2100 L 900 2200" fill="none" stroke="rgb(0,0,0)" /><path d="M 1275 1375 L 1275 1375 L 1275 1325" fill="none" stroke="rgb(0,0,0)" /><path d="M 900 2100 L 900 2100 L 1000 2100" fill="none" stroke="rgb(0,0,0)" /><path d="M 0 600 L 0 600 L 75 575 L 525 125 L 675 75 L 700 0" fill="none" stroke="rgb(0,0,0)" /><path d="M 1000 1100 L 1000 1100 L 1075 1075 L 1100 1000 L 1075 925 L 1000 900 L 900 900" fill="none" stroke="rgb(0,0,0)" /><path d="M 1075 275 L 1075 275 L 1075 225" fill="none" stroke="rgb(0,0,0)" /><path d="M 600 1100 L 600 1100 L 600 900" fill="none" stroke="rgb(0,0,0)" /><path d="M 1075 1925 L 1075 1925 L 1025 1925" fill="none" stroke="rgb(0,0,0)" /><path d="M 475 1225 L 475 1225 L 475 1275" fill="none" stroke="rgb(0,0,0)" /><path d="M 1200 1000 L 1200 1000 L 1100 1000" fill="none" stroke="rgb(0,0,0)" /><path d="M 525 1425 L 525 1425 L 525 1475" fill="none" stroke="rgb(0,0,0)" /><path d="M 425 1425 L 425 1425 L 525 1325 L 575 1325 L 600 1400" fill="none" stroke="rgb(0,0,0)" /><path d="M 1325 475 L 1325 475 L 1375 475" fill="none" stroke="rgb(0,0,0)" /><path d="M 0 1700 L 0 1700 L 75 1725 L 125 1775 L 200 1800 L 300 1800 L 375 1825 L 425 1975 L 525 2075 L 675 2125 L 675 2175 L 625 2225 L 625 2275 L 675 2325 L 700 2400" fill="none" stroke="rgb(0,0,0)" /><path d="M 475 1225 L 475 1225 L 475 1275" fill="none" stroke="rgb(0,0,0)" /><path d="M 800 2200 L 800 2200 L 725 2225 L 725 2275 L 800 2300 L 1000 2300 L 1075 2275 L 1100 2200 L 1100 2000 L 1075 1925" fill="none" stroke="rgb(0,0,0)" /><path d="M 800 2200 L 800 2200 L 1000 2200" fill="none" stroke="rgb(0,0,0)" /><path d="M 1275 2225 L 1275 2225 L 1225 2225" fill="none" stroke="rgb(0,0,0)" /><path d="M 1375 475 L 1375 475 L 1400 400 L 1375 325 L 1275 225 L 1125 175 L 1075 125 L 1000 100 L 800 100 L 725 125 L 675 175 L 525 225 L 475 375 L 325 425 L 125 625 L 100 700 L 125 775" fill="none" stroke="rgb(0,0,0)" /><path d="M 425 1675 L 425 1675 L 425 1625" fill="none" stroke="rgb(0,0,0)" /><path d="M 1275 1375 L 1275 1375 L 1200 1400 L 1100 1400 L 1025 1375" fill="none" stroke="rgb(0,0,0)" /><path d="M 1100 1600 L 1100 1600 L 1025 1625 L 1000 1700" fill="none" stroke="rgb(0,0,0)" /><path d="M 400 700 L 400 700 L 375 625 L 300 600" fill="none" stroke="rgb(0,0,0)" /><path d="M 475 1225 L 475 1225 L 425 1225" fill="none" stroke="rgb(0,0,0)" /><path d="M 500 1100 L 500 1100 L 425 1125 L 375 1175 L 325 1175 L 300 1100 L 325 1025 L 400 1000 L 500 1000" fill="none" stroke="rgb(0,0,0)" /><path d="M 1200 2000 L 1200 2000 L 1275 2025 L 1325 2075 L 1375 2075" fill="none" stroke="rgb(0,0,0)" /><path d="M 1325 475 L 1325 475 L 1375 475" fill="none" stroke="rgb(0,0,0)" /><path d="M 425 1675 L 425 1675 L 425 1625" fill="none" stroke="rgb(0,0,0)" /><path d="M 475 1275 L 475 1275 L 375 1375 L 300 1400 L 200 1400 L 125 1425 L 75 1475 L 0 1500" fill="none" stroke="rgb(0,0,0)" /><path d="M 1075 275 L 1075 275 L 1075 225" fill="none" stroke="rgb(0,0,0)" /><path d="M 1125 1825 L 1125 1825 L 1125 1875" fill="none" stroke="rgb(0,0,0)" /><path d="M 1375 2175 L 1375 2175 L 1475 2075 L 1475 2025 L 1275 1825 L 1200 1800 L 1125 1825" fill="none" stroke="rgb(0,0,0)" /><path d="M 400 1000 L 400 1000 L 400 900 L 425 825 L 725 525 L 800 500 L 1000 500 L 1075 475 L 1125 425 L 1200 400 L 1275 425 L 1325 475" fill="none" stroke="rgb(0,0,0)" /><path d="M 425 1625 L 425 1625 L 475 1625" fill="none" stroke="rgb(0,0,0)" /><path d="M 425 1425 L 425 1425 L 425 1475" fill="none" stroke="rgb(0,0,0)" /><path d="M 425 1675 L 425 1675 L 475 1675" fill="none" stroke="rgb(0,0,0)" /><path d="M 1225 2225 L 1225 2225 L 1125 2325 L 1100 2400 L 0 2400 L 0 0 L 1600 0 L 1600 2400 L 1100 2400" fill="none" stroke="rgb(0,0,0)" /><path d="M 1300 1100 L 1300 1100 L 1300 900 L 1325 825" fill="none" stroke="rgb(0,0,0)" /><path d="M 700 1600 L 700 1600 L 725 1675 L 775 1725 L 800 1800 L 775 1875 L 700 1900 L 500 1900" fill="none" stroke="rgb(0,0,0)" /><path d="M 425 1425 L 425 1425 L 425 1475" fill="none" stroke="rgb(0,0,0)" /><path d="M 1000 1100 L 1000 1100 L 925 1075 L 900 1000 L 900 900 L 925 825 L 1000 800 L 1075 825 L 1125 875 L 1200 900" fill="none" stroke="rgb(0,0,0)" /><path d="M 1200 1900 L 1200 1900 L 1200 2000 L 1225 2075 L 1325 2175" fill="none" stroke="rgb(0,0,0)" /><path d="M 800 1800 L 800 1800 L 900 1800" fill="none" stroke="rgb(0,0,0)" /><path d="M 175 775 L 175 775 L 275 675 L 325 525 L 475 475 L 725 225 L 800 200 L 1000 200 L 1075 225" fill="none" stroke="rgb(0,0,0)" /><path d="M 1025 1925 L 1025 1925 L 1000 2000 L 1000 2200" fill="none" stroke="rgb(0,0,0)" /><path d="M 1425 525 L 1425 525 L 1475 525" fill="none" stroke="rgb(0,0,0)" /><path d="M 900 1900 L 900 1900 L 900 1800" fill="none" stroke="rgb(0,0,0)" /><path d="M 1125 1825 L 1125 1825 L 1125 1875" fill="none" stroke="rgb(0,0,0)" /><path d="M 900 1500 L 900 1500 L 900 1400" fill="none" stroke="rgb(0,0,0)" /><path d="M 1275 1375 L 1275 1375 L 1275 1325" fill="none" stroke="rgb(0,0,0)" /><path d="M 500 1100 L 500 1100 L 600 1100 L 675 1075 L 700 1000 L 700 900 L 675 825 L 600 800 L 525 825 L 475 875 L 400 900" fill="none" stroke="rgb(0,0,0)" /><path d="M 1425 525 L 1425 525 L 1375 675 L 1275 775 L 1200 800 L 1125 775 L 1025 675 L 1000 600 L 1000 500" fill="none" stroke="rgb(0,0,0)" /><path d="M 1200 800 L 1200 800 L 1200 1100" fill="none" stroke="rgb(0,0,0)" /><path d="M 200 1700 L 200 1700 L 225 1625 L 300 1600 L 275 1675 L 200 1700" fill="none" stroke="rgb(0,0,0)" /><path d="M 1275 2225 L 1275 2225 L 1225 2225" fill="none" stroke="rgb(0,0,0)" /><path d="M 425 1675 L 425 1675 L 475 1675" fill="none" stroke="rgb(0,0,0)" /><path d="M 1025 1325 L 1025 1325 L 1125 1225" fill="none" stroke="rgb(0,0,0)" /><path d="M 1175 1225 L 1175 1225 L 1275 1325" fill="none" stroke="rgb(0,0,0)" /><path d="M 1375 2025 L 1375 2025 L 1275 1925 L 1125 1875" fill="none" stroke="rgb(0,0,0)" /><path d="M 700 1600 L 700 1600 L 800 1600" fill="none" stroke="rgb(0,0,0)" /><path d="M 1175 1225 L 1175 1225 L 1125 1225" fill="none" stroke="rgb(0,0,0)" /><path d="M 800 2200 L 800 2200 L 800 2300" fill="none" stroke="rgb(0,0,0)" /><path d="M 1075 1925 L 1075 1925 L 1025 1925" fill="none" stroke="rgb(0,0,0)" /><path d="M 1375 2175 L 1375 2175 L 1325 2175" fill="none" stroke="rgb(0,0,0)" /><path d="M 300 1100 L 300 1100 L 225 1075 L 200 1000 L 200 900 L 225 825 L 325 725 L 475 675 L 725 425 L 800 400 L 900 400 L 975 375 L 1075 275" fill="none" stroke="rgb(0,0,0)" /><path d="M 1375 2075 L 1375 2075 L 1375 2025" fill="none" stroke="rgb(0,0,0)" /><path d="M 600 1400 L 600 1400 L 625 1475 L 700 1500 L 775 1475 L 800 1400" fill="none" stroke="rgb(0,0,0)" /><path d="M 900 1500 L 900 1500 L 825 1525 L 800 1600 L 825 1675 L 875 1725 L 900 1800" fill="none" stroke="rgb(0,0,0)" /><path d="M 1000 2000 L 1000 2000 L 900 2000 L 825 2025 L 800 2100 L 800 2200" fill="none" stroke="rgb(0,0,0)" /><path d="M 700 1600 L 700 1600 L 625 1575 L 525 1475" fill="none" stroke="rgb(0,0,0)" /><path d="M 1375 2175 L 1375 2175 L 1325 2175" fill="none" stroke="rgb(0,0,0)" /><path d="M 475 1675 L 475 1675 L 475 1625" fill="none" stroke="rgb(0,0,0)" /><path d="M 475 1675 L 475 1675 L 475 1625" fill="none" stroke="rgb(0,0,0)" /><path d="M 1400 1600 L 1400 1600 L 1325 1625 L 1300 1700 L 1375 1675 L 1400 1600" fill="none" stroke="rgb(0,0,0)" /><path d="M 700 900 L 700 900 L 600 900 L 525 925 L 500 1000 L 500 1100" fill="none" stroke="rgb(0,0,0)" /><path d="M 900 1000 L 900 1000 L 700 1000" fill="none" stroke="rgb(0,0,0)" /><path d="M 1000 1200 L 1000 1200 L 1075 1175 L 1125 1125 L 1200 1100 L 1300 1100 L 1375 1075 L 1400 1000 L 1400 900 L 1375 825" fill="none" stroke="rgb(0,0,0)" /><path d="M 700 2000 L 700 2000 L 700 1900" fill="none" stroke="rgb(0,0,0)" /><path d="M 1475 525 L 1475 525 L 1500 600 L 1500 900 L 1475 975 L 1400 1000" fill="none" stroke="rgb(0,0,0)" /><path d="M 525 1425 L 525 1425 L 525 1475" fill="none" stroke="rgb(0,0,0)" /><path d="M 1025 1325 L 1025 1325 L 1025 1375" fill="none" stroke="rgb(0,0,0)" /><path d="M 600 1400 L 600 1400 L 525 1425" fill="none" stroke="rgb(0,0,0)" /><path d="M 0 800 L 0 800 L 75 825 L 100 900 L 100 1000 L 125 1075 L 325 1275 L 375 1275 L 425 1225" fill="none" stroke="rgb(0,0,0)" /><path d="M 700 1500 L 700 1500 L 700 1600" fill="none" stroke="rgb(0,0,0)" /><path d="M 1600 2000 L 1600 2000 L 1525 1975 L 1425 1875 L 1400 1800 L 1425 1725 L 1475 1675 L 1500 1600 L 1475 1525 L 1425 1475 L 1375 1325 L 1325 1275 L 1325 1225 L 1525 1025 L 1600 1000" fill="none" stroke="rgb(0,0,0)" /><path d="M 1000 1500 L 1000 1500 L 975 1425 L 900 1400 L 600 1400" fill="none" stroke="rgb(0,0,0)" /><path d="M 425 1625 L 425 1625 L 475 1625" fill="none" stroke="rgb(0,0,0)" /><path d="M 1000 600 L 1000 600 L 800 600 L 725 625 L 625 725 L 600 800" fill="none" stroke="rgb(0,0,0)" /><path d="M 1100 0 L 1100 0 L 1125 75 L 1275 125 L 1475 325 L 1525 475 L 1600 500" fill="none" stroke="rgb(0,0,0)" /><path d="M 1000 1100 L 1000 1100 L 1000 1200 L 975 1275 L 900 1300 L 700 1300 L 625 1275 L 525 1175 L 500 1100" fill="none" stroke="rgb(0,0,0)" /><path d="M 1000 900 L 1000 900 L 1000 1100" fill="none" stroke="rgb(0,0,0)" /><path d="M 900 1800 L 900 1800 L 975 1825 L 975 1875 L 825 1925 L 775 1975 L 700 2000 L 600 2000 L 525 1975 L 500 1900 L 525 1825 L 575 1775 L 600 1700 L 575 1625 L 425 1475" fill="none" stroke="rgb(0,0,0)" /><path d="M 1275 2225 L 1275 2225 L 1325 2275 L 1375 2275 L 1525 2125 L 1600 2100" fill="none" stroke="rgb(0,0,0)" /><path d="M 900 1500 L 900 1500 L 1000 1500 L 1075 1525 L 1100 1600 L 1075 1675 L 1000 1700 L 925 1675 L 900 1600 L 900 1500" fill="none" stroke="rgb(0,0,0)" /><path d="M 900 2000 L 900 2000 L 900 2100" fill="none" stroke="rgb(0,0,0)" /><path d="M 900 2100 L 900 2100 L 800 2100" fill="none" stroke="rgb(0,0,0)" /><path d="M 1175 1225 L 1175 1225 L 1125 1225" fill="none" stroke="rgb(0,0,0)" /><path d="M 1200 1400 L 1200 1400 L 1175 1325 L 1125 1325 L 1100 1400" fill="none" stroke="rgb(0,0,0)" /><path d="M 1100 600 L 1100 600 L 1175 575 L 1200 500 L 1125 525 L 1100 600" fill="none" stroke="rgb(0,0,0)" /><path d="M 1000 2300 L 1000 2300 L 1000 2200" fill="none" stroke="rgb(0,0,0)" /><path d="M 475 1225 L 475 1225 L 425 1225" fill="none" stroke="rgb(0,0,0)" /><path d="M 600 2000 L 600 2000 L 600 1900" fill="none" stroke="rgb(0,0,0)" /><path d="M 1375 825 L 1375 825 L 1325 825" fill="none" stroke="rgb(0,0,0)" /><path d="M 125 775 L 125 775 L 175 775" fill="none" stroke="rgb(0,0,0)" /><path d="M 125 775 L 125 775 L 175 775" fill="none" stroke="rgb(0,0,0)" /><path d="M 1375 2075 L 1375 2075 L 1375 2025" fill="none" stroke="rgb(0,0,0)" /><path d="M 1425 525 L 1425 525 L 1475 525" fill="none" stroke="rgb(0,0,0)" /><path d="M 1025 1325 L 1025 1325 L 1025 1375" fill="none" stroke="rgb(0,0,0)" /></svg>