<?xml version="1.0" encoding="utf-8" ?>
<svg baseProfile="full" height="100%" version="1.1" width="100%" xmlns="http://www.w3.org/2000/svg" xmlns:ev="http://www.w3.org/2001/xml-events" xmlns:xlink="http://www.w3.org/1999/xlink"><defs /><rect fill="rgb(255,255,255)" height="100%" width="100%" x="0" y="0" /><path d="M 375 325 L 375 325 L 375 375" fill="none" stroke="rgb(0,0,0)" /><path d="M 0 700 L 0 700 L 75 675 L 125 525" fill="none" stroke="rgb(0,0,0)" /><path d="M 875 675 L 875 675 L 825 675" fill="none" stroke="rgb(0,0,0)" /><path d="M 325 125 L 325 125 L 375 125" fill="none" stroke="rgb(0,0,0)" /><path d="M 725 375 L 725 375 L 725 325" fill="none" stroke="rgb(0,0,0)" /><path d="M 900 0 L 900 0 L 875 75 L 825 75 L 800 0" fill="none" stroke="rgb(0,0,0)" /><path d="M 275 75 L 275 75 L 300 0" fill="none" stroke="rgb(0,0,0)" /><path d="M 500 800 L 500 800 L 475 725 L 400 700 L 325 725 L 300 800" fill="none" stroke="rgb(0,0,0)" /><path d="M 875 675 L 875 675 L 925 525 L 975 525 L 1025 675 L 1100 700" fill="none" stroke="rgb(0,0,0)" /><path d="M 725 375 L 725 375 L 775 375 L 775 325 L 725 325" fill="none" stroke="rgb(0,0,0)" /><path d="M 325 125 L 325 125 L 375 125" fill="none" stroke="rgb(0,0,0)" /><path d="M 375 325 L 375 325 L 375 375" fill="none" stroke="rgb(0,0,0)" /><path d="M 325 325 L 325 325 L 325 375 L 375 375" fill="none" stroke="rgb(0,0,0)" /><path d="M 175 525 L 175 525 L 125 525" fill="none" stroke="rgb(0,0,0)" /><path d="M 875 675 L 875 675 L 825 675" fill="none" stroke="rgb(0,0,0)" /><path d="M 375 325 L 375 325 L 325 325" fill="none" stroke="rgb(0,0,0)" /><path d="M 600 800 L 600 800 L 625 725 L 700 700 L 775 725 L 800 800 L 600 800" fill="none" stroke="rgb(0,0,0)" /><path d="M 825 675 L 825 675 L 775 625 L 700 600 L 400 600 L 325 625 L 275 675 L 225 675 L 175 525" fill="none" stroke="rgb(0,0,0)" /><path d="M 175 525 L 175 525 L 125 525" fill="none" stroke="rgb(0,0,0)" /><path d="M 1100 400 L 1100 400 L 1025 375 L 775 125 L 725 125 L 675 175 L 600 200 L 500 200 L 425 175 L 375 125" fill="none" stroke="rgb(0,0,0)" /><path d="M 225 75 L 225 75 L 275 75" fill="none" stroke="rgb(0,0,0)" /><path d="M 375 325 L 375 325 L 325 325" fill="none" stroke="rgb(0,0,0)" /><path d="M 225 75 L 225 75 L 200 0" fill="none" stroke="rgb(0,0,0)" /><path d="M 225 75 L 225 75 L 275 75" fill="none" stroke="rgb(0,0,0)" /><path d="M 725 375 L 725 375 L 725 325" fill="none" stroke="rgb(0,0,0)" /><path d="M 325 125 L 325 125 L 75 375 L 0 400" fill="none" stroke="rgb(0,0,0)" /></svg>