<?xml version="1.0" encoding="utf-8" ?>
<svg baseProfile="full" height="100%" version="1.1" width="100%" xmlns="http://www.w3.org/2000/svg" xmlns:ev="http://www.w3.org/2001/xml-events" xmlns:xlink="http://www.w3.org/1999/xlink"><defs /><path d="M 725 325 L 750 325 L 775 325 L 775 350 L 775 375 L 750 375 L 725 375 L 725 350 Z" fill="rgb(0,128,255)" stroke="rgb(0,128,255)" /><path d="M 0 700 L 75 675 L 100 700 L 125 725 L 100 800 L 50 800 L 0 800 L 0 750 Z" fill="rgb(0,128,255)" stroke="rgb(0,128,255)" /><path d="M 100 600 L 200 600 L 225 675 L 200 700 L 175 725 L 125 725 L 100 700 L 75 675 Z" fill="rgb(0,128,255)" stroke="rgb(0,128,255)" /><path d="M 325 725 L 400 700 L 400 800 L 350 800 L 300 800 Z" fill="rgb(255,255,255)" stroke="rgb(255,255,255)" /><path d="M 175 525 L 200 500 L 225 475 L 300 500 L 275 575 L 200 600 Z" fill="rgb(255,255,255)" stroke="rgb(255,255,255)" /><path d="M 800 500 L 875 475 L 900 500 L 925 525 L 900 600 L 825 575 Z" fill="rgb(255,255,255)" stroke="rgb(255,255,255)" /><path d="M 400 0 L 450 0 L 500 0 L 500 100 L 425 75 Z" fill="rgb(0,128,255)" stroke="rgb(0,128,255)" /><path d="M 900 0 L 950 0 L 1000 0 L 1000 100 L 925 125 L 900 100 L 875 75 Z" fill="rgb(0,128,255)" stroke="rgb(0,128,255)" /><path d="M 625 725 L 700 700 L 700 800 L 650 800 L 600 800 Z" fill="rgb(255,255,255)" stroke="rgb(255,255,255)" /><path d="M 500 500 L 600 500 L 600 600 L 500 600 Z" fill="rgb(255,255,255)" stroke="rgb(255,255,255)" /><path d="M 975 725 L 1000 700 L 1025 675 L 1100 700 L 1100 750 L 1100 800 L 1050 800 L 1000 800 Z" fill="rgb(0,128,255)" stroke="rgb(0,128,255)" /><path d="M 700 600 L 775 625 L 825 675 L 775 725 L 700 700 Z" fill="rgb(0,128,255)" stroke="rgb(0,128,255)" /><path d="M 0 400 L 75 375 L 100 400 L 125 425 L 75 475 L 0 500 L 0 450 Z" fill="rgb(255,255,255)" stroke="rgb(255,255,255)" /><path d="M 100 100 L 175 125 L 175 175 L 100 200 Z" fill="rgb(0,128,255)" stroke="rgb(0,128,255)" /><path d="M 325 225 L 375 225 L 425 275 L 400 300 L 375 325 L 325 325 L 300 300 L 275 275 Z" fill="rgb(255,255,255)" stroke="rgb(255,255,255)" /><path d="M 200 600 L 275 575 L 300 600 L 325 625 L 275 675 L 250 675 L 225 675 Z" fill="rgb(255,255,255)" stroke="rgb(255,255,255)" /><path d="M 775 225 L 800 200 L 825 175 L 875 225 L 925 275 L 900 300 L 875 325 L 825 275 Z" fill="rgb(255,255,255)" stroke="rgb(255,255,255)" /><path d="M 400 500 L 500 500 L 500 600 L 400 600 Z" fill="rgb(255,255,255)" stroke="rgb(255,255,255)" /><path d="M 875 325 L 900 300 L 925 275 L 975 325 L 1025 375 L 1000 400 L 975 425 L 900 400 Z" fill="rgb(255,255,255)" stroke="rgb(255,255,255)" /><path d="M 600 0 L 650 0 L 700 0 L 675 75 L 600 100 Z" fill="rgb(0,128,255)" stroke="rgb(0,128,255)" /><path d="M 700 500 L 800 500 L 825 575 L 800 600 L 775 625 L 700 600 Z" fill="rgb(255,255,255)" stroke="rgb(255,255,255)" /><path d="M 0 100 L 100 100 L 100 200 L 0 200 L 0 150 Z" fill="rgb(0,128,255)" stroke="rgb(0,128,255)" /><path d="M 325 125 L 350 125 L 375 125 L 425 175 L 400 200 L 375 225 L 325 225 L 300 200 L 275 175 Z" fill="rgb(255,255,255)" stroke="rgb(255,255,255)" /><path d="M 175 125 L 200 100 L 225 75 L 275 75 L 325 125 L 275 175 L 225 225 L 200 200 L 175 175 Z" fill="rgb(0,128,255)" stroke="rgb(0,128,255)" /><path d="M 900 400 L 975 425 L 1025 475 L 1000 500 L 975 525 L 925 525 L 900 500 L 875 475 Z" fill="rgb(255,255,255)" stroke="rgb(255,255,255)" /><path d="M 500 100 L 600 100 L 600 200 L 500 200 Z" fill="rgb(0,128,255)" stroke="rgb(0,128,255)" /><path d="M 975 325 L 1000 300 L 1025 275 L 1100 300 L 1100 350 L 1100 400 L 1025 375 Z" fill="rgb(0,128,255)" stroke="rgb(0,128,255)" /><path d="M 725 225 L 775 225 L 825 275 L 800 300 L 775 325 L 725 325 L 700 300 L 675 275 Z" fill="rgb(255,255,255)" stroke="rgb(255,255,255)" /><path d="M 125 525 L 150 525 L 175 525 L 200 600 L 100 600 Z" fill="rgb(0,128,255)" stroke="rgb(0,128,255)" /><path d="M 325 625 L 400 600 L 400 700 L 325 725 L 275 675 Z" fill="rgb(0,128,255)" stroke="rgb(0,128,255)" /><path d="M 225 225 L 275 175 L 300 200 L 325 225 L 275 275 L 225 325 L 200 300 L 175 275 Z" fill="rgb(255,255,255)" stroke="rgb(255,255,255)" /><path d="M 775 625 L 800 600 L 825 575 L 900 600 L 875 675 L 850 675 L 825 675 Z" fill="rgb(255,255,255)" stroke="rgb(255,255,255)" /><path d="M 375 125 L 400 100 L 425 75 L 500 100 L 500 200 L 425 175 Z" fill="rgb(0,128,255)" stroke="rgb(0,128,255)" /><path d="M 925 725 L 975 725 L 1000 800 L 950 800 L 900 800 Z" fill="rgb(0,128,255)" stroke="rgb(0,128,255)" /><path d="M 600 400 L 675 425 L 700 500 L 600 500 Z" fill="rgb(255,255,255)" stroke="rgb(255,255,255)" /><path d="M 500 400 L 600 400 L 600 500 L 500 500 Z" fill="rgb(255,255,255)" stroke="rgb(255,255,255)" /><path d="M 975 425 L 1000 400 L 1025 375 L 1100 400 L 1100 450 L 1100 500 L 1025 475 Z" fill="rgb(255,255,255)" stroke="rgb(255,255,255)" /><path d="M 725 125 L 750 125 L 775 125 L 825 175 L 800 200 L 775 225 L 725 225 L 700 200 L 675 175 Z" fill="rgb(255,255,255)" stroke="rgb(255,255,255)" /><path d="M 0 500 L 75 475 L 100 500 L 125 525 L 100 600 L 0 600 L 0 550 Z" fill="rgb(255,255,255)" stroke="rgb(255,255,255)" /><path d="M 100 0 L 150 0 L 200 0 L 225 75 L 200 100 L 175 125 L 100 100 Z" fill="rgb(0,128,255)" stroke="rgb(0,128,255)" /><path d="M 300 500 L 400 500 L 400 600 L 325 625 L 300 600 L 275 575 Z" fill="rgb(255,255,255)" stroke="rgb(255,255,255)" /><path d="M 175 725 L 200 700 L 225 675 L 275 675 L 325 725 L 300 800 L 250 800 L 200 800 Z" fill="rgb(0,128,255)" stroke="rgb(0,128,255)" /><path d="M 775 325 L 800 300 L 825 275 L 875 325 L 900 400 L 825 425 L 800 400 L 775 375 Z" fill="rgb(255,255,255)" stroke="rgb(255,255,255)" /><path d="M 400 600 L 500 600 L 525 675 L 500 700 L 475 725 L 400 700 Z" fill="rgb(0,128,255)" stroke="rgb(0,128,255)" /><path d="M 875 225 L 900 200 L 925 175 L 1000 200 L 1025 275 L 1000 300 L 975 325 L 925 275 Z" fill="rgb(0,128,255)" stroke="rgb(0,128,255)" /><path d="M 600 100 L 675 75 L 700 100 L 725 125 L 675 175 L 600 200 Z" fill="rgb(0,128,255)" stroke="rgb(0,128,255)" /><path d="M 475 725 L 500 700 L 525 675 L 575 675 L 600 700 L 625 725 L 600 800 L 550 800 L 500 800 Z" fill="rgb(0,128,255)" stroke="rgb(0,128,255)" /><path d="M 675 425 L 700 400 L 725 375 L 775 375 L 800 400 L 825 425 L 800 500 L 700 500 Z" fill="rgb(255,255,255)" stroke="rgb(255,255,255)" /><path d="M 0 200 L 100 200 L 75 275 L 0 300 L 0 250 Z" fill="rgb(0,128,255)" stroke="rgb(0,128,255)" /><path d="M 125 325 L 175 275 L 200 300 L 225 325 L 200 400 L 125 425 L 100 400 L 75 375 Z" fill="rgb(255,255,255)" stroke="rgb(255,255,255)" /><path d="M 300 0 L 350 0 L 400 0 L 425 75 L 400 100 L 375 125 L 325 125 L 275 75 Z" fill="rgb(0,128,255)" stroke="rgb(0,128,255)" /><path d="M 800 0 L 850 0 L 900 0 L 875 75 L 850 75 L 825 75 Z" fill="rgb(255,255,255)" stroke="rgb(255,255,255)" /><path d="M 600 200 L 675 175 L 700 200 L 725 225 L 675 275 L 600 300 Z" fill="rgb(255,255,255)" stroke="rgb(255,255,255)" /><path d="M 500 0 L 550 0 L 600 0 L 600 100 L 500 100 Z" fill="rgb(0,128,255)" stroke="rgb(0,128,255)" /><path d="M 1000 0 L 1050 0 L 1100 0 L 1100 50 L 1100 100 L 1000 100 Z" fill="rgb(0,128,255)" stroke="rgb(0,128,255)" /><path d="M 125 425 L 200 400 L 225 475 L 200 500 L 175 525 L 125 525 L 100 500 L 75 475 Z" fill="rgb(255,255,255)" stroke="rgb(255,255,255)" /><path d="M 225 325 L 275 275 L 300 300 L 325 325 L 325 375 L 300 400 L 275 425 L 200 400 Z" fill="rgb(255,255,255)" stroke="rgb(255,255,255)" /><path d="M 775 725 L 825 675 L 875 675 L 900 700 L 925 725 L 900 800 L 850 800 L 800 800 Z" fill="rgb(0,128,255)" stroke="rgb(0,128,255)" /><path d="M 375 225 L 400 200 L 425 175 L 500 200 L 500 300 L 425 275 Z" fill="rgb(255,255,255)" stroke="rgb(255,255,255)" /><path d="M 900 600 L 1000 600 L 1025 675 L 1000 700 L 975 725 L 925 725 L 900 700 L 875 675 Z" fill="rgb(0,128,255)" stroke="rgb(0,128,255)" /><path d="M 600 500 L 700 500 L 700 600 L 600 600 Z" fill="rgb(255,255,255)" stroke="rgb(255,255,255)" /><path d="M 500 300 L 600 300 L 600 400 L 500 400 Z" fill="rgb(255,255,255)" stroke="rgb(255,255,255)" /><path d="M 975 525 L 1000 500 L 1025 475 L 1100 500 L 1100 550 L 1100 600 L 1000 600 Z" fill="rgb(255,255,255)" stroke="rgb(255,255,255)" /><path d="M 700 0 L 750 0 L 800 0 L 825 75 L 775 125 L 725 125 L 700 100 L 675 75 Z" fill="rgb(0,128,255)" stroke="rgb(0,128,255)" /><path d="M 0 600 L 100 600 L 75 675 L 0 700 L 0 650 Z" fill="rgb(255,255,255)" stroke="rgb(255,255,255)" /><path d="M 125 725 L 175 725 L 200 800 L 150 800 L 100 800 Z" fill="rgb(0,128,255)" stroke="rgb(0,128,255)" /><path d="M 275 425 L 300 400 L 325 375 L 375 375 L 400 400 L 425 425 L 400 500 L 300 500 Z" fill="rgb(255,255,255)" stroke="rgb(255,255,255)" /><path d="M 200 400 L 275 425 L 300 500 L 225 475 Z" fill="rgb(255,255,255)" stroke="rgb(255,255,255)" /><path d="M 825 425 L 900 400 L 875 475 L 800 500 Z" fill="rgb(255,255,255)" stroke="rgb(255,255,255)" /><path d="M 400 700 L 475 725 L 500 800 L 450 800 L 400 800 Z" fill="rgb(255,255,255)" stroke="rgb(255,255,255)" /><path d="M 925 125 L 1000 100 L 1000 200 L 925 175 Z" fill="rgb(0,128,255)" stroke="rgb(0,128,255)" /><path d="M 600 600 L 700 600 L 700 700 L 625 725 L 600 700 L 575 675 Z" fill="rgb(0,128,255)" stroke="rgb(0,128,255)" /><path d="M 500 600 L 600 600 L 575 675 L 525 675 Z" fill="rgb(0,128,255)" stroke="rgb(0,128,255)" /><path d="M 1000 600 L 1100 600 L 1100 650 L 1100 700 L 1025 675 Z" fill="rgb(255,255,255)" stroke="rgb(255,255,255)" /><path d="M 700 700 L 775 725 L 800 800 L 750 800 L 700 800 Z" fill="rgb(255,255,255)" stroke="rgb(255,255,255)" /><path d="M 0 300 L 75 275 L 100 300 L 125 325 L 75 375 L 0 400 L 0 350 Z" fill="rgb(0,128,255)" stroke="rgb(0,128,255)" /><path d="M 100 200 L 175 175 L 200 200 L 225 225 L 175 275 L 125 325 L 100 300 L 75 275 Z" fill="rgb(0,128,255)" stroke="rgb(0,128,255)" /><path d="M 325 325 L 350 325 L 375 325 L 375 350 L 375 375 L 350 375 L 325 375 L 325 350 Z" fill="rgb(0,128,255)" stroke="rgb(0,128,255)" /><path d="M 775 125 L 825 75 L 875 75 L 900 100 L 925 125 L 925 175 L 900 200 L 875 225 L 825 175 Z" fill="rgb(0,128,255)" stroke="rgb(0,128,255)" /><path d="M 425 425 L 500 400 L 500 500 L 400 500 Z" fill="rgb(255,255,255)" stroke="rgb(255,255,255)" /><path d="M 600 300 L 675 275 L 700 300 L 725 325 L 725 375 L 700 400 L 675 425 L 600 400 Z" fill="rgb(255,255,255)" stroke="rgb(255,255,255)" /><path d="M 0 0 L 50 0 L 100 0 L 100 100 L 0 100 L 0 50 Z" fill="rgb(0,128,255)" stroke="rgb(0,128,255)" /><path d="M 1000 100 L 1100 100 L 1100 150 L 1100 200 L 1000 200 Z" fill="rgb(0,128,255)" stroke="rgb(0,128,255)" /><path d="M 200 0 L 250 0 L 300 0 L 275 75 L 250 75 L 225 75 Z" fill="rgb(255,255,255)" stroke="rgb(255,255,255)" /><path d="M 375 325 L 400 300 L 425 275 L 500 300 L 500 400 L 425 425 L 400 400 L 375 375 Z" fill="rgb(255,255,255)" stroke="rgb(255,255,255)" /><path d="M 925 525 L 950 525 L 975 525 L 1000 600 L 900 600 Z" fill="rgb(0,128,255)" stroke="rgb(0,128,255)" /><path d="M 500 200 L 600 200 L 600 300 L 500 300 Z" fill="rgb(255,255,255)" stroke="rgb(255,255,255)" /><path d="M 1000 200 L 1100 200 L 1100 250 L 1100 300 L 1025 275 Z" fill="rgb(0,128,255)" stroke="rgb(0,128,255)" /></svg>