<?xml version="1.0" encoding="utf-8" ?>
<svg baseProfile="full" height="100%" version="1.1" width="100%" xmlns="http://www.w3.org/2000/svg" xmlns:ev="http://www.w3.org/2001/xml-events" xmlns:xlink="http://www.w3.org/1999/xlink"><defs /><rect fill="rgb(255,255,255)" height="100%" width="100%" x="0" y="0" /><path d="M 725 375 Q 650 350 725 325" fill="rgb(255,255,255)" stroke="rgb(0,0,0)" /><path d="M 375 325 Q 375 350 375 375" fill="rgb(0,0,0)" stroke="rgb(0,0,0)" /><path d="M 0 700 Q 50 650 75 675 M 75 675 Q 100 600 125 525" fill="rgb(0,0,0)" stroke="rgb(0,0,0)" /><path d="M 875 675 Q 850 750 825 675" fill="rgb(0,128,255)" stroke="rgb(0,0,0)" /><path d="M 325 125 Q 350 50 375 125" fill="rgb(0,128,255)" stroke="rgb(0,0,0)" /><path d="M 900 0 Q 950 50 875 75 M 875 75 Q 850 75 825 75 M 825 75 Q 750 50 800 0" fill="rgb(0,128,255)" stroke="rgb(0,0,0)" /><path d="M 275 75 Q 250 50 300 0" fill="rgb(255,255,255)" stroke="rgb(0,0,0)" /><path d="M 500 800 Q 450 750 475 725 M 475 725 Q 450 750 400 700 M 400 700 Q 350 750 325 725 M 325 725 Q 350 750 300 800" fill="rgb(255,255,255)" stroke="rgb(0,0,0)" /><path d="M 875 675 Q 900 600 925 525 M 925 525 Q 950 525 975 525 M 975 525 Q 1000 600 1025 675 M 1025 675 Q 1050 650 1100 700" fill="rgb(255,255,255)" stroke="rgb(0,0,0)" /><path d="M 725 375 Q 750 375 775 375 M 775 375 Q 775 350 775 325 M 775 325 Q 750 325 725 325" fill="rgb(0,0,0)" stroke="rgb(0,0,0)" /><path d="M 325 125 Q 350 50 375 125" fill="rgb(0,128,255)" stroke="rgb(0,0,0)" /><path d="M 375 325 Q 450 350 375 375" fill="rgb(255,255,255)" stroke="rgb(0,0,0)" /><path d="M 325 325 Q 325 350 325 375 M 325 375 Q 350 375 375 375" fill="rgb(0,0,0)" stroke="rgb(0,0,0)" /><path d="M 175 525 Q 150 550 125 525" fill="rgb(0,128,255)" stroke="rgb(0,0,0)" /><path d="M 375 325 Q 350 325 325 325" fill="rgb(0,0,0)" stroke="rgb(0,0,0)" /><path d="M 600 800 Q 550 750 625 725 M 625 725 Q 650 650 700 700 M 700 700 Q 750 650 775 725 M 775 725 Q 850 750 800 800 M 800 800 Q 700 800 600 800" fill="rgb(0,0,0)" stroke="rgb(0,0,0)" /><path d="M 825 675 Q 750 650 775 625 M 775 625 Q 750 650 700 600 M 700 600 Q 550 600 400 600 M 400 600 Q 350 650 325 625 M 325 625 Q 350 650 275 675 M 275 675 Q 250 675 225 675 M 225 675 Q 200 600 175 525" fill="rgb(0,0,0)" stroke="rgb(0,0,0)" /><path d="M 175 525 Q 150 550 125 525" fill="rgb(0,128,255)" stroke="rgb(0,0,0)" /><path d="M 1100 400 Q 1050 450 1025 375 M 1025 375 Q 900 250 775 125 M 775 125 Q 750 125 725 125 M 725 125 Q 750 150 675 175 M 675 175 Q 650 250 600 200 M 600 200 Q 550 250 500 200 M 500 200 Q 450 250 425 175 M 425 175 Q 350 150 375 125" fill="rgb(255,255,255)" stroke="rgb(0,0,0)" /><path d="M 225 75 Q 250 50 275 75" fill="rgb(255,255,255)" stroke="rgb(0,0,0)" /><path d="M 875 675 Q 850 750 825 675" fill="rgb(0,128,255)" stroke="rgb(0,0,0)" /><path d="M 375 325 Q 350 350 325 325" fill="rgb(0,128,255)" stroke="rgb(0,0,0)" /><path d="M 225 75 Q 150 50 200 0" fill="rgb(0,128,255)" stroke="rgb(0,0,0)" /><path d="M 225 75 Q 250 50 275 75" fill="rgb(255,255,255)" stroke="rgb(0,0,0)" /><path d="M 725 375 Q 650 350 725 325" fill="rgb(255,255,255)" stroke="rgb(0,0,0)" /><path d="M 325 125 Q 200 250 75 375 M 75 375 Q 50 450 0 400" fill="rgb(255,255,255)" stroke="rgb(0,0,0)" /></svg>