<?xml version="1.0" encoding="utf-8" ?>
<svg baseProfile="full" height="100%" version="1.1" width="100%" xmlns="http://www.w3.org/2000/svg" xmlns:ev="http://www.w3.org/2001/xml-events" xmlns:xlink="http://www.w3.org/1999/xlink"><defs /><rect fill="rgb(255,255,255)" height="100%" width="100%" x="0" y="0" /><path d="M 1600 1100 Q 1650 1050 1700 1100" fill="rgb(248,112,192)" stroke="rgb(0,0,0)" /><path d="M 200 700 Q 150 750 100 700" fill="rgb(248,72,136)" stroke="rgb(0,0,0)" /><path d="M 800 300 Q 850 250 900 300 M 900 300 Q 950 250 975 275 M 975 275 Q 950 250 1000 200" fill="rgb(248,112,192)" stroke="rgb(0,0,0)" /><path d="M 2200 200 Q 2150 250 2125 175 M 2125 175 Q 2075 125 2025 75 M 2025 75 Q 1950 50 2000 0" fill="rgb(80,80,80)" stroke="rgb(0,0,0)" /><path d="M 1500 1500 Q 1200 1500 900 1500" fill="rgb(0,0,0)" stroke="rgb(0,0,0)" /><path d="M 1900 100 Q 1950 150 1925 175 M 1925 175 Q 1950 150 1975 225 M 1975 225 Q 2000 300 2025 375 M 2025 375 Q 2050 350 2100 400" fill="rgb(248,72,136)" stroke="rgb(0,0,0)" /><path d="M 1025 775 Q 1050 750 1075 775" fill="rgb(224,32,88)" stroke="rgb(0,0,0)" /><path d="M 2000 300 Q 2050 250 2100 300" fill="rgb(224,32,88)" stroke="rgb(0,0,0)" /><path d="M 1100 600 Q 1150 650 1075 675 M 1075 675 Q 1050 750 1025 725 M 1025 725 Q 1025 750 1025 775" fill="rgb(0,0,0)" stroke="rgb(0,0,0)" /><path d="M 1525 575 Q 1550 550 1575 575" fill="rgb(80,80,80)" stroke="rgb(0,0,0)" /><path d="M 1525 575 Q 1550 550 1575 575" fill="rgb(80,80,80)" stroke="rgb(0,0,0)" /><path d="M 600 1100 Q 650 1150 625 1175 M 625 1175 Q 650 1150 700 1200" fill="rgb(248,72,136)" stroke="rgb(0,0,0)" /><path d="M 200 700 Q 250 650 275 675 M 275 675 Q 250 650 300 600" fill="rgb(248,112,192)" stroke="rgb(0,0,0)" /><path d="M 300 600 Q 250 550 300 500" fill="rgb(224,32,88)" stroke="rgb(0,0,0)" /><path d="M 1600 400 Q 1650 450 1600 500 M 1600 500 Q 1650 550 1575 575" fill="rgb(248,152,240)" stroke="rgb(0,0,0)" /><path d="M 1800 100 Q 1850 150 1775 175 M 1775 175 Q 1750 250 1700 200 M 1700 200 Q 1650 250 1600 200" fill="rgb(248,112,192)" stroke="rgb(0,0,0)" /><path d="M 1700 1000 Q 1650 950 1700 900 M 1700 900 Q 1650 850 1725 825 M 1725 825 Q 1750 750 1800 800" fill="rgb(248,152,240)" stroke="rgb(0,0,0)" /><path d="M 2100 600 Q 2050 650 2000 600" fill="rgb(224,32,88)" stroke="rgb(0,0,0)" /><path d="M 1900 700 Q 1950 650 1975 675 M 1975 675 Q 2000 600 2025 525 M 2025 525 Q 2050 450 2100 500" fill="rgb(248,112,192)" stroke="rgb(0,0,0)" /><path d="M 725 1025 Q 750 1025 775 1025" fill="rgb(0,0,0)" stroke="rgb(0,0,0)" /><path d="M 1800 800 Q 1800 700 1800 600 M 1800 600 Q 1750 550 1825 525" fill="rgb(248,112,192)" stroke="rgb(0,0,0)" /><path d="M 1400 200 Q 1350 150 1375 125 M 1375 125 Q 1350 150 1300 100 M 1300 100 Q 1150 100 1000 100 M 1000 100 Q 950 150 925 125 M 925 125 Q 950 150 900 200" fill="rgb(224,32,88)" stroke="rgb(0,0,0)" /><path d="M 1400 200 Q 1500 200 1600 200" fill="rgb(0,0,0)" stroke="rgb(0,0,0)" /><path d="M 1700 100 Q 1750 150 1700 200" fill="rgb(248,72,136)" stroke="rgb(0,0,0)" /><path d="M 600 500 Q 650 450 675 475 M 675 475 Q 725 425 775 375 M 775 375 Q 750 350 800 300" fill="rgb(248,112,192)" stroke="rgb(0,0,0)" /><path d="M 1300 1600 Q 1250 1550 1300 1500" fill="rgb(248,72,136)" stroke="rgb(0,0,0)" /><path d="M 1300 200 Q 1250 150 1300 100" fill="rgb(248,72,136)" stroke="rgb(0,0,0)" /><path d="M 1700 1100 Q 1750 1050 1775 1075 M 1775 1075 Q 1825 1025 1875 975 M 1875 975 Q 1900 900 1925 825 M 1925 825 Q 2000 750 2075 675 M 2075 675 Q 2050 650 2100 600 M 2100 600 Q 2100 450 2100 300 M 2100 300 Q 2050 250 2075 225 M 2075 225 Q 2025 175 1975 125 M 1975 125 Q 1950 150 1900 100 M 1900 100 Q 1800 100 1700 100 M 1700 100 Q 1650 150 1625 125 M 1625 125 Q 1650 150 1600 200" fill="rgb(224,32,88)" stroke="rgb(0,0,0)" /><path d="M 1325 425 Q 1350 350 1400 400 M 1400 400 Q 1450 350 1475 425 M 1475 425 Q 1500 500 1525 575" fill="rgb(0,0,0)" stroke="rgb(0,0,0)" /><path d="M 1700 1100 Q 1750 1150 1700 1200 M 1700 1200 Q 1750 1250 1675 1275 M 1675 1275 Q 1650 1350 1600 1300" fill="rgb(80,80,80)" stroke="rgb(0,0,0)" /><path d="M 775 1025 Q 850 1050 775 1075" fill="rgb(248,152,240)" stroke="rgb(0,0,0)" /><path d="M 1700 500 Q 1750 450 1775 475 M 1775 475 Q 1750 450 1800 400 M 1800 400 Q 1750 350 1775 325 M 1775 325 Q 1750 350 1700 300 M 1700 300 Q 1650 350 1600 300" fill="rgb(224,32,88)" stroke="rgb(0,0,0)" /><path d="M 1700 1000 Q 1750 950 1775 975 M 1775 975 Q 1750 950 1800 900 M 1800 900 Q 1750 850 1800 800" fill="rgb(248,112,192)" stroke="rgb(0,0,0)" /><path d="M 1425 925 Q 1450 925 1475 925" fill="rgb(0,0,0)" stroke="rgb(0,0,0)" /><path d="M 1500 200 Q 1550 250 1500 300 M 1500 300 Q 1550 350 1525 375 M 1525 375 Q 1550 350 1600 400" fill="rgb(248,72,136)" stroke="rgb(0,0,0)" /><path d="M 1700 900 Q 1750 850 1800 900" fill="rgb(248,112,192)" stroke="rgb(0,0,0)" /><path d="M 1325 675 Q 1300 600 1275 525 M 1275 525 Q 1200 500 1125 475 M 1125 475 Q 1125 450 1125 425 M 1125 425 Q 1200 400 1275 375 M 1275 375 Q 1250 350 1325 325 M 1325 325 Q 1350 250 1400 300 M 1400 300 Q 1450 250 1500 300" fill="rgb(248,112,192)" stroke="rgb(0,0,0)" /><path d="M 200 700 Q 150 650 225 625 M 225 625 Q 250 550 300 600" fill="rgb(224,32,88)" stroke="rgb(0,0,0)" /><path d="M 925 725 Q 950 750 925 775" fill="rgb(248,112,192)" stroke="rgb(0,0,0)" /><path d="M 925 725 Q 950 750 925 775" fill="rgb(248,112,192)" stroke="rgb(0,0,0)" /><path d="M 775 1025 Q 850 1050 775 1075" fill="rgb(248,152,240)" stroke="rgb(0,0,0)" /><path d="M 1600 400 Q 1600 300 1600 200" fill="rgb(0,0,0)" stroke="rgb(0,0,0)" /><path d="M 2200 1000 Q 2150 1050 2125 975 M 2125 975 Q 2075 925 2025 875 M 2025 875 Q 2025 850 2025 825 M 2025 825 Q 2075 775 2125 725 M 2125 725 Q 2150 650 2200 700" fill="rgb(80,80,80)" stroke="rgb(0,0,0)" /><path d="M 1425 975 Q 1450 950 1475 975" fill="rgb(80,80,80)" stroke="rgb(0,0,0)" /><path d="M 600 500 Q 550 450 625 425 M 625 425 Q 675 375 725 325 M 725 325 Q 750 250 800 300" fill="rgb(224,32,88)" stroke="rgb(0,0,0)" /><path d="M 1500 1500 Q 1550 1450 1575 1475 M 1575 1475 Q 1550 1450 1600 1400 M 1600 1400 Q 1550 1350 1600 1300" fill="rgb(248,112,192)" stroke="rgb(0,0,0)" /><path d="M 1375 675 Q 1350 750 1325 675" fill="rgb(248,152,240)" stroke="rgb(0,0,0)" /><path d="M 1500 1500 Q 1550 1550 1475 1575 M 1475 1575 Q 1450 1650 1400 1600 M 1400 1600 Q 1200 1600 1000 1600 M 1000 1600 Q 950 1650 925 1575 M 925 1575 Q 850 1550 900 1500" fill="rgb(80,80,80)" stroke="rgb(0,0,0)" /><path d="M 1500 1400 Q 1550 1350 1600 1400" fill="rgb(248,112,192)" stroke="rgb(0,0,0)" /><path d="M 2000 1000 Q 2050 1050 1975 1075 M 1975 1075 Q 1950 1150 1925 1125 M 1925 1125 Q 1950 1150 1900 1200 M 1900 1200 Q 1950 1250 1900 1300 M 1900 1300 Q 1950 1350 1875 1375 M 1875 1375 Q 1850 1450 1825 1425 M 1825 1425 Q 1800 1500 1775 1575 M 1775 1575 Q 1750 1650 1700 1600 M 1700 1600 Q 1700 1500 1700 1400 M 1700 1400 Q 1650 1350 1725 1325 M 1725 1325 Q 1750 1250 1775 1275 M 1775 1275 Q 1800 1200 1825 1125 M 1825 1125 Q 1875 1075 1925 1025 M 1925 1025 Q 1950 950 2000 1000" fill="rgb(80,80,80)" stroke="rgb(0,0,0)" /><path d="M 800 200 Q 850 250 800 300" fill="rgb(248,72,136)" stroke="rgb(0,0,0)" /><path d="M 900 1500 Q 850 1450 875 1425 M 875 1425 Q 800 1350 725 1275 M 725 1275 Q 700 1200 675 1125 M 675 1125 Q 650 1150 600 1100 M 600 1100 Q 550 1150 500 1100 M 500 1100 Q 450 1150 425 1075 M 425 1075 Q 350 1050 375 1025 M 375 1025 Q 350 1050 300 1000 M 300 1000 Q 250 1050 200 1000" fill="rgb(248,112,192)" stroke="rgb(0,0,0)" /><path d="M 625 675 Q 650 675 675 675 M 675 675 Q 675 650 675 625 M 675 625 Q 650 625 625 625 M 625 625 Q 625 650 625 675" fill="rgb(0,0,0)" stroke="rgb(0,0,0)" /><path d="M 900 0 Q 950 50 875 75 M 875 75 Q 800 100 725 125 M 725 125 Q 600 250 475 375 M 475 375 Q 450 450 400 400 M 400 400 Q 350 450 300 400 M 300 400 Q 250 450 225 425 M 225 425 Q 150 500 75 575 M 75 575 Q 50 650 0 600" fill="rgb(80,80,80)" stroke="rgb(0,0,0)" /><path d="M 1425 925 Q 1450 850 1475 925" fill="rgb(248,152,240)" stroke="rgb(0,0,0)" /><path d="M 1375 675 Q 1350 650 1400 600 M 1400 600 Q 1350 550 1375 525 M 1375 525 Q 1350 550 1325 475" fill="rgb(80,80,80)" stroke="rgb(0,0,0)" /><path d="M 725 1025 Q 725 1050 725 1075" fill="rgb(0,0,0)" stroke="rgb(0,0,0)" /><path d="M 1175 1775 Q 1125 1825 1075 1875 M 1075 1875 Q 1050 1950 1000 1900 M 1000 1900 Q 950 1950 900 1900 M 900 1900 Q 850 1950 825 1875 M 825 1875 Q 775 1825 725 1775 M 725 1775 Q 650 1750 700 1700 M 700 1700 Q 650 1650 725 1625 M 725 1625 Q 750 1550 800 1600 M 800 1600 Q 850 1550 875 1625 M 875 1625 Q 950 1650 925 1675 M 925 1675 Q 950 1650 1000 1700 M 1000 1700 Q 1050 1650 1100 1700 M 1100 1700 Q 1150 1650 1175 1725 M 1175 1725 Q 1175 1750 1175 1775" fill="rgb(0,0,0)" stroke="rgb(0,0,0)" /><path d="M 600 500 Q 650 550 575 575 M 575 575 Q 550 650 500 600 M 500 600 Q 400 600 300 600" fill="rgb(0,0,0)" stroke="rgb(0,0,0)" /><path d="M 1200 700 Q 1150 750 1125 725 M 1125 725 Q 1150 750 1075 775" fill="rgb(248,112,192)" stroke="rgb(0,0,0)" /><path d="M 1425 925 Q 1425 950 1425 975" fill="rgb(0,0,0)" stroke="rgb(0,0,0)" /><path d="M 1375 675 Q 1350 750 1325 675" fill="rgb(248,152,240)" stroke="rgb(0,0,0)" /><path d="M 1325 425 Q 1350 450 1325 475" fill="rgb(248,152,240)" stroke="rgb(0,0,0)" /><path d="M 1425 925 Q 1450 950 1425 975" fill="rgb(80,80,80)" stroke="rgb(0,0,0)" /><path d="M 1100 1500 Q 1150 1550 1100 1600" fill="rgb(248,72,136)" stroke="rgb(0,0,0)" /><path d="M 200 1000 Q 250 1050 225 1075 M 225 1075 Q 300 1100 375 1125 M 375 1125 Q 450 1150 425 1175 M 425 1175 Q 500 1200 575 1225 M 575 1225 Q 675 1325 775 1425 M 775 1425 Q 850 1450 800 1500" fill="rgb(248,112,192)" stroke="rgb(0,0,0)" /><path d="M 1000 100 Q 1050 150 1000 200" fill="rgb(248,72,136)" stroke="rgb(0,0,0)" /><path d="M 1600 1300 Q 1600 1200 1600 1100 M 1600 1100 Q 1550 1050 1625 1025 M 1625 1025 Q 1650 950 1700 1000" fill="rgb(248,152,240)" stroke="rgb(0,0,0)" /><path d="M 1600 0 Q 1650 50 1575 75 M 1575 75 Q 1550 150 1500 100 M 1500 100 Q 1450 150 1425 75 M 1425 75 Q 1350 50 1400 0" fill="rgb(80,80,80)" stroke="rgb(0,0,0)" /><path d="M 1875 525 Q 1850 525 1825 525" fill="rgb(0,0,0)" stroke="rgb(0,0,0)" /><path d="M 1000 200 Q 950 250 900 200" fill="rgb(248,112,192)" stroke="rgb(0,0,0)" /><path d="M 1600 400 Q 1650 350 1675 425 M 1675 425 Q 1700 500 1725 575 M 1725 575 Q 1750 550 1800 600" fill="rgb(248,112,192)" stroke="rgb(0,0,0)" /><path d="M 1400 200 Q 1450 250 1400 300" fill="rgb(248,112,192)" stroke="rgb(0,0,0)" /><path d="M 1075 875 Q 1050 875 1025 875" fill="rgb(0,0,0)" stroke="rgb(0,0,0)" /><path d="M 1475 925 Q 1475 950 1475 975" fill="rgb(0,0,0)" stroke="rgb(0,0,0)" /><path d="M 725 1025 Q 750 1050 725 1075" fill="rgb(248,112,192)" stroke="rgb(0,0,0)" /><path d="M 1425 975 Q 1450 950 1475 975" fill="rgb(80,80,80)" stroke="rgb(0,0,0)" /><path d="M 1075 875 Q 1050 950 1025 875" fill="rgb(248,152,240)" stroke="rgb(0,0,0)" /><path d="M 900 1500 Q 850 1550 800 1500 M 800 1500 Q 750 1550 725 1475 M 725 1475 Q 650 1400 575 1325 M 575 1325 Q 500 1300 425 1275 M 425 1275 Q 350 1250 375 1225 M 375 1225 Q 300 1200 225 1175 M 225 1175 Q 175 1125 125 1075 M 125 1075 Q 50 1050 100 1000 M 100 1000 Q 100 850 100 700 M 100 700 Q 50 650 125 625 M 125 625 Q 175 575 225 525 M 225 525 Q 250 450 300 500 M 300 500 Q 450 500 600 500" fill="rgb(0,0,0)" stroke="rgb(0,0,0)" /><path d="M 1100 2000 Q 1050 1950 1125 1925 M 1125 1925 Q 1225 1825 1325 1725 M 1325 1725 Q 1350 1650 1400 1700 M 1400 1700 Q 1500 1700 1600 1700 M 1600 1700 Q 1650 1650 1675 1725 M 1675 1725 Q 1750 1750 1725 1775 M 1725 1775 Q 1750 1750 1800 1800 M 1800 1800 Q 1850 1750 1875 1775 M 1875 1775 Q 1975 1675 2075 1575 M 2075 1575 Q 2100 1500 2125 1425 M 2125 1425 Q 2150 1350 2200 1400 M 2200 1400 Q 2200 700 2200 0 M 2200 0 Q 1100 0 0 0 M 0 0 Q 0 1000 0 2000 M 0 2000 Q 550 2000 1100 2000" fill="rgb(0,0,0)" stroke="rgb(0,0,0)" /><path d="M 900 300 Q 850 250 900 200" fill="rgb(248,72,136)" stroke="rgb(0,0,0)" /><path d="M 1325 425 Q 1350 450 1325 475" fill="rgb(248,152,240)" stroke="rgb(0,0,0)" /><path d="M 775 1075 Q 750 1075 725 1075" fill="rgb(0,0,0)" stroke="rgb(0,0,0)" /><path d="M 1875 525 Q 1850 550 1825 525" fill="rgb(248,72,136)" stroke="rgb(0,0,0)" /><path d="M 200 1000 Q 150 1050 100 1000" fill="rgb(224,32,88)" stroke="rgb(0,0,0)" /><path d="M 1600 1300 Q 1550 1350 1525 1325 M 1525 1325 Q 1550 1350 1500 1400 M 1500 1400 Q 1550 1450 1500 1500" fill="rgb(248,72,136)" stroke="rgb(0,0,0)" /><path d="M 1700 300 Q 1750 350 1725 375 M 1725 375 Q 1750 350 1800 400" fill="rgb(248,72,136)" stroke="rgb(0,0,0)" /><path d="M 1000 1600 Q 950 1550 1000 1500" fill="rgb(248,72,136)" stroke="rgb(0,0,0)" /><path d="M 1025 875 Q 975 825 925 775" fill="rgb(0,0,0)" stroke="rgb(0,0,0)" /><path d="M 1700 1000 Q 1750 1050 1700 1100" fill="rgb(224,32,88)" stroke="rgb(0,0,0)" /><path d="M 925 725 Q 975 675 1025 625 M 1025 625 Q 1050 550 1100 600 M 1100 600 Q 1150 550 1175 625 M 1175 625 Q 1250 650 1200 700 M 1200 700 Q 1250 750 1175 775 M 1175 775 Q 1125 825 1075 875" fill="rgb(0,0,0)" stroke="rgb(0,0,0)" /><path d="M 1000 200 Q 1200 200 1400 200" fill="rgb(0,0,0)" stroke="rgb(0,0,0)" /><path d="M 0 1100 Q 50 1050 75 1125 M 75 1125 Q 150 1200 225 1275 M 225 1275 Q 300 1300 375 1325 M 375 1325 Q 425 1375 475 1425 M 475 1425 Q 500 1500 525 1575 M 525 1575 Q 550 1550 575 1625 M 575 1625 Q 600 1700 625 1775 M 625 1775 Q 700 1850 775 1925 M 775 1925 Q 850 1950 800 2000" fill="rgb(80,80,80)" stroke="rgb(0,0,0)" /><path d="M 1025 775 Q 1050 750 1075 775" fill="rgb(224,32,88)" stroke="rgb(0,0,0)" /><path d="M 1875 525 Q 1950 550 1900 600 M 1900 600 Q 1950 650 1900 700 M 1900 700 Q 1950 750 1875 775 M 1875 775 Q 1850 850 1800 800" fill="rgb(224,32,88)" stroke="rgb(0,0,0)" /><path d="M 200 700 Q 200 850 200 1000" fill="rgb(0,0,0)" stroke="rgb(0,0,0)" /><path d="M 500 500 Q 450 450 525 425 M 525 425 Q 625 325 725 225 M 725 225 Q 750 150 800 200 M 800 200 Q 850 150 900 200" fill="rgb(80,80,80)" stroke="rgb(0,0,0)" /><path d="M 1600 1200 Q 1650 1150 1700 1200" fill="rgb(248,72,136)" stroke="rgb(0,0,0)" /></svg>