<?xml version="1.0" encoding="utf-8" ?>
<svg baseProfile="full" height="100%" version="1.1" width="100%" xmlns="http://www.w3.org/2000/svg" xmlns:ev="http://www.w3.org/2001/xml-events" xmlns:xlink="http://www.w3.org/1999/xlink"><defs /><path d="M 725 325 L 800 300 L 775 375 L 725 425 L 675 375 Z" fill="rgb(248,112,192)" stroke="rgb(248,112,192)" /><path d="M 1600 900 L 1700 900 L 1700 1000 L 1625 1025 L 1600 1000 L 1575 975 Z" fill="rgb(248,152,240)" stroke="rgb(248,152,240)" /><path d="M 1900 400 L 1975 425 L 1975 475 L 1925 475 Z" fill="rgb(248,112,192)" stroke="rgb(248,112,192)" /><path d="M 2025 725 L 2075 675 L 2125 725 L 2075 775 L 2025 825 L 1975 775 Z" fill="rgb(80,80,80)" stroke="rgb(80,80,80)" /><path d="M 1800 1900 L 1900 1900 L 1900 2000 L 1850 2000 L 1800 2000 Z" fill="rgb(88,88,88)" stroke="rgb(88,88,88)" /><path d="M 2100 600 L 2200 600 L 2200 650 L 2200 700 L 2125 725 L 2075 675 Z" fill="rgb(80,80,80)" stroke="rgb(80,80,80)" /><path d="M 800 500 L 900 500 L 900 600 L 800 600 Z" fill="rgb(248,152,240)" stroke="rgb(248,152,240)" /><path d="M 900 0 L 950 0 L 1000 0 L 1000 100 L 925 125 L 875 75 Z" fill="rgb(80,80,80)" stroke="rgb(80,80,80)" /><path d="M 1025 725 L 1075 675 L 1125 725 L 1075 775 L 1050 775 L 1025 775 L 1025 750 Z" fill="rgb(224,32,88)" stroke="rgb(224,32,88)" /><path d="M 0 1700 L 100 1700 L 100 1800 L 0 1800 L 0 1750 Z" fill="rgb(88,88,88)" stroke="rgb(88,88,88)" /><path d="M 1375 125 L 1425 75 L 1500 100 L 1500 200 L 1400 200 Z" fill="rgb(80,80,80)" stroke="rgb(80,80,80)" /><path d="M 1175 1725 L 1200 1700 L 1225 1675 L 1275 1675 L 1300 1700 L 1325 1725 L 1275 1775 L 1225 1825 L 1175 1775 Z" fill="rgb(80,80,80)" stroke="rgb(80,80,80)" /><path d="M 1475 425 L 1525 375 L 1600 400 L 1600 500 L 1500 500 Z" fill="rgb(80,80,80)" stroke="rgb(80,80,80)" /><path d="M 300 200 L 400 200 L 400 300 L 300 300 Z" fill="rgb(88,88,88)" stroke="rgb(88,88,88)" /><path d="M 400 500 L 500 500 L 500 600 L 400 600 Z" fill="rgb(248,72,136)" stroke="rgb(248,72,136)" /><path d="M 1600 0 L 1650 0 L 1700 0 L 1700 100 L 1625 125 L 1575 75 Z" fill="rgb(80,80,80)" stroke="rgb(80,80,80)" /><path d="M 1900 1300 L 2000 1300 L 1975 1375 L 1925 1425 L 1900 1400 L 1875 1375 Z" fill="rgb(224,32,88)" stroke="rgb(224,32,88)" /><path d="M 1725 1325 L 1775 1275 L 1800 1300 L 1825 1325 L 1775 1375 L 1700 1400 Z" fill="rgb(248,72,136)" stroke="rgb(248,72,136)" /><path d="M 2025 1425 L 2075 1375 L 2125 1425 L 2100 1500 L 2000 1500 Z" fill="rgb(80,80,80)" stroke="rgb(80,80,80)" /><path d="M 1825 1025 L 1875 975 L 1925 1025 L 1875 1075 L 1825 1125 L 1775 1075 Z" fill="rgb(80,80,80)" stroke="rgb(80,80,80)" /><path d="M 2100 1500 L 2200 1500 L 2200 1550 L 2200 1600 L 2125 1625 L 2100 1600 L 2075 1575 Z" fill="rgb(88,88,88)" stroke="rgb(88,88,88)" /><path d="M 800 1200 L 900 1200 L 900 1300 L 825 1275 Z" fill="rgb(248,152,240)" stroke="rgb(248,152,240)" /><path d="M 900 900 L 975 925 L 1000 1000 L 900 1000 Z" fill="rgb(248,152,240)" stroke="rgb(248,152,240)" /><path d="M 1000 1400 L 1100 1400 L 1100 1500 L 1000 1500 Z" fill="rgb(248,152,240)" stroke="rgb(248,152,240)" /><path d="M 775 1825 L 800 1800 L 825 1775 L 900 1800 L 900 1900 L 825 1875 Z" fill="rgb(224,32,88)" stroke="rgb(224,32,88)" /><path d="M 1100 1500 L 1200 1500 L 1200 1600 L 1100 1600 Z" fill="rgb(248,72,136)" stroke="rgb(248,72,136)" /><path d="M 900 1900 L 1000 1900 L 1000 2000 L 950 2000 L 900 2000 Z" fill="rgb(80,80,80)" stroke="rgb(80,80,80)" /><path d="M 1400 800 L 1500 800 L 1525 875 L 1500 900 L 1475 925 L 1425 925 L 1400 900 L 1375 875 Z" fill="rgb(248,152,240)" stroke="rgb(248,152,240)" /><path d="M 1225 825 L 1300 800 L 1300 900 L 1200 900 Z" fill="rgb(248,152,240)" stroke="rgb(248,152,240)" /><path d="M 1525 1325 L 1600 1300 L 1600 1400 L 1500 1400 Z" fill="rgb(248,112,192)" stroke="rgb(248,112,192)" /><path d="M 1300 1300 L 1400 1300 L 1400 1400 L 1300 1400 Z" fill="rgb(248,152,240)" stroke="rgb(248,152,240)" /><path d="M 200 1800 L 300 1800 L 300 1900 L 200 1900 Z" fill="rgb(88,88,88)" stroke="rgb(88,88,88)" /><path d="M 0 1400 L 100 1400 L 100 1500 L 0 1500 L 0 1450 Z" fill="rgb(88,88,88)" stroke="rgb(88,88,88)" /><path d="M 300 1100 L 375 1125 L 425 1175 L 375 1225 L 300 1200 Z" fill="rgb(224,32,88)" stroke="rgb(224,32,88)" /><path d="M 100 1500 L 200 1500 L 200 1600 L 100 1600 Z" fill="rgb(88,88,88)" stroke="rgb(88,88,88)" /><path d="M 375 1225 L 425 1175 L 500 1200 L 500 1300 L 425 1275 Z" fill="rgb(224,32,88)" stroke="rgb(224,32,88)" /><path d="M 175 1225 L 225 1175 L 300 1200 L 300 1300 L 225 1275 Z" fill="rgb(80,80,80)" stroke="rgb(80,80,80)" /><path d="M 500 100 L 600 100 L 575 175 L 500 200 Z" fill="rgb(88,88,88)" stroke="rgb(88,88,88)" /><path d="M 300 1700 L 400 1700 L 400 1800 L 300 1800 Z" fill="rgb(88,88,88)" stroke="rgb(88,88,88)" /><path d="M 1600 700 L 1700 700 L 1675 775 L 1600 800 Z" fill="rgb(248,152,240)" stroke="rgb(248,152,240)" /><path d="M 575 1425 L 600 1400 L 625 1375 L 675 1425 L 725 1475 L 700 1500 L 675 1525 L 600 1500 Z" fill="rgb(80,80,80)" stroke="rgb(80,80,80)" /><path d="M 1925 1825 L 2000 1800 L 2000 1900 L 1900 1900 Z" fill="rgb(88,88,88)" stroke="rgb(88,88,88)" /><path d="M 1675 625 L 1700 600 L 1725 575 L 1800 600 L 1800 700 L 1700 700 Z" fill="rgb(248,152,240)" stroke="rgb(248,152,240)" /><path d="M 675 1525 L 700 1500 L 725 1475 L 800 1500 L 800 1600 L 725 1625 L 700 1600 L 675 1575 Z" fill="rgb(80,80,80)" stroke="rgb(80,80,80)" /><path d="M 1825 525 L 1850 525 L 1875 525 L 1900 600 L 1800 600 Z" fill="rgb(248,72,136)" stroke="rgb(248,72,136)" /><path d="M 2125 825 L 2200 800 L 2200 850 L 2200 900 L 2125 875 Z" fill="rgb(88,88,88)" stroke="rgb(88,88,88)" /><path d="M 975 925 L 1000 900 L 1025 875 L 1075 875 L 1100 900 L 1125 925 L 1100 1000 L 1000 1000 Z" fill="rgb(248,152,240)" stroke="rgb(248,152,240)" /><path d="M 1125 425 L 1200 400 L 1200 500 L 1125 475 L 1125 450 Z" fill="rgb(80,80,80)" stroke="rgb(80,80,80)" /><path d="M 1400 1900 L 1500 1900 L 1500 2000 L 1450 2000 L 1400 2000 Z" fill="rgb(88,88,88)" stroke="rgb(88,88,88)" /><path d="M 1200 700 L 1275 725 L 1300 800 L 1225 825 L 1200 800 L 1175 775 Z" fill="rgb(248,152,240)" stroke="rgb(248,152,240)" /><path d="M 1000 1900 L 1075 1875 L 1125 1925 L 1100 2000 L 1050 2000 L 1000 2000 Z" fill="rgb(80,80,80)" stroke="rgb(80,80,80)" /><path d="M 1525 1025 L 1575 975 L 1600 1000 L 1625 1025 L 1600 1100 L 1500 1100 Z" fill="rgb(248,152,240)" stroke="rgb(248,152,240)" /><path d="M 1300 600 L 1400 600 L 1375 675 L 1350 675 L 1325 675 Z" fill="rgb(80,80,80)" stroke="rgb(80,80,80)" /><path d="M 0 500 L 75 475 L 100 500 L 125 525 L 75 575 L 0 600 L 0 550 Z" fill="rgb(88,88,88)" stroke="rgb(88,88,88)" /><path d="M 100 0 L 150 0 L 200 0 L 200 100 L 100 100 Z" fill="rgb(88,88,88)" stroke="rgb(88,88,88)" /><path d="M 375 1125 L 425 1075 L 500 1100 L 500 1200 L 425 1175 Z" fill="rgb(248,112,192)" stroke="rgb(248,112,192)" /><path d="M 200 700 L 275 675 L 300 700 L 325 725 L 300 800 L 200 800 Z" fill="rgb(248,152,240)" stroke="rgb(248,152,240)" /><path d="M 500 1000 L 600 1000 L 600 1100 L 500 1100 Z" fill="rgb(248,152,240)" stroke="rgb(248,152,240)" /><path d="M 600 100 L 675 75 L 700 100 L 725 125 L 675 175 L 625 225 L 600 200 L 575 175 Z" fill="rgb(88,88,88)" stroke="rgb(88,88,88)" /><path d="M 400 1700 L 500 1700 L 500 1800 L 400 1800 Z" fill="rgb(88,88,88)" stroke="rgb(88,88,88)" /><path d="M 725 425 L 775 375 L 800 400 L 825 425 L 800 500 L 725 525 L 700 500 L 675 475 Z" fill="rgb(248,152,240)" stroke="rgb(248,152,240)" /><path d="M 2100 1700 L 2200 1700 L 2200 1750 L 2200 1800 L 2100 1800 Z" fill="rgb(88,88,88)" stroke="rgb(88,88,88)" /><path d="M 1900 100 L 1975 125 L 2025 175 L 1975 225 L 1925 175 Z" fill="rgb(224,32,88)" stroke="rgb(224,32,88)" /><path d="M 1675 1725 L 1725 1675 L 1800 1700 L 1800 1800 L 1725 1775 Z" fill="rgb(80,80,80)" stroke="rgb(80,80,80)" /><path d="M 800 0 L 850 0 L 900 0 L 875 75 L 800 100 Z" fill="rgb(88,88,88)" stroke="rgb(88,88,88)" /><path d="M 1500 1900 L 1600 1900 L 1600 2000 L 1550 2000 L 1500 2000 Z" fill="rgb(88,88,88)" stroke="rgb(88,88,88)" /><path d="M 1125 1925 L 1175 1875 L 1200 1900 L 1225 1925 L 1200 2000 L 1150 2000 L 1100 2000 Z" fill="rgb(88,88,88)" stroke="rgb(88,88,88)" /><path d="M 1600 1100 L 1700 1100 L 1700 1200 L 1600 1200 Z" fill="rgb(248,72,136)" stroke="rgb(248,72,136)" /><path d="M 575 1825 L 600 1800 L 625 1775 L 675 1825 L 725 1875 L 700 1900 L 675 1925 L 600 1900 Z" fill="rgb(88,88,88)" stroke="rgb(88,88,88)" /><path d="M 1900 600 L 2000 600 L 1975 675 L 1900 700 Z" fill="rgb(248,112,192)" stroke="rgb(248,112,192)" /><path d="M 1700 1000 L 1775 975 L 1825 1025 L 1775 1075 L 1700 1100 Z" fill="rgb(224,32,88)" stroke="rgb(224,32,88)" /><path d="M 1975 125 L 2025 75 L 2075 125 L 2125 175 L 2075 225 L 2025 175 Z" fill="rgb(80,80,80)" stroke="rgb(80,80,80)" /><path d="M 1800 1700 L 1875 1675 L 1925 1725 L 1875 1775 L 1800 1800 Z" fill="rgb(80,80,80)" stroke="rgb(80,80,80)" /><path d="M 2100 400 L 2200 400 L 2200 450 L 2200 500 L 2100 500 Z" fill="rgb(80,80,80)" stroke="rgb(80,80,80)" /><path d="M 800 700 L 875 675 L 900 700 L 925 725 L 925 775 L 900 800 L 875 825 L 800 800 Z" fill="rgb(248,152,240)" stroke="rgb(248,152,240)" /><path d="M 900 600 L 975 575 L 1000 600 L 1025 625 L 975 675 L 925 725 L 900 700 L 875 675 Z" fill="rgb(248,152,240)" stroke="rgb(248,152,240)" /><path d="M 1000 500 L 1075 525 L 1100 600 L 1025 625 L 1000 600 L 975 575 Z" fill="rgb(248,152,240)" stroke="rgb(248,152,240)" /><path d="M 1125 825 L 1175 775 L 1200 800 L 1225 825 L 1200 900 L 1125 925 L 1100 900 L 1075 875 Z" fill="rgb(248,152,240)" stroke="rgb(248,152,240)" /><path d="M 0 1900 L 100 1900 L 100 2000 L 50 2000 L 0 2000 L 0 1950 Z" fill="rgb(88,88,88)" stroke="rgb(88,88,88)" /><path d="M 1425 725 L 1500 700 L 1500 800 L 1400 800 Z" fill="rgb(248,152,240)" stroke="rgb(248,152,240)" /><path d="M 1225 1925 L 1300 1900 L 1300 2000 L 1250 2000 L 1200 2000 Z" fill="rgb(88,88,88)" stroke="rgb(88,88,88)" /><path d="M 100 1800 L 200 1800 L 200 1900 L 100 1900 Z" fill="rgb(88,88,88)" stroke="rgb(88,88,88)" /><path d="M 1475 625 L 1500 600 L 1525 575 L 1575 575 L 1600 600 L 1625 625 L 1600 700 L 1500 700 Z" fill="rgb(248,152,240)" stroke="rgb(248,152,240)" /><path d="M 1325 1825 L 1400 1800 L 1400 1900 L 1300 1900 Z" fill="rgb(88,88,88)" stroke="rgb(88,88,88)" /><path d="M 0 900 L 100 900 L 100 1000 L 0 1000 L 0 950 Z" fill="rgb(80,80,80)" stroke="rgb(80,80,80)" /><path d="M 300 400 L 400 400 L 400 500 L 300 500 Z" fill="rgb(80,80,80)" stroke="rgb(80,80,80)" /><path d="M 400 700 L 500 700 L 500 800 L 400 800 Z" fill="rgb(248,152,240)" stroke="rgb(248,152,240)" /><path d="M 500 600 L 575 575 L 625 625 L 625 675 L 600 700 L 575 725 L 500 700 Z" fill="rgb(248,152,240)" stroke="rgb(248,152,240)" /><path d="M 1600 200 L 1700 200 L 1700 300 L 1600 300 Z" fill="rgb(248,112,192)" stroke="rgb(248,112,192)" /><path d="M 1900 1500 L 2000 1500 L 1975 1575 L 1925 1625 L 1900 1600 L 1875 1575 Z" fill="rgb(224,32,88)" stroke="rgb(224,32,88)" /><path d="M 1700 300 L 1775 325 L 1800 400 L 1725 375 Z" fill="rgb(248,72,136)" stroke="rgb(248,72,136)" /><path d="M 725 1625 L 800 1600 L 800 1700 L 700 1700 Z" fill="rgb(224,32,88)" stroke="rgb(224,32,88)" /><path d="M 2025 825 L 2075 775 L 2100 800 L 2125 825 L 2125 875 L 2100 900 L 2075 925 L 2025 875 L 2025 850 Z" fill="rgb(88,88,88)" stroke="rgb(88,88,88)" /><path d="M 1800 800 L 1875 775 L 1925 825 L 1900 900 L 1800 900 Z" fill="rgb(224,32,88)" stroke="rgb(224,32,88)" /><path d="M 2100 1300 L 2200 1300 L 2200 1350 L 2200 1400 L 2125 1425 L 2075 1375 Z" fill="rgb(80,80,80)" stroke="rgb(80,80,80)" /><path d="M 775 1425 L 825 1375 L 875 1425 L 900 1500 L 800 1500 Z" fill="rgb(248,112,192)" stroke="rgb(248,112,192)" /><path d="M 900 1500 L 1000 1500 L 1000 1600 L 925 1575 Z" fill="rgb(248,72,136)" stroke="rgb(248,72,136)" /><path d="M 1000 1200 L 1100 1200 L 1100 1300 L 1000 1300 Z" fill="rgb(248,152,240)" stroke="rgb(248,152,240)" /><path d="M 1100 100 L 1200 100 L 1200 200 L 1100 200 Z" fill="rgb(248,72,136)" stroke="rgb(248,72,136)" /><path d="M 875 1725 L 900 1700 L 925 1675 L 1000 1700 L 1000 1800 L 900 1800 Z" fill="rgb(224,32,88)" stroke="rgb(224,32,88)" /><path d="M 1400 1400 L 1500 1400 L 1500 1500 L 1400 1500 Z" fill="rgb(248,152,240)" stroke="rgb(248,152,240)" /><path d="M 1200 1000 L 1300 1000 L 1300 1100 L 1200 1100 Z" fill="rgb(248,152,240)" stroke="rgb(248,152,240)" /><path d="M 1500 1500 L 1575 1475 L 1600 1500 L 1625 1525 L 1600 1600 L 1525 1625 L 1500 1600 L 1475 1575 Z" fill="rgb(80,80,80)" stroke="rgb(80,80,80)" /><path d="M 1300 1100 L 1400 1100 L 1400 1200 L 1300 1200 Z" fill="rgb(248,152,240)" stroke="rgb(248,152,240)" /><path d="M 200 1600 L 300 1600 L 300 1700 L 200 1700 Z" fill="rgb(88,88,88)" stroke="rgb(88,88,88)" /><path d="M 0 0 L 50 0 L 100 0 L 100 100 L 0 100 L 0 50 Z" fill="rgb(88,88,88)" stroke="rgb(88,88,88)" /><path d="M 300 1300 L 375 1325 L 425 1375 L 400 1400 L 375 1425 L 300 1400 Z" fill="rgb(88,88,88)" stroke="rgb(88,88,88)" /><path d="M 100 1300 L 175 1325 L 200 1400 L 100 1400 Z" fill="rgb(88,88,88)" stroke="rgb(88,88,88)" /><path d="M 375 1425 L 400 1400 L 425 1375 L 475 1425 L 500 1500 L 400 1500 Z" fill="rgb(88,88,88)" stroke="rgb(88,88,88)" /><path d="M 200 1000 L 300 1000 L 300 1100 L 225 1075 Z" fill="rgb(248,112,192)" stroke="rgb(248,112,192)" /><path d="M 500 1500 L 600 1500 L 625 1575 L 600 1600 L 575 1625 L 525 1575 Z" fill="rgb(80,80,80)" stroke="rgb(80,80,80)" /><path d="M 300 1900 L 400 1900 L 400 2000 L 350 2000 L 300 2000 Z" fill="rgb(88,88,88)" stroke="rgb(88,88,88)" /><path d="M 575 1225 L 625 1175 L 700 1200 L 725 1275 L 675 1325 L 625 1275 Z" fill="rgb(248,112,192)" stroke="rgb(248,112,192)" /><path d="M 1675 425 L 1725 375 L 1800 400 L 1775 475 L 1700 500 Z" fill="rgb(224,32,88)" stroke="rgb(224,32,88)" /><path d="M 700 900 L 800 900 L 825 975 L 800 1000 L 775 1025 L 725 1025 L 700 1000 L 675 975 Z" fill="rgb(248,152,240)" stroke="rgb(248,152,240)" /><path d="M 1775 325 L 1800 300 L 1825 275 L 1900 300 L 1900 400 L 1800 400 Z" fill="rgb(248,112,192)" stroke="rgb(248,112,192)" /><path d="M 1100 600 L 1175 625 L 1200 700 L 1125 725 L 1075 675 Z" fill="rgb(224,32,88)" stroke="rgb(224,32,88)" /><path d="M 1400 1700 L 1500 1700 L 1500 1800 L 1400 1800 Z" fill="rgb(88,88,88)" stroke="rgb(88,88,88)" /><path d="M 1200 100 L 1300 100 L 1300 200 L 1200 200 Z" fill="rgb(248,72,136)" stroke="rgb(248,72,136)" /><path d="M 1000 1700 L 1100 1700 L 1075 1775 L 1000 1800 Z" fill="rgb(224,32,88)" stroke="rgb(224,32,88)" /><path d="M 1325 425 L 1400 400 L 1425 475 L 1400 500 L 1375 525 L 1325 475 L 1325 450 Z" fill="rgb(248,152,240)" stroke="rgb(248,152,240)" /><path d="M 0 700 L 100 700 L 100 800 L 0 800 L 0 750 Z" fill="rgb(80,80,80)" stroke="rgb(80,80,80)" /><path d="M 125 625 L 175 575 L 225 625 L 200 700 L 100 700 Z" fill="rgb(224,32,88)" stroke="rgb(224,32,88)" /><path d="M 225 525 L 300 500 L 300 600 L 225 625 L 175 575 Z" fill="rgb(224,32,88)" stroke="rgb(224,32,88)" /><path d="M 500 800 L 600 800 L 600 900 L 500 900 Z" fill="rgb(248,152,240)" stroke="rgb(248,152,240)" /><path d="M 575 725 L 600 700 L 625 675 L 675 675 L 700 700 L 725 725 L 700 800 L 600 800 Z" fill="rgb(248,152,240)" stroke="rgb(248,152,240)" /><path d="M 400 1900 L 500 1900 L 500 2000 L 450 2000 L 400 2000 Z" fill="rgb(88,88,88)" stroke="rgb(88,88,88)" /><path d="M 675 625 L 700 600 L 725 575 L 800 600 L 800 700 L 725 725 L 700 700 L 675 675 Z" fill="rgb(248,152,240)" stroke="rgb(248,152,240)" /><path d="M 500 1800 L 575 1825 L 600 1900 L 500 1900 Z" fill="rgb(88,88,88)" stroke="rgb(88,88,88)" /><path d="M 1900 300 L 2000 300 L 2025 375 L 2000 400 L 1975 425 L 1900 400 Z" fill="rgb(248,112,192)" stroke="rgb(248,112,192)" /><path d="M 1975 425 L 2000 400 L 2025 375 L 2100 400 L 2100 500 L 2025 525 L 2000 500 L 1975 475 Z" fill="rgb(248,112,192)" stroke="rgb(248,112,192)" /><path d="M 800 200 L 900 200 L 900 300 L 800 300 Z" fill="rgb(248,72,136)" stroke="rgb(248,72,136)" /><path d="M 900 300 L 975 275 L 1000 300 L 1025 325 L 1000 400 L 900 400 Z" fill="rgb(248,152,240)" stroke="rgb(248,152,240)" /><path d="M 1400 200 L 1500 200 L 1500 300 L 1400 300 Z" fill="rgb(248,112,192)" stroke="rgb(248,112,192)" /><path d="M 300 100 L 400 100 L 400 200 L 300 200 Z" fill="rgb(88,88,88)" stroke="rgb(88,88,88)" /><path d="M 1600 1300 L 1675 1275 L 1725 1325 L 1700 1400 L 1600 1400 Z" fill="rgb(80,80,80)" stroke="rgb(80,80,80)" /><path d="M 575 1625 L 600 1600 L 625 1575 L 675 1575 L 700 1600 L 725 1625 L 700 1700 L 600 1700 Z" fill="rgb(80,80,80)" stroke="rgb(80,80,80)" /><path d="M 1925 825 L 1975 775 L 2025 825 L 2025 875 L 2000 900 L 1975 925 L 1900 900 Z" fill="rgb(80,80,80)" stroke="rgb(80,80,80)" /><path d="M 1725 825 L 1800 800 L 1800 900 L 1700 900 Z" fill="rgb(248,112,192)" stroke="rgb(248,112,192)" /><path d="M 2000 300 L 2100 300 L 2100 400 L 2025 375 Z" fill="rgb(248,72,136)" stroke="rgb(248,72,136)" /><path d="M 1800 1500 L 1900 1500 L 1875 1575 L 1825 1625 L 1800 1600 L 1775 1575 Z" fill="rgb(224,32,88)" stroke="rgb(224,32,88)" /><path d="M 2075 225 L 2125 175 L 2200 200 L 2200 250 L 2200 300 L 2100 300 Z" fill="rgb(80,80,80)" stroke="rgb(80,80,80)" /><path d="M 800 900 L 900 900 L 900 1000 L 825 975 Z" fill="rgb(248,152,240)" stroke="rgb(248,152,240)" /><path d="M 900 400 L 1000 400 L 1000 500 L 900 500 Z" fill="rgb(248,152,240)" stroke="rgb(248,152,240)" /><path d="M 1025 325 L 1100 300 L 1075 375 L 1000 400 Z" fill="rgb(248,152,240)" stroke="rgb(248,152,240)" /><path d="M 1100 1000 L 1200 1000 L 1200 1100 L 1100 1100 Z" fill="rgb(248,152,240)" stroke="rgb(248,152,240)" /><path d="M 1375 525 L 1400 500 L 1425 475 L 1500 500 L 1525 575 L 1500 600 L 1475 625 L 1400 600 Z" fill="rgb(248,152,240)" stroke="rgb(248,152,240)" /><path d="M 1200 1300 L 1300 1300 L 1300 1400 L 1200 1400 Z" fill="rgb(248,152,240)" stroke="rgb(248,152,240)" /><path d="M 100 1600 L 200 1600 L 200 1700 L 100 1700 Z" fill="rgb(88,88,88)" stroke="rgb(88,88,88)" /><path d="M 1500 0 L 1550 0 L 1600 0 L 1575 75 L 1500 100 Z" fill="rgb(88,88,88)" stroke="rgb(88,88,88)" /><path d="M 1300 1600 L 1400 1600 L 1400 1700 L 1325 1725 L 1300 1700 L 1275 1675 Z" fill="rgb(80,80,80)" stroke="rgb(80,80,80)" /><path d="M 0 1100 L 75 1125 L 125 1175 L 100 1200 L 75 1225 L 0 1200 L 0 1150 Z" fill="rgb(88,88,88)" stroke="rgb(88,88,88)" /><path d="M 300 600 L 400 600 L 400 700 L 325 725 L 300 700 L 275 675 Z" fill="rgb(248,152,240)" stroke="rgb(248,152,240)" /><path d="M 100 1000 L 200 1000 L 225 1075 L 175 1125 L 125 1075 Z" fill="rgb(224,32,88)" stroke="rgb(224,32,88)" /><path d="M 400 100 L 500 100 L 500 200 L 400 200 Z" fill="rgb(88,88,88)" stroke="rgb(88,88,88)" /><path d="M 525 425 L 575 375 L 625 425 L 600 500 L 500 500 Z" fill="rgb(224,32,88)" stroke="rgb(224,32,88)" /><path d="M 1600 400 L 1675 425 L 1700 500 L 1600 500 Z" fill="rgb(248,152,240)" stroke="rgb(248,152,240)" /><path d="M 600 1100 L 675 1125 L 700 1200 L 625 1175 Z" fill="rgb(248,72,136)" stroke="rgb(248,72,136)" /><path d="M 1925 1725 L 1975 1675 L 2000 1700 L 2025 1725 L 2000 1800 L 1925 1825 L 1900 1800 L 1875 1775 Z" fill="rgb(88,88,88)" stroke="rgb(88,88,88)" /><path d="M 1700 100 L 1800 100 L 1775 175 L 1700 200 Z" fill="rgb(248,72,136)" stroke="rgb(248,72,136)" /><path d="M 675 1825 L 725 1775 L 775 1825 L 825 1875 L 775 1925 L 725 1875 Z" fill="rgb(80,80,80)" stroke="rgb(80,80,80)" /><path d="M 2000 1000 L 2075 1025 L 2100 1100 L 2025 1125 L 2000 1100 L 1975 1075 Z" fill="rgb(224,32,88)" stroke="rgb(224,32,88)" /><path d="M 1800 600 L 1900 600 L 1900 700 L 1800 700 Z" fill="rgb(248,72,136)" stroke="rgb(248,72,136)" /><path d="M 2100 1100 L 2200 1100 L 2200 1150 L 2200 1200 L 2100 1200 Z" fill="rgb(80,80,80)" stroke="rgb(80,80,80)" /><path d="M 900 1300 L 1000 1300 L 1000 1400 L 925 1375 Z" fill="rgb(248,152,240)" stroke="rgb(248,152,240)" /><path d="M 1000 1000 L 1100 1000 L 1100 1100 L 1000 1100 Z" fill="rgb(248,152,240)" stroke="rgb(248,152,240)" /><path d="M 1100 300 L 1200 300 L 1200 400 L 1125 425 L 1100 400 L 1075 375 Z" fill="rgb(248,152,240)" stroke="rgb(248,152,240)" /><path d="M 1400 1200 L 1500 1200 L 1475 1275 L 1400 1300 Z" fill="rgb(248,152,240)" stroke="rgb(248,152,240)" /><path d="M 1200 400 L 1275 375 L 1325 425 L 1325 475 L 1275 525 L 1200 500 Z" fill="rgb(80,80,80)" stroke="rgb(80,80,80)" /><path d="M 1475 925 L 1500 900 L 1525 875 L 1600 900 L 1575 975 L 1525 1025 L 1500 1000 L 1475 975 Z" fill="rgb(248,152,240)" stroke="rgb(248,152,240)" /><path d="M 1300 900 L 1375 875 L 1400 900 L 1425 925 L 1425 975 L 1400 1000 L 1375 1025 L 1300 1000 Z" fill="rgb(248,152,240)" stroke="rgb(248,152,240)" /><path d="M 0 200 L 100 200 L 100 300 L 0 300 L 0 250 Z" fill="rgb(88,88,88)" stroke="rgb(88,88,88)" /><path d="M 300 1500 L 400 1500 L 400 1600 L 300 1600 Z" fill="rgb(88,88,88)" stroke="rgb(88,88,88)" /><path d="M 100 300 L 200 300 L 175 375 L 100 400 Z" fill="rgb(88,88,88)" stroke="rgb(88,88,88)" /><path d="M 400 800 L 500 800 L 500 900 L 400 900 Z" fill="rgb(248,152,240)" stroke="rgb(248,152,240)" /><path d="M 200 800 L 300 800 L 300 900 L 200 900 Z" fill="rgb(248,152,240)" stroke="rgb(248,152,240)" /><path d="M 500 1300 L 575 1325 L 625 1375 L 600 1400 L 575 1425 L 525 1375 Z" fill="rgb(80,80,80)" stroke="rgb(80,80,80)" /><path d="M 625 225 L 675 175 L 725 225 L 675 275 L 625 325 L 575 275 Z" fill="rgb(80,80,80)" stroke="rgb(80,80,80)" /><path d="M 675 1125 L 725 1075 L 775 1075 L 800 1100 L 825 1125 L 800 1200 L 700 1200 Z" fill="rgb(248,152,240)" stroke="rgb(248,152,240)" /><path d="M 2025 1725 L 2100 1700 L 2100 1800 L 2000 1800 Z" fill="rgb(88,88,88)" stroke="rgb(88,88,88)" /><path d="M 1800 100 L 1900 100 L 1925 175 L 1900 200 L 1875 225 L 1825 225 L 1800 200 L 1775 175 Z" fill="rgb(248,112,192)" stroke="rgb(248,112,192)" /><path d="M 1600 1700 L 1675 1725 L 1725 1775 L 1700 1800 L 1675 1825 L 1600 1800 Z" fill="rgb(88,88,88)" stroke="rgb(88,88,88)" /><path d="M 1200 300 L 1275 275 L 1300 300 L 1325 325 L 1275 375 L 1200 400 Z" fill="rgb(248,152,240)" stroke="rgb(248,152,240)" /><path d="M 1300 200 L 1400 200 L 1400 300 L 1325 325 L 1300 300 L 1275 275 Z" fill="rgb(248,152,240)" stroke="rgb(248,152,240)" /><path d="M 100 400 L 175 375 L 200 400 L 225 425 L 175 475 L 125 525 L 100 500 L 75 475 Z" fill="rgb(88,88,88)" stroke="rgb(88,88,88)" /><path d="M 200 300 L 300 300 L 300 400 L 225 425 L 200 400 L 175 375 Z" fill="rgb(88,88,88)" stroke="rgb(88,88,88)" /><path d="M 600 500 L 675 475 L 700 500 L 725 525 L 725 575 L 700 600 L 675 625 L 625 625 L 575 575 Z" fill="rgb(248,152,240)" stroke="rgb(248,152,240)" /><path d="M 700 0 L 750 0 L 800 0 L 800 100 L 725 125 L 700 100 L 675 75 Z" fill="rgb(88,88,88)" stroke="rgb(88,88,88)" /><path d="M 475 1625 L 500 1600 L 525 1575 L 575 1625 L 600 1700 L 500 1700 Z" fill="rgb(88,88,88)" stroke="rgb(88,88,88)" /><path d="M 1600 800 L 1675 775 L 1700 800 L 1725 825 L 1700 900 L 1600 900 Z" fill="rgb(248,152,240)" stroke="rgb(248,152,240)" /><path d="M 1875 525 L 1900 500 L 1925 475 L 1975 475 L 2000 500 L 2025 525 L 2000 600 L 1900 600 Z" fill="rgb(248,112,192)" stroke="rgb(248,112,192)" /><path d="M 2000 600 L 2100 600 L 2075 675 L 2025 725 L 1975 675 Z" fill="rgb(224,32,88)" stroke="rgb(224,32,88)" /><path d="M 1800 1800 L 1875 1775 L 1900 1800 L 1925 1825 L 1900 1900 L 1800 1900 Z" fill="rgb(88,88,88)" stroke="rgb(88,88,88)" /><path d="M 2125 725 L 2200 700 L 2200 750 L 2200 800 L 2125 825 L 2100 800 L 2075 775 Z" fill="rgb(88,88,88)" stroke="rgb(88,88,88)" /><path d="M 825 425 L 900 400 L 900 500 L 800 500 Z" fill="rgb(248,152,240)" stroke="rgb(248,152,240)" /><path d="M 925 125 L 1000 100 L 1000 200 L 900 200 Z" fill="rgb(224,32,88)" stroke="rgb(224,32,88)" /><path d="M 1025 625 L 1100 600 L 1075 675 L 1025 725 L 975 675 Z" fill="rgb(248,112,192)" stroke="rgb(248,112,192)" /><path d="M 0 1600 L 100 1600 L 100 1700 L 0 1700 L 0 1650 Z" fill="rgb(88,88,88)" stroke="rgb(88,88,88)" /><path d="M 1400 0 L 1450 0 L 1500 0 L 1500 100 L 1425 75 Z" fill="rgb(88,88,88)" stroke="rgb(88,88,88)" /><path d="M 1200 1600 L 1300 1600 L 1275 1675 L 1225 1675 Z" fill="rgb(80,80,80)" stroke="rgb(80,80,80)" /><path d="M 1500 500 L 1600 500 L 1575 575 L 1550 575 L 1525 575 Z" fill="rgb(80,80,80)" stroke="rgb(80,80,80)" /><path d="M 300 300 L 400 300 L 400 400 L 300 400 Z" fill="rgb(88,88,88)" stroke="rgb(88,88,88)" /><path d="M 400 400 L 475 375 L 525 425 L 500 500 L 400 500 Z" fill="rgb(80,80,80)" stroke="rgb(80,80,80)" /><path d="M 1625 1525 L 1700 1500 L 1700 1600 L 1600 1600 Z" fill="rgb(80,80,80)" stroke="rgb(80,80,80)" /><path d="M 1925 1025 L 2000 1000 L 1975 1075 L 1925 1125 L 1875 1075 Z" fill="rgb(248,72,136)" stroke="rgb(248,72,136)" /><path d="M 1700 1400 L 1775 1375 L 1800 1400 L 1825 1425 L 1800 1500 L 1700 1500 Z" fill="rgb(248,72,136)" stroke="rgb(248,72,136)" /><path d="M 2000 1300 L 2100 1300 L 2075 1375 L 2025 1425 L 2000 1400 L 1975 1375 Z" fill="rgb(224,32,88)" stroke="rgb(224,32,88)" /><path d="M 1825 1325 L 1900 1300 L 1875 1375 L 1825 1425 L 1800 1400 L 1775 1375 Z" fill="rgb(248,72,136)" stroke="rgb(248,72,136)" /><path d="M 2100 0 L 2150 0 L 2200 0 L 2200 50 L 2200 100 L 2125 75 Z" fill="rgb(88,88,88)" stroke="rgb(88,88,88)" /><path d="M 825 1125 L 900 1100 L 900 1200 L 800 1200 Z" fill="rgb(248,152,240)" stroke="rgb(248,152,240)" /><path d="M 900 1000 L 1000 1000 L 1000 1100 L 900 1100 Z" fill="rgb(248,152,240)" stroke="rgb(248,152,240)" /><path d="M 1000 100 L 1100 100 L 1100 200 L 1000 200 Z" fill="rgb(248,72,136)" stroke="rgb(248,72,136)" /><path d="M 800 1700 L 875 1725 L 900 1800 L 825 1775 Z" fill="rgb(224,32,88)" stroke="rgb(224,32,88)" /><path d="M 1100 1200 L 1200 1200 L 1200 1300 L 1100 1300 Z" fill="rgb(248,152,240)" stroke="rgb(248,152,240)" /><path d="M 1400 1100 L 1500 1100 L 1500 1200 L 1400 1200 Z" fill="rgb(248,152,240)" stroke="rgb(248,152,240)" /><path d="M 1200 1500 L 1300 1500 L 1300 1600 L 1200 1600 Z" fill="rgb(248,72,136)" stroke="rgb(248,72,136)" /><path d="M 1500 200 L 1600 200 L 1600 300 L 1500 300 Z" fill="rgb(248,72,136)" stroke="rgb(248,72,136)" /><path d="M 1300 1400 L 1400 1400 L 1400 1500 L 1300 1500 Z" fill="rgb(248,152,240)" stroke="rgb(248,152,240)" /><path d="M 0 1300 L 100 1300 L 100 1400 L 0 1400 L 0 1350 Z" fill="rgb(88,88,88)" stroke="rgb(88,88,88)" /><path d="M 300 800 L 400 800 L 400 900 L 300 900 Z" fill="rgb(248,152,240)" stroke="rgb(248,152,240)" /><path d="M 100 800 L 200 800 L 200 900 L 100 900 Z" fill="rgb(248,72,136)" stroke="rgb(248,72,136)" /><path d="M 400 300 L 475 275 L 500 300 L 525 325 L 475 375 L 400 400 Z" fill="rgb(88,88,88)" stroke="rgb(88,88,88)" /><path d="M 200 1500 L 300 1500 L 300 1600 L 200 1600 Z" fill="rgb(88,88,88)" stroke="rgb(88,88,88)" /><path d="M 500 200 L 575 175 L 600 200 L 625 225 L 575 275 L 525 325 L 500 300 L 475 275 Z" fill="rgb(88,88,88)" stroke="rgb(88,88,88)" /><path d="M 1625 625 L 1675 625 L 1700 700 L 1600 700 Z" fill="rgb(248,152,240)" stroke="rgb(248,152,240)" /><path d="M 600 900 L 700 900 L 675 975 L 600 1000 Z" fill="rgb(248,152,240)" stroke="rgb(248,152,240)" /><path d="M 1900 1900 L 2000 1900 L 2000 2000 L 1950 2000 L 1900 2000 Z" fill="rgb(88,88,88)" stroke="rgb(88,88,88)" /><path d="M 1700 700 L 1800 700 L 1800 800 L 1725 825 L 1700 800 L 1675 775 Z" fill="rgb(248,152,240)" stroke="rgb(248,152,240)" /><path d="M 700 1200 L 800 1200 L 825 1275 L 800 1300 L 775 1325 L 725 1275 Z" fill="rgb(248,152,240)" stroke="rgb(248,152,240)" /><path d="M 1800 400 L 1900 400 L 1925 475 L 1900 500 L 1875 525 L 1825 525 L 1775 475 Z" fill="rgb(248,112,192)" stroke="rgb(248,112,192)" /><path d="M 2075 925 L 2100 900 L 2125 875 L 2200 900 L 2200 950 L 2200 1000 L 2125 975 Z" fill="rgb(88,88,88)" stroke="rgb(88,88,88)" /><path d="M 975 825 L 1025 775 L 1075 775 L 1125 825 L 1075 875 L 1050 875 L 1025 875 Z" fill="rgb(248,112,192)" stroke="rgb(248,112,192)" /><path d="M 1075 525 L 1100 500 L 1125 475 L 1200 500 L 1225 575 L 1200 600 L 1175 625 L 1100 600 Z" fill="rgb(248,152,240)" stroke="rgb(248,152,240)" /><path d="M 1400 1800 L 1500 1800 L 1500 1900 L 1400 1900 Z" fill="rgb(88,88,88)" stroke="rgb(88,88,88)" /><path d="M 1175 625 L 1200 600 L 1225 575 L 1300 600 L 1325 675 L 1300 700 L 1275 725 L 1200 700 Z" fill="rgb(248,152,240)" stroke="rgb(248,152,240)" /><path d="M 1000 1800 L 1075 1775 L 1100 1800 L 1125 1825 L 1075 1875 L 1000 1900 Z" fill="rgb(224,32,88)" stroke="rgb(224,32,88)" /><path d="M 1500 1100 L 1600 1100 L 1600 1200 L 1500 1200 Z" fill="rgb(248,152,240)" stroke="rgb(248,152,240)" /><path d="M 1275 725 L 1300 700 L 1325 675 L 1375 675 L 1400 700 L 1425 725 L 1400 800 L 1300 800 Z" fill="rgb(248,152,240)" stroke="rgb(248,152,240)" /><path d="M 0 400 L 100 400 L 75 475 L 0 500 L 0 450 Z" fill="rgb(88,88,88)" stroke="rgb(88,88,88)" /><path d="M 100 100 L 200 100 L 200 200 L 100 200 Z" fill="rgb(88,88,88)" stroke="rgb(88,88,88)" /><path d="M 375 1025 L 400 1000 L 425 975 L 500 1000 L 500 1100 L 425 1075 Z" fill="rgb(248,152,240)" stroke="rgb(248,152,240)" /><path d="M 225 625 L 300 600 L 275 675 L 200 700 Z" fill="rgb(248,112,192)" stroke="rgb(248,112,192)" /><path d="M 500 1100 L 600 1100 L 625 1175 L 575 1225 L 500 1200 Z" fill="rgb(248,112,192)" stroke="rgb(248,112,192)" /><path d="M 600 0 L 650 0 L 700 0 L 675 75 L 600 100 Z" fill="rgb(88,88,88)" stroke="rgb(88,88,88)" /><path d="M 400 1600 L 475 1625 L 500 1700 L 400 1700 Z" fill="rgb(88,88,88)" stroke="rgb(88,88,88)" /><path d="M 725 525 L 800 500 L 800 600 L 725 575 Z" fill="rgb(248,152,240)" stroke="rgb(248,152,240)" /><path d="M 2000 1900 L 2100 1900 L 2100 2000 L 2050 2000 L 2000 2000 Z" fill="rgb(88,88,88)" stroke="rgb(88,88,88)" /><path d="M 1600 1900 L 1700 1900 L 1700 2000 L 1650 2000 L 1600 2000 Z" fill="rgb(88,88,88)" stroke="rgb(88,88,88)" /><path d="M 2100 1800 L 2200 1800 L 2200 1850 L 2200 1900 L 2100 1900 Z" fill="rgb(88,88,88)" stroke="rgb(88,88,88)" /><path d="M 1675 1825 L 1700 1800 L 1725 1775 L 1800 1800 L 1800 1900 L 1700 1900 Z" fill="rgb(88,88,88)" stroke="rgb(88,88,88)" /><path d="M 1525 1625 L 1600 1600 L 1600 1700 L 1500 1700 Z" fill="rgb(80,80,80)" stroke="rgb(80,80,80)" /><path d="M 1300 0 L 1350 0 L 1400 0 L 1425 75 L 1375 125 L 1300 100 Z" fill="rgb(80,80,80)" stroke="rgb(80,80,80)" /><path d="M 1100 1600 L 1200 1600 L 1225 1675 L 1200 1700 L 1175 1725 L 1100 1700 Z" fill="rgb(80,80,80)" stroke="rgb(80,80,80)" /><path d="M 200 100 L 300 100 L 300 200 L 200 200 Z" fill="rgb(88,88,88)" stroke="rgb(88,88,88)" /><path d="M 725 225 L 800 200 L 800 300 L 725 325 L 675 275 Z" fill="rgb(224,32,88)" stroke="rgb(224,32,88)" /><path d="M 1625 1025 L 1700 1000 L 1700 1100 L 1600 1100 Z" fill="rgb(248,112,192)" stroke="rgb(248,112,192)" /><path d="M 1900 700 L 1975 675 L 2025 725 L 1975 775 L 1925 825 L 1875 775 Z" fill="rgb(224,32,88)" stroke="rgb(224,32,88)" /><path d="M 1700 1100 L 1775 1075 L 1825 1125 L 1800 1200 L 1700 1200 Z" fill="rgb(80,80,80)" stroke="rgb(80,80,80)" /><path d="M 2000 0 L 2050 0 L 2100 0 L 2125 75 L 2100 100 L 2075 125 L 2025 75 Z" fill="rgb(88,88,88)" stroke="rgb(88,88,88)" /><path d="M 1825 1625 L 1875 1575 L 1900 1600 L 1925 1625 L 1875 1675 L 1800 1700 Z" fill="rgb(224,32,88)" stroke="rgb(224,32,88)" /><path d="M 2100 500 L 2200 500 L 2200 550 L 2200 600 L 2100 600 Z" fill="rgb(80,80,80)" stroke="rgb(80,80,80)" /><path d="M 800 600 L 900 600 L 875 675 L 800 700 Z" fill="rgb(248,152,240)" stroke="rgb(248,152,240)" /><path d="M 925 725 L 975 675 L 1025 725 L 1025 775 L 975 825 L 925 775 L 925 750 Z" fill="rgb(248,112,192)" stroke="rgb(248,112,192)" /><path d="M 1000 400 L 1075 375 L 1100 400 L 1125 425 L 1125 475 L 1100 500 L 1075 525 L 1000 500 Z" fill="rgb(248,152,240)" stroke="rgb(248,152,240)" /><path d="M 1125 925 L 1200 900 L 1200 1000 L 1100 1000 Z" fill="rgb(248,152,240)" stroke="rgb(248,152,240)" /><path d="M 0 1800 L 100 1800 L 100 1900 L 0 1900 L 0 1850 Z" fill="rgb(88,88,88)" stroke="rgb(88,88,88)" /><path d="M 1400 600 L 1475 625 L 1500 700 L 1425 725 L 1400 700 L 1375 675 Z" fill="rgb(248,152,240)" stroke="rgb(248,152,240)" /><path d="M 1225 1825 L 1275 1775 L 1300 1800 L 1325 1825 L 1300 1900 L 1225 1925 L 1200 1900 L 1175 1875 Z" fill="rgb(88,88,88)" stroke="rgb(88,88,88)" /><path d="M 100 1900 L 200 1900 L 200 2000 L 150 2000 L 100 2000 Z" fill="rgb(88,88,88)" stroke="rgb(88,88,88)" /><path d="M 1500 700 L 1600 700 L 1600 800 L 1500 800 Z" fill="rgb(248,152,240)" stroke="rgb(248,152,240)" /><path d="M 1300 1900 L 1400 1900 L 1400 2000 L 1350 2000 L 1300 2000 Z" fill="rgb(88,88,88)" stroke="rgb(88,88,88)" /><path d="M 0 800 L 100 800 L 100 900 L 0 900 L 0 850 Z" fill="rgb(80,80,80)" stroke="rgb(80,80,80)" /><path d="M 300 500 L 400 500 L 400 600 L 300 600 Z" fill="rgb(248,72,136)" stroke="rgb(248,72,136)" /><path d="M 400 600 L 500 600 L 500 700 L 400 700 Z" fill="rgb(248,152,240)" stroke="rgb(248,152,240)" /><path d="M 500 700 L 575 725 L 600 800 L 500 800 Z" fill="rgb(248,152,240)" stroke="rgb(248,152,240)" /><path d="M 1625 125 L 1700 100 L 1700 200 L 1600 200 Z" fill="rgb(224,32,88)" stroke="rgb(224,32,88)" /><path d="M 1900 1200 L 2000 1200 L 2000 1300 L 1900 1300 Z" fill="rgb(224,32,88)" stroke="rgb(224,32,88)" /><path d="M 1700 1200 L 1800 1200 L 1775 1275 L 1725 1325 L 1675 1275 Z" fill="rgb(80,80,80)" stroke="rgb(80,80,80)" /><path d="M 700 1700 L 800 1700 L 825 1775 L 800 1800 L 775 1825 L 725 1775 Z" fill="rgb(224,32,88)" stroke="rgb(224,32,88)" /><path d="M 2000 1500 L 2100 1500 L 2075 1575 L 2025 1625 L 1975 1575 Z" fill="rgb(80,80,80)" stroke="rgb(80,80,80)" /><path d="M 1825 1125 L 1875 1075 L 1925 1125 L 1900 1200 L 1800 1200 Z" fill="rgb(248,72,136)" stroke="rgb(248,72,136)" /><path d="M 2125 1425 L 2200 1400 L 2200 1450 L 2200 1500 L 2100 1500 Z" fill="rgb(88,88,88)" stroke="rgb(88,88,88)" /><path d="M 775 1325 L 800 1300 L 825 1275 L 900 1300 L 925 1375 L 900 1400 L 875 1425 L 825 1375 Z" fill="rgb(248,152,240)" stroke="rgb(248,152,240)" /><path d="M 875 825 L 900 800 L 925 775 L 975 825 L 1025 875 L 1000 900 L 975 925 L 900 900 Z" fill="rgb(248,152,240)" stroke="rgb(248,152,240)" /><path d="M 1000 1500 L 1100 1500 L 1100 1600 L 1000 1600 Z" fill="rgb(224,32,88)" stroke="rgb(224,32,88)" /><path d="M 775 1925 L 825 1875 L 900 1900 L 900 2000 L 850 2000 L 800 2000 Z" fill="rgb(80,80,80)" stroke="rgb(80,80,80)" /><path d="M 1100 1400 L 1200 1400 L 1200 1500 L 1100 1500 Z" fill="rgb(248,152,240)" stroke="rgb(248,152,240)" /><path d="M 900 1800 L 1000 1800 L 1000 1900 L 900 1900 Z" fill="rgb(224,32,88)" stroke="rgb(224,32,88)" /><path d="M 1425 925 L 1450 925 L 1475 925 L 1475 950 L 1475 975 L 1450 975 L 1425 975 L 1425 950 Z" fill="rgb(80,80,80)" stroke="rgb(80,80,80)" /><path d="M 1200 900 L 1300 900 L 1300 1000 L 1200 1000 Z" fill="rgb(248,152,240)" stroke="rgb(248,152,240)" /><path d="M 1500 1200 L 1600 1200 L 1600 1300 L 1525 1325 L 1500 1300 L 1475 1275 Z" fill="rgb(248,152,240)" stroke="rgb(248,152,240)" /><path d="M 1300 1200 L 1400 1200 L 1400 1300 L 1300 1300 Z" fill="rgb(248,152,240)" stroke="rgb(248,152,240)" /><path d="M 200 1900 L 300 1900 L 300 2000 L 250 2000 L 200 2000 Z" fill="rgb(88,88,88)" stroke="rgb(88,88,88)" /><path d="M 0 1500 L 100 1500 L 100 1600 L 0 1600 L 0 1550 Z" fill="rgb(88,88,88)" stroke="rgb(88,88,88)" /><path d="M 300 1000 L 375 1025 L 425 1075 L 375 1125 L 300 1100 Z" fill="rgb(248,112,192)" stroke="rgb(248,112,192)" /><path d="M 100 1400 L 200 1400 L 200 1500 L 100 1500 Z" fill="rgb(88,88,88)" stroke="rgb(88,88,88)" /><path d="M 375 1325 L 425 1275 L 500 1300 L 525 1375 L 500 1400 L 475 1425 L 425 1375 Z" fill="rgb(80,80,80)" stroke="rgb(80,80,80)" /><path d="M 175 1325 L 200 1300 L 225 1275 L 300 1300 L 300 1400 L 200 1400 Z" fill="rgb(88,88,88)" stroke="rgb(88,88,88)" /><path d="M 500 0 L 550 0 L 600 0 L 600 100 L 500 100 Z" fill="rgb(88,88,88)" stroke="rgb(88,88,88)" /><path d="M 300 1600 L 400 1600 L 400 1700 L 300 1700 Z" fill="rgb(88,88,88)" stroke="rgb(88,88,88)" /><path d="M 600 1500 L 675 1525 L 675 1575 L 625 1575 Z" fill="rgb(80,80,80)" stroke="rgb(80,80,80)" /><path d="M 1700 500 L 1775 475 L 1825 525 L 1800 600 L 1725 575 Z" fill="rgb(248,112,192)" stroke="rgb(248,112,192)" /><path d="M 675 1425 L 725 1375 L 775 1425 L 800 1500 L 725 1475 Z" fill="rgb(224,32,88)" stroke="rgb(224,32,88)" /><path d="M 1825 225 L 1875 225 L 1900 300 L 1825 275 Z" fill="rgb(248,112,192)" stroke="rgb(248,112,192)" /><path d="M 1125 725 L 1200 700 L 1175 775 L 1125 825 L 1075 775 Z" fill="rgb(248,112,192)" stroke="rgb(248,112,192)" /><path d="M 1400 1600 L 1475 1575 L 1500 1600 L 1525 1625 L 1500 1700 L 1400 1700 Z" fill="rgb(80,80,80)" stroke="rgb(80,80,80)" /><path d="M 1200 0 L 1250 0 L 1300 0 L 1300 100 L 1200 100 Z" fill="rgb(80,80,80)" stroke="rgb(80,80,80)" /><path d="M 1000 1600 L 1100 1600 L 1100 1700 L 1000 1700 Z" fill="rgb(80,80,80)" stroke="rgb(80,80,80)" /><path d="M 1275 525 L 1325 475 L 1375 525 L 1400 600 L 1300 600 Z" fill="rgb(80,80,80)" stroke="rgb(80,80,80)" /><path d="M 0 600 L 75 575 L 125 625 L 100 700 L 0 700 L 0 650 Z" fill="rgb(80,80,80)" stroke="rgb(80,80,80)" /><path d="M 100 700 L 200 700 L 200 800 L 100 800 Z" fill="rgb(248,72,136)" stroke="rgb(248,72,136)" /><path d="M 225 425 L 300 400 L 300 500 L 225 525 L 175 475 Z" fill="rgb(80,80,80)" stroke="rgb(80,80,80)" /><path d="M 500 900 L 600 900 L 600 1000 L 500 1000 Z" fill="rgb(248,152,240)" stroke="rgb(248,152,240)" /><path d="M 625 625 L 650 625 L 675 625 L 675 650 L 675 675 L 650 675 L 625 675 L 625 650 Z" fill="rgb(248,112,192)" stroke="rgb(248,112,192)" /><path d="M 400 1800 L 500 1800 L 500 1900 L 400 1900 Z" fill="rgb(88,88,88)" stroke="rgb(88,88,88)" /><path d="M 725 725 L 800 700 L 800 800 L 700 800 Z" fill="rgb(248,152,240)" stroke="rgb(248,152,240)" /><path d="M 500 1900 L 600 1900 L 600 2000 L 550 2000 L 500 2000 Z" fill="rgb(88,88,88)" stroke="rgb(88,88,88)" /><path d="M 2125 1625 L 2200 1600 L 2200 1650 L 2200 1700 L 2100 1700 Z" fill="rgb(88,88,88)" stroke="rgb(88,88,88)" /><path d="M 1900 0 L 1950 0 L 2000 0 L 2025 75 L 1975 125 L 1900 100 Z" fill="rgb(80,80,80)" stroke="rgb(80,80,80)" /><path d="M 1700 1600 L 1775 1575 L 1800 1600 L 1825 1625 L 1800 1700 L 1725 1675 Z" fill="rgb(224,32,88)" stroke="rgb(224,32,88)" /><path d="M 800 100 L 875 75 L 925 125 L 900 200 L 800 200 Z" fill="rgb(80,80,80)" stroke="rgb(80,80,80)" /><path d="M 1500 1800 L 1600 1800 L 1600 1900 L 1500 1900 Z" fill="rgb(88,88,88)" stroke="rgb(88,88,88)" /><path d="M 1125 1825 L 1175 1775 L 1225 1825 L 1175 1875 L 1125 1925 L 1075 1875 Z" fill="rgb(80,80,80)" stroke="rgb(80,80,80)" /><path d="M 1600 1200 L 1700 1200 L 1675 1275 L 1600 1300 Z" fill="rgb(224,32,88)" stroke="rgb(224,32,88)" /><path d="M 600 1900 L 675 1925 L 700 2000 L 650 2000 L 600 2000 Z" fill="rgb(88,88,88)" stroke="rgb(88,88,88)" /><path d="M 1900 900 L 1975 925 L 2000 1000 L 1925 1025 L 1875 975 Z" fill="rgb(80,80,80)" stroke="rgb(80,80,80)" /><path d="M 1700 900 L 1800 900 L 1775 975 L 1700 1000 Z" fill="rgb(248,72,136)" stroke="rgb(248,72,136)" /><path d="M 1975 225 L 2025 175 L 2075 225 L 2100 300 L 2000 300 Z" fill="rgb(224,32,88)" stroke="rgb(224,32,88)" /><path d="M 1825 1425 L 1875 1375 L 1900 1400 L 1925 1425 L 1900 1500 L 1800 1500 Z" fill="rgb(224,32,88)" stroke="rgb(224,32,88)" /><path d="M 2100 300 L 2200 300 L 2200 350 L 2200 400 L 2100 400 Z" fill="rgb(80,80,80)" stroke="rgb(80,80,80)" /><path d="M 800 800 L 875 825 L 900 900 L 800 900 Z" fill="rgb(248,152,240)" stroke="rgb(248,152,240)" /><path d="M 900 500 L 1000 500 L 975 575 L 900 600 Z" fill="rgb(248,152,240)" stroke="rgb(248,152,240)" /><path d="M 1000 200 L 1100 200 L 1100 300 L 1025 325 L 1000 300 L 975 275 Z" fill="rgb(248,152,240)" stroke="rgb(248,152,240)" /><path d="M 1100 1100 L 1200 1100 L 1200 1200 L 1100 1200 Z" fill="rgb(248,152,240)" stroke="rgb(248,152,240)" /><path d="M 1400 400 L 1475 425 L 1500 500 L 1425 475 Z" fill="rgb(248,152,240)" stroke="rgb(248,152,240)" /><path d="M 1200 1200 L 1300 1200 L 1300 1300 L 1200 1300 Z" fill="rgb(248,152,240)" stroke="rgb(248,152,240)" /><path d="M 100 1700 L 200 1700 L 200 1800 L 100 1800 Z" fill="rgb(88,88,88)" stroke="rgb(88,88,88)" /><path d="M 1500 100 L 1575 75 L 1625 125 L 1600 200 L 1500 200 Z" fill="rgb(80,80,80)" stroke="rgb(80,80,80)" /><path d="M 1325 1725 L 1400 1700 L 1400 1800 L 1325 1825 L 1300 1800 L 1275 1775 Z" fill="rgb(88,88,88)" stroke="rgb(88,88,88)" /><path d="M 0 1000 L 100 1000 L 125 1075 L 75 1125 L 0 1100 L 0 1050 Z" fill="rgb(80,80,80)" stroke="rgb(80,80,80)" /><path d="M 325 725 L 400 700 L 400 800 L 300 800 Z" fill="rgb(248,152,240)" stroke="rgb(248,152,240)" /><path d="M 75 1125 L 125 1075 L 175 1125 L 225 1175 L 175 1225 L 125 1175 Z" fill="rgb(80,80,80)" stroke="rgb(80,80,80)" /><path d="M 400 0 L 450 0 L 500 0 L 500 100 L 400 100 Z" fill="rgb(88,88,88)" stroke="rgb(88,88,88)" /><path d="M 500 500 L 600 500 L 575 575 L 500 600 Z" fill="rgb(248,72,136)" stroke="rgb(248,72,136)" /><path d="M 1600 300 L 1700 300 L 1725 375 L 1675 425 L 1600 400 Z" fill="rgb(224,32,88)" stroke="rgb(224,32,88)" /><path d="M 600 1000 L 675 975 L 700 1000 L 725 1025 L 725 1075 L 675 1125 L 600 1100 Z" fill="rgb(248,152,240)" stroke="rgb(248,152,240)" /><path d="M 1925 1425 L 1975 1375 L 2000 1400 L 2025 1425 L 2000 1500 L 1900 1500 Z" fill="rgb(224,32,88)" stroke="rgb(224,32,88)" /><path d="M 1700 200 L 1775 175 L 1800 200 L 1825 225 L 1825 275 L 1800 300 L 1775 325 L 1700 300 Z" fill="rgb(248,112,192)" stroke="rgb(248,112,192)" /><path d="M 675 1925 L 700 1900 L 725 1875 L 775 1925 L 800 2000 L 750 2000 L 700 2000 Z" fill="rgb(88,88,88)" stroke="rgb(88,88,88)" /><path d="M 1975 925 L 2000 900 L 2025 875 L 2075 925 L 2125 975 L 2075 1025 L 2000 1000 Z" fill="rgb(80,80,80)" stroke="rgb(80,80,80)" /><path d="M 1800 900 L 1900 900 L 1875 975 L 1825 1025 L 1775 975 Z" fill="rgb(224,32,88)" stroke="rgb(224,32,88)" /><path d="M 2100 1200 L 2200 1200 L 2200 1250 L 2200 1300 L 2100 1300 Z" fill="rgb(80,80,80)" stroke="rgb(80,80,80)" /><path d="M 800 1500 L 900 1500 L 925 1575 L 875 1625 L 800 1600 Z" fill="rgb(80,80,80)" stroke="rgb(80,80,80)" /><path d="M 875 1425 L 900 1400 L 925 1375 L 1000 1400 L 1000 1500 L 900 1500 Z" fill="rgb(248,152,240)" stroke="rgb(248,152,240)" /><path d="M 1000 1300 L 1100 1300 L 1100 1400 L 1000 1400 Z" fill="rgb(248,152,240)" stroke="rgb(248,152,240)" /><path d="M 1100 0 L 1150 0 L 1200 0 L 1200 100 L 1100 100 Z" fill="rgb(80,80,80)" stroke="rgb(80,80,80)" /><path d="M 875 1625 L 925 1575 L 1000 1600 L 1000 1700 L 925 1675 Z" fill="rgb(80,80,80)" stroke="rgb(80,80,80)" /><path d="M 1400 1500 L 1500 1500 L 1475 1575 L 1400 1600 Z" fill="rgb(224,32,88)" stroke="rgb(224,32,88)" /><path d="M 1200 1100 L 1300 1100 L 1300 1200 L 1200 1200 Z" fill="rgb(248,152,240)" stroke="rgb(248,152,240)" /><path d="M 1500 1400 L 1600 1400 L 1575 1475 L 1500 1500 Z" fill="rgb(248,72,136)" stroke="rgb(248,72,136)" /><path d="M 1300 1000 L 1375 1025 L 1400 1100 L 1300 1100 Z" fill="rgb(248,152,240)" stroke="rgb(248,152,240)" /><path d="M 200 1700 L 300 1700 L 300 1800 L 200 1800 Z" fill="rgb(88,88,88)" stroke="rgb(88,88,88)" /><path d="M 0 100 L 100 100 L 100 200 L 0 200 L 0 150 Z" fill="rgb(88,88,88)" stroke="rgb(88,88,88)" /><path d="M 300 1200 L 375 1225 L 425 1275 L 375 1325 L 300 1300 Z" fill="rgb(80,80,80)" stroke="rgb(80,80,80)" /><path d="M 75 1225 L 100 1200 L 125 1175 L 175 1225 L 225 1275 L 200 1300 L 175 1325 L 100 1300 Z" fill="rgb(88,88,88)" stroke="rgb(88,88,88)" /><path d="M 400 1500 L 500 1500 L 525 1575 L 500 1600 L 475 1625 L 400 1600 Z" fill="rgb(88,88,88)" stroke="rgb(88,88,88)" /><path d="M 175 1125 L 225 1075 L 300 1100 L 300 1200 L 225 1175 Z" fill="rgb(224,32,88)" stroke="rgb(224,32,88)" /><path d="M 475 1425 L 500 1400 L 525 1375 L 575 1425 L 600 1500 L 500 1500 Z" fill="rgb(80,80,80)" stroke="rgb(80,80,80)" /><path d="M 300 1800 L 400 1800 L 400 1900 L 300 1900 Z" fill="rgb(88,88,88)" stroke="rgb(88,88,88)" /><path d="M 575 1325 L 625 1275 L 675 1325 L 725 1375 L 675 1425 L 625 1375 Z" fill="rgb(224,32,88)" stroke="rgb(224,32,88)" /><path d="M 700 800 L 800 800 L 800 900 L 700 900 Z" fill="rgb(248,152,240)" stroke="rgb(248,152,240)" /><path d="M 2025 1625 L 2075 1575 L 2100 1600 L 2125 1625 L 2100 1700 L 2025 1725 L 2000 1700 L 1975 1675 Z" fill="rgb(88,88,88)" stroke="rgb(88,88,88)" /><path d="M 1800 0 L 1850 0 L 1900 0 L 1900 100 L 1800 100 Z" fill="rgb(80,80,80)" stroke="rgb(80,80,80)" /><path d="M 1600 1600 L 1700 1600 L 1725 1675 L 1675 1725 L 1600 1700 Z" fill="rgb(80,80,80)" stroke="rgb(80,80,80)" /><path d="M 1200 200 L 1300 200 L 1275 275 L 1200 300 Z" fill="rgb(248,152,240)" stroke="rgb(248,152,240)" /><path d="M 1325 325 L 1400 300 L 1400 400 L 1325 425 L 1275 375 Z" fill="rgb(80,80,80)" stroke="rgb(80,80,80)" /><path d="M 125 525 L 175 475 L 225 525 L 175 575 L 125 625 L 75 575 Z" fill="rgb(80,80,80)" stroke="rgb(80,80,80)" /><path d="M 200 200 L 300 200 L 300 300 L 200 300 Z" fill="rgb(88,88,88)" stroke="rgb(88,88,88)" /><path d="M 625 425 L 675 375 L 725 425 L 675 475 L 600 500 Z" fill="rgb(248,112,192)" stroke="rgb(248,112,192)" /><path d="M 725 125 L 800 100 L 800 200 L 725 225 L 675 175 Z" fill="rgb(80,80,80)" stroke="rgb(80,80,80)" /><path d="M 500 1700 L 600 1700 L 625 1775 L 600 1800 L 575 1825 L 500 1800 Z" fill="rgb(88,88,88)" stroke="rgb(88,88,88)" /><path d="M 1875 225 L 1900 200 L 1925 175 L 1975 225 L 2000 300 L 1900 300 Z" fill="rgb(248,112,192)" stroke="rgb(248,112,192)" /><path d="M 2025 525 L 2100 500 L 2100 600 L 2000 600 Z" fill="rgb(248,72,136)" stroke="rgb(248,72,136)" /><path d="M 800 300 L 900 300 L 900 400 L 825 425 L 800 400 L 775 375 Z" fill="rgb(248,152,240)" stroke="rgb(248,152,240)" /><path d="M 900 200 L 1000 200 L 975 275 L 900 300 Z" fill="rgb(248,112,192)" stroke="rgb(248,112,192)" /><path d="M 1400 300 L 1500 300 L 1525 375 L 1475 425 L 1400 400 Z" fill="rgb(80,80,80)" stroke="rgb(80,80,80)" /><path d="M 300 0 L 350 0 L 400 0 L 400 100 L 300 100 Z" fill="rgb(88,88,88)" stroke="rgb(88,88,88)" /><path d="M 1600 1400 L 1700 1400 L 1700 1500 L 1625 1525 L 1600 1500 L 1575 1475 Z" fill="rgb(80,80,80)" stroke="rgb(80,80,80)" /><path d="M 600 1700 L 700 1700 L 725 1775 L 675 1825 L 625 1775 Z" fill="rgb(80,80,80)" stroke="rgb(80,80,80)" /><path d="M 1925 1125 L 1975 1075 L 2000 1100 L 2025 1125 L 2000 1200 L 1900 1200 Z" fill="rgb(224,32,88)" stroke="rgb(224,32,88)" /><path d="M 1700 1500 L 1800 1500 L 1775 1575 L 1700 1600 Z" fill="rgb(248,72,136)" stroke="rgb(248,72,136)" /><path d="M 2000 1200 L 2100 1200 L 2100 1300 L 2000 1300 Z" fill="rgb(224,32,88)" stroke="rgb(224,32,88)" /><path d="M 1800 1200 L 1900 1200 L 1900 1300 L 1825 1325 L 1800 1300 L 1775 1275 Z" fill="rgb(248,72,136)" stroke="rgb(248,72,136)" /><path d="M 2075 125 L 2100 100 L 2125 75 L 2200 100 L 2200 150 L 2200 200 L 2125 175 Z" fill="rgb(88,88,88)" stroke="rgb(88,88,88)" /><path d="M 775 1025 L 800 1000 L 825 975 L 900 1000 L 900 1100 L 825 1125 L 800 1100 L 775 1075 Z" fill="rgb(248,152,240)" stroke="rgb(248,152,240)" /><path d="M 900 1100 L 1000 1100 L 1000 1200 L 900 1200 Z" fill="rgb(248,152,240)" stroke="rgb(248,152,240)" /><path d="M 1000 0 L 1050 0 L 1100 0 L 1100 100 L 1000 100 Z" fill="rgb(80,80,80)" stroke="rgb(80,80,80)" /><path d="M 800 1600 L 875 1625 L 925 1675 L 900 1700 L 875 1725 L 800 1700 Z" fill="rgb(224,32,88)" stroke="rgb(224,32,88)" /><path d="M 1100 1300 L 1200 1300 L 1200 1400 L 1100 1400 Z" fill="rgb(248,152,240)" stroke="rgb(248,152,240)" /><path d="M 1375 1025 L 1400 1000 L 1425 975 L 1475 975 L 1500 1000 L 1525 1025 L 1500 1100 L 1400 1100 Z" fill="rgb(248,152,240)" stroke="rgb(248,152,240)" /><path d="M 1200 1400 L 1300 1400 L 1300 1500 L 1200 1500 Z" fill="rgb(248,152,240)" stroke="rgb(248,152,240)" /><path d="M 1500 300 L 1600 300 L 1600 400 L 1525 375 Z" fill="rgb(248,72,136)" stroke="rgb(248,72,136)" /><path d="M 1300 1500 L 1400 1500 L 1400 1600 L 1300 1600 Z" fill="rgb(224,32,88)" stroke="rgb(224,32,88)" /><path d="M 0 1200 L 75 1225 L 100 1300 L 0 1300 L 0 1250 Z" fill="rgb(88,88,88)" stroke="rgb(88,88,88)" /><path d="M 300 900 L 400 900 L 425 975 L 400 1000 L 375 1025 L 300 1000 Z" fill="rgb(248,152,240)" stroke="rgb(248,152,240)" /><path d="M 100 900 L 200 900 L 200 1000 L 100 1000 Z" fill="rgb(248,72,136)" stroke="rgb(248,72,136)" /><path d="M 400 200 L 500 200 L 475 275 L 400 300 Z" fill="rgb(88,88,88)" stroke="rgb(88,88,88)" /><path d="M 200 1400 L 300 1400 L 300 1500 L 200 1500 Z" fill="rgb(88,88,88)" stroke="rgb(88,88,88)" /><path d="M 525 325 L 575 275 L 625 325 L 575 375 L 525 425 L 475 375 Z" fill="rgb(80,80,80)" stroke="rgb(80,80,80)" /><path d="M 1600 500 L 1700 500 L 1725 575 L 1700 600 L 1675 625 L 1625 625 L 1600 600 L 1575 575 Z" fill="rgb(248,152,240)" stroke="rgb(248,152,240)" /><path d="M 600 800 L 700 800 L 700 900 L 600 900 Z" fill="rgb(248,152,240)" stroke="rgb(248,152,240)" /><path d="M 1925 1625 L 1975 1575 L 2025 1625 L 1975 1675 L 1925 1725 L 1875 1675 Z" fill="rgb(80,80,80)" stroke="rgb(80,80,80)" /><path d="M 1700 0 L 1750 0 L 1800 0 L 1800 100 L 1700 100 Z" fill="rgb(80,80,80)" stroke="rgb(80,80,80)" /><path d="M 675 1325 L 725 1275 L 775 1325 L 825 1375 L 775 1425 L 725 1375 Z" fill="rgb(248,112,192)" stroke="rgb(248,112,192)" /><path d="M 2025 1125 L 2100 1100 L 2100 1200 L 2000 1200 Z" fill="rgb(224,32,88)" stroke="rgb(224,32,88)" /><path d="M 1800 700 L 1900 700 L 1875 775 L 1800 800 Z" fill="rgb(248,72,136)" stroke="rgb(248,72,136)" /><path d="M 2075 1025 L 2125 975 L 2200 1000 L 2200 1050 L 2200 1100 L 2100 1100 Z" fill="rgb(80,80,80)" stroke="rgb(80,80,80)" /><path d="M 900 1200 L 1000 1200 L 1000 1300 L 900 1300 Z" fill="rgb(248,152,240)" stroke="rgb(248,152,240)" /><path d="M 1000 1100 L 1100 1100 L 1100 1200 L 1000 1200 Z" fill="rgb(248,152,240)" stroke="rgb(248,152,240)" /><path d="M 1100 200 L 1200 200 L 1200 300 L 1100 300 Z" fill="rgb(248,152,240)" stroke="rgb(248,152,240)" /><path d="M 1400 1300 L 1475 1275 L 1500 1300 L 1525 1325 L 1500 1400 L 1400 1400 Z" fill="rgb(248,152,240)" stroke="rgb(248,152,240)" /><path d="M 1200 500 L 1275 525 L 1300 600 L 1225 575 Z" fill="rgb(248,152,240)" stroke="rgb(248,152,240)" /><path d="M 1500 800 L 1600 800 L 1600 900 L 1525 875 Z" fill="rgb(248,152,240)" stroke="rgb(248,152,240)" /><path d="M 1300 800 L 1400 800 L 1375 875 L 1300 900 Z" fill="rgb(248,152,240)" stroke="rgb(248,152,240)" /><path d="M 0 300 L 100 300 L 100 400 L 0 400 L 0 350 Z" fill="rgb(88,88,88)" stroke="rgb(88,88,88)" /><path d="M 300 1400 L 375 1425 L 400 1500 L 300 1500 Z" fill="rgb(88,88,88)" stroke="rgb(88,88,88)" /><path d="M 100 200 L 200 200 L 200 300 L 100 300 Z" fill="rgb(88,88,88)" stroke="rgb(88,88,88)" /><path d="M 400 900 L 500 900 L 500 1000 L 425 975 Z" fill="rgb(248,152,240)" stroke="rgb(248,152,240)" /><path d="M 200 900 L 300 900 L 300 1000 L 200 1000 Z" fill="rgb(248,152,240)" stroke="rgb(248,152,240)" /><path d="M 500 1200 L 575 1225 L 625 1275 L 575 1325 L 500 1300 Z" fill="rgb(224,32,88)" stroke="rgb(224,32,88)" /><path d="M 625 325 L 675 275 L 725 325 L 675 375 L 625 425 L 575 375 Z" fill="rgb(224,32,88)" stroke="rgb(224,32,88)" /><path d="M 725 1025 L 750 1025 L 775 1025 L 775 1050 L 775 1075 L 750 1075 L 725 1075 L 725 1050 Z" fill="rgb(248,112,192)" stroke="rgb(248,112,192)" /><path d="M 2000 1800 L 2100 1800 L 2100 1900 L 2000 1900 Z" fill="rgb(88,88,88)" stroke="rgb(88,88,88)" /><path d="M 1600 1800 L 1675 1825 L 1700 1900 L 1600 1900 Z" fill="rgb(88,88,88)" stroke="rgb(88,88,88)" /><path d="M 2100 1900 L 2200 1900 L 2200 1950 L 2200 2000 L 2150 2000 L 2100 2000 Z" fill="rgb(88,88,88)" stroke="rgb(88,88,88)" /><path d="M 1700 1900 L 1800 1900 L 1800 2000 L 1750 2000 L 1700 2000 Z" fill="rgb(88,88,88)" stroke="rgb(88,88,88)" /><path d="M 1500 1700 L 1600 1700 L 1600 1800 L 1500 1800 Z" fill="rgb(88,88,88)" stroke="rgb(88,88,88)" /><path d="M 1300 100 L 1375 125 L 1400 200 L 1300 200 Z" fill="rgb(224,32,88)" stroke="rgb(224,32,88)" /><path d="M 1100 1700 L 1175 1725 L 1175 1750 L 1175 1775 L 1125 1825 L 1100 1800 L 1075 1775 Z" fill="rgb(224,32,88)" stroke="rgb(224,32,88)" /><path d="M 200 0 L 250 0 L 300 0 L 300 100 L 200 100 Z" fill="rgb(88,88,88)" stroke="rgb(88,88,88)" /></svg>