<?xml version="1.0" encoding="utf-8" ?>
<svg baseProfile="full" height="100%" version="1.1" width="100%" xmlns="http://www.w3.org/2000/svg" xmlns:ev="http://www.w3.org/2001/xml-events" xmlns:xlink="http://www.w3.org/1999/xlink"><defs /><rect fill="rgb(255,255,255)" height="100%" width="100%" x="0" y="0" /><path d="M 900 0 L 900 0 L 875 75 L 725 125 L 475 375 L 400 400 L 300 400 L 225 425 L 75 575 L 0 600" fill="none" stroke="rgb(0,0,0)" /><path d="M 1375 675 L 1375 675 L 1400 600 L 1375 525 L 1325 475" fill="none" stroke="rgb(0,0,0)" /><path d="M 1175 1775 L 1175 1775 L 1075 1875 L 1000 1900 L 900 1900 L 825 1875 L 725 1775 L 700 1700 L 725 1625 L 800 1600 L 875 1625 L 925 1675 L 1000 1700 L 1100 1700 L 1175 1725 L 1175 1775" fill="none" stroke="rgb(0,0,0)" /><path d="M 1700 300 L 1700 300 L 1725 375 L 1800 400" fill="none" stroke="rgb(0,0,0)" /><path d="M 1025 775 L 1025 775 L 1075 775" fill="none" stroke="rgb(0,0,0)" /><path d="M 600 500 L 600 500 L 575 575 L 500 600 L 300 600" fill="none" stroke="rgb(0,0,0)" /><path d="M 1100 600 L 1100 600 L 1075 675 L 1025 725 L 1025 775" fill="none" stroke="rgb(0,0,0)" /><path d="M 1200 700 L 1200 700 L 1125 725 L 1075 775" fill="none" stroke="rgb(0,0,0)" /><path d="M 775 1025 L 775 1025 L 775 1075" fill="none" stroke="rgb(0,0,0)" /><path d="M 1375 675 L 1375 675 L 1325 675" fill="none" stroke="rgb(0,0,0)" /><path d="M 1325 425 L 1325 425 L 1325 475" fill="none" stroke="rgb(0,0,0)" /><path d="M 1425 925 L 1425 925 L 1475 925" fill="none" stroke="rgb(0,0,0)" /><path d="M 1375 675 L 1375 675 L 1325 675" fill="none" stroke="rgb(0,0,0)" /><path d="M 1100 1500 L 1100 1500 L 1100 1600" fill="none" stroke="rgb(0,0,0)" /><path d="M 775 1025 L 775 1025 L 775 1075" fill="none" stroke="rgb(0,0,0)" /><path d="M 1700 900 L 1700 900 L 1800 900" fill="none" stroke="rgb(0,0,0)" /><path d="M 1325 675 L 1325 675 L 1275 525 L 1125 475 L 1125 425 L 1275 375 L 1325 325 L 1400 300 L 1500 300" fill="none" stroke="rgb(0,0,0)" /><path d="M 1600 1300 L 1600 1300 L 1600 1100 L 1625 1025 L 1700 1000" fill="none" stroke="rgb(0,0,0)" /><path d="M 1600 0 L 1600 0 L 1575 75 L 1500 100 L 1425 75 L 1400 0" fill="none" stroke="rgb(0,0,0)" /><path d="M 1000 200 L 1000 200 L 900 200" fill="none" stroke="rgb(0,0,0)" /><path d="M 1700 1000 L 1700 1000 L 1700 900 L 1725 825 L 1800 800" fill="none" stroke="rgb(0,0,0)" /><path d="M 1075 875 L 1075 875 L 1025 875" fill="none" stroke="rgb(0,0,0)" /><path d="M 1475 925 L 1475 925 L 1475 975" fill="none" stroke="rgb(0,0,0)" /><path d="M 1400 200 L 1400 200 L 1600 200" fill="none" stroke="rgb(0,0,0)" /><path d="M 200 700 L 200 700 L 275 675 L 300 600" fill="none" stroke="rgb(0,0,0)" /><path d="M 1075 875 L 1075 875 L 1025 875" fill="none" stroke="rgb(0,0,0)" /><path d="M 1500 1400 L 1500 1400 L 1600 1400" fill="none" stroke="rgb(0,0,0)" /><path d="M 1325 425 L 1325 425 L 1400 400 L 1475 425 L 1525 575" fill="none" stroke="rgb(0,0,0)" /><path d="M 775 1075 L 775 1075 L 725 1075" fill="none" stroke="rgb(0,0,0)" /><path d="M 900 1500 L 900 1500 L 875 1425 L 725 1275 L 675 1125 L 600 1100 L 500 1100 L 425 1075 L 375 1025 L 300 1000 L 200 1000" fill="none" stroke="rgb(0,0,0)" /><path d="M 200 1000 L 200 1000 L 100 1000" fill="none" stroke="rgb(0,0,0)" /><path d="M 1600 1300 L 1600 1300 L 1525 1325 L 1500 1400 L 1500 1500" fill="none" stroke="rgb(0,0,0)" /><path d="M 1000 1600 L 1000 1600 L 1000 1500" fill="none" stroke="rgb(0,0,0)" /><path d="M 1875 525 L 1875 525 L 1825 525" fill="none" stroke="rgb(0,0,0)" /><path d="M 1425 925 L 1425 925 L 1475 925" fill="none" stroke="rgb(0,0,0)" /><path d="M 1425 975 L 1425 975 L 1475 975" fill="none" stroke="rgb(0,0,0)" /><path d="M 1600 1100 L 1600 1100 L 1700 1100" fill="none" stroke="rgb(0,0,0)" /><path d="M 725 1025 L 725 1025 L 725 1075" fill="none" stroke="rgb(0,0,0)" /><path d="M 2100 600 L 2100 600 L 2000 600" fill="none" stroke="rgb(0,0,0)" /><path d="M 1400 200 L 1400 200 L 1400 300" fill="none" stroke="rgb(0,0,0)" /><path d="M 1700 1000 L 1700 1000 L 1700 1100" fill="none" stroke="rgb(0,0,0)" /><path d="M 925 725 L 925 725 L 1025 625 L 1100 600 L 1175 625 L 1200 700 L 1175 775 L 1075 875" fill="none" stroke="rgb(0,0,0)" /><path d="M 2200 1000 L 2200 1000 L 2125 975 L 2025 875 L 2025 825 L 2125 725 L 2200 700" fill="none" stroke="rgb(0,0,0)" /><path d="M 0 1100 L 0 1100 L 75 1125 L 225 1275 L 375 1325 L 475 1425 L 525 1575 L 575 1625 L 625 1775 L 775 1925 L 800 2000" fill="none" stroke="rgb(0,0,0)" /><path d="M 1025 775 L 1025 775 L 1075 775" fill="none" stroke="rgb(0,0,0)" /><path d="M 1000 100 L 1000 100 L 1000 200" fill="none" stroke="rgb(0,0,0)" /><path d="M 500 500 L 500 500 L 525 425 L 725 225 L 800 200 L 900 200" fill="none" stroke="rgb(0,0,0)" /><path d="M 800 200 L 800 200 L 800 300" fill="none" stroke="rgb(0,0,0)" /><path d="M 1600 400 L 1600 400 L 1675 425 L 1725 575 L 1800 600" fill="none" stroke="rgb(0,0,0)" /><path d="M 800 300 L 800 300 L 900 300 L 975 275 L 1000 200" fill="none" stroke="rgb(0,0,0)" /><path d="M 625 675 L 625 675 L 675 675 L 675 625 L 625 625 L 625 675" fill="none" stroke="rgb(0,0,0)" /><path d="M 725 1025 L 725 1025 L 725 1075" fill="none" stroke="rgb(0,0,0)" /><path d="M 725 1025 L 725 1025 L 775 1025" fill="none" stroke="rgb(0,0,0)" /><path d="M 1425 925 L 1425 925 L 1425 975" fill="none" stroke="rgb(0,0,0)" /><path d="M 1900 100 L 1900 100 L 1925 175 L 1975 225 L 2025 375 L 2100 400" fill="none" stroke="rgb(0,0,0)" /><path d="M 2000 300 L 2000 300 L 2100 300" fill="none" stroke="rgb(0,0,0)" /><path d="M 1525 575 L 1525 575 L 1575 575" fill="none" stroke="rgb(0,0,0)" /><path d="M 1525 575 L 1525 575 L 1575 575" fill="none" stroke="rgb(0,0,0)" /><path d="M 600 1100 L 600 1100 L 625 1175 L 700 1200" fill="none" stroke="rgb(0,0,0)" /><path d="M 900 300 L 900 300 L 900 200" fill="none" stroke="rgb(0,0,0)" /><path d="M 300 600 L 300 600 L 300 500" fill="none" stroke="rgb(0,0,0)" /><path d="M 1025 875 L 1025 875 L 925 775" fill="none" stroke="rgb(0,0,0)" /><path d="M 200 1000 L 200 1000 L 225 1075 L 375 1125 L 425 1175 L 575 1225 L 775 1425 L 800 1500" fill="none" stroke="rgb(0,0,0)" /><path d="M 1325 425 L 1325 425 L 1325 475" fill="none" stroke="rgb(0,0,0)" /><path d="M 1600 400 L 1600 400 L 1600 500 L 1575 575" fill="none" stroke="rgb(0,0,0)" /><path d="M 1800 100 L 1800 100 L 1775 175 L 1700 200 L 1600 200" fill="none" stroke="rgb(0,0,0)" /><path d="M 1900 700 L 1900 700 L 1975 675 L 2025 525 L 2100 500" fill="none" stroke="rgb(0,0,0)" /><path d="M 1600 1200 L 1600 1200 L 1700 1200" fill="none" stroke="rgb(0,0,0)" /><path d="M 1000 200 L 1000 200 L 1400 200" fill="none" stroke="rgb(0,0,0)" /><path d="M 1500 1500 L 1500 1500 L 1575 1475 L 1600 1400 L 1600 1300" fill="none" stroke="rgb(0,0,0)" /><path d="M 1700 1100 L 1700 1100 L 1700 1200 L 1675 1275 L 1600 1300" fill="none" stroke="rgb(0,0,0)" /><path d="M 1425 925 L 1425 925 L 1425 975" fill="none" stroke="rgb(0,0,0)" /><path d="M 1875 525 L 1875 525 L 1900 600 L 1900 700 L 1875 775 L 1800 800" fill="none" stroke="rgb(0,0,0)" /><path d="M 1700 100 L 1700 100 L 1700 200" fill="none" stroke="rgb(0,0,0)" /><path d="M 600 500 L 600 500 L 675 475 L 775 375 L 800 300" fill="none" stroke="rgb(0,0,0)" /><path d="M 900 1500 L 900 1500 L 800 1500 L 725 1475 L 575 1325 L 425 1275 L 375 1225 L 225 1175 L 125 1075 L 100 1000 L 100 700 L 125 625 L 225 525 L 300 500 L 600 500" fill="none" stroke="rgb(0,0,0)" /><path d="M 200 700 L 200 700 L 100 700" fill="none" stroke="rgb(0,0,0)" /><path d="M 1500 1500 L 1500 1500 L 900 1500" fill="none" stroke="rgb(0,0,0)" /><path d="M 1300 200 L 1300 200 L 1300 100" fill="none" stroke="rgb(0,0,0)" /><path d="M 1700 1100 L 1700 1100 L 1775 1075 L 1875 975 L 1925 825 L 2075 675 L 2100 600 L 2100 300 L 2075 225 L 1975 125 L 1900 100 L 1700 100 L 1625 125 L 1600 200" fill="none" stroke="rgb(0,0,0)" /><path d="M 1700 500 L 1700 500 L 1775 475 L 1800 400 L 1775 325 L 1700 300 L 1600 300" fill="none" stroke="rgb(0,0,0)" /><path d="M 1700 1000 L 1700 1000 L 1775 975 L 1800 900 L 1800 800" fill="none" stroke="rgb(0,0,0)" /><path d="M 2200 200 L 2200 200 L 2125 175 L 2025 75 L 2000 0" fill="none" stroke="rgb(0,0,0)" /><path d="M 1500 200 L 1500 200 L 1500 300 L 1525 375 L 1600 400" fill="none" stroke="rgb(0,0,0)" /><path d="M 1800 800 L 1800 800 L 1800 600 L 1825 525" fill="none" stroke="rgb(0,0,0)" /><path d="M 925 725 L 925 725 L 925 775" fill="none" stroke="rgb(0,0,0)" /><path d="M 200 700 L 200 700 L 225 625 L 300 600" fill="none" stroke="rgb(0,0,0)" /><path d="M 925 725 L 925 725 L 925 775" fill="none" stroke="rgb(0,0,0)" /><path d="M 1875 525 L 1875 525 L 1825 525" fill="none" stroke="rgb(0,0,0)" /><path d="M 1600 400 L 1600 400 L 1600 200" fill="none" stroke="rgb(0,0,0)" /><path d="M 1425 975 L 1425 975 L 1475 975" fill="none" stroke="rgb(0,0,0)" /><path d="M 600 500 L 600 500 L 625 425 L 725 325 L 800 300" fill="none" stroke="rgb(0,0,0)" /><path d="M 1100 2000 L 1100 2000 L 1125 1925 L 1325 1725 L 1400 1700 L 1600 1700 L 1675 1725 L 1725 1775 L 1800 1800 L 1875 1775 L 2075 1575 L 2125 1425 L 2200 1400 L 2200 0 L 0 0 L 0 2000 L 1100 2000" fill="none" stroke="rgb(0,0,0)" /><path d="M 200 700 L 200 700 L 200 1000" fill="none" stroke="rgb(0,0,0)" /><path d="M 1500 1500 L 1500 1500 L 1475 1575 L 1400 1600 L 1000 1600 L 925 1575 L 900 1500" fill="none" stroke="rgb(0,0,0)" /><path d="M 1300 1600 L 1300 1600 L 1300 1500" fill="none" stroke="rgb(0,0,0)" /><path d="M 2000 1000 L 2000 1000 L 1975 1075 L 1925 1125 L 1900 1200 L 1900 1300 L 1875 1375 L 1825 1425 L 1775 1575 L 1700 1600 L 1700 1400 L 1725 1325 L 1775 1275 L 1825 1125 L 1925 1025 L 2000 1000" fill="none" stroke="rgb(0,0,0)" /><path d="M 1400 200 L 1400 200 L 1375 125 L 1300 100 L 1000 100 L 925 125 L 900 200" fill="none" stroke="rgb(0,0,0)" /></svg>